746  4  0
    0     169   166   188   205
    1     174   179   191   214
    2     154   168   174   191
    3      28    90    89   183
    4     120   118    22   208
    5     101    68   103   175
    6     171   139   140   141
    7     122   185   123   211
    8     165   104   175   172
    9     158   157   159   179
   10     193   181   201   206
   11     168   164   194   209
   12     196    55   207   215
   13     147   145   146   170
   14     172   107     8   173
   15     161   174   179   191
   16     164   163   212   213
   17     108   165   187   173
   18     101    68   175   197
   19     139   138   137   194
   20     164    79   178   212
   21     186   185   204   211
   22      27    63   197   215
   23     133     8   173   191
   24       7   174   138   198
   25     210   209   213   162
   26     181    41   201   199
   27     190    58    29    92
   28     139    19   114   194
   29       9    11   202   216
   30     150   151   182   186
   31     204   190   208   211
   32      48    47    46   177
   33     158   156   179   182
   34       5   198     4   182
   35     164   168   191   209
   36     169   113   114   205
   37      62   193    61    64
   38      81   111   112   178
   39     136   134   164   168
   40      40   167   187   201
   41     176   196   197   200
   42      19    18   178   194
   43      89    87    50   183
   44      26    74   106   165
   45      50    49    48   177
   46      68   103   175   184
   47     148   147   146   170
   48      70    64   184    66
   49     165   107   173   106
   50      30    50   177   180
   51      27    63    67   197
   52      86   166    87   189
   53      91   118   116   183
   54     164   169   178   194
   55     117    17    88   189
   56     202   175   204   216
   57     180    58    54    29
   58     210   176   204   162
   59      30    52    54   180
   60      81   111   178   188
   61      98    97    99   185
   62       9    11    10   202
   63     133     3     8   191
   64     117    88   116   183
   65      38    45   181   207
   66     162   163   191   209
   67     165   107   106   172
   68     190   204   185   211
   69      78   178    79   212
   70      44    33    31   199
   71     166   169   188   213
   72      86   205    23    84
   73      17   203   117    16
   74      22   118    91   208
   75     176   196   200   207
   76     138   174   153   194
   77      46    52   177   181
   78     188   167   206   213
   79     154     3   135   168
   80      50    48    30   177
   81     104    26   106   165
   82      24    18   164   178
   83      32    83    31   188
   84     157   130   159   179
   85     174   191   209   214
   86     129    21   131   172
   87      94    96    95   190
   88      46    41   181   199
   89      56    57    59   195
   90      68    25   103   184
   91     176   190   210   204
   92       9    10   192   202
   93     163   167   187   212
   94     160   179   161   174
   95     164    18   168   194
   96       0     5     1   182
   97     152     9    10   192
   98     145     6   143   198
   99     123   126   125   192
  100     196   175   197   200
  101     151   150   149   186
  102     203   171   205   210
  103     193    62   207   196
  104     164   133   173   191
  105      71   193   187    72
  106     152    10   157   192
  107     179   174   182   214
  108     146   148   170   208
  109     212   164   173   163
  110     158   156   157   179
  111     153   174   168   194
  112      41   181   201    37
  113     108   109   107   173
  114      81    80    82   178
  115      32   166    49    85
  116     147   148   149   186
  117     136   153   135   168
  118       3   161     2   191
  119      98   123   121   185
  120     176   162   200   204
  121      99   185   197   216
  122     190    58   180    29
  123      75    74    72   187
  124     197   196    68   184
  125      44    31   188   199
  126     216    99   101   197
  127     139   171   194   114
  128      62   193    64   196
  129      75    72    73   187
  130      92    58    94   190
  131      92    90    29   190
  132     187    40    71    73
  133      42   201   199   167
  134      58   190   180   195
  135     173   163   172   165
  136     193   184   196   200
  137     154   161     3   191
  138     175   176   200   204
  139     166   188   199   206
  140      19   112   114   169
  141     136   194    18   137
  142      10   130   157   179
  143     129   127   105   172
  144     160   158   159   179
  145     160     0   158   174
  146     172   162   175   200
  147      39    40    71   201
  148      18    19   137   194
  149      28    50   180   183
  150      98   123   185   216
  151      57    27    60   215
  152      78   178    80    79
  153     136   137   153   168
  154     171   170   209   210
  155     180    58   195    54
  156     185   123   192   216
  157      17    23    86   189
  158     212   173   132   110
  159     170   143   198   145
  160      21   191   172     8
  161      59    96    94   195
  162      69    61    36   193
  163     102   175   202   216
  164     184    64   193   196
  165     176   185   197   215
  166      90    91   183   190
  167     206   176   210   162
  168     206   201   187   167
  169     132   133   109   173
  170     170     4   182   147
  171     110   132   109   173
  172     123   185   186   211
  173     163   165   187   200
  174     166    32    49   177
  175      52   180   181   207
  176      99    27    67   197
  177      13   122   186   211
  178      16   142    15   203
  179      63    55   196   215
  180     140   138   194   198
  181      41   201    39    37
  182     146   170   144   203
  183      66    26    25   184
  184      23   189    15   205
  185      74   108   106   165
  186     166   180   183   210
  187     163   164   191   209
  188     171   115   114   141
  189     169   114   171   205
  190     120   119   118   208
  191     134   133   164   168
  192      13   148    12   186
  193      73    72    71   187
  194       6     5     7   198
  195     127   129   128   202
  196      42   201    41   199
  197      23   115   113   205
  198     119   117   118   203
  199      33    32    31   199
  200     139   171   114   141
  201     180    54   195   207
  202     131   161   179   191
  203      97    27    99   197
  204     185   176   190   195
  205     133     8   109   173
  206     201    42    40   167
  207      34   110   187   212
  208     149   150   182   186
  209     167    80   178   188
  210      72    69    71   193
  211     156   157   179   192
  212     114    19   169   194
  213     170   182   198   214
  214      45    52    46   181
  215     149    13   125   186
  216     195   176   207   215
  217     133   164   168   191
  218     143     6   140   198
  219      97   121    96   185
  220     187   167    35   212
  221      41    47    33   199
  222     148    12   186   208
  223      97    98   121   185
  224      78   167   212    43
  225      11   102   128   202
  226     127   104   172   175
  227      67    63    65   196
  228     165    25   104    26
  229      94    96   190   195
  230     163   173   172   191
  231     194   171   198   209
  232       8     3     2   191
  233     104   106   105   165
  234     158   160   174   179
  235      84   166   189   205
  236       4   198     6   145
  237      93    94    95   190
  238     110    75    34   187
  239     163   165   173   187
  240      28    89    50   183
  241     102   103   127   175
  242     165   108   187    74
  243      97    27   197   215
  244      36   193    71    69
  245     156   152   157   192
  246     174   168   194   209
  247     170   209   210   214
  248      55    62   196   207
  249      32    47   177   199
  250     197   204   176   175
  251     181    38   193   201
  252     169   166   210   213
  253      18   164   178   194
  254      33    44    42   199
  255      80   167   178   212
  256     106   105   165   172
  257      90    28   180   183
  258     184   175   196   200
  259     161   159   131   179
  260     154     3   168   191
  261      95   185    96   121
  262       7   138   140   198
  263     177    46   181   199
  264     166   183   189   210
  265      12   186   208   211
  266     167   187    35    40
  267      86   166    85    87
  268      86   205   189    23
  269     178   167   188   213
  270      28    50    30   180
  271      19   112   169   178
  272       0   182   158   174
  273     185   192   204   216
  274     151   152   156   192
  275      36   193    38   201
  276      64    69    70   193
  277     167    44   188   199
  278      68   196    67    65
  279     137   138   153   194
  280      52    30   177   180
  281      32    83   166    85
  282     170   198     4   145
  283     132    77   164   212
  284      39    71    36   201
  285      77    79   164   212
  286     108    74    75   187
  287      64    70   184   193
  288     176   180   190   195
  289      78   167    43    80
  290     202   129   179   172
  291     165   107   172   173
  292      52    48    46   177
  293       7     0   174   198
  294      91   183   190   208
  295      90    91   116   183
  296     111   113   169   205
  297     102   127   128   202
  298     192     9   202   216
  299     126   151   125   192
  300      36    38    37   201
  301      39    36    37   201
  302      91    90    92   190
  303       5     0     7   198
  304     174   138   153   155
  305      92    94    93   190
  306     185    97   197   215
  307     146   208   119   120
  308     201   206   187   193
  309      47    32    33   199
  310     176   196   207   215
  311     113   111    84   205
  312     144    16   119   203
  313      23   113    84   205
  314      87    50   166   177
  315     167   163   187   206
  316      15   171   115   205
  317      63    55    62   196
  318       1     4   150   182
  319     130   129   131   179
  320      40    35    73   187
  321      62   193   207    61
  322     207   206   193   200
  323      14    12   208   211
  324     210   214   204   170
  325     170   171   203   210
  326      38    45    37   181
  327      77   134   132   164
  328     170   144   143   145
  329     163   172   165   162
  330     165   172   175   200
  331      67    63   196   197
  332       6     7   140   198
  333      20   112    19   178
  334     174     7   138   155
  335     130    10   128   202
  336     177   166   180   183
  337     190   185    95   211
  338     185   190    95    96
  339      47    49    32   177
  340      70    72   187   193
  341     191   162   209   214
  342     210   206   213   166
  343     175   176   197   200
  344     198   170     4   182
  345      65    64    66   184
  346       5     4     1   182
  347      99    98   185   216
  348      43    35   167   212
  349     154   155   160   174
  350      65    63    62   196
  351      63   196   197   215
  352      64    65    62   196
  353      45    46    37   181
  354     215    56    55   207
  355     169   166   205   210
  356      74    26    70   165
  357     162   175   200   204
  358      15   189   203   205
  359     108    75   173   187
  360      80    44    82   188
  361      87   166   183   189
  362      44    80   167   188
  363     193    36    71   201
  364      12   120    22   208
  365      87    89    88   183
  366      81    79    80   178
  367      11   102   202   216
  368     216   197   204   185
  369     103    25   104   184
  370     153   174   154   168
  371      21   191     2   172
  372      84   166    86   189
  373     192   202   204   216
  374     193   207    38   181
  375     163   164   173   191
  376      91    92    93   190
  377     165    25   184   104
  378     185    60   215    96
  379      21   191     8     2
  380      86   205    84   189
  381     171   170   198   209
  382     148   146   120   208
  383     201    42    41    39
  384      40   187    71   201
  385     196   176   197   215
  386     136   194   168    18
  387     170     4   147   145
  388      86    87    88   189
  389     187   165   193   200
  390      88    89   116   183
  391     129   130   128   202
  392     171   140   194   198
  393     166    84   188   205
  394     172   127   175   202
  395      89    90   116   183
  396     182     0   158     1
  397      16   144   142   203
  398     146   144   119   203
  399     208   146   119   203
  400     113   169   114   112
  401     115   171   114   205
  402      15   115    23   205
  403     214   210   204   162
  404     179   160   161   159
  405     113   115   114   205
  406     187   163   200   206
  407     193   187   200   206
  408     209   162   210   214
  409     179   182   192   214
  410      49    87   166   177
  411      70    69    72   193
  412     102   101   103   175
  413      75   110   173   187
  414     198   174   209   214
  415     148   147   170   186
  416     107   172     8    21
  417     136   194   137   168
  418     161   154   174   191
  419     206   210   180   166
  420     186   204   208   211
  421     164   169   194   209
  422      96   185   195   215
  423      95    93   190   211
  424     138   174   194   198
  425     197   204   185   176
  426      12    13   186   211
  427     111   169   188   205
  428     171   169   205   210
  429     192   124   123   126
  430     166   188   206   213
  431     163   172   162   191
  432     169   178   188   213
  433     185   176   195   215
  434     176   200   206   207
  435      65    64   184   196
  436     203   118   183   117
  437     174   194   198   209
  438      91   118   183   208
  439     124     9   192   216
  440      88    87   183   189
  441     196   193   200   207
  442      47    41    46   199
  443     169   171   209   210
  444     196   197    68    67
  445      77    79    24   164
  446     179   172   191   214
  447      84   111   188   205
  448     178   164   212   213
  449     125   151   186   192
  450     163   162   165   200
  451     165   162   172   200
  452      43    40    42   167
  453      45    52   181   207
  454     137   153   168   194
  455     193    71   187   201
  456      81   112    20   178
  457     167   163   206   213
  458      48    52    30   177
  459     169    19   178   194
  460     151   156   182   192
  461      83    32   166   188
  462     170   143   171   198
  463      29    30    54   180
  464     204   190   185   176
  465       0   198   182   174
  466     112   111   169   178
  467     101    67    68   197
  468     186   185   192   204
  469     101   216   102   100
  470     174   158   179   182
  471     144   170   143   171
  472     172   107   106   105
  473      93    91   190   208
  474     111   169   178   188
  475     152   151   126   192
  476     108   110   109   173
  477     104   165   175   184
  478     129   127   172   202
  479      13   122   125   186
  480      46    41    37   181
  481     199   166    32   188
  482     163   167   212   213
  483     198     0   182     5
  484     180    90   183   190
  485      69    64    61   193
  486      60   195   215    96
  487      47    46   177   199
  488     188   167   199   206
  489     156   179   182   192
  490      96   185   190   195
  491     134   135   133   168
  492     148    13   149   186
  493     131   129   172   179
  494      78   178   212    80
  495     105   104   165   172
  496       9   152   126   192
  497      21     2   131   172
  498      49    47    48   177
  499     166   177   180   206
  500      24    20    18   178
  501     163   162   206   213
  502      15   203    17    16
  503      79    24   164   178
  504     151   182   186   192
  505     187    34    35    73
  506     170   147   182   186
  507     143   140   171   198
  508     208    14    93    22
  509     144   143   142   171
  510     162   163   209   213
  511      68    66    25   184
  512     119    16   117   203
  513     134    24   136   164
  514     189   183   203   210
  515     171    15   203   205
  516      42    44   167   199
  517     153   154   135   168
  518     142   144   171   203
  519      24    18   136   164
  520     180   176   206   207
  521      74    70    72   187
  522     133   132   164   173
  523      19   139   137   194
  524     123   125   186   192
  525       2   131   172   191
  526      87    85    49   166
  527     178   209   164   213
  528     103   104   175   184
  529      60    27    97   215
  530     132   134   133   164
  531     162   175   204   214
  532     110   108    75   173
  533     129   202   179   130
  534      90    28    29   180
  535     122   123   125   186
  536       3   135   168   191
  537      54    56    58   195
  538     175    68   184   197
  539     117    88   183   189
  540     118   203   183   208
  541      56    57   195   215
  542     174   153   154   155
  543     151   156   150   182
  544     176   206   210   180
  545      10   130   179   202
  546      10   179   192   202
  547     142   143   141   171
  548     170   198   209   214
  549     138   139   140   194
  550     135   133   168   191
  551     115   142   141   171
  552      37    38   181   201
  553     150   147   149   182
  554     141   143   140   171
  555     127   104   105   172
  556     114   169   171   194
  557      79    81    20   178
  558      81    82   111   188
  559     176   180   195   207
  560     178   209   213   169
  561      50    87    49   177
  562     189   203   205   210
  563     111    83    84   188
  564     206   210   213   162
  565      68   196    65   184
  566       4   147   150   182
  567     172   131   179   191
  568      10    11   128   202
  569     181   180   206   207
  570     156     1   150   182
  571      15   142   171   203
  572     170   148   186   208
  573     163   162   200   206
  574     173   212   187   110
  575     139   171   140   194
  576     166   189   205   210
  577     105   107    21   172
  578      50   166   177   183
  579      26    66    70   184
  580      58    94   190   195
  581     183   117   189   203
  582     170   144   203   171
  583     101    99    67   197
  584     190    93   208   211
  585     197   216   204   175
  586     206   207   193   181
  587      58    59    94   195
  588     212   173   187   163
  589     124     9   126   192
  590     180   177   181   206
  591     162   176   200   206
  592      60   195    96    59
  593     146   170   203   208
  594     106   108   107   173
  595     171    15   115   142
  596     198     5     4     6
  597     109     8   107   173
  598     134   136   135   168
  599     122   185   121   123
  600     151   149   125   186
  601     177    52   180   181
  602      82    44    31   188
  603      17    86    88   189
  604     165   184   193   200
  605      40    43    35   167
  606      42   201    40    39
  607     185    60    97   215
  608      26    70   165   184
  609     127   102   175   202
  610     169   171   194   209
  611      82    83   111   188
  612     175   184   196   197
  613      41    33    42   199
  614      24    79    20   178
  615     170   146   144   145
  616      44    43    42   167
  617     185   123   186   192
  618     216   101   102   175
  619      99   216   101   100
  620     118   117   116   183
  621     170   186   204   208
  622      70    74   165   187
  623      18   136   164   168
  624     172   162   191   214
  625     189    23    15    17
  626      31    32   188   199
  627      29    90   180   190
  628     178   209   169   164
  629      82    81   178   188
  630     111   113   112   169
  631      57    59   195   215
  632     181   177   199   206
  633     199   167   201   206
  634      22    91    93   208
  635     207   193    38    61
  636     161   154   160   174
  637     164   212   173   132
  638      68    65    66   184
  639     134    77    24   164
  640     209   210   213   169
  641     129   105    21   172
  642     103   104   127   175
  643      83    82    31   188
  644     155     0   160   174
  645     167   178   212   213
  646       7     0   155   174
  647       2   161   131   191
  648     168   174   191   209
  649     165    70   187   193
  650      50    87   166   183
  651     166    84    86    85
  652     159   130   131   179
  653      70   165   184   193
  654     118   119   203   208
  655      83   166    84   188
  656     108   106   165   173
  657     170   203   208   210
  658     203   183   208   210
  659     203    15    17   189
  660      43    44    80   167
  661     182   174   198   214
  662      50   177   180   183
  663     122   123   186   211
  664     166   199    32   177
  665      58    56    59   195
  666       1   156   158   182
  667      56   195   207   215
  668     181   199   201   206
  669     165   175   184   200
  670      14    12    22   208
  671     193    36    38    61
  672     157    10   179   192
  673      75    73    34   187
  674      80    82   178   188
  675     163   164   209   213
  676     147   149   182   186
  677      97    99   185   197
  678     135     3   133   191
  679     165    25    26   184
  680       8   172   173   191
  681      83   166    85    84
  682     177   166   199   206
  683      18    20    19   178
  684      28    30    29   180
  685      54    56   195   207
  686      52    54   180   207
  687      55    53    51   207
  688      53    45    51   207
  689      62    55    51   207
  690      52    45    53   207
  691      51    45    38   207
  692      55    56    53   207
  693      61    51    38   207
  694      62    51    61   207
  695      56   215    55    57
  696      56    54    53   207
  697      54    52    53   207
  698     148   120    12   208
  699     204   170   208   210
  700     190   204   208   210
  701     183   190   208   210
  702     183   180   190   210
  703     190   176   210   180
  704      14    93    95   211
  705     122    14    95   211
  706      95   185   121   211
  707     121   122    95   211
  708      14   122    13   211
  709     122   185   211   121
  710      14   208    93   211
  711      14    13    12   211
  712      17   203   189   117
  713      35    43    78   212
  714      76    35    78   212
  715      78   167    80   212
  716      76    78    77   212
  717      35    76    34   212
  718      78    79    77   212
  719      76    77   132   212
  720     110    76   132   212
  721      76   110    34   212
  722      34   187    35   212
  723     175   202   204   214
  724     162   172   175   214
  725     182   170   186   214
  726     182   186   192   214
  727     186   170   204   214
  728     192   186   204   214
  729     179   192   202   214
  730     202   192   204   214
  731     172   179   202   214
  732     175   172   202   214
  733      59    57    60   215
  734      27    57    63   215
  735      60   195    59   215
  736     185    60    96    97
  737      57    55    63   215
  738     175   101   197   216
  739      11   124   100   216
  740     100   124    98   216
  741     102    11   100   216
  742      11     9   124   216
  743     124   123    98   216
  744     100    98    99   216
  745     124   192   123   216
# Generated by F:\tools\tgtest\tetgen.exe -pq1 .414Y F:\PBA\admm_soft\admm-elasticity\resource\trimesh\middle_ball.ply 
