320  1
    0      0     5     1    -1
    1    161     2     3    -1
    2      1     5     4    -1
    3      4     5     6    -1
    4      6     5     7    -1
    5      3     2     8    -1
    6     10     9    11    -1
    7     13    12    14    -1
    8     16    15    17    -1
    9     19    18    20    -1
   10      8     2    21    -1
   11     11     9   124    -1
   12     14    12    22    -1
   13     17    15    23    -1
   14     20    18    24    -1
   15     26    25    66    -1
   16     27    60    57    -1
   17     29    28    30    -1
   18     32    31    33    -1
   19     35    34    73    -1
   20     37    36    38    -1
   21     39    71    36    -1
   22     40    73    71    -1
   23     39    36    37    -1
   24     41    39    37    -1
   25     40    71    39    -1
   26     42    40    39    -1
   27     42    39    41    -1
   28     33    42    41    -1
   29     35    73    40    -1
   30     43    35    40    -1
   31     43    40    42    -1
   32     44    43    42    -1
   33     44    42    33    -1
   34     31    44    33    -1
   35     45    37    38    -1
   36     46    41    37    -1
   37     47    33    41    -1
   38     46    37    45    -1
   39     52    46    45    -1
   40     47    41    46    -1
   41     48    47    46    -1
   42     48    46    52    -1
   43     30    48    52    -1
   44     32    33    47    -1
   45     49    32    47    -1
   46     49    47    48    -1
   47     50    49    48    -1
   48     50    48    30    -1
   49     28    50    30    -1
   50     51    45    38    -1
   51     53    52    45    -1
   52     54    30    52    -1
   53     53    45    51    -1
   54     55    53    51    -1
   55     54    52    53    -1
   56     56    54    53    -1
   57     56    53    55    -1
   58     57    56    55    -1
   59     29    30    54    -1
   60     58    29    54    -1
   61     58    54    56    -1
   62     59    58    56    -1
   63     59    56    57    -1
   64     60    59    57    -1
   65     61    51    38    -1
   66     62    55    51    -1
   67     63    57    55    -1
   68     62    51    61    -1
   69     64    62    61    -1
   70     63    55    62    -1
   71     65    63    62    -1
   72     65    62    64    -1
   73     66    65    64    -1
   74     27    57    63    -1
   75     67    27    63    -1
   76     67    63    65    -1
   77     68    67    65    -1
   78     68    65    66    -1
   79     25    68    66    -1
   80     36    61    38    -1
   81     69    64    61    -1
   82     70    66    64    -1
   83     69    61    36    -1
   84     71    69    36    -1
   85     70    64    69    -1
   86     72    70    69    -1
   87     72    69    71    -1
   88     73    72    71    -1
   89     26    66    70    -1
   90     74    26    70    -1
   91     74    70    72    -1
   92     75    74    72    -1
   93     75    72    73    -1
   94     34    75    73    -1
   95     35    76    34    -1
   96     78    77    76    -1
   97     79    24    77    -1
   98     78    76    35    -1
   99     43    78    35    -1
  100     79    77    78    -1
  101     80    79    78    -1
  102     80    78    43    -1
  103     44    80    43    -1
  104     20    24    79    -1
  105     81    20    79    -1
  106     81    79    80    -1
  107     82    81    80    -1
  108     82    80    44    -1
  109     31    82    44    -1
  110     32    83    31    -1
  111     85    84    83    -1
  112     86    23    84    -1
  113     85    83    32    -1
  114     49    85    32    -1
  115     86    84    85    -1
  116     87    86    85    -1
  117     87    85    49    -1
  118     50    87    49    -1
  119     17    23    86    -1
  120     88    17    86    -1
  121     88    86    87    -1
  122     89    88    87    -1
  123     89    87    50    -1
  124     28    89    50    -1
  125     29    90    28    -1
  126     92    91    90    -1
  127     93    22    91    -1
  128     92    90    29    -1
  129     58    92    29    -1
  130     93    91    92    -1
  131     94    93    92    -1
  132     94    92    58    -1
  133     59    94    58    -1
  134     14    22    93    -1
  135     95    14    93    -1
  136     95    93    94    -1
  137     96    95    94    -1
  138     96    94    59    -1
  139     60    96    59    -1
  140     27    97    60    -1
  141     99    98    97    -1
  142    100   124    98    -1
  143     99    97    27    -1
  144     67    99    27    -1
  145    100    98    99    -1
  146    101   100    99    -1
  147    101    99    67    -1
  148     68   101    67    -1
  149     11   124   100    -1
  150    102    11   100    -1
  151    102   100   101    -1
  152    103   102   101    -1
  153    103   101    68    -1
  154     25   103    68    -1
  155     26   104    25    -1
  156    106   105   104    -1
  157    107    21   105    -1
  158    106   104    26    -1
  159     74   106    26    -1
  160    107   105   106    -1
  161    108   107   106    -1
  162    108   106    74    -1
  163     75   108    74    -1
  164      8    21   107    -1
  165    109     8   107    -1
  166    109   107   108    -1
  167    110   109   108    -1
  168    110   108    75    -1
  169     34   110    75    -1
  170     83    82    31    -1
  171    111    81    82    -1
  172    112    20    81    -1
  173    111    82    83    -1
  174     84   111    83    -1
  175    112    81   111    -1
  176    113   112   111    -1
  177    113   111    84    -1
  178     23   113    84    -1
  179     19    20   112    -1
  180    114    19   112    -1
  181    114   112   113    -1
  182    115   114   113    -1
  183    115   113    23    -1
  184     15   115    23    -1
  185     90    89    28    -1
  186    116    88    89    -1
  187    117    17    88    -1
  188    116    89    90    -1
  189     91   116    90    -1
  190    117    88   116    -1
  191    118   117   116    -1
  192    118   116    91    -1
  193     22   118    91    -1
  194     16    17   117    -1
  195    119    16   117    -1
  196    119   117   118    -1
  197    120   119   118    -1
  198    120   118    22    -1
  199     12   120    22    -1
  200     97    96    60    -1
  201    121    95    96    -1
  202    122    14    95    -1
  203    121    96    97    -1
  204     98   121    97    -1
  205    122    95   121    -1
  206    123   122   121    -1
  207    123   121    98    -1
  208    124   123    98    -1
  209     13    14   122    -1
  210    125    13   122    -1
  211    125   122   123    -1
  212    126   125   123    -1
  213    126   123   124    -1
  214      9   126   124    -1
  215    104   103    25    -1
  216    127   102   103    -1
  217    128    11   102    -1
  218    127   103   104    -1
  219    105   127   104    -1
  220    128   102   127    -1
  221    129   128   127    -1
  222    129   127   105    -1
  223     21   129   105    -1
  224     10    11   128    -1
  225    130    10   128    -1
  226    130   128   129    -1
  227    131   130   129    -1
  228    131   129    21    -1
  229      2   131    21    -1
  230     76   110    34    -1
  231    132   109   110    -1
  232    133     8   109    -1
  233    132   110    76    -1
  234     77   132    76    -1
  235    133   109   132    -1
  236    134   133   132    -1
  237    134   132    77    -1
  238     24   134    77    -1
  239      3     8   133    -1
  240    135     3   133    -1
  241    135   133   134    -1
  242    136   135   134    -1
  243    136   134    24    -1
  244     18   136    24    -1
  245     19   137    18    -1
  246    139   138   137    -1
  247    140     7   138    -1
  248    139   137    19    -1
  249    114   139    19    -1
  250    140   138   139    -1
  251    141   140   139    -1
  252    141   139   114    -1
  253    115   141   114    -1
  254      6     7   140    -1
  255    143     6   140    -1
  256    143   140   141    -1
  257    142   143   141    -1
  258    142   141   115    -1
  259     15   142   115    -1
  260     16   142    15    -1
  261    144   143   142    -1
  262    145     6   143    -1
  263    144   142    16    -1
  264    119   144    16    -1
  265    145   143   144    -1
  266    146   145   144    -1
  267    146   144   119    -1
  268    120   146   119    -1
  269      4     6   145    -1
  270    147     4   145    -1
  271    147   145   146    -1
  272    148   147   146    -1
  273    148   146   120    -1
  274     12   148   120    -1
  275     13   148    12    -1
  276    149   147   148    -1
  277    150     4   147    -1
  278    149   148    13    -1
  279    125   149    13    -1
  280    150   147   149    -1
  281    151   150   149    -1
  282    151   149   125    -1
  283    126   151   125    -1
  284      1     4   150    -1
  285    156     1   150    -1
  286    156   150   151    -1
  287    152   156   151    -1
  288    152   151   126    -1
  289      9   152   126    -1
  290    137   136    18    -1
  291    153   135   136    -1
  292    154     3   135    -1
  293    153   136   137    -1
  294    138   153   137    -1
  295    154   135   153    -1
  296    155   154   153    -1
  297    155   153   138    -1
  298      7   155   138    -1
  299    161     3   154    -1
  300    160   161   154    -1
  301    160   154   155    -1
  302      0   160   155    -1
  303      0   155     7    -1
  304      5     0     7    -1
  305     10   152     9    -1
  306    157   156   152    -1
  307    158     1   156    -1
  308    157   152    10    -1
  309    130   157    10    -1
  310    158   156   157    -1
  311    159   158   157    -1
  312    159   157   130    -1
  313    131   159   130    -1
  314      0     1   158    -1
  315    160     0   158    -1
  316    160   158   159    -1
  317    161   160   159    -1
  318    161   159   131    -1
  319      2   161   131    -1
# Generated by F:\tools\tgtest\tetgen.exe -pq1 .414Y F:\PBA\admm_soft\admm-elasticity\resource\trimesh\middle_ball.ply 
