217  3  0  0
   0    0.203181  -0.147618  -0.96794999999999998
   1    -0.077606999999999995  -0.23885300000000001  -0.96794999999999998
   2    0.723607  -0.525725  -0.44722000000000001
   3    0.81272900000000003  -0.295238  -0.502301
   4    -0.25114700000000001  0  -0.96794899999999995
   5    0  0  -1
   6    -0.077606999999999995  0.23885300000000001  -0.96794999999999998
   7    0.203181  0.147618  -0.96794999999999998
   8    0.86069799999999996  -0.44285799999999997  -0.25115100000000001
   9    -0.27638800000000002  -0.85064899999999999  -0.44722000000000001
  10    -0.029638999999999999  -0.86418399999999995  -0.50230200000000003
  11    -0.15521499999999999  -0.95542199999999999  -0.25115199999999999
  12    -0.89442600000000005  0  -0.447216
  13    -0.83105099999999998  -0.23885300000000001  -0.50229900000000005
  14    -0.95662599999999998  -0.147618  -0.25114900000000001
  15    -0.27638800000000002  0.85064899999999999  -0.44722000000000001
  16    -0.48397099999999998  0.71656500000000001  -0.50230200000000003
  17    -0.43600699999999998  0.86418799999999996  -0.25115199999999999
  18    0.723607  0.525725  -0.44722000000000001
  19    0.531941  0.68171199999999998  -0.50230200000000003
  20    0.68715899999999996  0.68171499999999996  -0.25115199999999999
  21    0.68715899999999996  -0.68171499999999996  -0.25115199999999999
  22    -0.95662599999999998  0.147618  -0.25114900000000001
  23    -0.15521499999999999  0.95542199999999999  -0.25115199999999999
  24    0.86069799999999996  0.44285799999999997  -0.25115100000000001
  25    0.27638800000000002  -0.85064899999999999  0.44722000000000001
  26    0.48397099999999998  -0.71656500000000001  0.50230200000000003
  27    -0.531941  -0.68171199999999998  0.50230200000000003
  28    -0.723607  0.525725  0.44722000000000001
  29    -0.81272900000000003  0.295238  0.502301
  30    -0.60954699999999995  0.44285600000000003  0.65751899999999996
  31    0.27638800000000002  0.85064899999999999  0.44722000000000001
  32    0.029638999999999999  0.86418399999999995  0.50230200000000003
  33    0.232822  0.71656299999999995  0.65751899999999996
  34    0.89442600000000005  0  0.447216
  35    0.83105099999999998  0.23885300000000001  0.50229900000000005
  36    0.25114700000000001  0  0.96794899999999995
  37    0.077606999999999995  0.23885300000000001  0.96794999999999998
  38    0  0  1
  39    0.36180000000000001  0.26286300000000001  0.89442900000000003
  40    0.63819400000000004  0.26286399999999999  0.72360999999999998
  41    0.16245599999999999  0.49999500000000002  0.85065400000000002
  42    0.44720900000000002  0.52572799999999997  0.72361200000000003
  43    0.68818900000000005  0.49999700000000002  0.52573599999999998
  44    0.48397099999999998  0.71656500000000001  0.50230200000000003
  45    -0.203181  0.147618  0.96794999999999998
  46    -0.13819699999999999  0.425319  0.89442999999999995
  47    -0.052789999999999997  0.68818500000000005  0.72361200000000003
  48    -0.36180400000000001  0.58777800000000002  0.72361200000000003
  49    -0.26286900000000002  0.80901199999999995  0.52573800000000004
  50    -0.531941  0.68171199999999998  0.50230200000000003
  51    -0.203181  -0.147618  0.96794999999999998
  52    -0.42532300000000001  0.30901099999999998  0.85065400000000002
  53    -0.44721  0  0.89442900000000003
  54    -0.670817  0.16245699999999999  0.723611
  55    -0.42532300000000001  -0.30901099999999998  0.85065400000000002
  56    -0.670817  -0.16245699999999999  0.723611
  57    -0.60954699999999995  -0.44285600000000003  0.65751899999999996
  58    -0.85064799999999996  0  0.52573599999999998
  59    -0.81272900000000003  -0.295238  0.502301
  60    -0.723607  -0.525725  0.44722000000000001
  61    0.077606999999999995  -0.23885300000000001  0.96794999999999998
  62    -0.13819699999999999  -0.425319  0.89442999999999995
  63    -0.36180400000000001  -0.58777800000000002  0.72361200000000003
  64    0.16245599999999999  -0.49999500000000002  0.85065400000000002
  65    -0.052789999999999997  -0.68818500000000005  0.72361200000000003
  66    0.232822  -0.71656299999999995  0.65751899999999996
  67    -0.26286900000000002  -0.80901199999999995  0.52573800000000004
  68    0.029638999999999999  -0.86418399999999995  0.50230200000000003
  69    0.36180000000000001  -0.26286300000000001  0.89442900000000003
  70    0.44720900000000002  -0.52572799999999997  0.72361200000000003
  71    0.52573000000000003  0  0.85065199999999996
  72    0.63819400000000004  -0.26286399999999999  0.72360999999999998
  73    0.75344199999999995  0  0.65751499999999996
  74    0.68818900000000005  -0.49999700000000002  0.52573599999999998
  75    0.83105099999999998  -0.23885300000000001  0.50229900000000005
  76    0.95662599999999998  0.147618  0.25114900000000001
  77    0.95105799999999996  0.30901299999999998  0
  78    0.86180400000000001  0.42532199999999998  0.27639599999999998
  79    0.80901900000000004  0.58778200000000003  0
  80    0.670821  0.68818900000000005  0.276397
  81    0.58778600000000003  0.80901699999999999  -0
  82    0.43600699999999998  0.86418799999999996  0.25115199999999999
  83    0.15521499999999999  0.95542199999999999  0.25115199999999999
  84    0  1  0
  85    -0.13819899999999999  0.95105499999999998  0.276397
  86    -0.30901600000000001  0.95105700000000004  -0
  87    -0.44721499999999997  0.85064899999999999  0.276397
  88    -0.58778600000000003  0.80901699999999999  -0
  89    -0.68715899999999996  0.68171499999999996  0.25115199999999999
  90    -0.86069799999999996  0.44285799999999997  0.25115100000000001
  91    -0.95105799999999996  0.30901299999999998  0
  92    -0.94721299999999997  0.16245799999999999  0.27639599999999998
  93    -1  -0  9.9999999999999995e-07
  94    -0.94721299999999997  -0.16245799999999999  0.276397
  95    -0.95105799999999996  -0.30901299999999998  -0
  96    -0.86069799999999996  -0.44285799999999997  0.25115100000000001
  97    -0.68715899999999996  -0.68171499999999996  0.25115199999999999
  98    -0.58778600000000003  -0.80901699999999999  0
  99    -0.447216  -0.85064799999999996  0.276397
 100    -0.30901699999999999  -0.95105600000000001  -9.9999999999999995e-07
 101    -0.13819899999999999  -0.95105499999999998  0.276397
 102    0  -1  -0
 103    0.15521499999999999  -0.95542199999999999  0.25115199999999999
 104    0.43600699999999998  -0.86418799999999996  0.25115199999999999
 105    0.58778600000000003  -0.80901699999999999  0
 106    0.67081999999999997  -0.68818999999999997  0.27639599999999998
 107    0.80901900000000004  -0.58778300000000006  -1.9999999999999999e-06
 108    0.86180400000000001  -0.42532300000000001  0.27639399999999997
 109    0.95105799999999996  -0.30901299999999998  -0
 110    0.95662599999999998  -0.147618  0.25114900000000001
 111    0.30901699999999999  0.95105600000000001  -0
 112    0.447216  0.85064799999999996  -0.27639799999999998
 113    0.13819899999999999  0.95105499999999998  -0.27639799999999998
 114    0.26286900000000002  0.80901199999999995  -0.52573800000000004
 115    -0.029638999999999999  0.86418399999999995  -0.50230200000000003
 116    -0.80901800000000001  0.58778300000000006  -0
 117    -0.67081900000000005  0.688191  -0.276397
 118    -0.86180299999999999  0.42532399999999998  -0.27639599999999998
 119    -0.68818900000000005  0.49999700000000002  -0.52573599999999998
 120    -0.83105099999999998  0.23885300000000001  -0.50229900000000005
 121    -0.80901800000000001  -0.58778300000000006  0
 122    -0.86180299999999999  -0.42532399999999998  -0.27639599999999998
 123    -0.67081900000000005  -0.688191  -0.276397
 124    -0.43600699999999998  -0.86418799999999996  -0.25115199999999999
 125    -0.68818900000000005  -0.49999700000000002  -0.52573599999999998
 126    -0.48397099999999998  -0.71656500000000001  -0.50230200000000003
 127    0.30901699999999999  -0.95105600000000001  0
 128    0.13819899999999999  -0.95105499999999998  -0.27639799999999998
 129    0.447216  -0.85064799999999996  -0.27639799999999998
 130    0.26286900000000002  -0.80901199999999995  -0.52573800000000004
 131    0.531941  -0.68171199999999998  -0.50230200000000003
 132    1  0  0
 133    0.94721299999999997  -0.16245799999999999  -0.27639599999999998
 134    0.94721299999999997  0.16245799999999999  -0.27639599999999998
 135    0.85064799999999996  0  -0.52573599999999998
 136    0.81272900000000003  0.295238  -0.502301
 137    0.60954699999999995  0.44285600000000003  -0.65751899999999996
 138    0.42532300000000001  0.30901099999999998  -0.85065400000000002
 139    0.36180299999999999  0.58777900000000005  -0.72361200000000003
 140    0.13819699999999999  0.425321  -0.89442900000000003
 141    0.052789000000000003  0.68818599999999996  -0.723611
 142    -0.232822  0.71656299999999995  -0.65751899999999996
 143    -0.16245599999999999  0.49999500000000002  -0.85065400000000002
 144    -0.44721100000000003  0.52572700000000006  -0.72361200000000003
 145    -0.36180099999999998  0.26286300000000001  -0.89442900000000003
 146    -0.63819499999999996  0.26286300000000001  -0.72360899999999995
 147    -0.52573000000000003  0  -0.85065199999999996
 148    -0.75344199999999995  0  -0.65751499999999996
 149    -0.63819499999999996  -0.26286399999999999  -0.72360899999999995
 150    -0.36180099999999998  -0.26286399999999999  -0.894428
 151    -0.44721100000000003  -0.525729  -0.72360999999999998
 152    -0.232822  -0.71656299999999995  -0.65751899999999996
 153    0.670817  0.16245699999999999  -0.723611
 154    0.67081800000000003  -0.16245799999999999  -0.72360999999999998
 155    0.44721100000000003  -9.9999999999999995e-07  -0.894428
 156    -0.16245599999999999  -0.49999500000000002  -0.85065400000000002
 157    0.052789999999999997  -0.68818500000000005  -0.72361200000000003
 158    0.13819899999999999  -0.425321  -0.89442900000000003
 159    0.36180499999999999  -0.58777900000000005  -0.723611
 160    0.42532300000000001  -0.30901099999999998  -0.85065400000000002
 161    0.60954699999999995  -0.44285600000000003  -0.65751899999999996
 162    0.10244204532794964  -0.11564035487579985  0.027745504190227845
 163    0.45808262911135356  -0.039389163578351247  0.09994995831576281
 164    0.64674001125630531  0.20834871418684014  -0.16960104582549673
 165    0.42828493390532507  -0.45790198392546527  0.27794949870638369
 166    -0.13024598294379588  0.60154476992528194  0.20063999518454126
 167    0.46681284202131562  0.34086504899643777  0.39100704547384824
 168    0.63593400448454629  0.095900963348215296  -0.47543798914162472
 169    0.22609524174718734  0.54203647310656788  -0.20039568871987812
 170    -0.30403221760217014  0.12592764913575705  -0.53220053991866667
 171    -0.045468084601084334  0.49248162098325171  -0.53823518964477746
 172    0.41781920962404939  -0.5165044232866367  -0.086064859406745006
 173    0.71638807016572026  -0.2587593044716458  0.077217390733481883
 174    0.31315148431599771  -0.072003364917491972  -0.6641294055553123
 175    0.013191123214648083  -0.58068217552309942  0.14334144973552962
 176    -0.2718211831055225  -0.19564869510659674  0.2639087744420458
 177    -0.23054502119323617  0.523998586088256  0.512876482000862
 178    0.52316419961488414  0.53187972652740068  -0.062444782847980017
 179    0.19705466827772972  -0.49852809573079232  -0.53219948362617786
 180    -0.44897866711073847  0.24113152938163007  0.40775472776011457
 181    -0.054021719374158103  0.20488039257531213  0.70261949710845795
 182    -0.16062307397554174  -0.19579557619553367  -0.72571918362991472
 183    -0.56007321282438849  0.4855531761510844  0.085975527967788609
 184    0.14657604128512439  -0.61621833004646676  0.4677545555625896
 185    -0.53337652590939244  -0.4619289508823467  0.080023740514212793
 186    -0.52677441438432759  -0.24539799928804173  -0.44948792537891563
 187    0.56477198449170996  -0.099714094632549918  0.45832976820889065
 188    0.23217650100902759  0.65756862394359961  0.20469061538967109
 189    -0.32352743304366599  0.71890834687790939  -0.10500411949951471
 190    -0.68713628991093856  0.0056117014536738487  0.15063339805455442
 191    0.53409163814518434  -0.23649226057331432  -0.32485553688356672
 192    -0.27023686441283962  -0.55470057476945978  -0.42274922881396659
 193    0.19219614820969216  -0.20758541379415155  0.67071334912179548
 194    0.39702004114593731  0.3652466933436615  -0.52910045654581161
 195    -0.6274276711893243  -0.1640221768619364  0.43434447474917542
 196    -0.1285648520616976  -0.46611007552069533  0.55495960923832877
 197    -0.26440421604866654  -0.58795893294931834  0.31574537466967428
 198    0.037282817723628701  0.153858884347925  -0.7362367762237596
 199    0.14856101801372276  0.49535774445256958  0.57708188745392386
 200    0.071649905390545846  -0.27283775142953964  0.29399880213893254
 201    0.28292231638672283  0.1534165637902116  0.72024703051039662
 202    0.026019528433256733  -0.69550601204277007  -0.23557304730358614
 203    -0.43085875104099558  0.50824560925991014  -0.38688601682026824
 204    -0.28709917068603219  -0.25189714862384116  -0.06809040195060434
 205    -0.039304081624495911  0.70807733700324371  -0.22763584896667469
 206    0.064395452370033773  0.15700984958022463  0.35326036279185874
 207    -0.25364862820984946  -0.093680570432517388  0.67483575749066615
 208    -0.67026915753883876  0.136938179001133  -0.27457117461735703
 209    0.22954489281872423  0.15317201853776405  -0.2878215576498056
 210    -0.19202176981329788  0.24110028508247139  -0.083692836352113678
 211    -0.75269166977284918  -0.23031819181952901  -0.14936875678735856
 212    0.71270941042532798  0.22168304156132768  0.20850402952488861
 213    0.2666234041759627  0.28236224775876867  0.059930178846671872
 214    -0.00047547051335365773  -0.20210536133372486  -0.32068112216636874
 215    -0.51283555498925792  -0.40661212113950473  0.47523848541841734
 216    -0.28879875189424614  -0.72777247510780696  -0.060134245011712606
# Generated by F:\tools\tgtest\tetgen.exe -pq1 .414Y F:\PBA\admm_soft\admm-elasticity\resource\trimesh\middle_ball.ply 
