$MeshFormat
4.1 0 8
$EndMeshFormat
$Entities
0 0 1 1
1 -0.5357769999999999 -1 -0.7 0.5357769999999999 0.999547 0.7 0 0 
1 -0.5357769999999999 -1 -0.7 0.5357769999999999 0.999547 0.7 0 1 1 
$EndEntities
$Nodes
2 6 1 6
2 1 0 6
1
2
3
4
5
6
-0.5357769999999999 -1 -0.7
-0.5357769999999999 -1 0.7
0 0.999547 -0.7
0.5357769999999999 -1 -0.7
0.5357769999999999 -1 0.7
0 0.999547 0.7
3 1 0 0
$EndNodes
$Elements
2 11 1 11
2 1 2 8
1 2 1 4 
2 1 2 6 
3 3 4 1 
4 1 6 3 
5 2 4 5 
6 6 2 5 
7 6 4 3 
8 6 5 4 
3 1 4 3
9 5 2 6 4 
10 2 1 6 4 
11 1 3 6 4 
$EndElements
