# Blender 3.3.0
# www.blender.org
mtllib 6point_wider.mtl
o Cube
v -0.535777 -1.000000 -1.100000
v -0.535777 -1.000000 1.100000
v 0.000000 0.999547 -1.100000
v 0.535777 -1.000000 -1.100000
v 0.535777 -1.000000 1.100000
v 0.000000 0.999547 1.100000
vn -0.0000 -0.0000 -1.0000
vn -0.0000 -0.0000 1.0000
vn -0.0000 -1.0000 -0.0000
vn -0.9659 0.2588 -0.0000
vn 0.9659 0.2588 -0.0000
vt 0.375000 0.279326
vt 0.154326 0.500000
vt 0.188131 0.527320
vt 0.375000 0.970675
vt 0.154326 0.750000
vt 0.188131 0.722680
vt 0.624943 0.375000
vt 0.339019 0.527320
vt 0.160981 0.527320
vt 0.375000 0.470675
vt 0.345674 0.500000
vt 0.311869 0.527320
vt 0.375000 0.779326
vt 0.345674 0.750000
vt 0.311869 0.722680
vt 0.624943 0.875000
vt 0.339020 0.722680
vt 0.160981 0.722680
s 0
usemtl 
f 3/7/1 4/10/1 1/1/1
f 6/16/2 2/4/2 5/13/2
f 2/5/3 1/2/3 4/11/3 5/14/3
f 1/3/4 2/6/4 6/17/4 3/8/4
f 6/18/5 5/15/5 4/12/5 3/9/5
