$MeshFormat
4.1 0 8
$EndMeshFormat
$Entities
0 0 1 1
1 -7 -1 -0.5 7 1 0.5 0 0 
1 -7 -1 -0.5 7 1 0.5 0 1 1 
$EndEntities
$Nodes
2 190 1 190
2 1 0 190
1
2
3
4
5
6
7
8
9
10
11
12
13
14
15
16
17
18
19
20
21
22
23
24
25
26
27
28
29
30
31
32
33
34
35
36
37
38
39
40
41
42
43
44
45
46
47
48
49
50
51
52
53
54
55
56
57
58
59
60
61
62
63
64
65
66
67
68
69
70
71
72
73
74
75
76
77
78
79
80
81
82
83
84
85
86
87
88
89
90
91
92
93
94
95
96
97
98
99
100
101
102
103
104
105
106
107
108
109
110
111
112
113
114
115
116
117
118
119
120
121
122
123
124
125
126
127
128
129
130
131
132
133
134
135
136
137
138
139
140
141
142
143
144
145
146
147
148
149
150
151
152
153
154
155
156
157
158
159
160
161
162
163
164
165
166
167
168
169
170
171
172
173
174
175
176
177
178
179
180
181
182
183
184
185
186
187
188
189
190
-7 1 0.5
7 -1 0.5
7 1 0.5
-7 -1 -0.5
7 -1 -0.5
-7 -1 0.5
-7 1 -0.5
7 1 -0.5
3.017212 -1 -0.5
-0.3650818 1 0.5
1.020264 -1 -0.5
-1.243523 1 0.5
-0.8476562 -1 -0.5
-3.825335 -1 7.447422999999999e-05
-1.404691 0.460227 -0.5
-5.418708 0.319906 0.5
-4.695893 -1 0.002017713
-2.98558 0.0305678 0.5
-3.914273 -0.3383524 -0.5
0.109375 -1 -0.5
3.691406 -1 -0.5
0.5238037 1 0.5
-4.450893 -1 -0.5
-2.788914 0.1849804 -0.5
6.323242 -1 -0.5
3.843593 1 0.5
4.641602 1 0.5
-2.861694 1 -0.5
-4.935547 -1 0.5
2.55792 0.3215012 0.5
2.018311 -1 -0.5
-5.309189 -1 -0.5
4.614258 -1 -0.5
1.449219 1 0.5
5.499512 -1 -0.5
-5.605469 1 -0.5
2.385742 -1 0.5
6.219341 -0.5272866 -0.5
-4.416016 1 0.5
-3.407715 1 0.5
2.513062 1 -0.5
0.765625 1 -0.5
-1.987549 1 -0.5
-3.691406 1 -0.5
-4.686035 1 -0.5
-4.210938 -1 0.5
-2.327637 -1 0.5
-1.372314 -1 0.5
0.4152832 -1 0.5
1.438965 -1 0.5
5.026123 -1 0.5
4.174408 -1 0.5
3.030136 1 0.5
-4.474866 0.4814691 0.5
2.161865 1 0.5
-3.901515 -0.1393955 0.5
-6.212973 -0.5516189 0.5
-5.515051 -1 0.01379491
-4.749701 -0.2902885 0.5
-0.3986206 -1 0.5
-0.1148265 -0.3474879 0.5
1.754358 0.3216427 0.5
4.257381 1 -0.5
-6.31109 -1 0.08477475
-5.71244 -1 0.5
-2.909555 -1 -0.0004258817
-7 0.01196289 0.5
-2.122582 -0.1077967 0.5
-7 0.1082649 -0.5
7 -0.1395051 -0.5
-3.212036 -1 0.5
-0.8429565 1 -0.5
-6.087402 1 0.5
3.314842 -1 0.5
-2.465521 1 0.5
5.525756 1 -0.5
-0.03866577 1 -0.5
6.13624 0.2788144 -0.5
6.262878 1 -0.5
6.257942 -0.3311856 0.5
-6.323715 0.1276845 0.5
3.385221 1 -0.5
1.639343 1 -0.5
5.628674 -0.2334036 -0.5
4.551523 0.3507156 -0.5
-4.260458 0.3357235 -0.5
5.239433 -1 -0.003437148
1.330273 -1 0.018603
-3.911865 1 0.5
0.1611412 0.3316568 0.5
0.1968261 1 -0.01240166
0.9271239999999999 -1 0.5
0.6001917 -1 0.003183292
0.6464128 -0.3227772 -0.5
4.388572 1 0
3.387635 0.3296813 0.5
-3.604992 0.4918723 0.5
-2.953268 0.5962489 0.5
4.97652 0.3469287 0.5
-2.191716 0.3468803 -0.5
-1.394523 -0.2922809 0.5
2.917674 -0.3424622 0.5
-5.320923 1 0.5
-1.990697 -1 -0.0005992813
-5.005992 1 0.0003778068
-2.657757 -0.5382284000000001 0.5
-5.127363 0.3461117 -0.5
5.264526 1 0.5
-5.794904 1 4.715497e-05
-4.202895 1 0.00268786
-2.349917 -0.3414033 -0.5
-2.60022 -1 -0.5
-1.66925 -1 -0.5
-1.080204 -1 -0.0003090711
2.705481 -1 0.01836324
-3.432434 0.3051185 -0.5
4.37567 -1 -0.000736607
2.064109 -0.3466012 0.5
-0.2011639 -1 0.000391133
-3.10154 -0.3656888 -0.5
-1.080314 -0.2798787 -0.5
3.542097 -1 0.002771418
0.2829881 0.3493341 -0.5
-1.741286 -0.1731099 -0.5
2.774925 1 -7.586457e-05
4.956677 -0.2996281 -0.5
5.918213 -1 0.5
1.078557 1 -0.002148255
-2.312287 0.474573 0.5
1.935448 1 -0.0004031752
1.298091 -0.3417886 0.5
3.613959 1 -1.134455e-05
-6.485703 -1 0.5
-1.958791 -0.5998379 0.5
-1.415253 1 -0.5
-3.497204 1 0.01738312
-0.245523 -0.3115274 -0.5
-0.5589433 0.3696681 -0.5
4.196447 0.3419995 0.5
-2.902135 1 0.1055763
5.4253 -0.3222502 0.5
4.587085 -0.3191702 0.5
-0.758668 1 -0.07402868999999999
-1.854522 1 0.5
3.763301 -0.3312117 0.5
-2.276981 1 0.01553687
-7 -0.3357705 0.08334424
-1.590074 1 -0.009542645000000001
7 0.3212144 -0.07979984
7 -0.3634272 -0.01180943
6.165588 1 0.5
5.793821 1 0
-5.908723 0.3652939 -0.5
6.449652 0.3987418 0.5
-4.762093 -0.3248759 -0.5
2.490084 -0.3332493 -0.5
1.158311 0.3386392 -0.5
2.926126 0.3349313 -0.5
3.767253 0.3395776 -0.5
3.340826 -0.3300115 -0.5
1.566587 -0.3317018 -0.5
2.052173 0.3333358 -0.5
4.891569 1 -0.5
7 0 0.5
-6.302734 1 -0.5
-6.438164 1 5.93241e-06
-5.59449 -0.3117123 -0.5
5.084891 1 0
-3.390714 -0.5319266 0.5
0.9704601 0.3296993 0.5
-6.356265 -0.2436129 -0.5
0.6142519 -0.3325191 0.5
-1.568077 0.3698606 0.5
6.446744 1 0
4.151875 -0.3217719 -0.5
-5.557396 -0.3980833 0.5
1.9744 -1 0.1075843
-7 -0.4940186 0.5
-6.508743 0.4354826 -0.5
-6.168871 -1 -0.5
5.288422 0.3611959 -0.5
-0.7288833 0.2538371 0.5
-7 0.358629 0.01448998
7 0.4302474 -0.5
-3.555717 -1 -0.5
5.773464 0.337346 0.5
6.459106 -1 0.5
6.588611 -1 -0.002076047
6.024442 -1 -0.00537741
-0.8089498000000001 -0.4719042 0.5
3 1 0 0
$EndNodes
$Elements
2 824 1 824
2 1 2 376
1 7 1 166 
2 1 7 183 
3 81 1 67 
4 1 183 67 
5 73 1 81 
6 166 1 73 
7 2 5 150 
8 2 188 5 
9 2 150 164 
10 2 164 187 
11 2 187 188 
12 3 149 8 
13 8 174 3 
14 164 149 3 
15 154 3 151 
16 174 151 3 
17 3 154 164 
18 6 4 64 
19 147 4 6 
20 180 64 4 
21 4 147 69 
22 171 4 69 
23 180 4 171 
24 5 25 38 
25 5 188 25 
26 38 70 5 
27 70 150 5 
28 133 6 64 
29 178 6 133 
30 6 178 147 
31 179 69 7 
32 69 183 7 
33 165 7 166 
34 179 7 165 
35 8 79 174 
36 8 184 79 
37 8 149 184 
38 122 9 21 
39 9 160 21 
40 115 31 9 
41 31 156 9 
42 9 122 115 
43 156 160 9 
44 143 12 10 
45 12 182 10 
46 10 90 22 
47 91 10 22 
48 90 10 182 
49 10 91 143 
50 93 20 11 
51 20 94 11 
52 88 11 31 
53 11 161 31 
54 11 88 93 
55 11 94 161 
56 148 12 143 
57 144 12 148 
58 144 173 12 
59 12 173 182 
60 20 119 13 
61 13 137 20 
62 113 13 114 
63 113 121 13 
64 13 119 114 
65 137 13 121 
66 14 17 23 
67 14 46 17 
68 14 23 185 
69 46 14 71 
70 71 14 66 
71 185 66 14 
72 43 15 100 
73 135 15 43 
74 72 15 135 
75 72 138 15 
76 100 15 124 
77 124 15 121 
78 138 121 15 
79 59 54 16 
80 103 16 54 
81 59 16 176 
82 16 73 81 
83 16 103 73 
84 176 16 81 
85 23 17 32 
86 46 29 17 
87 17 29 58 
88 32 17 58 
89 18 97 56 
90 56 169 18 
91 106 68 18 
92 129 18 68 
93 97 18 98 
94 18 129 98 
95 18 169 106 
96 23 155 19 
97 23 19 185 
98 19 86 116 
99 86 19 155 
100 116 120 19 
101 19 120 185 
102 20 93 119 
103 20 137 94 
104 33 117 21 
105 21 175 33 
106 21 117 122 
107 160 175 21 
108 128 22 34 
109 22 170 34 
110 90 170 22 
111 22 128 91 
112 32 155 23 
113 28 100 24 
114 28 24 116 
115 24 100 111 
116 120 24 111 
117 120 116 24 
118 25 35 38 
119 25 189 35 
120 189 25 188 
121 26 27 95 
122 139 27 26 
123 53 96 26 
124 26 132 53 
125 132 26 95 
126 139 26 96 
127 95 27 168 
128 108 27 99 
129 27 139 99 
130 27 108 168 
131 28 43 100 
132 28 146 43 
133 116 44 28 
134 28 44 136 
135 136 140 28 
136 146 28 140 
137 59 29 46 
138 65 58 29 
139 59 176 29 
140 65 29 176 
141 55 30 53 
142 96 53 30 
143 55 62 30 
144 62 118 30 
145 102 96 30 
146 30 118 102 
147 31 177 88 
148 31 115 177 
149 161 156 31 
150 32 58 180 
151 32 167 155 
152 180 167 32 
153 35 87 33 
154 126 35 33 
155 33 87 117 
156 33 175 126 
157 34 62 55 
158 55 130 34 
159 62 34 170 
160 128 34 130 
161 38 35 84 
162 84 35 126 
163 35 189 87 
164 36 105 45 
165 36 45 107 
166 109 105 36 
167 107 153 36 
168 36 165 109 
169 153 165 36 
170 118 50 37 
171 50 177 37 
172 74 102 37 
173 37 115 74 
174 118 37 102 
175 115 37 177 
176 70 38 78 
177 84 78 38 
178 54 89 39 
179 103 54 39 
180 110 39 89 
181 103 39 105 
182 110 105 39 
183 98 75 40 
184 75 140 40 
185 40 89 97 
186 136 89 40 
187 40 97 98 
188 40 140 136 
189 41 125 82 
190 82 158 41 
191 83 130 41 
192 162 83 41 
193 41 130 125 
194 162 41 158 
195 77 91 42 
196 42 123 77 
197 42 128 83 
198 42 83 157 
199 128 42 91 
200 123 42 157 
201 43 148 135 
202 146 148 43 
203 44 86 45 
204 44 45 110 
205 44 116 86 
206 44 110 136 
207 86 107 45 
208 45 105 110 
209 56 59 46 
210 169 56 46 
211 71 169 46 
212 47 104 48 
213 134 47 48 
214 66 47 71 
215 104 47 66 
216 47 106 71 
217 47 134 106 
218 48 114 60 
219 60 190 48 
220 134 48 101 
221 190 101 48 
222 104 114 48 
223 49 61 60 
224 119 49 60 
225 61 49 172 
226 92 49 93 
227 49 92 172 
228 49 119 93 
229 50 92 88 
230 50 88 177 
231 92 50 131 
232 50 118 131 
233 52 117 51 
234 52 51 142 
235 87 51 117 
236 51 87 127 
237 141 51 127 
238 142 51 141 
239 74 122 52 
240 52 145 74 
241 117 52 122 
242 52 142 145 
243 53 125 55 
244 125 53 132 
245 59 56 54 
246 56 97 54 
247 89 54 97 
248 130 55 125 
249 57 133 65 
250 57 65 176 
251 57 176 81 
252 178 57 81 
253 133 57 178 
254 58 65 64 
255 180 58 64 
256 60 61 190 
257 119 60 114 
258 172 90 61 
259 182 61 90 
260 61 182 190 
261 118 62 131 
262 170 131 62 
263 82 132 63 
264 63 159 82 
265 159 63 85 
266 163 85 63 
267 95 63 132 
268 63 95 163 
269 65 133 64 
270 66 112 104 
271 112 66 185 
272 81 67 178 
273 178 67 147 
274 147 67 183 
275 101 68 134 
276 101 173 68 
277 68 106 134 
278 129 68 173 
279 183 69 147 
280 179 171 69 
281 70 78 184 
282 149 150 70 
283 184 149 70 
284 169 71 106 
285 72 77 138 
286 72 143 77 
287 135 143 72 
288 73 103 109 
289 109 166 73 
290 102 74 145 
291 122 74 115 
292 75 98 129 
293 75 129 144 
294 140 75 146 
295 75 144 146 
296 79 78 76 
297 78 181 76 
298 79 76 152 
299 168 152 76 
300 163 168 76 
301 181 163 76 
302 77 143 91 
303 123 138 77 
304 79 184 78 
305 78 84 181 
306 79 152 174 
307 141 127 80 
308 80 127 187 
309 141 80 186 
310 164 154 80 
311 154 186 80 
312 164 80 187 
313 82 125 132 
314 82 159 158 
315 83 128 130 
316 157 83 162 
317 181 84 126 
318 126 175 85 
319 85 181 126 
320 85 175 159 
321 85 163 181 
322 86 155 107 
323 87 189 127 
324 88 92 93 
325 110 89 136 
326 90 172 170 
327 92 131 172 
328 94 137 123 
329 94 123 157 
330 94 157 161 
331 95 168 163 
332 96 102 145 
333 145 139 96 
334 108 99 186 
335 142 99 139 
336 141 99 142 
337 186 99 141 
338 100 124 111 
339 182 173 101 
340 190 182 101 
341 103 105 109 
342 113 104 112 
343 113 114 104 
344 167 153 107 
345 155 167 107 
346 108 151 152 
347 151 108 186 
348 108 152 168 
349 165 166 109 
350 112 111 113 
351 120 111 112 
352 111 124 113 
353 185 120 112 
354 124 121 113 
355 138 137 121 
356 137 138 123 
357 127 189 187 
358 129 173 144 
359 172 131 170 
360 148 143 135 
361 145 142 139 
362 144 148 146 
363 150 149 164 
364 151 174 152 
365 186 154 151 
366 153 179 165 
367 167 171 153 
368 153 171 179 
369 158 160 156 
370 162 158 156 
371 162 156 161 
372 157 162 161 
373 159 160 158 
374 159 175 160 
375 171 167 180 
376 187 189 188 
3 1 4 448
377 98 24 140 129 
378 146 140 24 129 
379 140 116 24 98 
380 90 172 61 123 
381 85 142 139 175 
382 123 172 61 94 
383 131 172 170 94 
384 159 139 145 175 
385 123 170 172 94 
386 116 140 136 98 
387 172 90 170 123 
388 84 80 141 189 
389 186 80 141 84 
390 139 99 142 85 
391 170 62 131 157 
392 85 99 142 126 
393 138 182 61 90 
394 155 17 19 59 
395 168 152 186 181 
396 157 131 170 94 
397 56 19 17 59 
398 61 172 93 94 
399 139 159 85 175 
400 181 186 141 84 
401 24 18 120 106 
402 19 120 116 56 
403 119 61 93 94 
404 157 62 131 161 
405 158 96 102 160 
406 19 17 14 56 
407 159 145 96 160 
408 120 111 24 106 
409 99 95 168 85 
410 80 186 78 84 
411 181 141 99 126 
412 142 145 139 175 
413 99 186 141 181 
414 186 99 168 181 
415 137 138 182 61 
416 61 137 123 94 
417 96 139 145 159 
418 16 107 59 176 
419 19 120 56 169 
420 85 142 175 126 
421 93 172 131 94 
422 107 16 167 176 
423 182 121 137 190 
424 173 124 15 101 
425 84 141 181 126 
426 99 139 95 85 
427 59 155 17 58 
428 145 159 175 160 
429 30 96 102 158 
430 167 16 153 176 
431 141 142 99 126 
432 96 145 102 160 
433 98 18 24 129 
434 190 137 182 61 
435 155 59 176 58 
436 123 157 170 94 
437 120 116 56 169 
438 159 95 139 85 
439 86 136 110 97 
440 182 138 10 90 
441 85 181 99 126 
442 181 99 168 85 
443 167 155 176 58 
444 189 84 80 38 
445 18 24 129 68 
446 96 158 159 160 
447 93 131 88 94 
448 61 119 137 94 
449 118 62 30 162 
450 170 128 157 123 
451 158 102 30 156 
452 116 120 18 169 
453 134 104 124 101 
454 94 157 131 161 
455 162 30 118 156 
456 62 128 130 157 
457 87 84 141 189 
458 124 121 15 101 
459 80 78 150 38 
460 24 100 129 68 
461 15 121 138 182 
462 90 138 10 91 
463 62 130 162 157 
464 100 148 146 129 
465 118 62 162 161 
466 91 128 170 123 
467 138 121 137 182 
468 157 162 62 161 
469 62 118 131 161 
470 116 18 24 98 
471 81 167 153 176 
472 17 14 56 46 
473 139 132 95 159 
474 154 152 174 78 
475 104 114 124 101 
476 137 114 119 190 
477 59 17 56 46 
478 58 57 167 64 
479 86 116 136 97 
480 86 116 97 56 
481 62 170 128 157 
482 158 132 96 159 
483 98 136 116 97 
484 102 158 160 156 
485 162 125 30 158 
486 173 15 143 182 
487 78 80 84 38 
488 139 96 132 159 
489 94 131 88 161 
490 30 130 125 162 
491 20 119 93 94 
492 100 124 173 68 
493 176 81 167 57 
494 15 143 148 173 
495 96 125 132 158 
496 100 148 129 173 
497 177 88 131 161 
498 91 170 90 123 
499 30 162 158 156 
500 24 100 146 129 
501 92 172 131 93 
502 175 122 145 160 
503 142 145 175 117 
504 56 54 86 59 
505 109 166 153 81 
506 30 102 118 156 
507 152 186 181 78 
508 96 30 125 158 
509 114 137 121 190 
510 145 122 102 160 
511 56 116 18 169 
512 177 131 118 161 
513 116 86 19 56 
514 186 181 78 84 
515 154 80 186 78 
516 91 90 138 123 
517 141 142 126 87 
518 130 30 62 162 
519 100 124 15 173 
520 179 153 166 81 
521 81 153 16 176 
522 190 182 121 101 
523 153 16 167 107 
524 111 106 134 68 
525 175 145 122 117 
526 101 124 134 68 
527 98 116 18 97 
528 156 177 118 161 
529 57 167 176 58 
530 54 16 107 59 
531 152 154 186 78 
532 107 153 16 109 
533 140 24 28 146 
534 97 116 18 56 
535 114 121 124 101 
536 105 107 86 54 
537 143 138 10 182 
538 81 171 167 57 
539 122 115 102 160 
540 15 138 143 182 
541 173 124 101 68 
542 173 129 100 68 
543 142 175 126 117 
544 88 92 131 93 
545 144 146 148 129 
546 104 114 113 124 
547 54 86 110 97 
548 153 171 167 81 
549 106 104 111 134 
550 117 126 142 87 
551 148 143 12 173 
552 152 186 108 168 
553 118 162 156 161 
554 148 100 15 173 
555 100 24 111 68 
556 124 111 134 68 
557 105 16 107 54 
558 143 10 138 91 
559 188 80 150 38 
560 119 20 137 94 
561 160 115 102 156 
562 29 59 17 58 
563 190 119 137 61 
564 126 84 141 87 
565 109 153 16 81 
566 57 171 167 64 
567 105 107 16 109 
568 157 128 42 123 
569 186 99 108 168 
570 110 105 86 54 
571 17 19 23 155 
572 148 144 129 173 
573 115 177 118 156 
574 97 54 86 56 
575 83 130 128 157 
576 162 130 83 157 
577 169 120 18 106 
578 173 143 12 182 
579 111 120 66 106 
580 24 120 18 116 
581 120 19 14 169 
582 155 167 32 58 
583 32 17 155 58 
584 124 111 104 134 
585 137 114 13 119 
586 115 118 102 156 
587 95 27 99 168 
588 61 172 49 93 
589 66 120 169 106 
590 128 170 22 91 
591 128 91 42 123 
592 105 86 45 110 
593 17 23 19 14 
594 136 44 86 110 
595 29 176 59 58 
596 137 13 114 121 
597 163 168 95 85 
598 28 116 24 140 
599 41 125 162 158 
600 34 62 128 130 
601 170 90 22 91 
602 189 87 84 35 
603 41 125 130 162 
604 188 189 80 38 
605 99 139 27 95 
606 45 107 86 105 
607 149 78 70 150 
608 152 151 154 174 
609 49 119 61 93 
610 167 180 58 64 
611 121 113 114 124 
612 150 78 70 38 
613 154 174 149 78 
614 158 82 132 159 
615 168 163 181 85 
616 82 132 125 158 
617 86 116 44 136 
618 138 77 91 123 
619 159 63 95 85 
620 111 66 104 106 
621 26 139 132 95 
622 53 96 125 132 
623 166 183 179 81 
624 153 107 36 109 
625 142 141 51 87 
626 80 127 141 189 
627 55 30 130 125 
628 55 30 62 130 
629 62 170 34 128 
630 142 51 117 87 
631 139 96 26 132 
632 96 30 53 125 
633 138 77 143 91 
634 161 156 177 31 
635 134 48 104 101 
636 14 66 120 169 
637 105 36 107 109 
638 28 116 140 136 
639 166 109 73 81 
640 121 114 190 101 
641 111 124 100 68 
642 165 179 153 166 
643 151 154 186 152 
644 185 19 14 120 
645 171 153 179 81 
646 66 185 14 120 
647 145 142 52 117 
648 166 153 165 109 
649 145 52 122 117 
650 180 167 171 64 
651 63 95 132 159 
652 154 164 80 150 
653 175 21 122 160 
654 56 14 19 169 
655 9 115 122 160 
656 24 100 28 146 
657 102 74 122 145 
658 93 88 11 94 
659 87 117 126 33 
660 114 104 48 101 
661 175 122 21 117 
662 87 141 127 189 
663 64 57 171 147 
664 183 171 179 81 
665 102 74 115 122 
666 88 11 94 161 
667 131 50 88 177 
668 118 37 177 115 
669 164 154 149 150 
670 152 168 76 181 
671 175 126 117 33 
672 73 109 16 81 
673 43 100 148 146 
674 37 118 102 115 
675 160 9 115 156 
676 50 131 118 177 
677 57 81 171 147 
678 181 76 152 78 
679 65 57 176 58 
680 106 47 104 134 
681 78 174 149 184 
682 188 150 5 38 
683 75 40 140 98 
684 58 65 57 64 
685 81 183 171 147 
686 5 2 150 188 
687 166 1 183 81 
688 47 104 66 106 
689 112 66 104 111 
690 156 115 177 31 
691 110 89 54 97 
692 87 126 84 35 
693 79 174 152 78 
694 89 110 136 97 
695 38 189 84 35 
696 109 16 105 103 
697 98 140 75 129 
698 64 133 57 147 
699 43 100 15 148 
700 15 138 72 143 
701 78 79 174 184 
702 187 80 150 188 
703 143 135 15 148 
704 178 57 133 147 
705 1 166 73 81 
706 171 4 64 147 
707 174 3 154 149 
708 187 164 150 80 
709 140 146 75 129 
710 139 26 27 95 
711 151 186 108 152 
712 174 8 3 149 
713 60 119 114 190 
714 50 118 37 177 
715 38 5 188 25 
716 161 177 88 31 
717 190 60 119 61 
718 183 179 7 166 
719 103 16 105 54 
720 180 32 167 58 
721 30 55 53 125 
722 127 51 141 87 
723 117 21 175 33 
724 179 69 171 183 
725 82 63 132 159 
726 66 112 120 111 
727 10 12 143 182 
728 45 86 44 110 
729 171 4 180 64 
730 100 43 28 146 
731 142 51 52 117 
732 96 53 26 132 
733 7 1 183 166 
734 72 135 15 143 
735 4 6 64 147 
736 70 5 150 38 
737 126 87 33 35 
738 111 104 113 124 
739 6 133 64 147 
740 125 41 82 158 
741 34 170 22 128 
742 32 17 23 155 
743 52 122 74 145 
744 137 13 20 119 
745 1 183 81 67 
746 164 187 150 2 
747 76 79 152 78 
748 63 163 95 85 
749 183 69 171 147 
750 69 4 171 147 
751 88 11 161 31 
752 156 9 115 31 
753 105 110 39 54 
754 83 41 130 162 
755 74 37 102 115 
756 80 187 189 188 
757 133 6 178 147 
758 150 2 187 188 
759 40 136 140 98 
760 107 45 36 105 
761 185 66 112 120 
762 116 28 44 136 
763 42 83 128 157 
764 36 165 153 109 
765 65 176 29 58 
766 39 103 105 54 
767 77 72 138 143 
768 47 48 104 134 
769 149 78 184 70 
770 46 14 56 169 
771 14 23 19 185 
772 27 108 99 168 
773 79 8 174 184 
774 60 114 48 190 
775 113 112 104 111 
776 11 20 93 94 
777 98 40 136 97 
778 66 14 71 169 
779 57 178 81 147 
780 113 114 13 121 
781 61 60 119 49 
782 16 109 73 103 
783 165 7 179 166 
784 10 22 90 91 
785 172 92 49 93 
786 3 164 154 149 
787 163 76 168 181 
788 3 154 151 174 
789 149 174 8 184 
790 190 114 48 101 
791 35 38 189 25 
792 62 34 55 130 
793 183 81 67 147 
794 46 59 17 29 
795 14 46 71 169 
796 42 91 77 123 
797 15 135 43 148 
798 38 188 189 25 
799 144 148 12 173 
800 92 131 50 88 
801 21 9 122 160 
802 179 7 69 183 
803 71 66 169 106 
804 178 67 81 147 
805 66 71 47 106 
806 57 65 133 64 
807 89 39 110 54 
808 146 144 75 129 
809 80 187 127 189 
810 40 89 136 97 
811 15 101 182 173 
812 182 101 15 121 
813 59 19 86 56 
814 59 86 19 155 
815 155 176 107 167 
816 107 176 155 59 
817 123 61 138 137 
818 123 138 61 90 
819 106 24 68 111 
820 106 68 24 18 
821 86 59 107 155 
822 107 59 86 54 
823 154 150 78 149 
824 78 150 154 80 
$EndElements
