$MeshFormat
4.1 0 8
$EndMeshFormat
$Entities
0 0 1 2
1 -0.951058 -1 -1 0.951058 1 1 0 0 
1 -0.951058 -1 -1 0.951058 1 1 0 1 1 
2 -0.951058 -1 -1 0.951058 1 1 0 1 1 
$EndEntities
$Nodes
3 43 1 43
2 1 0 42
1
2
3
4
5
6
7
8
9
10
11
12
13
14
15
16
17
18
19
20
21
22
23
24
25
26
27
28
29
30
31
32
33
34
35
36
37
38
39
40
41
42
0 0 -1
0.425323 -0.309011 -0.850654
-0.162456 -0.499995 -0.850654
0.723607 -0.525725 -0.44722
0.850648 0 -0.525736
-0.52573 0 -0.850652
-0.162456 0.499995 -0.850654
0.425323 0.309011 -0.850654
0.951058 -0.309013 0
-0.276388 -0.850649 -0.44722
0.262869 -0.809012 -0.525738
0 -1 0
-0.8944260000000001 0 -0.447216
-0.6881890000000001 -0.499997 -0.525736
-0.951058 -0.309013 0
-0.276388 0.850649 -0.44722
-0.6881890000000001 0.499997 -0.525736
-0.587786 0.809017 0
0.723607 0.525725 -0.44722
0.262869 0.809012 -0.525738
0.587786 0.809017 0
0.587786 -0.809017 0
-0.587786 -0.809017 0
-0.951058 0.309013 0
0 1 0
0.951058 0.309013 0
0.276388 -0.850649 0.44722
0.6881890000000001 -0.499997 0.525736
0.162456 -0.499995 0.850654
-0.723607 -0.525725 0.44722
-0.262869 -0.809012 0.525738
-0.425323 -0.309011 0.850654
-0.723607 0.525725 0.44722
-0.850648 0 0.525736
-0.425323 0.309011 0.850654
0.276388 0.850649 0.44722
-0.262869 0.809012 0.525738
0.162456 0.499995 0.850654
0.8944260000000001 0 0.447216
0.6881890000000001 0.499997 0.525736
0.52573 0 0.850652
0 0 1
3 1 0 1
43
-1.392364839425397e-06 0 2.796552173167655e-08
3 2 0 0
$EndNodes
$Elements
2 160 1 160
2 1 2 80
1 1 2 3 
2 2 1 8 
3 1 3 6 
4 1 6 7 
5 1 7 8 
6 3 2 11 
7 4 2 5 
8 2 4 11 
9 5 2 8 
10 6 3 14 
11 3 11 10 
12 3 10 14 
13 4 5 9 
14 4 9 22 
15 11 4 22 
16 5 8 19 
17 9 5 26 
18 5 19 26 
19 7 6 17 
20 6 14 13 
21 6 13 17 
22 8 7 20 
23 7 17 16 
24 7 16 20 
25 8 20 19 
26 22 9 28 
27 9 26 39 
28 9 39 28 
29 10 11 12 
30 10 12 23 
31 14 10 23 
32 12 11 22 
33 12 22 27 
34 23 12 31 
35 12 27 31 
36 13 14 15 
37 13 15 24 
38 17 13 24 
39 15 14 23 
40 15 23 30 
41 24 15 34 
42 15 30 34 
43 16 17 18 
44 16 18 25 
45 20 16 25 
46 18 17 24 
47 18 24 33 
48 25 18 37 
49 18 33 37 
50 19 20 21 
51 19 21 26 
52 21 20 25 
53 21 25 36 
54 26 21 40 
55 21 36 40 
56 22 28 27 
57 23 31 30 
58 24 34 33 
59 25 37 36 
60 26 40 39 
61 27 28 29 
62 31 27 29 
63 29 28 41 
64 28 39 41 
65 32 31 29 
66 32 29 42 
67 29 41 42 
68 30 31 32 
69 34 30 32 
70 35 34 32 
71 35 32 42 
72 33 34 35 
73 37 33 35 
74 38 37 35 
75 38 35 42 
76 36 37 38 
77 40 36 38 
78 41 40 38 
79 41 38 42 
80 39 40 41 
3 1 4 80
81 8 1 2 43 
82 41 29 42 43 
83 41 42 38 43 
84 32 35 42 43 
85 6 3 1 43 
86 6 1 7 43 
87 3 2 1 43 
88 8 7 1 43 
89 35 38 42 43 
90 32 42 29 43 
91 28 41 39 43 
92 40 39 41 43 
93 6 17 13 43 
94 6 13 14 43 
95 39 9 28 43 
96 40 26 39 43 
97 19 8 5 43 
98 2 4 5 43 
99 39 26 9 43 
100 30 34 32 43 
101 33 35 34 43 
102 13 15 14 43 
103 24 13 17 43 
104 5 4 9 43 
105 19 5 26 43 
106 11 4 2 43 
107 20 8 19 43 
108 9 4 22 43 
109 21 19 26 43 
110 38 36 40 43 
111 27 29 28 43 
112 36 21 40 43 
113 28 22 27 43 
114 24 15 13 43 
115 14 10 3 43 
116 17 7 16 43 
117 32 31 30 43 
118 33 37 35 43 
119 14 23 10 43 
120 16 18 17 43 
121 11 22 4 43 
122 21 20 19 43 
123 23 15 30 43 
124 33 24 18 43 
125 29 27 31 43 
126 37 36 38 43 
127 3 10 11 43 
128 7 20 16 43 
129 30 15 34 43 
130 24 33 34 43 
131 36 25 21 43 
132 22 12 27 43 
133 25 18 16 43 
134 23 12 10 43 
135 18 37 33 43 
136 30 31 23 43 
137 16 20 25 43 
138 11 10 12 43 
139 31 27 12 43 
140 37 25 36 43 
141 8 2 5 43 
142 35 32 34 43 
143 29 41 28 43 
144 41 38 40 43 
145 3 6 14 43 
146 6 7 17 43 
147 20 7 8 43 
148 11 2 3 43 
149 37 38 35 43 
150 32 29 31 43 
151 9 22 28 43 
152 40 21 26 43 
153 26 5 9 43 
154 23 14 15 43 
155 17 18 24 43 
156 24 34 15 43 
157 11 12 22 43 
158 25 20 21 43 
159 23 31 12 43 
160 18 25 37 43 
$EndElements
