$MeshFormat
4.1 0 8
$EndMeshFormat
$Entities
0 0 1 1
1 -0.993511 -0.5 -0.993079 0.9900100000000001 0.5 0.984818 0 0 
1 -0.993511 -0.5 -0.993079 0.9900100000000001 0.5 0.984818 0 1 1 
$EndEntities
$Nodes
2 220 1 220
2 1 0 186
1
2
3
4
5
6
7
8
9
10
11
12
13
14
15
16
17
18
19
20
21
22
23
24
25
26
27
28
29
30
31
32
33
34
35
36
37
38
39
40
41
42
43
44
45
46
47
48
49
50
51
52
53
54
55
56
57
58
59
60
61
62
63
64
65
66
67
68
69
70
71
72
73
74
75
76
77
78
79
80
81
82
83
84
85
86
87
88
89
90
91
92
93
94
95
96
97
98
99
100
101
102
103
104
105
106
107
108
109
110
111
112
113
114
115
116
117
118
119
120
121
122
123
124
125
126
127
128
129
130
131
132
133
134
135
136
137
138
139
140
141
142
143
144
145
146
147
148
149
150
151
152
153
154
155
156
157
158
159
160
161
162
163
164
165
166
167
168
169
170
171
172
173
174
175
176
177
178
179
180
181
182
183
184
185
186
-0.567295 0.5 -0.807028
0.5500350000000001 0.052296 -0.808403
0.446819 -0.5 0.8762259999999999
0.95946 0.5 0.228565
-0.795079 -0.5 -0.570302
0.960215 -0.5 0.229403
0.036396 0.5 -0.993079
0.845279 0.5 -0.517499
0.9900099999999999 0.5 -0.025333
-0.8163629999999999 0.5 -0.564721
-0.184878 -0.247797 0.959815
-0.49334 0.5 0.146681
-0.923148 0.5 -0.341403
-0.74277 0.5 -0.245925
-0.255091 0.5 0.260298
0.853536 -0.5 -0.493081
0.723471 -0.5 -0.680578
0.884238 0.268761 -0.413101
0.914114 -0.224008 -0.345243
0.969242 -0.5 -0.075707
0.88756 0.259125 0.381027
0.607096 0.5 -0.778525
0.307638 0.5 0.934742
-0.993511 0.5 -0.023506
-0.317562 -0.5 -0.9370230000000001
-0.175374 -0.283197 -0.952519
0.479866 -0.5 0.459407
-0.024261 -0.5 -0.790643
0.94384 0.5 -0.291105
0.700697 0.5 0.314324
-0.046696 -0.5 0.984818
-0.763195 -0.5 0.6244729999999999
-0.96911 -0.5 -0.204305
0.166104 -0.005161 -0.954277
0.897693 -0.251511 0.371466
-0.85529 -0.255503 0.463026
-0.926409 -0.017455 0.283625
-0.352157 0.5 0.677123
0.512456 0.288031 -0.825438
0.510875 0.236983 0.815821
-0.972328 0.5 0.184912
-0.707811 0.5 0.260636
0.666566 -0.5 0.735553
-0.608546 -0.5 -0.78207
0.378924 -0.315262 -0.893584
-0.43275 -0.247007 0.875522
-0.271113 0.5 0.008746
0.321709 0.5 -0.93452
-0.257298 0.5 -0.953415
-0.844195 0.5 0.4947
-0.62641 0.5 0.7593800000000001
0.826643 0.5 0.54222
-0.495685 0.5 0.444113
0.5487030000000001 -0.5 -0.812561
-0.500508 -0.5 0.852245
-0.975886 -0.5 0.100586
-0.294028 -0.5 0.947914
0.235508 -0.5 -0.686229
0.724536 -0.5 0.070155
-0.625178 -0.5 0.42283
0.7850549999999999 -0.246177 -0.589754
0.553749 -0.252696 0.806413
-0.471939 0.251513 0.848691
-0.683799 -0.5 -0.257691
0.341752 0.162413 -0.913181
0.9733039999999999 0.182083 -0.040515
-0.432411 0.27826 -0.873951
0.531081 0.5 0.486538
0.448407 0.5 -0.049052
0.325703 -0.5 0.716133
0.187531 -0.5 -0.442377
0.364064 -0.09768300000000001 -0.898119
0.970407 -0.089633 -0.08674
-0.324713 0.002815 0.91489
-0.971052 -0.058772 -0.036338
-0.76325 0.014092 -0.60526
-0.431547 -0.325556 -0.876515
-0.491656 0.5 -0.450673
0.093167 0.238758 0.963856
0.970922 -0.274457 0.083296
-0.637892 -0.231717 -0.7363769999999999
-0.161815 0.258464 -0.962426
-0.076473 -0.5 0.306302
-0.939062 -0.272969 -0.257137
-0.789953 -0.003373 0.556931
-0.884518 0.242987 0.387615
-0.674906 0.266874 -0.700362
-0.234828 0.5 -0.48303
-0.376948 -0.123609 -0.8970089999999999
0.731176 0.246851 0.633038
0.590695 -0.234184 -0.780444
0.716714 0.226961 -0.656938
0.959835 -0.318403 -0.14407
0.196927 -0.013912 0.95489
-0.909933 -0.011539 -0.351216
-0.839348 -0.249768 -0.493954
0.707745 -0.037316 -0.679702
0.259884 0.5 0.397973
0.183058 0.5 -0.489467
-0.044593 0.5 -0.097799
0.711848 0.5 0.086491
0.6953240000000001 -0.5 0.294467
-0.396457 -0.5 -0.327675
-0.262082 0.5 -0.252774
0.837279 0.011159 -0.501138
0.828311 0.001442 0.501236
-0.058112 -0.002002 0.968675
-0.578473 0.00191 0.775441
-0.734514 0.5 0.032525
-0.750978 -0.5 -0.053955
0.423146 -0.5 -0.255957
-0.003391 0.5 0.328888
-0.29403 -0.5 -0.613918
0.705783 -0.5 -0.164434
0.680392 -0.5 -0.404413
-0.077948 0.5 0.121797
-0.6101760000000001 -0.5 -0.490027
0.7506119999999999 -0.251427 0.625977
0.035153 -0.5 0.7512450000000001
-0.442576 -0.5 0.598874
0.46618 -0.5 -0.547278
0.610793 0.5 0.773609
-0.004865 -0.5 -0.982589
0.070885 -0.251489 0.972457
-0.977094 -0.319717 -0.042178
-0.853588 0.252221 -0.466221
-0.546314 0.049484 -0.804841
0.822284 -0.5 0.540109
0.9567909999999999 0.304387 -0.211181
-0.327689 0.5 0.929007
0.29521 -0.5 -0.00128
0.10254 -0.5 -0.194345
0.395519 0.5 -0.621394
-0.064732 0.5 -0.671503
-0.09980600000000001 -0.5 -0.38367
0.179491 0.5 0.104273
0.008432 -0.5 0.056086
0.222163 -0.5 0.249989
0.490442 -0.5 0.172893
-0.492635 -0.5 -0.08172599999999999
0.653417 0.5 -0.452783
-0.195848 -0.5 -0.136703
-0.193378 0.5 0.505847
0.472625 0.5 0.224602
0.696748 0.5 -0.177019
0.188577 -0.5 0.967886
-0.32272 0.5 -0.673214
-0.914893 -0.5 0.355532
0.527432 -0.5 -0.03579
-0.632448 -0.5 0.173896
-0.189852 0.249829 0.953718
-0.668477 -0.249751 0.708474
0.174915 0.5 -0.741911
-0.326237 0.08473799999999999 -0.918438
0.000566 -0.5 -0.583889
0.64528 -0.005258 0.722553
-0.020174 0.5 0.977691
0.235968 -0.5 -0.938628
-0.03705 0.5 -0.366449
-0.71613 0.247703 0.651062
0.194335 0.5 -0.204635
-0.371913 -0.5 0.36109
0.137678 -0.5 0.505857
-0.4987 0.5 -0.127045
0.429518 0.5 -0.332054
0.931691 0.07514999999999999 -0.269368
-0.882094 -0.5 -0.387304
-0.955538 0.237252 -0.188551
0.911389 -0.5 -0.284394
0.429899 -0.015 0.871897
-0.293926 -0.5 0.113096
0.942461 0.01625 0.197218
0.105701 0.229159 -0.97241
0.957113 0.290998 0.149816
0.313747 0.5 0.659155
-0.234704 -0.5 0.781092
0.061719 0.5 0.571501
-0.963182 0.234743 0.102088
-0.159031 -0.5 0.550919
-0.955214 -0.273761 0.192523
0.318658 -0.254007 0.922496
0.308745 0.190189 0.911171
0.131454 -0.252626 -0.94743
-0.119846 0.5 0.741841
0.109108 0.5 0.779006
-0.06662800000000001 -0.053529 -0.955783
3 1 0 34
187
188
189
190
191
192
193
194
195
196
197
198
199
200
201
202
203
204
205
206
207
208
209
210
211
212
213
214
215
216
217
218
219
220
-0.1366513800329675 -0.002097646403411813 0.0005492046781378768
0.0435621580494293 0.004121184024092882 0.4731773975365554
0.4219719518300055 -0.00394422071016981 0.05313655421233116
0.09780163875751006 0.0003332105022598149 -0.4505351647781392
-0.348555912199324 0.06836489733830475 -0.3956870711269818
-0.3875343565616735 -0.05284120710070045 0.3675915817257754
-0.562396970889732 0.08720477508254099 -0.005341549800842546
0.4777484244994399 -0.1076449476790656 -0.3509203609902766
0.4172044501641134 0.124064779933249 0.4269339008153732
0.1581143402014332 0.1515346723606168 -0.1318948582155107
0.3046622116238109 -0.1652205540915598 0.5990527326821262
0.128425631178924 -0.1657285621134835 0.1723409619450522
0.05604613896682444 0.1986176828803458 0.1905228898071402
0.5585525054170375 -0.1790956053966786 0.3237078877800329
-0.5265052937153153 -0.1878892044178397 -0.2367505630250645
-0.2413056888725349 0.147899296212793 0.6104775552648378
-0.1411965603513856 -0.1773750065900336 -0.2892354387403334
0.3849798295254487 0.167449782927174 -0.5318133948282635
0.6581061101605699 -0.2037931186985408 -0.04257866287780404
-0.1244578390963729 -0.1861148334174438 -0.6296674516541958
-0.1828867932748263 -0.1787861927320638 0.6343326142046639
0.219502749387072 -0.1770518244090651 -0.1495701777047702
0.6088506868242916 0.1654254059596547 -0.1837205229877941
-0.1346651610469428 0.1510771822027658 -0.6434832485965825
-0.3993239883512226 -0.1902367400455716 0.0677668065248388
0.6273344359647639 0.2083178076943741 0.1965439756112727
-0.5533283200000427 0.2161370517399838 0.2925808811308921
0.136477141965999 0.2209830903296323 0.6635918295384364
-0.2912136734486607 0.2234143851198285 0.1363125054700199
-0.699167860864327 -0.2071333422004495 0.01403968368221556
0.3139151651565197 -0.2043248674701946 -0.6041422995641359
-0.1338492315994181 0.2163616033638599 -0.2231467122941645
-0.1281728750962915 -0.2044241433201623 0.3386420258276876
-0.5981287108483915 0.2240931490298652 -0.2857243134018499
$EndNodes
$Elements
2 1052 1 1052
2 1 2 368
1 78 1 10 
2 1 87 10 
3 1 49 67 
4 147 49 1 
5 67 87 1 
6 147 1 78 
7 65 39 2 
8 92 2 39 
9 72 65 2 
10 2 91 72 
11 2 97 91 
12 2 92 97 
13 43 62 3 
14 70 43 3 
15 62 181 3 
16 3 146 70 
17 181 146 3 
18 101 4 9 
19 174 9 4 
20 52 21 4 
21 4 21 174 
22 30 52 4 
23 4 101 30 
24 5 81 44 
25 117 5 44 
26 5 96 81 
27 96 5 167 
28 5 117 167 
29 59 20 6 
30 6 20 80 
31 80 35 6 
32 128 6 35 
33 6 102 59 
34 102 6 128 
35 7 153 48 
36 7 48 173 
37 49 7 82 
38 49 134 7 
39 7 173 82 
40 7 134 153 
41 29 18 8 
42 18 92 8 
43 8 92 22 
44 141 8 22 
45 8 141 29 
46 29 9 129 
47 145 9 29 
48 66 129 9 
49 66 9 174 
50 101 9 145 
51 13 14 10 
52 126 13 10 
53 14 78 10 
54 126 10 87 
55 11 57 31 
56 124 11 31 
57 57 11 46 
58 74 46 11 
59 107 74 11 
60 107 11 124 
61 47 12 15 
62 53 15 12 
63 42 53 12 
64 109 42 12 
65 12 47 164 
66 12 164 109 
67 13 24 14 
68 24 13 168 
69 126 168 13 
70 109 14 24 
71 164 78 14 
72 164 14 109 
73 15 116 47 
74 15 53 143 
75 116 15 112 
76 15 143 112 
77 17 61 16 
78 17 16 115 
79 19 16 61 
80 16 19 169 
81 16 169 115 
82 54 91 17 
83 17 121 54 
84 61 17 91 
85 17 115 121 
86 129 18 29 
87 92 18 105 
88 18 166 105 
89 18 129 166 
90 105 19 61 
91 93 19 73 
92 19 166 73 
93 169 19 93 
94 19 105 166 
95 20 59 114 
96 20 93 80 
97 20 169 93 
98 20 114 169 
99 90 21 52 
100 106 21 90 
101 106 172 21 
102 174 21 172 
103 22 39 48 
104 22 92 39 
105 133 22 48 
106 141 22 133 
107 122 23 40 
108 182 40 23 
109 23 157 79 
110 79 182 23 
111 122 175 23 
112 157 23 185 
113 185 23 175 
114 24 41 109 
115 24 178 41 
116 24 168 178 
117 77 26 25 
118 26 123 25 
119 25 28 113 
120 123 28 25 
121 44 77 25 
122 25 113 44 
123 89 26 77 
124 186 26 89 
125 123 26 183 
126 26 186 183 
127 43 70 27 
128 27 128 43 
129 70 163 27 
130 27 102 128 
131 27 139 102 
132 27 138 139 
133 138 27 163 
134 28 58 155 
135 58 28 158 
136 113 28 155 
137 123 158 28 
138 141 145 29 
139 30 68 52 
140 68 30 144 
141 144 30 101 
142 176 31 57 
143 119 146 31 
144 119 31 176 
145 146 124 31 
146 148 32 36 
147 32 152 36 
148 120 55 32 
149 32 55 152 
150 120 32 60 
151 32 148 60 
152 33 110 56 
153 56 125 33 
154 110 33 64 
155 167 64 33 
156 33 125 84 
157 33 84 167 
158 65 72 34 
159 65 34 173 
160 72 183 34 
161 173 34 186 
162 186 34 183 
163 80 172 35 
164 35 106 118 
165 35 172 106 
166 118 128 35 
167 36 85 37 
168 37 180 36 
169 85 36 152 
170 148 36 180 
171 75 37 178 
172 75 180 37 
173 86 37 85 
174 178 37 86 
175 53 51 38 
176 130 38 51 
177 38 143 53 
178 130 184 38 
179 143 38 184 
180 39 65 48 
181 40 90 122 
182 40 156 90 
183 156 40 170 
184 170 40 182 
185 42 41 50 
186 109 41 42 
187 86 50 41 
188 178 86 41 
189 42 50 53 
190 62 43 118 
191 128 118 43 
192 77 44 81 
193 113 117 44 
194 91 54 45 
195 158 45 54 
196 45 72 91 
197 45 183 72 
198 158 183 45 
199 55 57 46 
200 55 46 152 
201 46 74 108 
202 46 108 152 
203 47 100 104 
204 116 100 47 
205 47 104 164 
206 173 48 65 
207 133 48 153 
208 67 49 82 
209 134 49 147 
210 50 51 53 
211 50 160 51 
212 86 160 50 
213 51 63 130 
214 160 63 51 
215 68 122 52 
216 122 90 52 
217 121 58 54 
218 158 54 58 
219 57 55 176 
220 55 120 176 
221 150 56 110 
222 180 125 56 
223 148 56 150 
224 56 148 180 
225 58 121 71 
226 58 71 155 
227 59 102 139 
228 114 59 149 
229 139 149 59 
230 162 120 60 
231 148 150 60 
232 150 162 60 
233 97 61 91 
234 105 61 97 
235 62 118 156 
236 156 170 62 
237 170 181 62 
238 63 108 74 
239 74 151 63 
240 108 63 160 
241 63 151 130 
242 117 103 64 
243 64 103 140 
244 64 140 110 
245 64 167 117 
246 73 166 66 
247 66 172 73 
248 166 129 66 
249 174 172 66 
250 82 154 67 
251 127 87 67 
252 127 67 154 
253 68 144 98 
254 98 175 68 
255 175 122 68 
256 69 144 101 
257 145 69 101 
258 144 69 136 
259 136 69 161 
260 69 145 165 
261 161 69 165 
262 119 70 146 
263 119 163 70 
264 121 111 71 
265 132 71 111 
266 132 135 71 
267 135 155 71 
268 80 93 73 
269 172 80 73 
270 107 151 74 
271 75 95 84 
272 125 75 84 
273 168 95 75 
274 180 75 125 
275 75 178 168 
276 81 96 76 
277 127 81 76 
278 87 76 126 
279 127 76 87 
280 96 95 76 
281 76 95 126 
282 81 89 77 
283 78 104 88 
284 88 147 78 
285 164 104 78 
286 107 94 79 
287 94 182 79 
288 107 79 151 
289 79 157 151 
290 81 127 89 
291 82 186 154 
292 186 82 173 
293 137 138 83 
294 83 171 137 
295 163 83 138 
296 171 83 162 
297 83 179 162 
298 163 179 83 
299 95 96 84 
300 84 96 167 
301 86 85 160 
302 85 152 108 
303 85 108 160 
304 159 88 104 
305 88 134 147 
306 88 159 134 
307 127 154 89 
308 186 89 154 
309 90 156 106 
310 97 92 105 
311 94 107 124 
312 181 94 124 
313 94 181 170 
314 182 94 170 
315 126 95 168 
316 112 98 136 
317 177 98 112 
318 144 136 98 
319 175 98 177 
320 133 153 99 
321 133 99 165 
322 134 99 153 
323 134 159 99 
324 99 159 161 
325 165 99 161 
326 100 159 104 
327 116 136 100 
328 161 100 136 
329 100 161 159 
330 117 113 103 
331 103 113 135 
332 103 135 142 
333 140 103 142 
334 106 156 118 
335 140 150 110 
336 114 111 115 
337 114 149 111 
338 111 121 115 
339 111 131 132 
340 131 111 149 
341 136 116 112 
342 177 112 143 
343 135 113 155 
344 169 114 115 
345 179 163 119 
346 179 119 176 
347 120 162 179 
348 176 120 179 
349 183 158 123 
350 124 146 181 
351 157 130 151 
352 157 184 130 
353 137 132 131 
354 131 138 137 
355 139 138 131 
356 149 139 131 
357 132 142 135 
358 137 142 132 
359 165 141 133 
360 171 142 137 
361 171 140 142 
362 150 140 171 
363 165 145 141 
364 184 177 143 
365 150 171 162 
366 157 185 184 
367 177 185 175 
368 185 177 184 
3 1 4 684
369 81 191 201 206 
370 103 201 203 206 
371 189 199 195 212 
372 191 203 201 206 
373 107 188 94 207 
374 124 94 197 207 
375 189 144 199 212 
376 188 197 94 207 
377 107 94 124 207 
378 195 199 144 212 
379 81 201 113 206 
380 112 177 202 214 
381 36 37 192 216 
382 136 189 144 199 
383 139 149 131 205 
384 112 202 188 214 
385 34 204 190 217 
386 192 37 213 216 
387 147 87 67 191 
388 99 153 204 210 
389 103 113 201 206 
390 112 199 188 202 
391 189 136 196 199 
392 190 206 34 217 
393 69 189 136 196 
394 192 213 193 216 
395 94 188 107 214 
396 136 69 144 189 
397 112 177 143 202 
398 99 204 190 210 
399 173 34 65 210 
400 34 206 190 210 
401 187 137 203 208 
402 147 191 67 210 
403 188 202 199 215 
404 144 189 69 212 
405 188 192 202 215 
406 143 15 112 215 
407 139 189 131 198 
408 34 72 204 217 
409 188 215 199 219 
410 137 187 211 219 
411 99 159 190 196 
412 188 192 215 219 
413 159 190 196 218 
414 139 189 198 200 
415 137 142 187 203 
416 137 187 142 211 
417 124 197 119 207 
418 187 198 137 208 
419 71 203 190 206 
420 139 131 189 205 
421 188 199 112 214 
422 99 196 190 204 
423 193 213 37 216 
424 36 37 85 192 
425 137 198 187 219 
426 190 203 71 208 
427 131 205 149 208 
428 117 103 113 201 
429 99 190 159 210 
430 187 199 215 219 
431 60 192 162 211 
432 67 87 127 191 
433 147 88 191 210 
434 188 198 197 219 
435 160 202 192 213 
436 81 191 76 201 
437 127 191 206 210 
438 164 215 193 218 
439 183 34 206 217 
440 117 113 81 201 
441 98 144 195 199 
442 155 203 71 206 
443 85 192 37 213 
444 188 202 107 214 
445 152 60 36 192 
446 190 159 210 218 
447 34 72 65 204 
448 71 206 190 217 
449 47 215 164 218 
450 94 197 188 214 
451 187 193 191 201 
452 196 204 165 209 
453 147 78 87 191 
454 160 108 192 202 
455 187 203 142 211 
456 98 199 195 214 
457 131 189 205 208 
458 189 200 139 205 
459 107 202 188 207 
460 127 67 191 210 
461 138 198 197 200 
462 189 196 69 209 
463 164 218 193 220 
464 172 209 205 212 
465 177 112 98 214 
466 187 201 191 203 
467 197 198 195 200 
468 127 206 89 210 
469 191 193 187 218 
470 34 186 206 210 
471 155 135 71 203 
472 195 199 188 214 
473 161 196 99 204 
474 71 190 208 217 
475 131 198 189 208 
476 152 120 60 192 
477 187 215 192 219 
478 112 199 98 214 
479 152 120 192 207 
480 199 215 116 218 
481 155 206 71 217 
482 160 192 85 213 
483 98 136 144 199 
484 66 205 172 209 
485 193 201 187 211 
486 137 211 171 219 
487 161 165 196 204 
488 194 204 196 209 
489 147 88 78 191 
490 165 69 196 209 
491 60 162 150 211 
492 195 189 198 199 
493 76 81 127 191 
494 172 66 209 212 
495 73 205 66 209 
496 195 197 170 214 
497 77 81 113 206 
498 195 197 188 198 
499 108 152 192 207 
500 89 81 77 206 
501 76 201 191 220 
502 188 195 198 199 
503 163 119 197 207 
504 193 215 187 218 
505 63 160 38 202 
506 172 205 200 212 
507 189 195 198 200 
508 163 197 198 219 
509 108 85 160 192 
510 100 199 116 218 
511 99 161 159 196 
512 193 211 192 216 
513 66 73 172 205 
514 194 205 166 209 
515 139 198 138 200 
516 162 60 120 192 
517 166 194 19 205 
518 171 137 142 211 
519 115 19 194 205 
520 189 209 69 212 
521 135 203 155 206 
522 105 204 194 209 
523 111 149 205 208 
524 190 196 194 204 
525 85 152 36 192 
526 59 102 35 200 
527 132 203 137 208 
528 200 205 189 212 
529 143 202 53 213 
530 105 97 194 204 
531 124 181 119 197 
532 193 218 191 220 
533 143 53 15 213 
534 121 194 61 217 
535 192 213 202 215 
536 153 99 134 210 
537 95 201 193 216 
538 104 47 164 218 
539 187 201 203 211 
540 132 71 203 208 
541 161 165 69 196 
542 160 53 202 213 
543 166 105 19 194 
544 71 208 194 217 
545 35 59 200 205 
546 115 114 19 205 
547 87 76 127 191 
548 194 196 189 209 
549 121 115 61 194 
550 161 99 165 204 
551 109 178 193 213 
552 38 160 53 202 
553 95 201 76 220 
554 88 191 210 218 
555 120 162 192 207 
556 87 76 191 220 
557 184 202 177 214 
558 139 131 138 198 
559 81 76 96 201 
560 170 197 94 214 
561 92 204 105 209 
562 108 46 152 207 
563 107 202 151 214 
564 91 121 61 217 
565 192 202 108 207 
566 104 218 164 220 
567 193 201 95 220 
568 166 105 194 209 
569 142 203 201 211 
570 61 115 19 194 
571 168 109 193 220 
572 205 209 189 212 
573 111 194 71 208 
574 88 104 191 218 
575 40 195 170 214 
576 88 210 159 218 
577 138 197 27 200 
578 137 132 142 203 
579 127 89 154 210 
580 109 42 178 213 
581 196 187 203 208 
582 162 192 207 219 
583 183 34 186 206 
584 196 203 187 218 
585 35 80 59 205 
586 190 203 196 218 
587 194 204 97 217 
588 2 97 204 217 
589 156 118 197 200 
590 78 87 191 220 
591 189 196 194 208 
592 194 196 190 208 
593 168 109 178 193 
594 187 215 199 218 
595 75 95 193 216 
596 35 200 172 205 
597 152 46 120 207 
598 151 202 184 214 
599 181 124 94 197 
600 111 205 194 208 
601 71 194 111 217 
602 156 197 195 200 
603 196 203 190 208 
604 58 206 155 217 
605 135 132 71 203 
606 58 183 206 217 
607 143 177 184 202 
608 178 37 193 213 
609 198 199 187 219 
610 163 197 138 198 
611 105 92 97 204 
612 68 30 90 212 
613 190 203 191 206 
614 104 191 218 220 
615 101 209 66 212 
616 141 204 92 209 
617 100 196 199 218 
618 36 180 37 216 
619 170 195 156 197 
620 109 193 12 213 
621 18 92 105 209 
622 78 88 104 191 
623 134 99 159 210 
624 68 90 195 212 
625 152 85 108 192 
626 111 131 149 208 
627 103 201 142 203 
628 156 118 62 197 
629 155 58 28 206 
630 101 66 174 212 
631 168 193 95 220 
632 140 142 201 211 
633 62 118 27 197 
634 190 206 191 210 
635 36 150 180 216 
636 196 198 189 199 
637 35 172 80 205 
638 118 27 197 200 
639 191 203 190 218 
640 117 81 96 201 
641 18 141 92 209 
642 28 58 183 206 
643 188 199 198 219 
644 160 63 108 202 
645 95 96 76 201 
646 182 170 94 214 
647 190 210 191 218 
648 11 124 119 207 
649 95 168 75 193 
650 90 30 21 212 
651 165 204 141 209 
652 106 200 195 212 
653 153 39 133 204 
654 59 139 200 205 
655 59 139 102 200 
656 194 208 190 217 
657 187 198 196 199 
658 74 108 202 207 
659 172 200 106 212 
660 156 195 106 200 
661 182 40 170 214 
662 84 201 95 216 
663 179 207 163 219 
664 187 203 191 218 
665 19 105 61 194 
666 192 187 211 215 
667 12 109 164 193 
668 153 65 39 204 
669 181 70 119 197 
670 196 198 187 208 
671 98 195 175 214 
672 162 211 192 219 
673 164 12 193 215 
674 187 199 196 218 
675 111 194 121 217 
676 164 193 109 220 
677 127 154 67 210 
678 40 175 195 214 
679 163 198 83 219 
680 75 193 37 216 
681 183 72 34 217 
682 161 159 196 218 
683 188 197 195 214 
684 2 204 72 217 
685 188 207 192 219 
686 79 107 151 214 
687 106 195 90 212 
688 103 140 142 201 
689 188 202 192 207 
690 187 192 211 219 
691 161 69 136 196 
692 11 107 124 207 
693 119 163 179 207 
694 97 61 105 194 
695 194 205 189 208 
696 40 156 170 195 
697 153 134 173 210 
698 166 205 73 209 
699 69 209 101 212 
700 74 202 107 207 
701 78 191 104 220 
702 71 111 121 217 
703 75 178 37 193 
704 162 207 179 219 
705 73 166 19 205 
706 40 175 68 195 
707 111 115 121 194 
708 100 196 136 199 
709 168 14 109 220 
710 192 211 193 215 
711 11 119 176 207 
712 74 46 108 207 
713 111 149 114 205 
714 184 151 38 202 
715 131 137 198 208 
716 12 213 193 215 
717 189 198 196 208 
718 19 114 93 205 
719 120 179 162 207 
720 178 42 86 213 
721 193 213 192 215 
722 175 98 68 195 
723 79 151 184 214 
724 178 86 37 213 
725 88 134 159 210 
726 40 68 90 195 
727 193 211 187 215 
728 139 138 27 200 
729 164 47 12 215 
730 185 79 184 214 
731 163 138 83 198 
732 21 106 90 212 
733 189 205 194 209 
734 2 91 97 217 
735 75 168 178 193 
736 191 201 193 220 
737 2 65 72 204 
738 143 38 53 202 
739 84 64 201 216 
740 186 34 173 210 
741 102 118 35 200 
742 100 136 116 199 
743 109 12 42 213 
744 195 200 189 212 
745 102 27 118 200 
746 163 27 138 197 
747 166 73 66 209 
748 156 106 118 200 
749 68 195 144 212 
750 83 137 171 219 
751 153 133 99 204 
752 176 120 46 207 
753 96 84 64 201 
754 87 126 76 220 
755 75 84 95 216 
756 63 38 151 202 
757 66 101 9 129 
758 144 68 98 195 
759 84 110 64 216 
760 82 147 67 210 
761 96 95 84 201 
762 90 106 156 195 
763 161 196 100 218 
764 50 86 42 213 
765 151 107 74 202 
766 190 204 194 217 
767 119 181 124 146 
768 79 94 107 214 
769 59 149 139 205 
770 50 42 53 213 
771 83 198 137 219 
772 171 211 162 219 
773 161 136 100 196 
774 101 69 145 209 
775 85 37 86 213 
776 35 106 172 200 
777 117 96 64 201 
778 26 77 113 206 
779 110 140 64 216 
780 161 100 159 218 
781 101 9 174 66 
782 70 62 27 197 
783 185 175 182 214 
784 121 91 45 217 
785 78 126 87 220 
786 94 170 181 197 
787 145 9 101 129 
788 131 132 137 208 
789 114 59 93 205 
790 185 184 177 214 
791 132 111 71 208 
792 86 50 160 213 
793 51 38 63 160 
794 68 144 30 212 
795 119 70 163 197 
796 80 93 59 205 
797 82 173 134 210 
798 164 109 14 220 
799 53 160 50 213 
800 134 147 82 210 
801 133 92 141 204 
802 179 176 119 207 
803 76 126 95 220 
804 179 163 83 219 
805 140 201 64 216 
806 166 18 105 209 
807 172 174 66 212 
808 84 125 110 216 
809 74 107 11 207 
810 80 172 73 205 
811 15 213 12 215 
812 18 145 141 209 
813 19 93 73 205 
814 40 90 156 195 
815 176 179 120 207 
816 125 180 110 216 
817 103 142 135 203 
818 98 112 136 199 
819 145 18 129 209 
820 170 156 62 197 
821 58 155 71 217 
822 61 91 17 121 
823 28 183 26 206 
824 43 27 62 118 
825 143 184 38 202 
826 39 92 133 204 
827 30 101 174 212 
828 38 51 53 160 
829 26 89 77 206 
830 92 2 97 204 
831 146 119 181 70 
832 142 132 135 203 
833 133 141 165 204 
834 11 176 46 207 
835 124 31 11 119 
836 183 58 45 217 
837 93 114 19 169 
838 147 134 88 210 
839 176 11 31 119 
840 177 98 175 214 
841 21 172 106 212 
842 121 17 61 115 
843 131 137 138 198 
844 21 30 174 212 
845 121 45 91 54 
846 165 141 145 209 
847 86 160 85 213 
848 121 45 58 217 
849 140 211 201 216 
850 144 69 101 212 
851 148 36 150 180 
852 128 102 27 118 
853 138 137 83 198 
854 1 67 147 87 
855 140 171 142 211 
856 165 145 69 209 
857 88 159 104 218 
858 36 60 148 150 
859 35 102 128 118 
860 150 110 180 216 
861 10 87 78 126 
862 74 108 63 202 
863 91 2 72 217 
864 171 150 162 211 
865 78 14 126 220 
866 77 44 113 81 
867 26 113 28 206 
868 114 115 19 169 
869 72 183 45 217 
870 99 133 165 204 
871 186 26 183 206 
872 130 38 184 151 
873 150 211 140 216 
874 184 157 79 185 
875 40 182 175 214 
876 104 100 47 218 
877 185 23 182 175 
878 164 78 104 220 
879 181 62 70 197 
880 68 52 90 30 
881 153 48 39 65 
882 132 131 111 208 
883 53 12 15 213 
884 103 117 64 201 
885 153 134 7 173 
886 182 79 185 214 
887 52 21 90 30 
888 186 173 82 210 
889 77 113 25 26 
890 38 130 63 151 
891 118 106 35 200 
892 66 129 166 209 
893 114 59 20 93 
894 162 179 83 219 
895 170 62 181 197 
896 11 46 74 207 
897 83 171 162 219 
898 43 27 70 62 
899 110 125 56 180 
900 151 74 63 202 
901 135 155 113 206 
902 166 129 18 209 
903 126 168 95 220 
904 78 14 10 126 
905 201 211 193 216 
906 87 147 1 78 
907 59 80 20 93 
908 147 82 67 49 
909 82 67 154 210 
910 178 109 41 42 
911 44 117 113 81 
912 134 82 7 173 
913 27 102 139 200 
914 184 157 151 79 
915 178 168 24 109 
916 147 134 82 49 
917 163 70 27 197 
918 58 45 121 54 
919 140 103 64 201 
920 122 90 40 68 
921 40 175 122 68 
922 133 48 39 153 
923 174 172 21 212 
924 116 136 112 199 
925 150 171 140 211 
926 167 84 64 96 
927 150 110 56 180 
928 180 75 37 216 
929 80 73 93 205 
930 133 39 22 92 
931 82 154 186 210 
932 186 89 26 206 
933 84 75 125 216 
934 14 24 168 109 
935 47 116 15 215 
936 133 22 141 92 
937 126 14 168 220 
938 110 150 140 216 
939 28 25 113 26 
940 41 86 178 42 
941 39 65 2 204 
942 79 182 94 214 
943 113 155 28 206 
944 2 92 39 204 
945 65 153 48 173 
946 47 15 12 215 
947 174 30 4 101 
948 61 16 19 115 
949 59 114 149 205 
950 177 175 185 214 
951 152 32 36 60 
952 23 182 79 185 
953 84 125 33 110 
954 121 58 71 217 
955 110 33 84 64 
956 55 176 120 46 
957 4 21 30 174 
958 117 167 64 96 
959 91 72 45 217 
960 43 70 3 62 
961 18 145 129 29 
962 70 181 3 62 
963 51 50 53 160 
964 27 43 128 118 
965 30 144 101 212 
966 91 17 121 54 
967 53 42 12 213 
968 158 45 183 58 
969 23 40 182 175 
970 1 10 87 78 
971 55 120 152 46 
972 134 7 82 49 
973 125 75 180 216 
974 57 11 176 46 
975 152 32 60 120 
976 159 100 104 218 
977 115 16 19 169 
978 18 145 29 141 
979 124 31 119 146 
980 150 56 148 180 
981 113 25 44 77 
982 14 13 126 168 
983 158 183 28 58 
984 52 90 122 68 
985 176 31 11 57 
986 78 164 14 220 
987 175 23 40 122 
988 79 157 23 185 
989 28 123 26 183 
990 96 117 5 81 
991 38 130 51 63 
992 86 41 50 42 
993 146 181 3 70 
994 4 21 52 30 
995 102 6 35 128 
996 130 184 157 151 
997 80 20 6 59 
998 152 32 120 55 
999 7 48 153 173 
1000 33 167 84 64 
1001 13 14 24 168 
1002 58 158 45 54 
1003 17 16 61 115 
1004 141 22 8 92 
1005 14 13 10 126 
1006 8 18 141 92 
1007 129 145 9 29 
1008 109 24 178 41 
1009 147 67 1 49 
1010 93 20 114 169 
1011 32 36 60 148 
1012 174 4 9 101 
1013 29 8 18 141 
1014 55 57 176 46 
1015 117 5 167 96 
1016 125 33 110 56 
1017 48 39 22 133 
1018 28 123 25 26 
1019 28 123 183 158 
1020 117 44 5 81 
1021 204 34 210 65 
1022 204 210 34 190 
1023 202 112 215 143 
1024 202 215 112 199 
1025 65 210 153 173 
1026 153 210 65 204 
1027 206 103 135 203 
1028 206 135 103 113 
1029 206 127 81 191 
1030 206 81 127 89 
1031 216 211 36 150 
1032 216 36 211 192 
1033 60 36 211 150 
1034 60 211 36 192 
1035 215 143 213 202 
1036 215 213 143 15 
1037 219 197 207 163 
1038 219 207 197 188 
1039 215 112 116 15 
1040 215 116 112 199 
1041 116 218 47 100 
1042 47 218 116 215 
1043 205 115 111 194 
1044 205 111 115 114 
1045 61 217 97 91 
1046 97 217 61 194 
1047 129 101 209 66 
1048 129 209 101 145 
1049 59 35 6 80 
1050 6 35 59 102 
1051 210 89 186 206 
1052 210 186 89 154 
$EndElements
