# Blender 3.3.0
# www.blender.org
mtllib wedge.mtl
o Cube
v 0.750000 -0.400000 1.000000
v -0.750000 -0.400000 1.000000
v 0.750000 -0.400000 -1.000000
v -0.750000 -0.400000 -1.000000
v 0.750000 0.400000 1.000000
v -0.750000 0.400000 1.000000
v 0.750000 0.400000 -1.000000
v -0.750000 0.400000 -1.000000
v -0.006476 -0.025732 -1.000000
v 0.427652 0.400000 -1.000000
v -0.423975 0.400000 -1.000000
v 0.427652 0.400000 1.000000
v -0.423975 0.400000 1.000000
v -0.006476 -0.025732 1.000000
vn -0.0000 -1.0000 -0.0000
vn -0.0000 -0.0000 -1.0000
vn -0.0000 1.0000 -0.0000
vn -0.0000 -0.0000 1.0000
vn 1.0000 -0.0000 -0.0000
vn -1.0000 -0.0000 -0.0000
vn 0.7140 0.7002 -0.0000
vn -0.7002 0.7140 -0.0000
vt 0.375000 0.000000
vt 0.375000 1.000000
vt 0.125000 0.750000
vt 0.625000 0.000000
vt 0.625000 1.000000
vt 0.875000 0.750000
vt 0.375000 0.250000
vt 0.125000 0.500000
vt 0.625000 0.250000
vt 0.875000 0.500000
vt 0.375000 0.750000
vt 0.625000 0.750000
vt 0.375000 0.500000
vt 0.625000 0.500000
vt 0.501079 0.366959
vt 0.375000 0.222680
vt 0.125000 0.527320
vt 0.428725 0.500000
vt 0.211578 0.527320
vt 0.570662 0.500000
vt 0.459131 0.222680
vt 0.428725 0.750000
vt 0.211578 0.722680
vt 0.570662 0.750000
vt 0.459131 0.027320
vt 0.501079 0.883041
vt 0.375000 0.027320
vt 0.125000 0.722680
s 0
usemtl 
f 1/1/1 2/4/1 4/9/1 3/7/1
f 7/13/2 3/7/2 4/9/2 8/14/2 11/20/2 9/15/2 10/18/2
f 11/20/3 8/14/3 6/12/3 13/24/3
f 12/22/3 5/11/3 7/13/3 10/18/3
f 13/24/4 6/12/4 2/5/4 1/2/4 5/11/4 12/22/4 14/26/4
f 3/8/5 7/13/5 5/11/5 1/3/5
f 8/14/6 4/10/6 2/6/6 6/12/6
f 14/27/7 9/16/7 11/21/7 13/25/7
f 10/19/8 9/17/8 14/28/8 12/23/8
