vn 0.577350 -0.577350 0.577350
v 0.750000 -0.400000 1.000000
vn -0.577350 -0.577350 0.577350
v -0.750000 -0.400000 1.000000
vn 0.577350 -0.577350 -0.577350
v 0.750000 -0.400000 -1.000000
vn -0.577350 -0.577350 -0.577350
v -0.750000 -0.400000 -1.000000
vn 0.577350 0.577350 0.577350
v 0.750000 0.400000 1.000000
vn -0.577350 0.577350 0.577350
v -0.750000 0.400000 1.000000
vn 0.577350 0.577350 -0.577350
v 0.750000 0.400000 -1.000000
vn -0.577350 0.577350 -0.577350
v -0.750000 0.400000 -1.000000
vn 0.004163 0.426381 -0.904534
v -0.006476 -0.025732 -1.000000
vn -0.293355 0.718118 -0.631070
v 0.427652 0.400000 -1.000000
vn 0.300859 0.716426 -0.629458
v -0.423975 0.400000 -1.000000
vn -0.293355 0.718118 0.631070
v 0.427652 0.400000 1.000000
vn 0.300859 0.716426 0.629458
v -0.423975 0.400000 1.000000
vn 0.004163 0.426381 0.904534
v -0.006476 -0.025732 1.000000
vn -0.378168 0.925737 0.000000
v 0.427652 0.400000 0.203125
vn 0.009764 0.999952 0.000000
v -0.006476 -0.025732 0.000000
vn 0.387189 0.922000 0.000000
v -0.423975 0.400000 0.035400
vn 0.000000 -0.707107 0.707107
v 0.220459 -0.400000 1.000000
vn 0.000000 -0.707107 0.707107
v -0.264771 -0.400000 1.000000
vn 0.000000 -1.000000 0.000000
v -0.007385 -0.400000 0.054688
vn -0.707107 -0.707107 0.000000
v -0.750000 -0.400000 0.328125
vn 0.707107 -0.707107 0.000000
v 0.750000 -0.400000 0.000000
# 22 vertices, 0 vertices normals
vt 0.443356 0.125000
vt 0.448615 0.125000
vt 0.438098 0.100580
f 17/1/17 13/2/13 14/3/14
vt 0.405220 0.468750
vt 0.405220 0.484375
vt 0.403541 0.476562
f 7/4/7 3/5/3 10/6/10
vt 0.476275 0.368969
vt 0.483556 0.399180
vt 0.482991 0.400219
f 3/7/3 9/8/9 10/9/10
vt 0.625000 0.688477
vt 0.611416 0.687500
vt 0.625000 0.687500
f 6/10/6 13/11/13 17/12/17
vt 0.441672 0.970760
vt 0.449522 0.967105
vt 0.441674 0.970760
f 1/13/1 5/14/5 12/15/12
vt 0.133117 0.553266
vt 0.130411 0.551740
f 16/16/16 15/17/15 10/16/10
vt 0.130411 0.554793
f 9/16/9 16/18/16 10/18/10
vt 0.427582 0.198260
vt 0.427582 0.222680
vt 0.427582 0.198260
f 16/19/16 9/20/9 11/21/11
vt 0.440727 0.204365
vt 0.443356 0.210470
vt 0.443356 0.210470
f 17/22/17 16/23/16 11/24/11
vt 0.391789 0.625000
vt 0.396826 0.640625
vt 0.388431 0.625000
f 5/25/5 15/26/15 12/27/12
vt 0.522378 0.899237
vt 0.520442 0.901316
vt 0.516569 0.897661
f 14/28/14 19/29/19 18/30/18
vt 0.555373 0.470767
vt 0.560367 0.469256
vt 0.555407 0.470832
f 11/31/11 4/32/4 8/33/8
vt 0.568876 0.765591
vt 0.561964 0.766630
vt 0.568890 0.765461
f 13/34/13 6/35/6 2/36/2
vt 0.625000 0.625977
vt 0.611416 0.625000
f 6/37/6 17/38/17 8/37/8
vt 0.562500 0.060547
vt 0.560547 0.052734
vt 0.560547 0.052246
f 20/39/20 22/40/22 18/41/18
vt 0.539125 0.250114
vt 0.539094 0.250057
vt 0.543499 0.254569
f 4/42/4 11/43/11 9/44/9
vt 0.375000 0.076148
vt 0.375000 0.076154
vt 0.377629 0.063950
f 17/45/17 14/46/14 16/47/16
vt 0.146645 0.686050
vt 0.146623 0.698260
vt 0.146634 0.698260
f 15/48/15 16/49/16 14/50/14
vt 0.535014 0.824056
vt 0.535442 0.820288
f 19/51/19 13/52/13 2/52/2
vt 0.381716 0.812500
vt 0.375000 0.812500
f 18/53/18 12/54/12 14/54/14
vt 0.146645 0.698260
f 15/48/15 14/50/14 12/55/12
f 14/51/14 13/52/13 19/52/19
f 1/53/1 12/54/12 18/54/18
vt 0.375000 0.125000
vt 0.390625 0.140625
f 1/56/1 18/57/18 22/56/22
vt 0.401863 0.625000
vt 0.395147 0.597656
vt 0.395147 0.593750
f 10/58/10 15/59/15 7/60/7
vt 0.596133 0.609375
vt 0.597831 0.621094
vt 0.597831 0.623047
f 17/61/17 11/62/11 8/63/8
vt 0.609375 0.109375
vt 0.617188 0.115234
vt 0.609863 0.109802
f 4/64/4 20/65/20 21/66/21
vt 0.560547 0.051758
f 20/39/20 18/41/18 19/67/19
vt 0.843750 0.648682
vt 0.843750 0.648926
vt 0.839844 0.646729
f 21/68/21 2/69/2 6/70/6
vt 0.610352 0.110229
f 21/66/21 20/65/20 19/71/19
vt 0.614258 0.113159
vt 0.615234 0.114014
vt 0.613281 0.112793
f 2/72/2 21/73/21 19/74/19
vt 0.324707 0.574707
vt 0.321533 0.575439
f 7/75/7 5/75/5 22/76/22
f 22/56/22 20/57/20 3/56/3
vt 0.250000 0.625000
vt 0.257812 0.617188
vt 0.265625 0.625000
f 7/77/7 22/78/22 3/79/3
vt 0.318359 0.576172
vt 0.318359 0.576172
f 1/80/1 22/76/22 5/81/5
vt 0.841797 0.647705
f 4/82/4 21/68/21 8/82/8
vt 0.469020 0.279240
vt 0.453530 0.293860
vt 0.469020 0.279240
f 4/83/4 9/84/9 3/85/3
vt 0.398505 0.613281
vt 0.398505 0.617188
f 5/86/5 7/86/7 15/87/15
vt 0.449219 0.103516
vt 0.437500 0.093750
f 20/88/20 4/89/4 3/89/3
f 6/70/6 8/70/8 21/68/21
# 40 faces, 89 coords texture

# End of File
