$MeshFormat
4.1 0 8
$EndMeshFormat
$Entities
0 0 1 1
1 -0.75 -0.4 -1 0.75 0.4 1 0 0 
1 -0.75 -0.4 -1 0.75 0.4 1 0 1 1 
$EndEntities
$Nodes
2 22 1 22
2 1 0 22
1
2
3
4
5
6
7
8
9
10
11
12
13
14
15
16
17
18
19
20
21
22
0.75 -0.4 1
-0.75 -0.4 1
0.75 -0.4 -1
-0.75 -0.4 -1
0.75 0.4 1
-0.75 0.4 1
0.75 0.4 -1
-0.75 0.4 -1
-0.006476 -0.025732 -1
0.427652 0.4 -1
-0.423975 0.4 -1
0.427652 0.4 1
-0.423975 0.4 1
-0.006476 -0.02573201 1
0.427652 0.4 0.203125
-0.006476 -0.025732 0
-0.423975 0.4 0.03540039
0.220459 -0.4 1
-0.2647705 -0.4 1
-0.007385234 -0.4 0.05468779
-0.75 -0.4 0.328125
0.75 -0.4 0
3 1 0 0
$EndNodes
$Elements
2 75 1 75
2 1 2 40
1 1 5 12 
2 1 22 5 
3 1 12 18 
4 1 18 22 
5 13 6 2 
6 21 2 6 
7 19 13 2 
8 2 21 19 
9 4 9 3 
10 20 4 3 
11 7 3 10 
12 7 22 3 
13 3 9 10 
14 22 20 3 
15 11 4 8 
16 4 21 8 
17 4 11 9 
18 4 20 21 
19 5 7 15 
20 7 5 22 
21 5 15 12 
22 6 17 8 
23 6 8 21 
24 6 13 17 
25 10 15 7 
26 17 11 8 
27 9 16 10 
28 16 9 11 
29 16 15 10 
30 17 16 11 
31 15 14 12 
32 18 12 14 
33 17 13 14 
34 14 13 19 
35 15 16 14 
36 17 14 16 
37 14 19 18 
38 20 18 19 
39 20 22 18 
40 21 20 19 
3 1 4 35
41 4 9 20 3 
42 12 1 18 15 
43 16 9 4 11 
44 16 9 10 3 
45 15 22 16 10 
46 4 16 11 17 
47 17 8 4 21 
48 1 22 18 15 
49 4 16 17 21 
50 12 18 14 15 
51 9 16 20 3 
52 4 9 16 20 
53 10 22 16 3 
54 13 2 21 19 
55 21 17 13 14 
56 4 16 21 20 
57 16 14 18 15 
58 22 20 16 3 
59 19 21 13 14 
60 16 17 21 14 
61 16 21 19 14 
62 10 15 22 7 
63 22 1 5 15 
64 8 4 11 17 
65 12 5 1 15 
66 16 21 20 19 
67 22 10 7 3 
68 13 6 17 21 
69 6 13 2 21 
70 8 17 6 21 
71 15 5 22 7 
72 16 22 18 20 
73 16 18 22 15 
74 18 16 19 14 
75 18 19 16 20 
$EndElements
