####
#
# OBJ File Generated by Meshlab
#
####
# Object 15cards_330.obj
#
# Vertices: 330
# Faces: 420
#
####
mtllib ./15cards_330.obj.mtl

vn 0.939693 0.000000 -0.342019
v 0.017283 0.000000 0.000000
vn 0.939693 -0.000000 -0.342019
v 0.017283 0.100000 0.000000
vn 0.939693 0.000000 -0.342019
v 0.085687 0.100000 0.187939
vn 0.939693 0.000000 -0.342019
v 0.085687 0.000000 0.187939
vn 0.939693 0.000000 0.342020
v 0.160583 0.000000 0.000000
vn 0.939693 -0.000000 0.342019
v 0.160583 0.100000 0.000000
vn 0.939693 0.000001 0.342020
v 0.092179 0.100000 0.187939
vn 0.939693 0.000000 0.342019
v 0.092179 0.000000 0.187939
vn 0.939693 0.000000 -0.342019
v 0.165240 0.000000 0.000000
vn 0.939693 -0.000000 -0.342019
v 0.165240 0.100000 0.000000
vn 0.939693 -0.000001 -0.342020
v 0.233644 0.100000 0.187939
vn 0.939693 0.000000 -0.342019
v 0.233644 0.000000 0.187939
vn 0.939693 0.000000 0.342019
v 0.305311 0.000000 0.000000
vn 0.939693 0.000001 0.342018
v 0.305311 0.100000 0.000000
vn 0.939693 0.000000 0.342019
v 0.236907 0.100000 0.187939
vn 0.939693 -0.000001 0.342020
v 0.236907 0.000000 0.187939
vn 0.939693 0.000002 -0.342018
v 0.310026 0.000000 0.000000
vn 0.939693 0.000000 -0.342019
v 0.310026 0.100000 0.000000
vn 0.939692 -0.000002 -0.342021
v 0.378430 0.100000 0.187939
vn 0.939693 0.000000 -0.342019
v 0.378430 0.000000 0.187939
vn 0.939692 0.000002 0.342021
v 0.451685 0.000000 0.000000
vn 0.939693 0.000001 0.342018
v 0.451685 0.100000 0.000000
vn 0.939692 0.000002 0.342021
v 0.383281 0.100000 0.187939
vn 0.939693 0.000000 0.342019
v 0.383281 0.000000 0.187939
vn 0.000000 0.000000 -1.000000
v 0.060000 0.000000 0.189010
vn 0.000000 0.000000 -1.000000
v 0.060000 0.100000 0.189010
vn 0.000000 0.000000 -1.000000
v 0.260000 0.100000 0.189010
vn 0.000000 0.000000 -1.000000
v 0.260000 0.000000 0.189010
vn 0.000000 0.000000 -1.000000
v 0.220000 0.000000 0.191010
vn 0.000000 0.000000 -1.000000
v 0.220000 0.100000 0.191010
vn 0.000000 0.000000 -1.000000
v 0.420000 0.100000 0.191010
vn 0.000000 0.000000 -1.000000
v 0.420000 0.000000 0.191010
vn 0.939693 0.000000 -0.342019
v 0.092097 0.000000 0.192383
vn 0.939693 0.000000 -0.342020
v 0.092097 0.100000 0.192383
vn 0.939693 0.000000 -0.342020
v 0.160501 0.100000 0.380322
vn 0.939693 0.000000 -0.342019
v 0.160501 0.000000 0.380322
vn 0.939692 0.000001 0.342021
v 0.233838 0.000000 0.192383
vn 0.939692 -0.000003 0.342022
v 0.233838 0.100000 0.192383
vn 0.939693 0.000001 0.342020
v 0.165434 0.100000 0.380322
vn 0.939693 0.000000 0.342019
v 0.165434 0.000000 0.380322
vn 0.939693 -0.000001 -0.342020
v 0.237887 0.000000 0.192383
vn 0.939693 -0.000000 -0.342019
v 0.237887 0.100000 0.192383
vn 0.939693 0.000000 -0.342019
v 0.306291 0.100000 0.380322
vn 0.939693 0.000000 -0.342020
v 0.306291 0.000000 0.380322
vn 0.939693 0.000000 0.342019
v 0.381268 0.000000 0.192383
vn 0.939693 -0.000001 0.342020
v 0.381268 0.100000 0.192383
vn 0.939694 -0.000002 0.342017
v 0.312864 0.100000 0.380322
vn 0.939693 0.000000 0.342019
v 0.312864 0.000000 0.380322
vn 0.000000 0.000000 -1.000000
v 0.140000 0.000000 0.381991
vn 0.000000 0.000000 -1.000000
v 0.140000 0.100000 0.381991
vn 0.000000 0.000000 -1.000000
v 0.340000 0.100000 0.381991
vn 0.000000 0.000000 -1.000000
v 0.340000 0.000000 0.381991
vn 0.939693 0.000001 -0.342018
v 0.167471 0.000000 0.383491
vn 0.939693 -0.000000 -0.342019
v 0.167471 0.100000 0.383491
vn 0.939693 -0.000000 -0.342020
v 0.235875 0.100000 0.571430
vn 0.939693 0.000000 -0.342019
v 0.235875 0.000000 0.571430
vn 0.939693 0.000000 0.342020
v 0.305822 0.000000 0.383491
vn 0.939693 -0.000001 0.342020
v 0.305822 0.100000 0.383491
vn 0.939692 0.000002 0.342021
v 0.237418 0.100000 0.571430
vn 0.939693 -0.000001 0.342020
v 0.237418 0.000000 0.571430
vn 0.939693 0.000000 -0.342019
v 0.044003 0.100000 0.073414
vn 0.939693 -0.000002 0.342019
v 0.133863 0.100000 0.073414
vn 0.939693 -0.000001 -0.342019
v 0.191960 0.100000 0.073414
vn 0.939693 -0.000000 -0.342019
v 0.352511 0.000000 0.116728
vn 0.939692 0.000002 0.342021
v 0.409200 0.000000 0.116728
vn 0.000000 0.000000 -1.000000
v 0.184219 0.000000 0.189010
vn 0.000000 0.000000 -1.000000
v 0.344219 0.000000 0.191010
vn 0.939693 0.000000 -0.342019
v 0.134582 0.000000 0.309111
vn 0.939693 -0.000001 0.342019
v 0.191353 0.000000 0.309111
vn 0.939693 -0.000000 -0.342019
v 0.280372 0.000000 0.309111
vn 0.939692 0.000000 0.342021
v 0.338783 0.000000 0.309111
vn 0.000000 0.000000 -1.000000
v 0.264219 0.000000 0.381991
vn 0.939693 0.000001 -0.342019
v 0.209956 0.000000 0.500219
vn 0.939693 -0.000001 0.342019
v 0.279102 0.100000 0.456905
vn 0.939693 -0.000000 -0.342019
v 0.032246 0.100000 0.041112
vn 0.939693 0.000000 -0.342019
v 0.049080 0.000000 0.087362
vn 0.939693 -0.000000 0.342019
v 0.145620 0.100000 0.041112
vn 0.939693 0.000003 0.342019
v 0.128786 0.000000 0.087362
vn 0.939693 -0.000001 -0.342019
v 0.180203 0.100000 0.041112
vn 0.939693 -0.000002 -0.342019
v 0.197037 0.000000 0.087362
vn 0.939693 0.000002 0.342019
v 0.263627 0.100000 0.114525
vn 0.939694 -0.000002 -0.342017
v 0.320997 0.069705 0.030143
vn 0.939693 -0.000002 0.342019
v 0.440714 0.069705 0.030143
vn 0.000000 0.000000 -1.000000
v 0.092077 0.069705 0.189010
vn 0.000000 0.000000 -1.000000
v 0.252077 0.069705 0.191010
vn 0.939693 -0.000000 -0.342019
v 0.103068 0.069705 0.222526
vn 0.939693 -0.000001 0.342020
v 0.222867 0.069705 0.222526
vn 0.939693 0.000000 -0.342019
v 0.248858 0.069705 0.222526
vn 0.939693 -0.000000 0.342020
v 0.370297 0.069705 0.222526
vn 0.000000 0.000000 -1.000000
v 0.172077 0.069705 0.381991
vn 0.939693 -0.000001 -0.342019
v 0.178442 0.069705 0.413634
vn 0.939693 -0.000003 0.342020
v 0.290859 0.100000 0.424603
vn 0.939693 -0.000001 0.342019
v 0.274025 0.000000 0.470853
vn 0.939693 -0.000000 -0.342019
v 0.017283 0.046484 0.000000
vn 0.939693 0.000000 0.342019
v 0.160583 0.046484 0.000000
vn 0.939693 0.000000 -0.342020
v 0.165240 0.046484 0.000000
vn 0.939694 -0.000001 -0.342017
v 0.310026 0.046484 0.000000
vn 0.939692 0.000003 -0.342020
v 0.323386 0.000000 0.036707
vn 0.939693 -0.000002 0.342020
v 0.451685 0.046484 0.000000
vn 0.939693 0.000003 0.342019
v 0.438325 0.000000 0.036707
vn 0.000000 0.000000 -1.000000
v 0.060000 0.046484 0.189010
vn 0.000000 0.000000 -1.000000
v 0.099063 0.000000 0.189010
vn 0.000000 0.000000 -1.000000
v 0.220000 0.046484 0.191010
vn 0.000000 0.000000 -1.000000
v 0.259062 0.000000 0.191010
vn 0.939693 -0.000000 -0.342019
v 0.092097 0.046484 0.192383
vn 0.939693 0.000000 -0.342019
v 0.105457 0.000000 0.229090
vn 0.939692 0.000001 0.342023
v 0.233838 0.046484 0.192383
vn 0.939693 0.000002 0.342019
v 0.220478 0.000000 0.229090
vn 0.939693 0.000001 -0.342020
v 0.237887 0.046484 0.192383
vn 0.939693 -0.000002 -0.342019
v 0.251247 0.000000 0.229090
vn 0.939693 0.000000 0.342020
v 0.381268 0.046484 0.192383
vn 0.939693 0.000001 0.342019
v 0.367908 0.000000 0.229090
vn 0.000000 0.000000 -1.000000
v 0.140000 0.046484 0.381991
vn 0.000000 0.000000 -1.000000
v 0.179063 0.000000 0.381991
vn 0.939693 -0.000000 -0.342018
v 0.167471 0.046484 0.383491
vn 0.939693 0.000002 -0.342019
v 0.180831 0.000000 0.420198
vn 0.939694 0.000001 0.342018
v 0.305822 0.046484 0.383491
vn 0.939693 -0.000000 0.342018
v 0.305311 0.058594 0.000000
vn 0.939693 0.000000 -0.342019
v 0.070456 0.100000 0.146093
vn 0.939693 -0.000000 -0.342019
v 0.085687 0.044238 0.187939
vn 0.939693 -0.000000 -0.342019
v 0.042077 0.033577 0.068121
vn 0.939693 0.000000 -0.342019
v 0.024898 0.000000 0.020923
vn 0.939693 0.000001 0.342019
v 0.107410 0.100000 0.146093
vn 0.939693 -0.000000 0.342020
v 0.092179 0.044238 0.187939
vn 0.939693 0.000001 0.342020
v 0.135789 0.033577 0.068120
vn 0.939693 -0.000000 0.342019
v 0.152968 0.000000 0.020923
vn 0.939693 -0.000002 -0.342019
v 0.218413 0.100000 0.146093
vn 0.939693 0.000000 -0.342020
v 0.233644 0.044238 0.187939
vn 0.939693 0.000000 -0.342019
v 0.190034 0.033577 0.068121
vn 0.939693 -0.000001 -0.342020
v 0.172855 0.000000 0.020923
vn 0.939693 0.000001 0.342020
v 0.290348 0.100000 0.041112
vn 0.939692 0.000000 0.342021
v 0.236907 0.044238 0.187939
vn 0.939693 -0.000000 0.342019
v 0.247972 0.029446 0.157539
vn 0.939693 -0.000000 0.342019
v 0.305311 0.019922 0.000000
vn 0.939694 -0.000004 -0.342017
v 0.328730 0.100000 0.051390
vn 0.939692 0.000001 -0.342021
v 0.378430 0.048779 0.187939
vn 0.939693 0.000001 -0.342020
v 0.372017 0.000000 0.170320
vn 0.939693 0.000001 0.342020
v 0.432981 0.100000 0.051390
vn 0.939693 -0.000002 0.342019
v 0.383281 0.048779 0.187939
vn 0.939693 0.000002 0.342018
v 0.389694 0.000000 0.170320
vn 0.000000 0.000000 -1.000000
v 0.114688 0.100000 0.189010
vn 0.000000 0.000000 -1.000000
v 0.260000 0.048779 0.189010
vn 0.000000 0.000000 -1.000000
v 0.241250 0.000000 0.189010
vn 0.000000 0.000000 -1.000000
v 0.274687 0.100000 0.191010
vn 0.000000 0.000000 -1.000000
v 0.420000 0.048779 0.191010
vn 0.000000 0.000000 -1.000000
v 0.401250 0.000000 0.191010
vn 0.939693 0.000001 -0.342019
v 0.110801 0.100000 0.243773
vn 0.939693 0.000000 -0.342020
v 0.160501 0.048779 0.380322
vn 0.939693 0.000000 -0.342020
v 0.154088 0.000000 0.362703
vn 0.939693 -0.000004 0.342018
v 0.215134 0.100000 0.243773
vn 0.939692 -0.000000 0.342020
v 0.165434 0.048779 0.380322
vn 0.939693 -0.000001 0.342020
v 0.171847 0.000000 0.362703
vn 0.939693 -0.000001 -0.342019
v 0.256591 0.100000 0.243773
vn 0.939693 -0.000000 -0.342019
v 0.306291 0.048779 0.380322
vn 0.939693 -0.000000 -0.342020
v 0.299878 0.000000 0.362703
vn 0.939693 -0.000002 0.342019
v 0.362564 0.100000 0.243773
vn 0.939694 0.000001 0.342017
v 0.312864 0.048779 0.380322
vn 0.939693 0.000001 0.342018
v 0.319277 0.000000 0.362703
vn 0.000000 0.000000 -1.000000
v 0.194688 0.100000 0.381991
vn 0.000000 0.000000 -1.000000
v 0.340000 0.048779 0.381991
vn 0.000000 0.000000 -1.000000
v 0.321250 0.000000 0.381991
vn 0.939693 -0.000000 -0.342019
v 0.186175 0.100000 0.434881
vn 0.939693 0.000000 -0.342020
v 0.235875 0.048779 0.571430
vn 0.939693 0.000000 -0.342019
v 0.229462 0.000000 0.553811
vn 0.939693 0.000003 0.342019
v 0.252649 0.100000 0.529584
vn 0.939692 -0.000001 0.342021
v 0.237418 0.044238 0.571430
vn 0.939692 0.000001 0.342021
v 0.281028 0.033577 0.451612
vn 0.939694 -0.000003 0.342017
v 0.298207 0.000000 0.404414
vn 0.939693 0.000000 -0.342019
v 0.053623 0.100000 0.099843
vn 0.939693 -0.000000 0.342019
v 0.124243 0.100000 0.099843
vn 0.939693 -0.000001 -0.342019
v 0.201580 0.100000 0.099843
vn 0.939693 0.000001 0.342019
v 0.269482 0.100000 0.483334
vn 0.939693 -0.000007 -0.342019
v 0.345297 0.100000 0.096906
vn 0.939693 0.000002 0.342019
v 0.416414 0.100000 0.096906
vn 0.000000 0.000000 -1.000000
v 0.163125 0.100000 0.189010
vn 0.000000 0.000000 -1.000000
v 0.323125 0.100000 0.191010
vn 0.939693 0.000000 -0.342019
v 0.127368 0.100000 0.289289
vn 0.939694 0.000002 0.342018
v 0.198567 0.100000 0.289289
vn 0.939693 0.000000 -0.342020
v 0.273158 0.100000 0.289289
vn 0.939693 0.000001 0.342019
v 0.345997 0.100000 0.289289
vn 0.000000 0.000000 -1.000000
v 0.243125 0.100000 0.381991
vn 0.939693 0.000001 -0.342019
v 0.202742 0.100000 0.480397
vn 0.939693 -0.000000 -0.342019
v 0.037858 0.000000 0.056529
vn 0.939693 0.000001 0.342020
v 0.140008 0.000000 0.056529
vn 0.939693 -0.000002 -0.342019
v 0.185815 0.000000 0.056529
vn 0.939692 -0.000002 0.342021
v 0.285247 0.000000 0.440020
vn 0.939693 -0.000000 0.342019
v 0.282541 0.070232 0.062560
vn 0.939693 -0.000001 0.342019
v 0.261131 0.033772 0.121384
vn 0.939693 0.000001 -0.342019
v 0.322412 0.035681 0.034032
vn 0.939693 -0.000001 0.342020
v 0.439298 0.035681 0.034031
vn 0.000000 0.000000 -1.000000
v 0.096216 0.035681 0.189010
vn 0.000000 0.000000 -1.000000
v 0.256216 0.035681 0.191010
vn 0.939693 -0.000000 -0.342019
v 0.104483 0.035681 0.226415
vn 0.939693 0.000002 0.342019
v 0.221451 0.035681 0.226415
vn 0.939693 0.000000 -0.342019
v 0.250273 0.035681 0.226415
vn 0.939693 0.000001 0.342019
v 0.368882 0.035681 0.226415
vn 0.000000 0.000000 -1.000000
v 0.176216 0.035681 0.381991
vn 0.939693 -0.000000 -0.342019
v 0.179857 0.035681 0.417523
vn 0.939693 0.000001 -0.342020
v 0.348771 0.061833 0.106453
vn 0.939693 -0.000001 0.342019
v 0.412940 0.061833 0.106453
vn 0.000000 0.000000 -1.000000
v 0.173284 0.061833 0.189010
vn 0.000000 0.000000 -1.000000
v 0.333284 0.061833 0.191010
vn 0.939693 -0.000000 -0.342019
v 0.130843 0.061833 0.298836
vn 0.939693 0.000001 0.342018
v 0.195093 0.061833 0.298836
vn 0.939693 0.000000 -0.342019
v 0.276633 0.061833 0.298836
vn 0.939693 0.000000 0.342020
v 0.342523 0.061833 0.298836
vn 0.000000 0.000000 -1.000000
v 0.253284 0.061833 0.381991
vn 0.939693 -0.000001 -0.342019
v 0.206217 0.061833 0.489944
vn 0.939693 -0.000000 -0.342018
v 0.333754 0.066440 0.065193
vn 0.939693 -0.000001 0.342019
v 0.427957 0.066440 0.065192
vn 0.000000 0.000000 -1.000000
v 0.129376 0.066440 0.189010
vn 0.000000 0.000000 -1.000000
v 0.289376 0.066440 0.191010
vn 0.939693 -0.000000 -0.342019
v 0.115825 0.066440 0.257576
vn 0.939694 0.000000 0.342017
v 0.210110 0.066440 0.257576
vn 0.939693 0.000001 -0.342019
v 0.261615 0.066440 0.257576
vn 0.939693 -0.000000 0.342018
v 0.357540 0.066440 0.257576
vn 0.000000 0.000000 -1.000000
v 0.209376 0.066440 0.381991
vn 0.939693 -0.000001 -0.342019
v 0.191199 0.066440 0.448684
vn 0.939693 0.000004 -0.342020
v 0.336223 0.031576 0.071975
vn 0.939693 -0.000000 0.342018
v 0.425488 0.031576 0.071975
vn 0.000000 0.000000 -1.000000
v 0.136594 0.031576 0.189010
vn 0.000000 0.000000 -1.000000
v 0.296594 0.031576 0.191010
vn 0.939693 -0.000000 -0.342019
v 0.118294 0.031576 0.264358
vn 0.939694 0.000000 0.342018
v 0.207641 0.031576 0.264358
vn 0.939693 -0.000000 -0.342019
v 0.264084 0.031576 0.264358
vn 0.939693 0.000001 0.342018
v 0.355071 0.031576 0.264358
vn 0.000000 0.000000 -1.000000
v 0.216594 0.031576 0.381991
vn 0.939693 -0.000000 -0.342020
v 0.193668 0.031576 0.455466
vn 0.939693 -0.000000 -0.342019
v 0.056854 0.034175 0.108721
vn 0.939693 -0.000000 0.342018
v 0.121012 0.034175 0.108721
vn 0.939693 0.000001 -0.342018
v 0.204811 0.034175 0.108721
vn 0.939693 -0.000000 0.342019
v 0.266251 0.034175 0.492212
vn 0.939693 0.000000 0.342019
v 0.287742 0.000000 0.048269
vn 0.939693 -0.000000 0.342020
v 0.292131 0.043143 0.036213
vn 0.939693 -0.000000 -0.342019
v 0.075354 0.069633 0.159548
vn 0.939693 0.000001 -0.342019
v 0.066782 0.000000 0.135999
vn 0.939693 0.000000 0.342020
v 0.102512 0.069633 0.159548
vn 0.939693 0.000001 0.342018
v 0.111084 0.000000 0.135999
vn 0.939693 -0.000000 -0.342020
v 0.223311 0.069633 0.159548
vn 0.939693 -0.000000 -0.342018
v 0.214739 0.000000 0.135999
vn 0.939693 0.000001 0.342020
v 0.246259 0.100000 0.162244
vn 0.939693 -0.000000 0.342019
v 0.276766 0.035860 0.078426
vn 0.939693 0.000000 0.342019
v 0.255812 0.000000 0.135999
vn 0.939693 0.000001 0.342019
v 0.269506 0.000000 0.098374
vn 0.939693 -0.000004 -0.342019
v 0.368410 0.100000 0.160409
vn 0.939693 0.000005 0.342019
v 0.393301 0.100000 0.160409
vn 0.000000 0.000000 -1.000000
v 0.230703 0.100000 0.189010
vn 0.000000 0.000000 -1.000000
v 0.390703 0.100000 0.191010
vn 0.939693 -0.000000 -0.342019
v 0.150481 0.100000 0.352792
vn 0.939693 0.000002 0.342019
v 0.175454 0.100000 0.352792
vn 0.939693 0.000000 -0.342019
v 0.296271 0.100000 0.352792
vn 0.939693 -0.000006 0.342019
v 0.322884 0.100000 0.352792
vn 0.000000 0.000000 -1.000000
v 0.310703 0.100000 0.381991
vn 0.939693 -0.000001 -0.342019
v 0.225855 0.100000 0.543900
vn 0.939693 0.000001 0.342020
v 0.247752 0.069633 0.543039
vn 0.939693 -0.000001 0.342019
v 0.256323 0.000000 0.519490
vn 0.939693 -0.000000 -0.342019
v 0.062777 0.067903 0.124995
vn 0.939693 -0.000001 0.342018
v 0.115089 0.067903 0.124995
vn 0.939693 0.000001 -0.342019
v 0.210734 0.067903 0.124995
vn 0.939693 0.000001 0.342018
v 0.260328 0.067903 0.508486
vn 0.939693 0.000001 0.342018
v 0.273247 0.100000 0.088096
vn 0.939693 -0.000002 -0.342019
v 0.341022 0.000000 0.085160
vn 0.939693 0.000001 0.342019
v 0.420689 0.000000 0.085160
vn 0.000000 0.000000 -1.000000
v 0.150625 0.000000 0.189010
vn 0.000000 0.000000 -1.000000
v 0.310625 0.000000 0.191010
vn 0.939693 0.000000 -0.342019
v 0.123093 0.000000 0.277543
vn 0.939693 -0.000000 0.342019
v 0.202842 0.000000 0.277543
vn 0.939693 -0.000001 -0.342019
v 0.268883 0.000000 0.277543
vn 0.939693 -0.000000 0.342019
v 0.350272 0.000000 0.277543
vn 0.000000 0.000000 -1.000000
v 0.230625 0.000000 0.381991
vn 0.939693 0.000002 -0.342019
v 0.198467 0.000000 0.468651
vn 0.939693 -0.000005 -0.342019
v 0.352778 0.100000 0.117462
vn 0.939693 0.000002 0.342018
v 0.408933 0.100000 0.117462
vn 0.000000 0.000000 -1.000000
v 0.185000 0.100000 0.189010
vn 0.000000 0.000000 -1.000000
v 0.345000 0.100000 0.191010
vn 0.939693 -0.000000 -0.342019
v 0.134850 0.100000 0.309845
vn 0.939693 0.000004 0.342019
v 0.191086 0.100000 0.309845
vn 0.939693 0.000001 -0.342019
v 0.280639 0.100000 0.309845
vn 0.939692 0.000000 0.342022
v 0.338515 0.100000 0.309845
vn 0.000000 0.000000 -1.000000
v 0.265000 0.100000 0.381991
vn 0.939693 0.000001 -0.342019
v 0.210224 0.100000 0.500953
vn 0.939693 -0.000000 -0.342019
v 0.030427 0.029962 0.036114
vn 0.939693 0.000000 0.342020
v 0.147439 0.029962 0.036114
vn 0.939693 0.000000 -0.342020
v 0.178384 0.029962 0.036114
vn 0.939693 0.000000 0.342019
v 0.292678 0.029962 0.419605
vn 0.939693 0.000000 0.342019
v 0.295127 0.074376 0.027981
vn 0.939693 0.000002 -0.342018
v 0.347872 0.025670 0.103981
vn 0.939692 -0.000000 0.342021
v 0.413839 0.025670 0.103981
vn 0.000000 0.000000 -1.000000
v 0.170654 0.025670 0.189010
vn 0.000000 0.000000 -1.000000
v 0.330654 0.025670 0.191010
vn 0.939693 0.000000 -0.342019
v 0.129943 0.025670 0.296364
vn 0.939693 -0.000002 0.342019
v 0.195992 0.025670 0.296364
vn 0.939693 -0.000001 -0.342019
v 0.275733 0.025670 0.296364
vn 0.939693 -0.000001 0.342020
v 0.343422 0.025670 0.296364
vn 0.000000 0.000000 -1.000000
v 0.250654 0.025670 0.381991
vn 0.939693 0.000000 -0.342019
v 0.205317 0.025670 0.487472
vn 0.939693 0.000002 -0.342020
v 0.360719 0.035071 0.139278
vn 0.939693 -0.000001 0.342020
v 0.400992 0.035071 0.139278
vn 0.000000 0.000000 -1.000000
v 0.208216 0.035071 0.189010
vn 0.000000 0.000000 -1.000000
v 0.368216 0.035071 0.191010
vn 0.939693 0.000000 -0.342019
v 0.142790 0.035071 0.331661
vn 0.939693 -0.000001 0.342020
v 0.183145 0.035071 0.331661
vn 0.939693 -0.000000 -0.342019
v 0.288580 0.035071 0.331661
vn 0.939692 0.000001 0.342021
v 0.330575 0.035071 0.331661
vn 0.000000 0.000000 -1.000000
v 0.288216 0.035071 0.381991
vn 0.939693 -0.000000 -0.342019
v 0.218164 0.035071 0.522769
vn 0.939693 -0.000000 -0.342019
v 0.072184 0.035997 0.150839
vn 0.939693 -0.000001 0.342019
v 0.105682 0.035997 0.150839
vn 0.939693 0.000001 -0.342019
v 0.220141 0.035997 0.150839
vn 0.939693 -0.000001 0.342020
v 0.250921 0.035997 0.534330
vn 0.939693 0.000000 -0.342019
v 0.048216 0.067579 0.084989
vn 0.939693 -0.000002 0.342019
v 0.129650 0.067579 0.084989
vn 0.939693 0.000001 -0.342019
v 0.196173 0.067579 0.084989
vn 0.939693 0.000001 0.342018
v 0.274888 0.067579 0.468480
vn 0.939692 -0.000001 -0.342021
v 0.364603 0.074266 0.149949
vn 0.939693 -0.000001 0.342019
v 0.397108 0.074266 0.149949
vn 0.000000 0.000000 -1.000000
v 0.219572 0.074266 0.189010
vn 0.000000 0.000000 -1.000000
v 0.379572 0.074266 0.191010
vn 0.939693 -0.000000 -0.342019
v 0.146674 0.074266 0.342332
vn 0.939693 0.000001 0.342020
v 0.179261 0.074266 0.342332
vn 0.939693 -0.000000 -0.342019
v 0.292464 0.074266 0.342332
vn 0.939693 -0.000001 0.342020
v 0.326691 0.074266 0.342332
vn 0.000000 0.000000 -1.000000
v 0.299572 0.074266 0.381991
vn 0.939693 -0.000000 -0.342019
v 0.222048 0.074266 0.533440
vn 0.939693 -0.000000 0.342018
v 0.267732 0.068165 0.103248
vn 0.939693 -0.000000 -0.342019
v 0.030059 0.069783 0.035101
vn 0.939693 -0.000000 0.342020
v 0.147807 0.069783 0.035101
vn 0.939693 0.000001 -0.342019
v 0.178016 0.069783 0.035101
vn 0.939693 0.000001 0.342020
v 0.293046 0.069783 0.418592
vn 0.939693 0.000000 0.342019
v 0.252543 0.067945 0.144980
# 330 vertices, 0 vertices normals


usemtl material_0
vt 0.009375 0.496250
vt 0.009375 0.490000
vt 0.012500 0.496250
f 242/1/242 233/2/233 234/3/234
vt 0.460000 0.490000
vt 0.460000 0.502500
vt 0.456875 0.490000
f 61/4/61 326/5/326 75/6/75
vt 0.363125 0.552500
vt 0.360000 0.546250
vt 0.363125 0.546250
f 229/7/229 76/8/76 121/9/121
vt 0.340000 0.490000
vt 0.340000 0.502500
vt 0.336875 0.490000
f 62/10/62 327/11/327 77/12/77
vt 0.243125 0.552500
vt 0.240000 0.546250
vt 0.243125 0.546250
f 230/13/230 78/14/78 125/15/125
vt 0.220000 0.490000
vt 0.220000 0.502500
vt 0.216875 0.490000
f 63/16/63 328/17/328 79/18/79
vt 0.123125 0.552500
vt 0.120000 0.546250
vt 0.123125 0.546250
f 231/19/231 80/20/80 129/21/129
vt 0.100000 0.483750
vt 0.098438 0.483750
vt 0.098438 0.477500
f 131/22/131 187/23/187 286/24/286
vt 0.100000 0.502500
vt 0.100000 0.515000
vt 0.096875 0.502500
f 131/25/131 261/26/261 187/27/187
vt 0.003125 0.552500
vt 0.000000 0.546250
vt 0.003125 0.546250
f 188/28/188 244/29/244 242/30/242
vt 0.580000 0.490000
vt 0.580000 0.502500
vt 0.576875 0.490000
f 74/31/74 329/32/329 92/33/92
vt 0.483125 0.552500
vt 0.480000 0.546250
vt 0.483125 0.546250
f 232/34/232 93/35/93 167/36/167
vt 0.481562 0.310625
vt 0.481562 0.316875
vt 0.480000 0.313750
f 219/37/219 199/38/199 287/39/287
vt 0.361563 0.310625
vt 0.361563 0.316875
vt 0.360000 0.313750
f 220/40/220 200/41/200 288/42/288
vt 0.241562 0.310625
vt 0.241562 0.316875
vt 0.240000 0.313750
f 221/43/221 201/44/201 289/45/289
vt 0.121562 0.310625
vt 0.121562 0.316875
vt 0.120000 0.313750
f 222/46/222 202/47/202 290/48/290
vt 0.001563 0.310625
vt 0.001563 0.316875
vt 0.000000 0.313750
f 223/49/223 203/50/203 291/51/291
vt 0.481562 0.090625
vt 0.481562 0.096875
vt 0.480000 0.093750
f 224/52/224 204/53/204 292/54/292
vt 0.361563 0.090625
vt 0.361563 0.096875
vt 0.360000 0.093750
f 225/55/225 205/56/205 293/57/293
vt 0.241562 0.090625
vt 0.241562 0.096875
vt 0.240000 0.093750
f 226/58/226 206/59/206 294/60/294
vt 0.121562 0.090625
vt 0.121562 0.096875
vt 0.120000 0.093750
f 227/61/227 207/62/207 295/63/295
vt 0.001563 0.090625
vt 0.001563 0.096875
vt 0.000000 0.093750
f 228/64/228 208/65/208 296/66/296
vt 0.579609 0.323906
vt 0.580000 0.326250
vt 0.579609 0.330156
f 199/67/199 173/68/173 272/69/272
vt 0.459609 0.323906
vt 0.460000 0.326250
vt 0.459609 0.330156
f 200/70/200 174/71/174 273/72/273
vt 0.339609 0.323906
vt 0.340000 0.326250
vt 0.339609 0.330156
f 201/73/201 175/74/175 274/75/274
vt 0.219609 0.323906
vt 0.220000 0.326250
vt 0.219609 0.330156
f 202/76/202 176/77/176 275/78/275
vt 0.099609 0.323906
vt 0.100000 0.326250
vt 0.099609 0.330156
f 203/79/203 177/80/177 276/81/276
vt 0.579609 0.103906
vt 0.580000 0.106250
vt 0.579609 0.110156
f 204/82/204 178/83/178 277/84/277
vt 0.459609 0.103906
vt 0.460000 0.106250
vt 0.459609 0.110156
f 205/85/205 179/86/179 278/87/278
vt 0.339609 0.103906
vt 0.340000 0.106250
vt 0.339609 0.110156
f 206/88/206 180/89/180 279/90/279
vt 0.219609 0.103906
vt 0.220000 0.106250
vt 0.219609 0.110156
f 207/91/207 181/92/181 280/93/280
vt 0.099609 0.103906
vt 0.100000 0.106250
vt 0.099609 0.110156
f 208/94/208 182/95/182 281/96/281
vt 0.056250 0.483750
vt 0.053125 0.477500
vt 0.056250 0.477500
f 286/97/286 187/98/187 234/99/234
vt 0.360000 0.627500
vt 0.363125 0.621250
vt 0.366250 0.627500
f 236/100/236 229/101/229 307/102/307
vt 0.240000 0.627500
vt 0.243125 0.621250
vt 0.246250 0.627500
f 238/103/238 230/104/230 308/105/308
vt 0.120000 0.627500
vt 0.123125 0.621250
vt 0.126250 0.627500
f 240/106/240 231/107/231 309/108/309
vt 0.000000 0.627500
vt 0.003125 0.621250
vt 0.006250 0.627500
f 243/109/243 188/110/188 133/111/133
vt 0.580000 0.257500
vt 0.576875 0.257500
vt 0.576875 0.251250
f 135/112/135 209/113/209 82/114/82
vt 0.460000 0.257500
vt 0.456875 0.257500
vt 0.456875 0.251250
f 138/115/138 210/116/210 83/117/83
vt 0.340000 0.257500
vt 0.336875 0.257500
vt 0.336875 0.251250
f 141/118/141 211/119/211 84/120/84
vt 0.220000 0.257500
vt 0.216875 0.257500
vt 0.216875 0.251250
f 144/121/144 212/122/212 85/123/85
vt 0.100000 0.257500
vt 0.096875 0.257500
vt 0.096875 0.251250
f 147/124/147 213/125/213 86/126/86
vt 0.580000 0.037500
vt 0.576875 0.037500
vt 0.576875 0.031250
f 150/127/150 214/128/214 87/129/87
vt 0.460000 0.037500
vt 0.456875 0.037500
vt 0.456875 0.031250
f 153/130/153 215/131/215 88/132/88
vt 0.340000 0.037500
vt 0.336875 0.037500
vt 0.336875 0.031250
f 156/133/156 216/134/216 89/135/89
vt 0.220000 0.037500
vt 0.216875 0.037500
vt 0.216875 0.031250
f 159/136/159 217/137/217 90/138/90
vt 0.100000 0.037500
vt 0.096875 0.037500
vt 0.096875 0.031250
f 162/139/162 218/140/218 91/141/91
vt 0.480000 0.627500
vt 0.483125 0.621250
vt 0.486250 0.627500
f 256/142/256 232/143/232 310/144/310
vt 0.487812 0.273125
vt 0.484687 0.273125
vt 0.486250 0.270000
f 209/145/209 219/146/219 189/147/189
vt 0.367813 0.273125
vt 0.364688 0.273125
vt 0.366250 0.270000
f 210/148/210 220/149/220 190/150/190
vt 0.247813 0.273125
vt 0.244687 0.273125
vt 0.246250 0.270000
f 211/151/211 221/152/221 191/153/191
vt 0.127813 0.273125
vt 0.124688 0.273125
vt 0.126250 0.270000
f 212/154/212 222/155/222 192/156/192
vt 0.007812 0.273125
vt 0.004688 0.273125
vt 0.006250 0.270000
f 213/157/213 223/158/223 193/159/193
vt 0.487812 0.053125
vt 0.484687 0.053125
vt 0.486250 0.050000
f 214/160/214 224/161/224 194/162/194
vt 0.367813 0.053125
vt 0.364688 0.053125
vt 0.366250 0.050000
f 215/163/215 225/164/225 195/165/195
vt 0.247813 0.053125
vt 0.244687 0.053125
vt 0.246250 0.050000
f 216/166/216 226/167/226 196/168/196
vt 0.127813 0.053125
vt 0.124688 0.053125
vt 0.126250 0.050000
f 217/169/217 227/170/227 197/171/197
vt 0.007812 0.053125
vt 0.004688 0.053125
vt 0.006250 0.050000
f 218/172/218 228/173/228 198/174/198
vt 0.363906 0.483750
vt 0.362344 0.477500
vt 0.363125 0.477500
f 326/175/326 121/176/121 282/177/282
vt 0.243906 0.483750
vt 0.242344 0.477500
vt 0.243125 0.477500
f 327/178/327 125/179/125 283/180/283
vt 0.123906 0.483750
vt 0.122344 0.477500
vt 0.123125 0.477500
f 328/181/328 129/182/129 284/183/284
vt 0.483906 0.483750
vt 0.482344 0.477500
vt 0.483125 0.477500
f 329/184/329 167/185/167 285/186/285
vt 0.098438 0.465000
vt 0.093750 0.452500
vt 0.096875 0.458750
f 286/187/286 118/188/118 14/189/14
vt 0.570625 0.232500
vt 0.567500 0.220000
vt 0.570625 0.226250
f 82/190/82 97/191/97 18/192/18
vt 0.567500 0.232500
f 97/191/97 82/190/82 189/193/189
vt 0.450625 0.232500
vt 0.447500 0.220000
vt 0.450625 0.226250
f 83/194/83 99/195/99 22/196/22
vt 0.447500 0.232500
f 99/195/99 83/194/83 190/197/190
vt 0.330625 0.232500
vt 0.327500 0.220000
vt 0.330625 0.226250
f 84/198/84 101/199/101 26/200/26
vt 0.327500 0.232500
f 101/199/101 84/198/84 191/201/191
vt 0.210625 0.232500
vt 0.207500 0.220000
vt 0.210625 0.226250
f 85/202/85 103/203/103 30/204/30
vt 0.207500 0.232500
f 103/203/103 85/202/85 192/205/192
vt 0.090625 0.232500
vt 0.087500 0.220000
vt 0.090625 0.226250
f 86/206/86 105/207/105 34/208/34
vt 0.087500 0.232500
f 105/207/105 86/206/86 193/209/193
vt 0.570625 0.012500
vt 0.567500 0.000000
vt 0.570625 0.006250
f 87/210/87 107/211/107 38/212/38
vt 0.567500 0.012500
f 107/211/107 87/210/87 194/213/194
vt 0.450625 0.012500
vt 0.447500 0.000000
vt 0.450625 0.006250
f 88/214/88 109/215/109 42/216/42
vt 0.447500 0.012500
f 109/215/109 88/214/88 195/217/195
vt 0.330625 0.012500
vt 0.327500 0.000000
vt 0.330625 0.006250
f 89/218/89 111/219/111 46/220/46
vt 0.327500 0.012500
f 111/219/111 89/218/89 196/221/196
vt 0.210625 0.012500
vt 0.207500 0.000000
vt 0.210625 0.006250
f 90/222/90 113/223/113 50/224/50
vt 0.207500 0.012500
f 113/223/113 90/222/90 197/225/197
vt 0.090625 0.012500
vt 0.087500 0.000000
vt 0.090625 0.006250
f 91/226/91 115/227/115 54/228/54
vt 0.087500 0.012500
f 115/227/115 91/226/91 198/229/198
vt 0.012500 0.515000
vt 0.009375 0.508750
vt 0.012500 0.508750
f 187/230/187 242/231/242 234/232/234
vt 0.012500 0.490000
f 134/3/134 233/2/233 13/233/13
vt 0.460000 0.602500
vt 0.460000 0.608750
vt 0.456875 0.602500
f 119/234/119 3/235/3 235/236/235
vt 0.438125 0.640000
vt 0.435000 0.640000
vt 0.438125 0.633750
f 3/237/3 120/238/120 235/239/235
vt 0.385000 0.640000
vt 0.380313 0.636875
vt 0.381875 0.633750
f 120/240/120 307/241/307 235/242/235
vt 0.374063 0.636875
vt 0.378750 0.640000
vt 0.375625 0.640000
f 307/243/307 120/244/120 4/245/4
vt 0.363125 0.633750
vt 0.360000 0.633750
f 236/100/236 307/246/307 4/247/4
vt 0.363125 0.558750
vt 0.360000 0.558750
vt 0.360000 0.552500
f 229/248/229 236/249/236 76/250/76
vt 0.369375 0.465000
vt 0.366250 0.452500
vt 0.369375 0.458750
f 282/251/282 122/252/122 94/253/94
vt 0.360000 0.440000
vt 0.363125 0.452500
vt 0.360000 0.452500
f 1/254/1 94/255/94 122/256/122
vt 0.340000 0.602500
vt 0.340000 0.608750
vt 0.336875 0.602500
f 123/257/123 7/258/7 237/259/237
vt 0.318125 0.640000
vt 0.315000 0.640000
vt 0.318125 0.633750
f 7/260/7 124/261/124 237/262/237
vt 0.265000 0.640000
vt 0.260312 0.636875
vt 0.261875 0.633750
f 124/263/124 308/264/308 237/265/237
vt 0.254063 0.636875
vt 0.258750 0.640000
vt 0.255625 0.640000
f 308/266/308 124/267/124 8/268/8
vt 0.243125 0.633750
vt 0.240000 0.633750
f 238/103/238 308/269/308 8/270/8
vt 0.243125 0.558750
vt 0.240000 0.558750
vt 0.240000 0.552500
f 230/271/230 238/272/238 78/273/78
vt 0.249375 0.465000
vt 0.246250 0.452500
vt 0.249375 0.458750
f 283/274/283 126/275/126 95/276/95
vt 0.240000 0.440000
vt 0.243125 0.452500
vt 0.240000 0.452500
f 5/277/5 95/278/95 126/279/126
vt 0.220000 0.602500
vt 0.220000 0.608750
vt 0.216875 0.602500
f 127/280/127 11/281/11 239/282/239
vt 0.198125 0.640000
vt 0.195000 0.640000
vt 0.198125 0.633750
f 11/283/11 128/284/128 239/285/239
vt 0.145000 0.640000
vt 0.140312 0.636875
vt 0.141875 0.633750
f 128/286/128 309/287/309 239/288/239
vt 0.134062 0.636875
vt 0.138750 0.640000
vt 0.135625 0.640000
f 309/289/309 128/290/128 12/291/12
vt 0.123125 0.633750
vt 0.120000 0.633750
f 240/106/240 309/292/309 12/293/12
vt 0.123125 0.558750
vt 0.120000 0.558750
vt 0.120000 0.552500
f 231/294/231 240/295/240 80/296/80
vt 0.129375 0.465000
vt 0.126250 0.452500
vt 0.129375 0.458750
f 284/297/284 130/298/130 96/299/96
vt 0.120000 0.440000
vt 0.123125 0.452500
vt 0.120000 0.452500
f 9/300/9 96/301/96 130/302/130
vt 0.100000 0.465000
vt 0.100000 0.471250
f 14/303/14 131/304/131 286/187/286
vt 0.100000 0.590000
vt 0.100000 0.596250
vt 0.096875 0.590000
f 81/305/81 241/306/241 330/307/330
vt 0.100000 0.608750
vt 0.100000 0.615000
vt 0.100000 0.608750
f 241/308/241 15/309/15 132/310/132
vt 0.014062 0.636875
vt 0.018750 0.640000
vt 0.015625 0.640000
f 133/311/133 132/312/132 16/313/16
vt 0.003125 0.633750
vt 0.000000 0.633750
f 243/109/243 133/314/133 16/315/16
vt 0.003125 0.558750
vt 0.000000 0.558750
vt 0.000000 0.552500
f 188/316/188 243/317/243 244/318/244
vt 0.000000 0.540000
f 242/30/242 244/29/244 233/319/233
vt 0.009375 0.465000
vt 0.006250 0.452500
vt 0.009375 0.458750
f 286/320/286 234/321/234 118/322/118
vt 0.006250 0.465000
f 134/321/134 118/320/118 234/323/234
vt 0.003125 0.452500
vt 0.000000 0.440000
vt 0.003125 0.446250
f 234/324/234 233/325/233 134/326/134
vt 0.580000 0.251250
f 18/327/18 135/112/135 82/114/82
vt 0.580000 0.282500
vt 0.580000 0.295000
vt 0.576875 0.282500
f 135/328/135 173/329/173 209/330/209
vt 0.576875 0.288750
f 199/331/199 209/330/209 173/329/173
vt 0.580000 0.388750
vt 0.580000 0.395000
vt 0.579219 0.388750
f 245/332/245 19/333/19 315/334/315
vt 0.501094 0.418437
vt 0.503047 0.419219
vt 0.501875 0.420000
f 297/335/297 315/336/315 136/337/136
vt 0.494844 0.418437
vt 0.498750 0.420000
vt 0.495625 0.420000
f 137/338/137 136/339/136 20/340/20
vt 0.489375 0.245000
vt 0.486250 0.232500
vt 0.489375 0.238750
f 189/341/189 17/342/17 97/343/97
vt 0.480000 0.232500
vt 0.483125 0.245000
vt 0.480000 0.245000
f 17/344/17 189/345/189 98/346/98
vt 0.460000 0.251250
f 22/347/22 138/115/138 83/117/83
vt 0.460000 0.282500
vt 0.460000 0.295000
vt 0.456875 0.282500
f 138/348/138 174/349/174 210/350/210
vt 0.456875 0.288750
f 200/351/200 210/350/210 174/349/174
vt 0.460000 0.388750
vt 0.460000 0.395000
vt 0.459219 0.388750
f 246/352/246 23/353/23 316/354/316
vt 0.381094 0.418437
vt 0.383047 0.419219
vt 0.381875 0.420000
f 298/355/298 316/356/316 139/357/139
vt 0.374844 0.418437
vt 0.378750 0.420000
vt 0.375625 0.420000
f 140/358/140 139/359/139 24/360/24
vt 0.369375 0.245000
vt 0.366250 0.232500
vt 0.369375 0.238750
f 190/361/190 21/362/21 99/363/99
vt 0.360000 0.232500
vt 0.363125 0.245000
vt 0.360000 0.245000
f 21/364/21 190/365/190 100/366/100
vt 0.340000 0.251250
f 26/367/26 141/118/141 84/120/84
vt 0.340000 0.282500
vt 0.340000 0.295000
vt 0.336875 0.282500
f 141/368/141 175/369/175 211/370/211
vt 0.336875 0.288750
f 201/371/201 211/370/211 175/369/175
vt 0.340000 0.388750
vt 0.340000 0.395000
vt 0.339219 0.388750
f 247/372/247 27/373/27 317/374/317
vt 0.261094 0.418437
vt 0.263047 0.419219
vt 0.261875 0.420000
f 299/375/299 317/376/317 142/377/142
vt 0.254844 0.418437
vt 0.258750 0.420000
vt 0.255625 0.420000
f 143/378/143 142/379/142 28/380/28
vt 0.249375 0.245000
vt 0.246250 0.232500
vt 0.249375 0.238750
f 191/381/191 25/382/25 101/383/101
vt 0.240000 0.232500
vt 0.243125 0.245000
vt 0.240000 0.245000
f 25/384/25 191/385/191 102/386/102
vt 0.220000 0.251250
f 30/387/30 144/121/144 85/123/85
vt 0.220000 0.282500
vt 0.220000 0.295000
vt 0.216875 0.282500
f 144/388/144 176/389/176 212/390/212
vt 0.216875 0.288750
f 202/391/202 212/390/212 176/389/176
vt 0.220000 0.388750
vt 0.220000 0.395000
vt 0.219219 0.388750
f 248/392/248 31/393/31 318/394/318
vt 0.141094 0.418437
vt 0.143047 0.419219
vt 0.141875 0.420000
f 300/395/300 318/396/318 145/397/145
vt 0.134844 0.418437
vt 0.138750 0.420000
vt 0.135625 0.420000
f 146/398/146 145/399/145 32/400/32
vt 0.129375 0.245000
vt 0.126250 0.232500
vt 0.129375 0.238750
f 192/401/192 29/402/29 103/403/103
vt 0.120000 0.232500
vt 0.123125 0.245000
vt 0.120000 0.245000
f 29/404/29 192/405/192 104/406/104
vt 0.100000 0.251250
f 34/407/34 147/124/147 86/126/86
vt 0.100000 0.282500
vt 0.100000 0.295000
vt 0.096875 0.282500
f 147/408/147 177/409/177 213/410/213
vt 0.096875 0.288750
f 203/411/203 213/410/213 177/409/177
vt 0.100000 0.388750
vt 0.100000 0.395000
vt 0.099219 0.388750
f 249/412/249 35/413/35 319/414/319
vt 0.021094 0.418437
vt 0.023047 0.419219
vt 0.021875 0.420000
f 301/415/301 319/416/319 148/417/148
vt 0.014844 0.418437
vt 0.018750 0.420000
vt 0.015625 0.420000
f 149/418/149 148/419/148 36/420/36
vt 0.009375 0.245000
vt 0.006250 0.232500
vt 0.009375 0.238750
f 193/421/193 33/422/33 105/423/105
vt 0.000000 0.232500
vt 0.003125 0.245000
vt 0.000000 0.245000
f 33/424/33 193/425/193 106/426/106
vt 0.580000 0.031250
f 38/427/38 150/127/150 87/129/87
vt 0.580000 0.062500
vt 0.580000 0.075000
vt 0.576875 0.062500
f 150/428/150 178/429/178 214/430/214
vt 0.576875 0.068750
f 204/431/204 214/430/214 178/429/178
vt 0.580000 0.168750
vt 0.580000 0.175000
vt 0.579219 0.168750
f 250/432/250 39/433/39 320/434/320
vt 0.501094 0.198438
vt 0.503047 0.199219
vt 0.501875 0.200000
f 302/435/302 320/436/320 151/437/151
vt 0.494844 0.198438
vt 0.498750 0.200000
vt 0.495625 0.200000
f 152/438/152 151/439/151 40/440/40
vt 0.489375 0.025000
vt 0.486250 0.012500
vt 0.489375 0.018750
f 194/441/194 37/442/37 107/443/107
vt 0.480000 0.012500
vt 0.483125 0.025000
vt 0.480000 0.025000
f 37/444/37 194/445/194 108/446/108
vt 0.460000 0.031250
f 42/447/42 153/130/153 88/132/88
vt 0.460000 0.062500
vt 0.460000 0.075000
vt 0.456875 0.062500
f 153/448/153 179/449/179 215/450/215
vt 0.456875 0.068750
f 205/451/205 215/450/215 179/449/179
vt 0.460000 0.168750
vt 0.460000 0.175000
vt 0.459219 0.168750
f 251/452/251 43/453/43 321/454/321
vt 0.381094 0.198438
vt 0.383047 0.199219
vt 0.381875 0.200000
f 303/455/303 321/456/321 154/457/154
vt 0.374844 0.198438
vt 0.378750 0.200000
vt 0.375625 0.200000
f 155/458/155 154/459/154 44/460/44
vt 0.369375 0.025000
vt 0.366250 0.012500
vt 0.369375 0.018750
f 195/461/195 41/462/41 109/463/109
vt 0.360000 0.012500
vt 0.363125 0.025000
vt 0.360000 0.025000
f 41/464/41 195/465/195 110/466/110
vt 0.340000 0.031250
f 46/467/46 156/133/156 89/135/89
vt 0.340000 0.062500
vt 0.340000 0.075000
vt 0.336875 0.062500
f 156/468/156 180/469/180 216/470/216
vt 0.336875 0.068750
f 206/471/206 216/470/216 180/469/180
vt 0.340000 0.168750
vt 0.340000 0.175000
vt 0.339219 0.168750
f 252/472/252 47/473/47 322/474/322
vt 0.261094 0.198438
vt 0.263047 0.199219
vt 0.261875 0.200000
f 304/475/304 322/476/322 157/477/157
vt 0.254844 0.198438
vt 0.258750 0.200000
vt 0.255625 0.200000
f 158/478/158 157/479/157 48/480/48
vt 0.249375 0.025000
vt 0.246250 0.012500
vt 0.249375 0.018750
f 196/481/196 45/482/45 111/483/111
vt 0.240000 0.012500
vt 0.243125 0.025000
vt 0.240000 0.025000
f 45/484/45 196/485/196 112/486/112
vt 0.220000 0.031250
f 50/487/50 159/136/159 90/138/90
vt 0.220000 0.062500
vt 0.220000 0.075000
vt 0.216875 0.062500
f 159/488/159 181/489/181 217/490/217
vt 0.216875 0.068750
f 207/491/207 217/490/217 181/489/181
vt 0.220000 0.168750
vt 0.220000 0.175000
vt 0.219219 0.168750
f 253/492/253 51/493/51 323/494/323
vt 0.141094 0.198438
vt 0.143047 0.199219
vt 0.141875 0.200000
f 305/495/305 323/496/323 160/497/160
vt 0.134844 0.198438
vt 0.138750 0.200000
vt 0.135625 0.200000
f 161/498/161 160/499/160 52/500/52
vt 0.129375 0.025000
vt 0.126250 0.012500
vt 0.129375 0.018750
f 197/501/197 49/502/49 113/503/113
vt 0.120000 0.012500
vt 0.123125 0.025000
vt 0.120000 0.025000
f 49/504/49 197/505/197 114/506/114
vt 0.100000 0.031250
f 54/507/54 162/139/162 91/141/91
vt 0.100000 0.062500
vt 0.100000 0.075000
vt 0.096875 0.062500
f 162/508/162 182/509/182 218/510/218
vt 0.096875 0.068750
f 208/511/208 218/510/218 182/509/182
vt 0.100000 0.168750
vt 0.100000 0.175000
vt 0.099219 0.168750
f 254/512/254 55/513/55 324/514/324
vt 0.021094 0.198438
vt 0.023047 0.199219
vt 0.021875 0.200000
f 306/515/306 324/516/324 163/517/163
vt 0.014844 0.198438
vt 0.018750 0.200000
vt 0.015625 0.200000
f 164/518/164 163/519/163 56/520/56
vt 0.009375 0.025000
vt 0.006250 0.012500
vt 0.009375 0.018750
f 198/521/198 53/522/53 115/523/115
vt 0.000000 0.012500
vt 0.003125 0.025000
vt 0.000000 0.025000
f 53/524/53 198/525/198 116/526/116
vt 0.580000 0.602500
vt 0.580000 0.608750
vt 0.576875 0.602500
f 165/527/165 59/528/59 255/529/255
vt 0.558125 0.640000
vt 0.555000 0.640000
vt 0.558125 0.633750
f 59/530/59 166/531/166 255/532/255
vt 0.505000 0.640000
vt 0.500313 0.636875
vt 0.501875 0.633750
f 166/533/166 310/534/310 255/535/255
vt 0.494063 0.636875
vt 0.498750 0.640000
vt 0.495625 0.640000
f 310/536/310 166/537/166 60/538/60
vt 0.483125 0.633750
vt 0.480000 0.633750
f 256/142/256 310/539/310 60/540/60
vt 0.483125 0.558750
vt 0.480000 0.558750
vt 0.480000 0.552500
f 232/541/232 256/542/256 93/543/93
vt 0.489375 0.465000
vt 0.486250 0.452500
vt 0.489375 0.458750
f 285/544/285 168/545/168 117/546/117
vt 0.480000 0.440000
vt 0.483125 0.452500
vt 0.480000 0.452500
f 57/547/57 117/548/117 168/549/168
vt 0.447500 0.577500
vt 0.450625 0.580625
vt 0.447500 0.580625
f 121/550/121 311/551/311 229/552/229
vt 0.453750 0.586875
vt 0.456875 0.590000
vt 0.453750 0.590000
f 257/553/257 119/554/119 235/555/235
vt 0.327500 0.577500
vt 0.330625 0.580625
vt 0.327500 0.580625
f 125/556/125 312/557/312 230/558/230
vt 0.333750 0.586875
vt 0.336875 0.590000
vt 0.333750 0.590000
f 258/559/258 123/560/123 237/561/237
vt 0.207500 0.577500
vt 0.210625 0.580625
vt 0.207500 0.580625
f 129/562/129 313/563/313 231/564/231
vt 0.213750 0.586875
vt 0.216875 0.590000
vt 0.213750 0.590000
f 259/565/259 127/566/127 239/567/239
vt 0.567500 0.577500
vt 0.570625 0.580625
vt 0.567500 0.580625
f 167/568/167 314/569/314 232/570/232
vt 0.573750 0.586875
vt 0.576875 0.590000
vt 0.573750 0.590000
f 260/571/260 165/572/165 255/573/255
vt 0.453750 0.552500
vt 0.454531 0.550937
vt 0.455313 0.555625
f 229/574/229 311/575/311 257/576/257
vt 0.333750 0.552500
vt 0.334531 0.550937
vt 0.335313 0.555625
f 230/577/230 312/578/312 258/579/258
vt 0.213750 0.552500
vt 0.214531 0.550937
vt 0.215313 0.555625
f 231/580/231 313/581/313 259/582/259
vt 0.573750 0.552500
vt 0.574531 0.550937
vt 0.575312 0.555625
f 232/583/232 314/584/314 260/585/260
vt 0.374063 0.624375
vt 0.373281 0.625937
vt 0.372500 0.621250
f 257/586/257 307/587/307 229/588/229
vt 0.254063 0.624375
vt 0.253281 0.625937
vt 0.252500 0.621250
f 258/589/258 308/590/308 230/591/230
vt 0.134062 0.624375
vt 0.133281 0.625937
vt 0.132500 0.621250
f 259/592/259 309/593/309 231/594/231
vt 0.014062 0.624375
vt 0.012500 0.627500
vt 0.012500 0.621250
f 330/595/330 133/596/133 188/597/188
vt 0.494063 0.624375
vt 0.493281 0.625937
vt 0.492500 0.621250
f 260/598/260 310/599/310 232/600/232
vt 0.458438 0.549375
vt 0.457656 0.550937
vt 0.458438 0.543125
f 169/601/169 311/602/311 61/603/61
vt 0.460000 0.546250
vt 0.459219 0.547812
vt 0.460000 0.540000
f 169/604/169 257/605/257 311/606/311
vt 0.460000 0.558750
vt 0.459219 0.560312
vt 0.460000 0.552500
f 119/607/119 257/608/257 169/609/169
vt 0.338437 0.549375
vt 0.337656 0.550937
vt 0.338437 0.543125
f 170/610/170 312/611/312 62/612/62
vt 0.340000 0.546250
vt 0.339219 0.547812
vt 0.340000 0.540000
f 170/613/170 258/614/258 312/615/312
vt 0.340000 0.558750
vt 0.339219 0.560312
vt 0.340000 0.552500
f 123/616/123 258/617/258 170/618/170
vt 0.218437 0.549375
vt 0.217656 0.550937
vt 0.218437 0.543125
f 171/619/171 313/620/313 63/621/63
vt 0.220000 0.546250
vt 0.219219 0.547812
vt 0.220000 0.540000
f 171/622/171 259/623/259 313/624/313
vt 0.220000 0.558750
vt 0.219219 0.560312
vt 0.220000 0.552500
f 127/625/127 259/626/259 171/627/171
vt 0.098438 0.543125
vt 0.100000 0.540000
vt 0.099219 0.547812
f 187/628/187 261/629/261 325/630/325
vt 0.578437 0.549375
vt 0.577656 0.550937
vt 0.578437 0.543125
f 172/631/172 314/632/314 74/633/74
vt 0.580000 0.546250
vt 0.579219 0.547812
vt 0.580000 0.540000
f 172/634/172 260/635/260 314/636/314
vt 0.580000 0.558750
vt 0.579219 0.560312
vt 0.580000 0.552500
f 165/637/165 260/638/260 172/639/172
vt 0.492500 0.270000
vt 0.490938 0.273125
vt 0.489375 0.270000
f 82/640/82 209/641/209 189/642/189
vt 0.483125 0.270000
vt 0.481562 0.273125
vt 0.480000 0.270000
f 189/643/189 219/644/219 98/645/98
vt 0.372500 0.270000
vt 0.370937 0.273125
vt 0.369375 0.270000
f 83/646/83 210/647/210 190/648/190
vt 0.363125 0.270000
vt 0.361563 0.273125
vt 0.360000 0.270000
f 190/649/190 220/650/220 100/651/100
vt 0.252500 0.270000
vt 0.250937 0.273125
vt 0.249375 0.270000
f 84/652/84 211/653/211 191/654/191
vt 0.243125 0.270000
vt 0.241562 0.273125
vt 0.240000 0.270000
f 191/655/191 221/656/221 102/657/102
vt 0.132500 0.270000
vt 0.130937 0.273125
vt 0.129375 0.270000
f 85/658/85 212/659/212 192/660/192
vt 0.123125 0.270000
vt 0.121562 0.273125
vt 0.120000 0.270000
f 192/661/192 222/662/222 104/663/104
vt 0.012500 0.270000
vt 0.010938 0.273125
vt 0.009375 0.270000
f 86/664/86 213/665/213 193/666/193
vt 0.003125 0.270000
vt 0.001563 0.273125
vt 0.000000 0.270000
f 193/667/193 223/668/223 106/669/106
vt 0.492500 0.050000
vt 0.490938 0.053125
vt 0.489375 0.050000
f 87/670/87 214/671/214 194/672/194
vt 0.483125 0.050000
vt 0.481562 0.053125
vt 0.480000 0.050000
f 194/673/194 224/674/224 108/675/108
vt 0.372500 0.050000
vt 0.370937 0.053125
vt 0.369375 0.050000
f 88/676/88 215/677/215 195/678/195
vt 0.363125 0.050000
vt 0.361563 0.053125
vt 0.360000 0.050000
f 195/679/195 225/680/225 110/681/110
vt 0.252500 0.050000
vt 0.250937 0.053125
vt 0.249375 0.050000
f 89/682/89 216/683/216 196/684/196
vt 0.243125 0.050000
vt 0.241562 0.053125
vt 0.240000 0.050000
f 196/685/196 226/686/226 112/687/112
vt 0.132500 0.050000
vt 0.130937 0.053125
vt 0.129375 0.050000
f 90/688/90 217/689/217 197/690/197
vt 0.123125 0.050000
vt 0.121562 0.053125
vt 0.120000 0.050000
f 197/691/197 227/692/227 114/693/114
vt 0.012500 0.050000
vt 0.010938 0.053125
vt 0.009375 0.050000
f 91/694/91 218/695/218 198/696/198
vt 0.003125 0.050000
vt 0.001563 0.053125
vt 0.000000 0.050000
f 198/697/198 228/698/228 116/699/116
vt 0.480000 0.295000
vt 0.481562 0.298125
vt 0.480000 0.301250
f 98/700/98 219/701/219 262/702/262
vt 0.483125 0.313750
f 262/37/262 219/703/219 287/38/287
vt 0.480000 0.320000
f 262/39/262 287/38/287 64/704/64
vt 0.360000 0.295000
vt 0.361563 0.298125
vt 0.360000 0.301250
f 100/705/100 220/706/220 263/707/263
vt 0.363125 0.313750
f 263/40/263 220/708/220 288/41/288
vt 0.360000 0.320000
f 263/42/263 288/41/288 65/709/65
vt 0.240000 0.295000
vt 0.241562 0.298125
vt 0.240000 0.301250
f 102/710/102 221/711/221 264/712/264
vt 0.243125 0.313750
f 264/43/264 221/713/221 289/44/289
vt 0.240000 0.320000
f 264/45/264 289/44/289 66/714/66
vt 0.120000 0.295000
vt 0.121562 0.298125
vt 0.120000 0.301250
f 104/715/104 222/716/222 265/717/265
vt 0.123125 0.313750
f 265/46/265 222/718/222 290/47/290
vt 0.120000 0.320000
f 265/48/265 290/47/290 67/719/67
vt 0.000000 0.295000
vt 0.001563 0.298125
vt 0.000000 0.301250
f 106/720/106 223/721/223 266/722/266
vt 0.003125 0.313750
f 266/49/266 223/723/223 291/50/291
vt 0.000000 0.320000
f 266/51/266 291/50/291 68/724/68
vt 0.480000 0.075000
vt 0.481562 0.078125
vt 0.480000 0.081250
f 108/725/108 224/726/224 267/727/267
vt 0.483125 0.093750
f 267/52/267 224/728/224 292/53/292
vt 0.480000 0.100000
f 267/54/267 292/53/292 69/729/69
vt 0.360000 0.075000
vt 0.361563 0.078125
vt 0.360000 0.081250
f 110/730/110 225/731/225 268/732/268
vt 0.363125 0.093750
f 268/55/268 225/733/225 293/56/293
vt 0.360000 0.100000
f 268/57/268 293/56/293 70/734/70
vt 0.240000 0.075000
vt 0.241562 0.078125
vt 0.240000 0.081250
f 112/735/112 226/736/226 269/737/269
vt 0.243125 0.093750
f 269/58/269 226/738/226 294/59/294
vt 0.240000 0.100000
f 269/60/269 294/59/294 71/739/71
vt 0.120000 0.075000
vt 0.121562 0.078125
vt 0.120000 0.081250
f 114/740/114 227/741/227 270/742/270
vt 0.123125 0.093750
f 270/61/270 227/743/227 295/62/295
vt 0.120000 0.100000
f 270/63/270 295/62/295 72/744/72
vt 0.000000 0.075000
vt 0.001563 0.078125
vt 0.000000 0.081250
f 116/745/116 228/746/228 271/747/271
vt 0.003125 0.093750
f 271/64/271 228/748/228 296/65/296
vt 0.000000 0.100000
f 271/66/271 296/65/296 73/749/73
vt 0.579609 0.336406
vt 0.579805 0.334453
vt 0.580000 0.338750
f 315/750/315 199/751/199 272/752/272
vt 0.459609 0.336406
vt 0.459805 0.334453
vt 0.460000 0.338750
f 316/753/316 200/754/200 273/755/273
vt 0.339609 0.336406
vt 0.339805 0.334453
vt 0.340000 0.338750
f 317/756/317 201/757/201 274/758/274
vt 0.219609 0.336406
vt 0.219805 0.334453
vt 0.220000 0.338750
f 318/759/318 202/760/202 275/761/275
vt 0.099609 0.336406
vt 0.099805 0.334453
vt 0.100000 0.338750
f 319/762/319 203/763/203 276/764/276
vt 0.579609 0.116406
vt 0.579805 0.114453
vt 0.580000 0.118750
f 320/765/320 204/766/204 277/767/277
vt 0.459609 0.116406
vt 0.459805 0.114453
vt 0.460000 0.118750
f 321/768/321 205/769/205 278/770/278
vt 0.339609 0.116406
vt 0.339805 0.114453
vt 0.340000 0.118750
f 322/771/322 206/772/206 279/773/279
vt 0.219609 0.116406
vt 0.219805 0.114453
vt 0.220000 0.118750
f 323/774/323 207/775/207 280/776/280
vt 0.099609 0.116406
vt 0.099805 0.114453
vt 0.100000 0.118750
f 324/777/324 208/778/208 281/779/281
vt 0.533125 0.301250
vt 0.532344 0.302812
vt 0.532344 0.299687
f 209/780/209 199/781/199 219/782/219
vt 0.413125 0.301250
vt 0.412344 0.302812
vt 0.412344 0.299687
f 210/783/210 200/784/200 220/785/220
vt 0.293125 0.301250
vt 0.292344 0.302812
vt 0.292344 0.299687
f 211/786/211 201/787/201 221/788/221
vt 0.173125 0.301250
vt 0.172344 0.302812
vt 0.172344 0.299687
f 212/789/212 202/790/202 222/791/222
vt 0.053125 0.301250
vt 0.052344 0.302812
vt 0.052344 0.299687
f 213/792/213 203/793/203 223/794/223
vt 0.533125 0.081250
vt 0.532344 0.082813
vt 0.532344 0.079688
f 214/795/214 204/796/204 224/797/224
vt 0.413125 0.081250
vt 0.412344 0.082813
vt 0.412344 0.079688
f 215/798/215 205/799/205 225/800/225
vt 0.293125 0.081250
vt 0.292344 0.082813
vt 0.292344 0.079688
f 216/801/216 206/802/206 226/803/226
vt 0.173125 0.081250
vt 0.172344 0.082813
vt 0.172344 0.079688
f 217/804/217 207/805/207 227/806/227
vt 0.053125 0.081250
vt 0.052344 0.082813
vt 0.052344 0.079688
f 218/807/218 208/808/208 228/809/228
vt 0.361563 0.477500
vt 0.360000 0.477500
vt 0.360781 0.471250
f 282/810/282 183/811/183 122/812/122
vt 0.360000 0.471250
f 183/813/183 282/812/282 121/811/121
vt 0.241562 0.477500
vt 0.240000 0.477500
vt 0.240781 0.471250
f 283/814/283 184/815/184 126/816/126
vt 0.240000 0.471250
f 184/817/184 283/816/283 125/815/125
vt 0.121562 0.477500
vt 0.120000 0.477500
vt 0.120781 0.471250
f 284/818/284 185/819/185 130/820/130
vt 0.120000 0.471250
f 185/821/185 284/820/284 129/819/129
vt 0.481562 0.477500
vt 0.480000 0.477500
vt 0.480781 0.471250
f 285/822/285 186/823/186 168/824/168
vt 0.480000 0.471250
f 186/825/186 285/824/285 167/823/167
vt 0.099219 0.554062
vt 0.100000 0.552500
f 81/826/81 325/630/325 261/827/261
vt 0.370156 0.486875
vt 0.372500 0.490000
vt 0.369375 0.490000
f 282/828/282 94/829/94 326/830/326
vt 0.250156 0.486875
vt 0.252500 0.490000
vt 0.249375 0.490000
f 283/831/283 95/832/95 327/833/327
vt 0.130156 0.486875
vt 0.132500 0.490000
vt 0.129375 0.490000
f 284/834/284 96/835/96 328/836/328
vt 0.490156 0.486875
vt 0.492500 0.490000
vt 0.489375 0.490000
f 285/837/285 117/838/117 329/839/329
vt 0.410000 0.536875
vt 0.410781 0.538437
vt 0.410391 0.539219
f 121/840/121 326/841/326 311/842/311
vt 0.290000 0.536875
vt 0.290781 0.538437
vt 0.290391 0.539219
f 125/843/125 327/844/327 312/845/312
vt 0.170000 0.536875
vt 0.170781 0.538437
vt 0.170391 0.539219
f 129/846/129 328/847/328 313/848/313
vt 0.530000 0.536875
vt 0.530781 0.538437
vt 0.530391 0.539219
f 167/849/167 329/850/329 314/851/314
vt 0.487812 0.416875
vt 0.480000 0.420000
vt 0.483125 0.413750
f 297/852/297 136/853/136 137/854/137
vt 0.367813 0.416875
vt 0.360000 0.420000
vt 0.363125 0.413750
f 298/855/298 139/856/139 140/857/140
vt 0.247812 0.416875
vt 0.240000 0.420000
vt 0.243125 0.413750
f 299/858/299 142/859/142 143/860/143
vt 0.127813 0.416875
vt 0.120000 0.420000
vt 0.123125 0.413750
f 300/861/300 145/862/145 146/863/146
vt 0.007812 0.416875
vt 0.000000 0.420000
vt 0.003125 0.413750
f 301/864/301 148/865/148 149/866/149
vt 0.487812 0.196875
vt 0.480000 0.200000
vt 0.483125 0.193750
f 302/867/302 151/868/151 152/869/152
vt 0.367813 0.196875
vt 0.360000 0.200000
vt 0.363125 0.193750
f 303/870/303 154/871/154 155/872/155
vt 0.247812 0.196875
vt 0.240000 0.200000
vt 0.243125 0.193750
f 304/873/304 157/874/157 158/875/158
vt 0.127813 0.196875
vt 0.120000 0.200000
vt 0.123125 0.193750
f 305/876/305 160/877/160 161/878/161
vt 0.007812 0.196875
vt 0.000000 0.200000
vt 0.003125 0.193750
f 306/879/306 163/880/163 164/881/164
vt 0.480000 0.407500
vt 0.481562 0.413750
f 137/882/137 64/854/64 297/883/297
vt 0.360000 0.407500
vt 0.361563 0.413750
f 140/884/140 65/857/65 298/885/298
vt 0.240000 0.407500
vt 0.241562 0.413750
f 143/886/143 66/860/66 299/887/299
vt 0.120000 0.407500
vt 0.121562 0.413750
f 146/888/146 67/863/67 300/889/300
vt 0.000000 0.407500
vt 0.001563 0.413750
f 149/890/149 68/866/68 301/891/301
vt 0.480000 0.187500
vt 0.481562 0.193750
f 152/892/152 69/869/69 302/893/302
vt 0.360000 0.187500
vt 0.361563 0.193750
f 155/894/155 70/872/70 303/895/303
vt 0.240000 0.187500
vt 0.241562 0.193750
f 158/896/158 71/875/71 304/897/304
vt 0.120000 0.187500
vt 0.121562 0.193750
f 161/898/161 72/878/72 305/899/305
vt 0.000000 0.187500
vt 0.001563 0.193750
f 164/900/164 73/881/73 306/901/306
vt 0.360000 0.483750
vt 0.360391 0.490000
vt 0.360000 0.490000
f 183/902/183 121/903/121 76/904/76
vt 0.240000 0.483750
vt 0.240391 0.490000
vt 0.240000 0.490000
f 184/905/184 125/906/125 78/907/78
vt 0.120000 0.483750
vt 0.120391 0.490000
vt 0.120000 0.490000
f 185/908/185 129/909/129 80/910/80
vt 0.480000 0.483750
vt 0.480391 0.490000
vt 0.480000 0.490000
f 186/911/186 167/912/167 93/913/93
vt 0.480000 0.395000
vt 0.481562 0.404375
vt 0.480000 0.401250
f 64/914/64 287/915/287 297/916/297
vt 0.360000 0.395000
vt 0.361563 0.404375
vt 0.360000 0.401250
f 65/917/65 288/918/288 298/919/298
vt 0.240000 0.395000
vt 0.241562 0.404375
vt 0.240000 0.401250
f 66/920/66 289/921/289 299/922/299
vt 0.120000 0.395000
vt 0.121562 0.404375
vt 0.120000 0.401250
f 67/923/67 290/924/290 300/925/300
vt 0.000000 0.395000
vt 0.001563 0.404375
vt 0.000000 0.401250
f 68/926/68 291/927/291 301/928/301
vt 0.480000 0.175000
vt 0.481562 0.184375
vt 0.480000 0.181250
f 69/929/69 292/930/292 302/931/302
vt 0.360000 0.175000
vt 0.361563 0.184375
vt 0.360000 0.181250
f 70/932/70 293/933/293 303/934/303
vt 0.240000 0.175000
vt 0.241562 0.184375
vt 0.240000 0.181250
f 71/935/71 294/936/294 304/937/304
vt 0.120000 0.175000
vt 0.121562 0.184375
vt 0.120000 0.181250
f 72/938/72 295/939/295 305/940/305
vt 0.000000 0.175000
vt 0.001563 0.184375
vt 0.000000 0.181250
f 73/941/73 296/942/296 306/943/306
vt 0.010938 0.561875
vt 0.009375 0.565000
vt 0.009375 0.558750
f 325/944/325 188/945/188 242/946/242
vt 0.051563 0.536875
vt 0.050000 0.536875
vt 0.050000 0.533750
f 187/947/187 325/948/325 242/949/242
vt 0.078125 0.633750
vt 0.078125 0.636875
vt 0.075000 0.640000
f 133/950/133 330/951/330 132/952/132
vt 0.579805 0.340703
vt 0.580000 0.345000
f 315/953/315 272/752/272 245/954/245
vt 0.459805 0.340703
vt 0.460000 0.345000
f 316/955/316 273/755/273 246/956/246
vt 0.339805 0.340703
vt 0.340000 0.345000
f 317/957/317 274/758/274 247/958/247
vt 0.219805 0.340703
vt 0.220000 0.345000
f 318/959/318 275/761/275 248/960/248
vt 0.099805 0.340703
vt 0.100000 0.345000
f 319/961/319 276/764/276 249/962/249
vt 0.579805 0.120703
vt 0.580000 0.125000
f 320/963/320 277/767/277 250/964/250
vt 0.459805 0.120703
vt 0.460000 0.125000
f 321/965/321 278/770/278 251/966/251
vt 0.339805 0.120703
vt 0.340000 0.125000
f 322/967/322 279/773/279 252/968/252
vt 0.219805 0.120703
vt 0.220000 0.125000
f 323/969/323 280/776/280 253/970/253
vt 0.099805 0.120703
vt 0.100000 0.125000
f 324/971/324 281/779/281 254/972/254
vt 0.449062 0.585312
vt 0.450625 0.586875
vt 0.447500 0.586875
f 307/973/307 257/974/257 235/975/235
vt 0.329062 0.585312
vt 0.330625 0.586875
vt 0.327500 0.586875
f 308/976/308 258/977/258 237/978/237
vt 0.209062 0.585312
vt 0.210625 0.586875
vt 0.207500 0.586875
f 309/979/309 259/980/259 239/981/239
vt 0.569062 0.585312
vt 0.570625 0.586875
vt 0.567500 0.586875
f 310/982/310 260/983/260 255/984/255
vt 0.449062 0.490000
vt 0.450625 0.490000
vt 0.453750 0.502500
f 326/985/326 61/986/61 311/987/311
vt 0.329062 0.490000
vt 0.330625 0.490000
vt 0.333750 0.502500
f 327/988/327 62/989/62 312/990/312
vt 0.209062 0.490000
vt 0.210625 0.490000
vt 0.213750 0.502500
f 328/991/328 63/992/63 313/993/313
vt 0.569062 0.490000
vt 0.570625 0.490000
vt 0.573750 0.502500
f 329/994/329 74/995/74 314/996/314
vt 0.483516 0.360625
vt 0.483125 0.357500
vt 0.484297 0.363750
f 315/997/315 297/998/297 199/999/199
vt 0.363516 0.360625
vt 0.363125 0.357500
vt 0.364297 0.363750
f 316/1000/316 298/1001/298 200/1002/200
vt 0.243516 0.360625
vt 0.243125 0.357500
vt 0.244297 0.363750
f 317/1003/317 299/1004/299 201/1005/201
vt 0.123516 0.360625
vt 0.123125 0.357500
vt 0.124297 0.363750
f 318/1006/318 300/1007/300 202/1008/202
vt 0.003516 0.360625
vt 0.003125 0.357500
vt 0.004297 0.363750
f 319/1009/319 301/1010/301 203/1011/203
vt 0.483516 0.140625
vt 0.483125 0.137500
vt 0.484297 0.143750
f 320/1012/320 302/1013/302 204/1014/204
vt 0.363516 0.140625
vt 0.363125 0.137500
vt 0.364297 0.143750
f 321/1015/321 303/1016/303 205/1017/205
vt 0.243516 0.140625
vt 0.243125 0.137500
vt 0.244297 0.143750
f 322/1018/322 304/1019/304 206/1020/206
vt 0.123516 0.140625
vt 0.123125 0.137500
vt 0.124297 0.143750
f 323/1021/323 305/1022/305 207/1023/207
vt 0.003516 0.140625
vt 0.003125 0.137500
vt 0.004297 0.143750
f 324/1024/324 306/1025/306 208/1026/208
vt 0.567500 0.368437
vt 0.569062 0.370000
vt 0.567500 0.370000
f 199/1027/199 297/1028/297 287/1029/287
vt 0.447500 0.368437
vt 0.449062 0.370000
vt 0.447500 0.370000
f 200/1030/200 298/1031/298 288/1032/288
vt 0.327500 0.368437
vt 0.329062 0.370000
vt 0.327500 0.370000
f 201/1033/201 299/1034/299 289/1035/289
vt 0.207500 0.368437
vt 0.209062 0.370000
vt 0.207500 0.370000
f 202/1036/202 300/1037/300 290/1038/290
vt 0.087500 0.368437
vt 0.089063 0.370000
vt 0.087500 0.370000
f 203/1039/203 301/1040/301 291/1041/291
vt 0.567500 0.148438
vt 0.569062 0.150000
vt 0.567500 0.150000
f 204/1042/204 302/1043/302 292/1044/292
vt 0.447500 0.148438
vt 0.449062 0.150000
vt 0.447500 0.150000
f 205/1045/205 303/1046/303 293/1047/293
vt 0.327500 0.148438
vt 0.329062 0.150000
vt 0.327500 0.150000
f 206/1048/206 304/1049/304 294/1050/294
vt 0.207500 0.148438
vt 0.209062 0.150000
vt 0.207500 0.150000
f 207/1051/207 305/1052/305 295/1053/295
vt 0.087500 0.148438
vt 0.089063 0.150000
vt 0.087500 0.150000
f 208/1054/208 306/1055/306 296/1056/296
vt 0.578437 0.388750
f 315/334/315 19/333/19 136/1057/136
vt 0.458438 0.388750
f 316/354/316 23/353/23 139/1058/139
vt 0.338437 0.388750
f 317/374/317 27/373/27 142/1059/142
vt 0.218437 0.388750
f 318/394/318 31/393/31 145/1060/145
vt 0.098438 0.388750
f 319/414/319 35/413/35 148/1061/148
vt 0.578437 0.168750
f 320/434/320 39/433/39 151/1062/151
vt 0.458438 0.168750
f 321/454/321 43/453/43 154/1063/154
vt 0.338437 0.168750
f 322/474/322 47/473/47 157/1064/157
vt 0.218437 0.168750
f 323/494/323 51/493/51 160/1065/160
vt 0.098438 0.168750
f 324/514/324 55/513/55 163/1066/163
vt 0.087695 0.577695
vt 0.087708 0.577708
vt 0.087500 0.580625
f 325/1067/325 330/1068/330 188/1069/188
vt 0.447537 0.440098
vt 0.447518 0.440049
vt 0.450625 0.446250
f 75/1070/75 326/1071/326 2/1072/2
vt 0.327537 0.440098
vt 0.327518 0.440049
vt 0.330625 0.446250
f 77/1073/77 327/1074/327 6/1075/6
vt 0.207537 0.440098
vt 0.207518 0.440049
vt 0.210625 0.446250
f 79/1076/79 328/1077/328 10/1078/10
vt 0.567537 0.440098
vt 0.567518 0.440049
vt 0.570625 0.446250
f 92/1079/92 329/1080/329 58/1081/58
vt 0.099999 0.608750
f 330/310/330 241/309/241 132/1082/132
vt 0.447500 0.440000
f 326/1071/326 94/1083/94 2/1072/2
vt 0.327500 0.440000
f 327/1074/327 95/1084/95 6/1075/6
vt 0.207500 0.440000
f 328/1077/328 96/1085/96 10/1078/10
vt 0.567500 0.440000
f 329/1080/329 117/1086/117 58/1081/58
vt 0.097643 0.557213
vt 0.097644 0.557212
vt 0.098438 0.561875
f 330/1087/330 325/1088/325 81/1089/81
# 420 faces, 1089 coords texture

# End of File
