####
#
# OBJ File Generated by Meshlab
#
####
# Object cube_fine.obj
#
# Vertices: 270
# Faces: 536
#
####
vn -0.577350 -0.577350 -0.577350
v 0.000000 0.000000 0.000000
vn 0.577350 -0.577350 -0.577350
v 1.000000 0.000000 0.000000
vn 0.577350 -0.577350 0.577350
v 1.000000 0.000000 1.000000
vn -0.577350 -0.577350 0.577350
v 0.000000 0.000000 1.000000
vn -0.577350 0.577350 -0.577350
v 0.000000 1.000000 0.000000
vn 0.577350 0.577350 -0.577350
v 1.000000 1.000000 0.000000
vn 0.577350 0.577350 0.577350
v 1.000000 1.000000 1.000000
vn -0.577350 0.577350 0.577350
v 0.000000 1.000000 1.000000
vn 0.000000 -1.000000 0.000000
v 0.500000 0.000000 0.528892
vn 0.000000 -0.707107 0.707107
v 0.500000 0.000000 1.000000
vn 0.000000 0.000000 -1.000000
v 0.528781 0.500153 0.000000
vn 1.000000 0.000000 0.000000
v 1.000000 0.500129 0.500097
vn 0.707107 0.000000 0.707107
v 1.000000 0.500000 1.000000
vn 0.000000 0.000000 1.000000
v 0.500000 0.524407 1.000000
vn 0.000000 0.707107 0.707107
v 0.500000 1.000000 1.000000
vn -1.000000 0.000000 0.000000
v 0.000000 0.528892 0.500000
vn -0.707107 0.707107 0.000000
v 0.000000 1.000000 0.500000
vn 0.000000 1.000000 0.000000
v 0.500000 1.000000 0.500000
vn 0.707107 -0.707107 0.000000
v 1.000000 0.000000 0.500000
vn 0.000000 -1.000000 0.000000
v 0.749763 0.000000 0.737217
vn 0.000000 -1.000000 0.000000
v 0.728580 0.000000 0.280057
vn 0.000000 -1.000000 0.000000
v 0.500000 0.000000 0.779584
vn 0.000000 -0.707107 0.707107
v 0.250000 0.000000 1.000000
vn 0.000000 -1.000000 0.000000
v 0.250237 0.000000 0.737217
vn 0.000000 0.000000 -1.000000
v 0.770990 0.506475 0.000000
vn 0.707107 0.000000 -0.707107
v 1.000000 0.375000 0.000000
vn 0.000000 0.000000 -1.000000
v 0.737124 0.255721 0.000000
vn 0.707107 0.000000 -0.707107
v 1.000000 0.750000 0.000000
vn 1.000000 0.000000 0.000000
v 1.000000 0.750070 0.271280
vn 1.000000 0.000000 0.000000
v 1.000000 0.506475 0.237750
vn 1.000000 0.000000 0.000000
v 1.000000 0.500000 0.771183
vn 0.707107 0.000000 0.707107
v 1.000000 0.250000 1.000000
vn 1.000000 0.000000 0.000000
v 1.000000 0.250059 0.728817
vn 0.000000 0.000000 1.000000
v 0.750000 0.250652 1.000000
vn 0.000000 0.000000 1.000000
v 0.750000 0.507115 1.000000
vn 0.000000 0.000000 1.000000
v 0.500000 0.257352 1.000000
vn 0.000000 0.000000 1.000000
v 0.500000 0.778528 1.000000
vn 0.000000 0.707107 0.707107
v 0.250000 1.000000 1.000000
vn 0.000000 0.000000 1.000000
v 0.250000 0.735925 1.000000
vn -1.000000 0.000000 0.000000
v 0.000000 0.779584 0.500000
vn -0.707107 0.707107 0.000000
v 0.000000 1.000000 0.250000
vn -1.000000 0.000000 0.000000
v 0.000000 0.737217 0.250237
vn -0.707107 0.000000 0.707107
v 0.000000 0.500000 1.000000
vn -1.000000 0.000000 0.000000
v 0.000000 0.737217 0.749763
vn -1.000000 0.000000 0.000000
v 0.000000 0.280057 0.728580
vn 0.000000 1.000000 0.000000
v 0.250000 1.000000 0.750000
vn 0.000000 1.000000 0.000000
v 0.500000 1.000000 0.749763
vn 0.000000 1.000000 0.000000
v 0.250237 1.000000 0.500000
vn 0.000000 1.000000 0.000000
v 0.728580 1.000000 0.271420
vn 0.000000 0.707107 -0.707107
v 0.500000 1.000000 0.000000
vn 0.000000 1.000000 0.000000
v 0.271420 1.000000 0.250237
vn 0.000000 -0.707107 -0.707107
v 0.500000 0.000000 0.000000
vn 0.000000 -1.000000 0.000000
v 0.271420 0.000000 0.280057
vn -0.707107 -0.707107 0.000000
v 0.000000 0.000000 0.500000
vn 0.000000 -0.707107 0.707107
v 0.750000 0.000000 1.000000
vn -0.707107 0.000000 -0.707107
v 0.000000 0.500000 0.000000
vn 0.000000 0.000000 -1.000000
v 0.280057 0.728580 0.000000
vn 0.000000 0.000000 -1.000000
v 0.280057 0.271479 0.000000
vn 0.000000 0.000000 -1.000000
v 0.737124 0.749833 0.000000
vn 1.000000 0.000000 0.000000
v 1.000000 0.255484 0.271280
vn 0.707107 0.707107 0.000000
v 1.000000 1.000000 0.500000
vn 1.000000 0.000000 0.000000
v 1.000000 0.750000 0.728817
vn 0.707107 0.000000 0.707107
v 1.000000 0.750000 1.000000
vn 0.000000 0.000000 1.000000
v 0.250000 0.278528 1.000000
vn 0.000000 0.000000 1.000000
v 0.750000 0.757345 1.000000
vn 0.000000 0.707107 0.707107
v 0.750000 1.000000 1.000000
vn -1.000000 0.000000 0.000000
v 0.000000 0.280057 0.271420
vn -0.707107 0.707107 0.000000
v 0.000000 1.000000 0.750000
vn 0.000000 1.000000 0.000000
v 0.749763 1.000000 0.728580
vn 0.000000 -1.000000 0.000000
v 0.874527 0.000000 0.622520
vn 0.000000 -1.000000 0.000000
v 0.742781 0.000000 0.508795
vn 0.000000 -1.000000 0.000000
v 0.867781 0.000000 0.386011
vn 0.000000 -1.000000 0.000000
v 0.375000 0.000000 0.886011
vn 0.000000 -1.000000 0.000000
v 0.250000 0.000000 0.872520
vn 0.000000 -1.000000 0.000000
v 0.375000 0.000000 0.758795
vn 0.000000 0.000000 -1.000000
v 0.883165 0.443597 0.000000
vn 0.000000 0.000000 -1.000000
v 0.872334 0.310598 0.000000
vn 0.000000 0.000000 -1.000000
v 0.755949 0.382784 0.000000
vn 1.000000 0.000000 0.000000
v 1.000000 0.750140 0.131939
vn 1.000000 0.000000 0.000000
v 1.000000 0.627133 0.252953
vn 1.000000 0.000000 0.000000
v 1.000000 0.623287 0.121208
vn 1.000000 0.000000 0.000000
v 1.000000 0.375000 0.881746
vn 1.000000 0.000000 0.000000
v 1.000000 0.250000 0.868254
vn 1.000000 0.000000 0.000000
v 1.000000 0.375000 0.750000
vn 0.000000 0.000000 1.000000
v 0.750000 0.378832 1.000000
vn 0.000000 0.000000 1.000000
v 0.625000 0.382456 1.000000
vn 0.000000 0.000000 1.000000
v 0.625000 0.253832 1.000000
vn 0.000000 0.000000 1.000000
v 0.375000 0.885355 1.000000
vn 0.000000 0.000000 1.000000
v 0.250000 0.871864 1.000000
vn 0.000000 0.000000 1.000000
v 0.375000 0.757441 1.000000
vn -1.000000 0.000000 0.000000
v 0.000000 0.886011 0.375000
vn -1.000000 0.000000 0.000000
v 0.000000 0.872520 0.250000
vn -1.000000 0.000000 0.000000
v 0.000000 0.758795 0.375000
vn -1.000000 0.000000 0.000000
v 0.000000 0.622520 0.874527
vn -1.000000 0.000000 0.000000
v 0.000000 0.508795 0.742781
vn -1.000000 0.000000 0.000000
v 0.000000 0.386011 0.867781
vn 0.000000 1.000000 0.000000
v 0.375000 1.000000 0.750000
vn 0.000000 1.000000 0.000000
v 0.375000 1.000000 0.625000
vn 0.000000 1.000000 0.000000
v 0.250000 1.000000 0.625000
vn 0.000000 1.000000 0.000000
v 0.618254 1.000000 0.132219
vn 0.000000 1.000000 0.000000
v 0.381746 1.000000 0.125473
vn 0.000000 1.000000 0.000000
v 0.500000 1.000000 0.257219
vn 0.000000 -1.000000 0.000000
v 0.618254 0.000000 0.136958
vn 0.000000 -1.000000 0.000000
v 0.500000 0.000000 0.273233
vn 0.000000 -1.000000 0.000000
v 0.381746 0.000000 0.136958
vn 0.000000 -1.000000 0.000000
v 0.257219 0.000000 0.508795
vn 0.000000 -1.000000 0.000000
v 0.125473 0.000000 0.622520
vn 0.000000 -1.000000 0.000000
v 0.132219 0.000000 0.386011
vn 0.000000 -1.000000 0.000000
v 0.750000 0.000000 0.872520
vn 0.000000 -1.000000 0.000000
v 0.625000 0.000000 0.886011
vn 0.000000 -1.000000 0.000000
v 0.625000 0.000000 0.758795
vn 0.000000 0.000000 -1.000000
v 0.136958 0.618254 0.000000
vn 0.000000 0.000000 -1.000000
v 0.273233 0.500000 0.000000
vn 0.000000 0.000000 -1.000000
v 0.136958 0.381746 0.000000
vn 0.000000 0.000000 -1.000000
v 0.386011 0.867781 0.000000
vn 0.000000 0.000000 -1.000000
v 0.622520 0.874527 0.000000
vn 0.000000 0.000000 -1.000000
v 0.508795 0.742781 0.000000
vn 0.000000 0.000000 -1.000000
v 0.508795 0.259024 0.000000
vn 0.000000 0.000000 -1.000000
v 0.622520 0.127278 0.000000
vn 0.000000 0.000000 -1.000000
v 0.386011 0.132337 0.000000
vn 0.000000 0.000000 -1.000000
v 0.872334 0.750140 0.000000
vn 0.000000 0.000000 -1.000000
v 0.883165 0.623287 0.000000
vn 0.000000 0.000000 -1.000000
v 0.755949 0.627133 0.000000
vn 1.000000 0.000000 0.000000
v 1.000000 0.443597 0.121208
vn 1.000000 0.000000 0.000000
v 1.000000 0.382784 0.252953
vn 1.000000 0.000000 0.000000
v 1.000000 0.310598 0.131939
vn 1.000000 0.000000 0.000000
v 1.000000 0.875000 0.381746
vn 1.000000 0.000000 0.000000
v 1.000000 0.875000 0.618254
vn 1.000000 0.000000 0.000000
v 1.000000 0.750000 0.500000
vn 1.000000 0.000000 0.000000
v 1.000000 0.251805 0.500000
vn 1.000000 0.000000 0.000000
v 1.000000 0.125118 0.618254
vn 1.000000 0.000000 0.000000
v 1.000000 0.126805 0.381746
vn 1.000000 0.000000 0.000000
v 1.000000 0.750000 0.868254
vn 1.000000 0.000000 0.000000
v 1.000000 0.625000 0.881746
vn 1.000000 0.000000 0.000000
v 1.000000 0.625000 0.750000
vn 0.000000 0.000000 1.000000
v 0.375000 0.129083 1.000000
vn 0.000000 0.000000 1.000000
v 0.375000 0.264660 1.000000
vn 0.000000 0.000000 1.000000
v 0.250000 0.135828 1.000000
vn 0.000000 0.000000 1.000000
v 0.875000 0.125015 1.000000
vn 0.000000 0.000000 1.000000
v 0.875000 0.250222 1.000000
vn 0.000000 0.000000 1.000000
v 0.750000 0.125222 1.000000
vn 0.000000 0.000000 1.000000
v 0.875000 0.628610 1.000000
vn 0.000000 0.000000 1.000000
v 0.875000 0.753610 1.000000
vn 0.000000 0.000000 1.000000
v 0.750000 0.632441 1.000000
vn 0.000000 0.000000 1.000000
v 0.250000 0.507441 1.000000
vn 0.000000 0.000000 1.000000
v 0.125000 0.621864 1.000000
vn 0.000000 0.000000 1.000000
v 0.125000 0.385355 1.000000
vn 0.000000 0.000000 1.000000
v 0.750000 0.879083 1.000000
vn 0.000000 0.000000 1.000000
v 0.625000 0.885828 1.000000
vn 0.000000 0.000000 1.000000
v 0.625000 0.764660 1.000000
vn -1.000000 0.000000 0.000000
v 0.000000 0.508795 0.257219
vn -1.000000 0.000000 0.000000
v 0.000000 0.622520 0.125473
vn -1.000000 0.000000 0.000000
v 0.000000 0.386011 0.132219
vn -1.000000 0.000000 0.000000
v 0.000000 0.872520 0.750000
vn -1.000000 0.000000 0.000000
v 0.000000 0.886011 0.625000
vn -1.000000 0.000000 0.000000
v 0.000000 0.758795 0.625000
vn -1.000000 0.000000 0.000000
v 0.000000 0.136958 0.618254
vn -1.000000 0.000000 0.000000
v 0.000000 0.273233 0.500000
vn -1.000000 0.000000 0.000000
v 0.000000 0.136958 0.381746
vn 0.000000 1.000000 0.000000
v 0.125473 1.000000 0.375000
vn 0.000000 1.000000 0.000000
v 0.257219 1.000000 0.375000
vn 0.000000 1.000000 0.000000
v 0.132219 1.000000 0.250000
vn 0.000000 1.000000 0.000000
v 0.125000 1.000000 0.875000
vn 0.000000 1.000000 0.000000
v 0.250000 1.000000 0.875000
vn 0.000000 1.000000 0.000000
v 0.125000 1.000000 0.750000
vn 0.000000 1.000000 0.000000
v 0.625000 1.000000 0.874527
vn 0.000000 1.000000 0.000000
v 0.750000 1.000000 0.867781
vn 0.000000 1.000000 0.000000
v 0.625000 1.000000 0.742781
vn 0.000000 1.000000 0.000000
v 0.874527 1.000000 0.618254
vn 0.000000 1.000000 0.000000
v 0.867781 1.000000 0.381746
vn 0.000000 1.000000 0.000000
v 0.742781 1.000000 0.500000
vn 0.707107 -0.707107 0.000000
v 1.000000 0.000000 0.250000
vn 0.000000 -1.000000 0.000000
v 0.860089 0.000000 0.143914
vn 0.707107 -0.707107 0.000000
v 1.000000 0.000000 0.750000
vn 0.000000 -1.000000 0.000000
v 0.875000 0.000000 0.864092
vn 0.000000 -1.000000 0.000000
v 0.624527 0.000000 0.627585
vn 0.000000 -1.000000 0.000000
v 0.610562 0.000000 0.406461
vn 0.000000 -1.000000 0.000000
v 0.500000 0.000000 0.655514
vn 0.000000 -1.000000 0.000000
v 0.375473 0.000000 0.627585
vn 0.000000 -1.000000 0.000000
v 0.500000 0.000000 0.893915
vn 0.000000 -0.707107 0.707107
v 0.375000 0.000000 1.000000
vn 0.000000 -0.707107 0.707107
v 0.125000 0.000000 1.000000
vn 0.000000 -1.000000 0.000000
v 0.125000 0.000000 0.864092
vn 0.000000 0.000000 -1.000000
v 0.652669 0.502251 0.000000
vn 0.000000 0.000000 -1.000000
v 0.627399 0.377418 0.000000
vn 0.707107 0.000000 -0.707107
v 1.000000 0.187500 0.000000
vn 0.000000 0.000000 -1.000000
v 0.864092 0.130651 0.000000
vn 0.707107 0.000000 -0.707107
v 1.000000 0.562500 0.000000
vn 0.707107 0.000000 -0.707107
v 1.000000 0.875000 0.000000
vn 1.000000 0.000000 0.000000
v 1.000000 0.875000 0.139911
vn 1.000000 0.000000 0.000000
v 1.000000 0.625140 0.389158
vn 1.000000 0.000000 0.000000
v 1.000000 0.502251 0.363989
vn 1.000000 0.000000 0.000000
v 1.000000 0.500000 0.638965
vn 1.000000 0.000000 0.000000
v 1.000000 0.375118 0.611036
vn 1.000000 0.000000 0.000000
v 1.000000 0.500000 0.889911
vn 0.707107 0.000000 0.707107
v 1.000000 0.375000 1.000000
vn 0.707107 0.000000 0.707107
v 1.000000 0.125000 1.000000
vn 1.000000 0.000000 0.000000
v 1.000000 0.125000 0.860089
vn 0.000000 0.000000 1.000000
v 0.625000 0.125444 1.000000
vn 0.000000 0.000000 1.000000
v 0.500000 0.128402 1.000000
vn 0.000000 0.000000 1.000000
v 0.875000 0.375444 1.000000
vn 0.000000 0.000000 1.000000
v 0.875000 0.503402 1.000000
vn 0.000000 0.000000 1.000000
v 0.625000 0.513994 1.000000
vn 0.000000 0.000000 1.000000
v 0.500000 0.389467 1.000000
vn 0.000000 0.000000 1.000000
v 0.500000 0.653432 1.000000
vn 0.000000 0.000000 1.000000
v 0.375000 0.625029 1.000000
vn 0.000000 0.000000 1.000000
v 0.500000 0.893299 1.000000
vn 0.000000 0.707107 0.707107
v 0.375000 1.000000 1.000000
vn 0.000000 0.707107 0.707107
v 0.125000 1.000000 1.000000
vn 0.000000 0.000000 1.000000
v 0.125000 0.863476 1.000000
vn -1.000000 0.000000 0.000000
v 0.000000 0.655514 0.500000
vn -1.000000 0.000000 0.000000
v 0.000000 0.627585 0.375473
vn -1.000000 0.000000 0.000000
v 0.000000 0.893915 0.500000
vn -0.707107 0.707107 0.000000
v 0.000000 1.000000 0.375000
vn -0.707107 0.707107 0.000000
v 0.000000 1.000000 0.125000
vn -1.000000 0.000000 0.000000
v 0.000000 0.864092 0.125000
vn -0.707107 0.000000 0.707107
v 0.000000 0.250000 1.000000
vn -1.000000 0.000000 0.000000
v 0.000000 0.143914 0.860089
vn -0.707107 0.000000 0.707107
v 0.000000 0.750000 1.000000
vn -1.000000 0.000000 0.000000
v 0.000000 0.864092 0.875000
vn -1.000000 0.000000 0.000000
v 0.000000 0.627585 0.624527
vn -1.000000 0.000000 0.000000
v 0.000000 0.406461 0.610562
vn 0.000000 1.000000 0.000000
v 0.125000 1.000000 0.625000
vn 0.000000 1.000000 0.000000
v 0.125000 1.000000 0.500000
vn 0.000000 1.000000 0.000000
v 0.375000 1.000000 0.875000
vn 0.000000 1.000000 0.000000
v 0.500000 1.000000 0.875000
vn 0.000000 1.000000 0.000000
v 0.500000 1.000000 0.624527
vn 0.000000 1.000000 0.000000
v 0.375473 1.000000 0.500000
vn 0.000000 1.000000 0.000000
v 0.610562 1.000000 0.389438
vn 0.000000 1.000000 0.000000
v 0.389438 1.000000 0.375473
vn 0.000000 1.000000 0.000000
v 0.860089 1.000000 0.139911
vn 0.000000 0.707107 -0.707107
v 0.750000 1.000000 0.000000
vn 0.000000 0.707107 -0.707107
v 0.250000 1.000000 0.000000
vn 0.000000 1.000000 0.000000
v 0.139911 1.000000 0.125000
vn 0.000000 -0.707107 -0.707107
v 0.250000 0.000000 0.000000
vn 0.000000 -1.000000 0.000000
v 0.139911 0.000000 0.143914
vn 0.000000 -0.707107 -0.707107
v 0.750000 0.000000 0.000000
vn 0.000000 -1.000000 0.000000
v 0.389438 0.000000 0.406461
vn -0.707107 -0.707107 0.000000
v 0.000000 0.000000 0.250000
vn -0.707107 -0.707107 0.000000
v 0.000000 0.000000 0.750000
vn 0.000000 -0.707107 0.707107
v 0.875000 0.000000 1.000000
vn 0.000000 -0.707107 0.707107
v 0.625000 0.000000 1.000000
vn -0.707107 0.000000 -0.707107
v 0.000000 0.250000 0.000000
vn 0.000000 0.000000 -1.000000
v 0.143914 0.139911 0.000000
vn -0.707107 0.000000 -0.707107
v 0.000000 0.750000 0.000000
vn 0.000000 0.000000 -1.000000
v 0.143914 0.860089 0.000000
vn 0.000000 0.000000 -1.000000
v 0.406461 0.610562 0.000000
vn 0.000000 0.000000 -1.000000
v 0.406461 0.389556 0.000000
vn 0.000000 0.000000 -1.000000
v 0.627399 0.624666 0.000000
vn 0.000000 0.000000 -1.000000
v 0.864092 0.875000 0.000000
vn 1.000000 0.000000 0.000000
v 1.000000 0.130651 0.139911
vn 1.000000 0.000000 0.000000
v 1.000000 0.376945 0.389158
vn 1.000000 0.000000 0.000000
v 1.000000 0.625000 0.611036
vn 0.707107 0.707107 0.000000
v 1.000000 1.000000 0.250000
vn 0.707107 0.707107 0.000000
v 1.000000 1.000000 0.750000
vn 1.000000 0.000000 0.000000
v 1.000000 0.875000 0.860089
vn 0.707107 0.000000 0.707107
v 1.000000 0.875000 1.000000
vn 0.707107 0.000000 0.707107
v 1.000000 0.625000 1.000000
vn 0.000000 0.000000 1.000000
v 0.125000 0.143299 1.000000
vn 0.000000 0.000000 1.000000
v 0.375000 0.403432 1.000000
vn 0.000000 0.000000 1.000000
v 0.625000 0.639467 1.000000
vn 0.000000 0.000000 1.000000
v 0.875000 0.878387 1.000000
vn 0.000000 0.707107 0.707107
v 0.875000 1.000000 1.000000
vn 0.000000 0.707107 0.707107
v 0.625000 1.000000 1.000000
vn -1.000000 0.000000 0.000000
v 0.000000 0.143914 0.139911
vn -1.000000 0.000000 0.000000
v 0.000000 0.406461 0.389438
vn -0.707107 0.707107 0.000000
v 0.000000 1.000000 0.875000
vn -0.707107 0.707107 0.000000
v 0.000000 1.000000 0.625000
vn 0.000000 1.000000 0.000000
v 0.624527 1.000000 0.610562
vn 0.000000 1.000000 0.000000
v 0.875000 1.000000 0.860089
# 270 vertices, 0 vertices normals

f 70//70 71//71 72//72
f 73//73 74//74 75//75
f 76//76 77//77 78//78
f 79//79 80//80 81//81
f 82//82 83//83 84//84
f 85//85 86//86 87//87
f 88//88 89//89 90//90
f 91//91 92//92 93//93
f 94//94 95//95 96//96
f 97//97 98//98 99//99
f 100//100 101//101 102//102
f 103//103 104//104 105//105
f 106//106 107//107 108//108
f 109//109 110//110 111//111
f 112//112 113//113 114//114
f 115//115 116//116 117//117
f 118//118 119//119 120//120
f 121//121 122//122 123//123
f 124//124 125//125 126//126
f 127//127 128//128 129//129
f 130//130 131//131 132//132
f 133//133 134//134 135//135
f 136//136 137//137 138//138
f 139//139 140//140 141//141
f 142//142 143//143 144//144
f 145//145 146//146 147//147
f 148//148 149//149 150//150
f 151//151 152//152 153//153
f 154//154 155//155 156//156
f 157//157 158//158 159//159
f 160//160 161//161 162//162
f 163//163 164//164 165//165
f 166//166 167//167 168//168
f 169//169 170//170 171//171
f 172//172 72//72 173//173
f 174//174 175//175 70//70
f 71//71 176//176 177//177
f 178//178 75//75 179//179
f 180//180 181//181 73//73
f 74//74 182//182 183//183
f 184//184 78//78 185//185
f 77//77 186//186 187//187
f 188//188 81//81 124//124
f 189//189 190//190 79//79
f 80//80 191//191 192//192
f 193//193 84//84 194//194
f 195//195 196//196 82//82
f 83//83 197//197 198//198
f 199//199 87//87 200//200
f 201//201 202//202 85//85
f 86//86 203//203 204//204
f 205//205 90//90 206//206
f 207//207 208//208 88//88
f 89//89 209//209 210//210
f 211//211 93//93 212//212
f 213//213 214//214 91//91
f 92//92 215//215 216//216
f 217//217 96//96 218//218
f 219//219 220//220 94//94
f 95//95 221//221 222//222
f 223//223 99//99 224//224
f 225//225 226//226 97//97
f 98//98 227//227 228//228
f 229//229 102//102 230//230
f 231//231 232//232 100//100
f 101//101 233//233 234//234
f 235//235 105//105 236//236
f 237//237 173//173 103//103
f 104//104 177//177 238//238
f 236//236 108//108 239//239
f 238//238 179//179 106//106
f 107//107 183//183 240//240
f 176//176 111//111 178//178
f 175//175 241//241 109//109
f 110//110 242//242 180//180
f 243//243 114//114 244//244
f 245//245 246//246 112//112
f 113//113 247//247 248//248
f 247//247 117//117 249//249
f 246//246 233//233 115//115
f 116//116 232//232 250//250
f 244//244 120//120 235//235
f 248//248 185//185 118//118
f 119//119 187//187 237//237
f 249//249 123//123 184//184
f 250//250 189//189 121//121
f 122//122 188//188 76//76
f 186//186 126//126 251//251
f 125//125 192//192 252//252
f 191//191 129//129 253//253
f 190//190 254//254 127//127
f 128//128 255//255 256//256
f 251//251 132//132 172//172
f 252//252 194//194 130//130
f 131//131 198//198 174//174
f 253//253 135//135 193//193
f 256//256 257//257 133//133
f 134//134 258//258 195//195
f 182//182 138//138 259//259
f 181//181 200//200 136//136
f 137//137 204//204 260//260
f 242//242 141//141 199//199
f 241//241 197//197 139//139
f 140//140 196//196 201//201
f 203//203 144//144 261//261
f 202//202 258//258 142//142
f 143//143 257//257 262//262
f 259//259 147//147 217//217
f 260//260 206//206 145//145
f 146//146 210//210 219//219
f 261//261 150//150 205//205
f 262//262 263//263 148//148
f 149//149 264//264 207//207
f 265//265 153//153 243//243
f 266//266 212//212 151//151
f 152//152 216//216 245//245
f 221//221 156//156 211//211
f 220//220 267//267 154//154
f 155//155 268//268 213//213
f 239//239 159//159 265//265
f 240//240 218//218 157//157
f 158//158 222//222 266//266
f 215//215 162//162 234//234
f 214//214 224//224 160//160
f 161//161 228//228 230//230
f 268//268 165//165 223//223
f 267//267 209//209 163//163
f 164//164 208//208 225//225
f 227//227 168//168 269//269
f 226//226 264//264 166//166
f 167//167 263//263 270//270
f 269//269 171//171 229//229
f 270//270 255//255 169//169
f 170//170 254//254 231//231
f 19//19 70//70 72//72
f 70//70 20//20 71//71
f 72//72 71//71 21//21
f 22//22 73//73 75//75
f 73//73 23//23 74//74
f 75//75 74//74 24//24
f 25//25 76//76 78//78
f 76//76 26//26 77//77
f 78//78 77//77 27//27
f 28//28 79//79 81//81
f 79//79 29//29 80//80
f 81//81 80//80 30//30
f 31//31 82//82 84//84
f 82//82 32//32 83//83
f 84//84 83//83 33//33
f 34//34 85//85 87//87
f 85//85 35//35 86//86
f 87//87 86//86 36//36
f 37//37 88//88 90//90
f 88//88 38//38 89//89
f 90//90 89//89 39//39
f 40//40 91//91 93//93
f 91//91 41//41 92//92
f 93//93 92//92 42//42
f 43//43 94//94 96//96
f 94//94 44//44 95//95
f 96//96 95//95 45//45
f 46//46 97//97 99//99
f 97//97 47//47 98//98
f 99//99 98//98 48//48
f 49//49 100//100 102//102
f 100//100 50//50 101//101
f 102//102 101//101 51//51
f 52//52 103//103 105//105
f 103//103 21//21 104//104
f 105//105 104//104 53//53
f 53//53 106//106 108//108
f 106//106 24//24 107//107
f 108//108 107//107 54//54
f 20//20 109//109 111//111
f 109//109 55//55 110//110
f 111//111 110//110 22//22
f 56//56 112//112 114//114
f 112//112 57//57 113//113
f 114//114 113//113 58//58
f 57//57 115//115 117//117
f 115//115 50//50 116//116
f 117//117 116//116 59//59
f 58//58 118//118 120//120
f 118//118 27//27 119//119
f 120//120 119//119 52//52
f 59//59 121//121 123//123
f 121//121 28//28 122//122
f 123//123 122//122 25//25
f 26//26 124//124 126//126
f 124//124 30//30 125//125
f 126//126 125//125 60//60
f 29//29 127//127 129//129
f 127//127 61//61 128//128
f 129//129 128//128 62//62
f 60//60 130//130 132//132
f 130//130 33//33 131//131
f 132//132 131//131 19//19
f 62//62 133//133 135//135
f 133//133 63//63 134//134
f 135//135 134//134 31//31
f 23//23 136//136 138//138
f 136//136 36//36 137//137
f 138//138 137//137 64//64
f 55//55 139//139 141//141
f 139//139 32//32 140//140
f 141//141 140//140 34//34
f 35//35 142//142 144//144
f 142//142 63//63 143//143
f 144//144 143//143 65//65
f 64//64 145//145 147//147
f 145//145 39//39 146//146
f 147//147 146//146 43//43
f 65//65 148//148 150//150
f 148//148 66//66 149//149
f 150//150 149//149 37//37
f 67//67 151//151 153//153
f 151//151 42//42 152//152
f 153//153 152//152 56//56
f 44//44 154//154 156//156
f 154//154 68//68 155//155
f 156//156 155//155 40//40
f 54//54 157//157 159//159
f 157//157 45//45 158//158
f 159//159 158//158 67//67
f 41//41 160//160 162//162
f 160//160 48//48 161//161
f 162//162 161//161 51//51
f 68//68 163//163 165//165
f 163//163 38//38 164//164
f 165//165 164//164 46//46
f 47//47 166//166 168//168
f 166//166 66//66 167//167
f 168//168 167//167 69//69
f 69//69 169//169 171//171
f 169//169 61//61 170//170
f 171//171 170//170 49//49
f 2//2 172//172 173//173
f 172//172 19//19 72//72
f 173//173 72//72 21//21
f 19//19 174//174 70//70
f 174//174 3//3 175//175
f 70//70 175//175 20//20
f 21//21 71//71 177//177
f 71//71 20//20 176//176
f 177//177 176//176 9//9
f 9//9 178//178 179//179
f 178//178 22//22 75//75
f 179//179 75//75 24//24
f 22//22 180//180 73//73
f 180//180 10//10 181//181
f 73//73 181//181 23//23
f 24//24 74//74 183//183
f 74//74 23//23 182//182
f 183//183 182//182 4//4
f 11//11 184//184 185//185
f 184//184 25//25 78//78
f 185//185 78//78 27//27
f 27//27 77//77 187//187
f 77//77 26//26 186//186
f 187//187 186//186 2//2
f 26//26 188//188 124//124
f 188//188 28//28 81//81
f 124//124 81//81 30//30
f 28//28 189//189 79//79
f 189//189 6//6 190//190
f 79//79 190//190 29//29
f 30//30 80//80 192//192
f 80//80 29//29 191//191
f 192//192 191//191 12//12
f 12//12 193//193 194//194
f 193//193 31//31 84//84
f 194//194 84//84 33//33
f 31//31 195//195 82//82
f 195//195 13//13 196//196
f 82//82 196//196 32//32
f 33//33 83//83 198//198
f 83//83 32//32 197//197
f 198//198 197//197 3//3
f 10//10 199//199 200//200
f 199//199 34//34 87//87
f 200//200 87//87 36//36
f 34//34 201//201 85//85
f 201//201 13//13 202//202
f 85//85 202//202 35//35
f 36//36 86//86 204//204
f 86//86 35//35 203//203
f 204//204 203//203 14//14
f 14//14 205//205 206//206
f 205//205 37//37 90//90
f 206//206 90//90 39//39
f 37//37 207//207 88//88
f 207//207 15//15 208//208
f 88//88 208//208 38//38
f 39//39 89//89 210//210
f 89//89 38//38 209//209
f 210//210 209//209 8//8
f 16//16 211//211 212//212
f 211//211 40//40 93//93
f 212//212 93//93 42//42
f 40//40 213//213 91//91
f 213//213 17//17 214//214
f 91//91 214//214 41//41
f 42//42 92//92 216//216
f 92//92 41//41 215//215
f 216//216 215//215 5//5
f 4//4 217//217 218//218
f 217//217 43//43 96//96
f 218//218 96//96 45//45
f 43//43 219//219 94//94
f 219//219 8//8 220//220
f 94//94 220//220 44//44
f 45//45 95//95 222//222
f 95//95 44//44 221//221
f 222//222 221//221 16//16
f 17//17 223//223 224//224
f 223//223 46//46 99//99
f 224//224 99//99 48//48
f 46//46 225//225 97//97
f 225//225 15//15 226//226
f 97//97 226//226 47//47
f 48//48 98//98 228//228
f 98//98 47//47 227//227
f 228//228 227//227 18//18
f 18//18 229//229 230//230
f 229//229 49//49 102//102
f 230//230 102//102 51//51
f 49//49 231//231 100//100
f 231//231 6//6 232//232
f 100//100 232//232 50//50
f 51//51 101//101 234//234
f 101//101 50//50 233//233
f 234//234 233//233 5//5
f 1//1 235//235 236//236
f 235//235 52//52 105//105
f 236//236 105//105 53//53
f 52//52 237//237 103//103
f 237//237 2//2 173//173
f 103//103 173//173 21//21
f 53//53 104//104 238//238
f 104//104 21//21 177//177
f 238//238 177//177 9//9
f 1//1 236//236 239//239
f 236//236 53//53 108//108
f 239//239 108//108 54//54
f 53//53 238//238 106//106
f 238//238 9//9 179//179
f 106//106 179//179 24//24
f 54//54 107//107 240//240
f 107//107 24//24 183//183
f 240//240 183//183 4//4
f 9//9 176//176 178//178
f 176//176 20//20 111//111
f 178//178 111//111 22//22
f 20//20 175//175 109//109
f 175//175 3//3 241//241
f 109//109 241//241 55//55
f 22//22 110//110 180//180
f 110//110 55//55 242//242
f 180//180 242//242 10//10
f 1//1 243//243 244//244
f 243//243 56//56 114//114
f 244//244 114//114 58//58
f 56//56 245//245 112//112
f 245//245 5//5 246//246
f 112//112 246//246 57//57
f 58//58 113//113 248//248
f 113//113 57//57 247//247
f 248//248 247//247 11//11
f 11//11 247//247 249//249
f 247//247 57//57 117//117
f 249//249 117//117 59//59
f 57//57 246//246 115//115
f 246//246 5//5 233//233
f 115//115 233//233 50//50
f 59//59 116//116 250//250
f 116//116 50//50 232//232
f 250//250 232//232 6//6
f 1//1 244//244 235//235
f 244//244 58//58 120//120
f 235//235 120//120 52//52
f 58//58 248//248 118//118
f 248//248 11//11 185//185
f 118//118 185//185 27//27
f 52//52 119//119 237//237
f 119//119 27//27 187//187
f 237//237 187//187 2//2
f 11//11 249//249 184//184
f 249//249 59//59 123//123
f 184//184 123//123 25//25
f 59//59 250//250 121//121
f 250//250 6//6 189//189
f 121//121 189//189 28//28
f 25//25 122//122 76//76
f 122//122 28//28 188//188
f 76//76 188//188 26//26
f 2//2 186//186 251//251
f 186//186 26//26 126//126
f 251//251 126//126 60//60
f 60//60 125//125 252//252
f 125//125 30//30 192//192
f 252//252 192//192 12//12
f 12//12 191//191 253//253
f 191//191 29//29 129//129
f 253//253 129//129 62//62
f 29//29 190//190 127//127
f 190//190 6//6 254//254
f 127//127 254//254 61//61
f 62//62 128//128 256//256
f 128//128 61//61 255//255
f 256//256 255//255 7//7
f 2//2 251//251 172//172
f 251//251 60//60 132//132
f 172//172 132//132 19//19
f 60//60 252//252 130//130
f 252//252 12//12 194//194
f 130//130 194//194 33//33
f 19//19 131//131 174//174
f 131//131 33//33 198//198
f 174//174 198//198 3//3
f 12//12 253//253 193//193
f 253//253 62//62 135//135
f 193//193 135//135 31//31
f 62//62 256//256 133//133
f 256//256 7//7 257//257
f 133//133 257//257 63//63
f 31//31 134//134 195//195
f 134//134 63//63 258//258
f 195//195 258//258 13//13
f 4//4 182//182 259//259
f 182//182 23//23 138//138
f 259//259 138//138 64//64
f 23//23 181//181 136//136
f 181//181 10//10 200//200
f 136//136 200//200 36//36
f 64//64 137//137 260//260
f 137//137 36//36 204//204
f 260//260 204//204 14//14
f 10//10 242//242 199//199
f 242//242 55//55 141//141
f 199//199 141//141 34//34
f 55//55 241//241 139//139
f 241//241 3//3 197//197
f 139//139 197//197 32//32
f 34//34 140//140 201//201
f 140//140 32//32 196//196
f 201//201 196//196 13//13
f 14//14 203//203 261//261
f 203//203 35//35 144//144
f 261//261 144//144 65//65
f 35//35 202//202 142//142
f 202//202 13//13 258//258
f 142//142 258//258 63//63
f 65//65 143//143 262//262
f 143//143 63//63 257//257
f 262//262 257//257 7//7
f 4//4 259//259 217//217
f 259//259 64//64 147//147
f 217//217 147//147 43//43
f 64//64 260//260 145//145
f 260//260 14//14 206//206
f 145//145 206//206 39//39
f 43//43 146//146 219//219
f 146//146 39//39 210//210
f 219//219 210//210 8//8
f 14//14 261//261 205//205
f 261//261 65//65 150//150
f 205//205 150//150 37//37
f 65//65 262//262 148//148
f 262//262 7//7 263//263
f 148//148 263//263 66//66
f 37//37 149//149 207//207
f 149//149 66//66 264//264
f 207//207 264//264 15//15
f 1//1 265//265 243//243
f 265//265 67//67 153//153
f 243//243 153//153 56//56
f 67//67 266//266 151//151
f 266//266 16//16 212//212
f 151//151 212//212 42//42
f 56//56 152//152 245//245
f 152//152 42//42 216//216
f 245//245 216//216 5//5
f 16//16 221//221 211//211
f 221//221 44//44 156//156
f 211//211 156//156 40//40
f 44//44 220//220 154//154
f 220//220 8//8 267//267
f 154//154 267//267 68//68
f 40//40 155//155 213//213
f 155//155 68//68 268//268
f 213//213 268//268 17//17
f 1//1 239//239 265//265
f 239//239 54//54 159//159
f 265//265 159//159 67//67
f 54//54 240//240 157//157
f 240//240 4//4 218//218
f 157//157 218//218 45//45
f 67//67 158//158 266//266
f 158//158 45//45 222//222
f 266//266 222//222 16//16
f 5//5 215//215 234//234
f 215//215 41//41 162//162
f 234//234 162//162 51//51
f 41//41 214//214 160//160
f 214//214 17//17 224//224
f 160//160 224//224 48//48
f 51//51 161//161 230//230
f 161//161 48//48 228//228
f 230//230 228//228 18//18
f 17//17 268//268 223//223
f 268//268 68//68 165//165
f 223//223 165//165 46//46
f 68//68 267//267 163//163
f 267//267 8//8 209//209
f 163//163 209//209 38//38
f 46//46 164//164 225//225
f 164//164 38//38 208//208
f 225//225 208//208 15//15
f 18//18 227//227 269//269
f 227//227 47//47 168//168
f 269//269 168//168 69//69
f 47//47 226//226 166//166
f 226//226 15//15 264//264
f 166//166 264//264 66//66
f 69//69 167//167 270//270
f 167//167 66//66 263//263
f 270//270 263//263 7//7
f 18//18 269//269 229//229
f 269//269 69//69 171//171
f 229//229 171//171 49//49
f 69//69 270//270 169//169
f 270//270 7//7 255//255
f 169//169 255//255 61//61
f 49//49 170//170 231//231
f 170//170 61//61 254//254
f 231//231 254//254 6//6
# 536 faces, 0 coords texture

# End of File
