####
#
# OBJ File Generated by Meshlab
#
####
# Object cylinder_310.obj
#
# Vertices: 310
# Faces: 616
#
####
mtllib ./cylinder_310.obj.mtl

vn -0.024200 0.670476 -0.741537
v -0.008088 0.500000 -0.996806
vn 0.658916 0.664760 0.352027
v 0.873351 0.500000 0.476796
vn -0.708648 -0.672254 -0.214224
v -0.956987 -0.500000 -0.272124
vn -0.365951 0.666713 -0.649287
v -0.489724 0.500000 -0.866425
vn 0.492078 0.008518 -0.870510
v 0.492569 0.096443 -0.856721
vn 0.272715 -0.682695 0.677904
v 0.369722 -0.500000 0.919417
vn -0.457727 0.005441 -0.889076
v -0.447066 0.141174 -0.882694
vn 0.704500 0.689802 0.166892
v 0.959460 0.500000 0.228565
vn -0.631731 -0.687953 -0.357263
v -0.870231 -0.500000 -0.465363
vn 0.718116 -0.689968 0.090848
v 0.978504 -0.500000 0.142047
vn 0.695381 -0.673441 0.250842
v 0.941926 -0.500000 0.316759
vn 0.099470 0.687595 -0.719249
v 0.080881 0.500000 -0.989352
vn 0.632651 0.669361 -0.389498
v 0.845279 0.500000 -0.517499
vn 0.733501 0.679396 -0.019950
v 0.990010 0.500000 -0.025333
vn -0.593841 0.674489 -0.438654
v -0.816363 0.500000 -0.564721
vn 0.985355 0.012171 -0.170083
v 0.973873 -0.309348 -0.168847
vn -0.249737 0.021127 0.968083
v -0.253863 -0.238694 0.953439
vn 0.000000 1.000000 0.000000
v -0.618052 0.500000 0.164667
vn -0.115382 -0.006357 -0.993301
v -0.125337 -0.344410 -0.982118
vn 0.938991 -0.006996 0.343872
v 0.926606 0.355358 0.335544
vn -0.487603 0.682773 -0.544118
v -0.644865 0.500000 -0.747631
vn -0.662621 0.682613 -0.308177
v -0.888278 0.500000 -0.440760
vn 0.000000 1.000000 0.000000
v -0.780285 0.500000 -0.355439
vn 0.000000 1.000000 0.000000
v -0.230999 0.500000 0.199809
vn 0.629169 -0.691739 -0.354463
v 0.853536 -0.500000 -0.493081
vn 0.000000 -1.000000 0.000000
v 0.061087 -0.500000 0.777410
vn 0.000000 -1.000000 0.000000
v 0.618620 -0.500000 0.394578
vn -0.705314 0.686621 -0.176305
v -0.958018 0.500000 -0.242047
vn 0.727617 -0.683489 -0.058452
v 0.986091 -0.500000 -0.099585
vn 0.375840 -0.705151 0.601254
v 0.523916 -0.500000 0.833036
vn -0.542121 -0.693154 -0.475018
v -0.719926 -0.500000 -0.675241
vn 0.534041 -0.672756 -0.512054
v 0.723471 -0.500000 -0.680578
vn 0.879163 0.010310 -0.476409
v 0.866304 0.157452 -0.477674
vn 0.923195 -0.003596 -0.384315
v 0.916051 -0.306553 -0.370289
vn 0.703433 -0.680172 -0.206272
v 0.958412 -0.500000 -0.255236
vn 0.854144 -0.011437 0.519910
v 0.846246 0.280539 0.500955
vn -0.515771 -0.669632 0.534391
v -0.696804 -0.500000 0.707527
vn 0.000000 -1.000000 0.000000
v 0.330949 -0.500000 0.100930
vn 0.000000 -1.000000 0.000000
v 0.516209 -0.500000 -0.306737
vn 0.402065 0.669641 -0.624440
v 0.545714 0.500000 -0.829949
vn 0.302531 0.678590 0.669321
v 0.399998 0.500000 0.906876
vn 0.137550 0.689231 0.711366
v 0.215278 0.500000 0.962607
vn -0.412209 0.673760 0.613296
v -0.558249 0.500000 0.821329
vn -0.740687 0.671557 -0.019879
v -0.993511 0.500000 -0.023506
vn -0.313064 -0.693828 -0.648532
v -0.394504 -0.500000 -0.905724
vn 0.000000 -1.000000 0.000000
v 0.734489 -0.500000 -0.303250
vn -0.216852 0.008252 -0.976170
v -0.215764 -0.171272 -0.966888
vn 0.000000 -1.000000 0.000000
v 0.572215 -0.500000 0.613128
vn -0.912626 -0.000648 0.408795
v -0.902175 0.350795 0.394093
vn 0.000000 -1.000000 0.000000
v -0.029176 -0.500000 -0.837196
vn 0.698260 0.682043 -0.217370
v 0.943840 0.500000 -0.291105
vn 0.000000 1.000000 0.000000
v 0.744609 0.500000 0.363540
vn -0.027270 -0.691087 0.722257
v -0.046696 -0.500000 0.984818
vn -0.618663 -0.679288 0.394746
v -0.829586 -0.500000 0.541419
vn -0.727532 -0.682526 -0.069679
v -0.981233 -0.500000 -0.136487
vn 0.000000 -1.000000 0.000000
v -0.739040 -0.500000 0.179759
vn 0.145827 0.002857 -0.989306
v 0.135981 -0.036926 -0.978232
vn 0.884691 -0.000633 0.466177
v 0.878681 -0.314804 0.446177
vn 0.467227 0.006606 0.884113
v 0.456765 -0.358300 0.876517
vn -0.706126 0.002418 0.708082
v -0.696344 -0.126654 0.699987
vn -0.827413 0.006009 0.561562
v -0.815757 -0.227809 0.554282
vn -0.979215 0.006235 0.202730
v -0.966574 -0.170323 0.203665
vn -0.924121 -0.003899 -0.382080
v -0.909760 -0.112471 -0.380302
vn -0.677889 0.003362 -0.735157
v -0.666808 -0.367990 -0.730969
vn 0.000000 1.000000 0.000000
v 0.463215 0.500000 -0.700412
vn 0.767378 0.000542 -0.641195
v 0.759251 0.361134 -0.623572
vn -0.231314 0.000629 0.972879
v -0.223335 0.344976 0.961380
vn 0.000000 1.000000 0.000000
v -0.337483 0.500000 0.689208
vn -0.816071 0.001814 0.577949
v -0.803730 -0.032273 0.571182
vn -0.336403 0.010585 -0.941659
v -0.317241 -0.332034 -0.938929
vn 0.000000 -1.000000 0.000000
v 0.541815 -0.500000 0.061641
vn 0.425734 -0.008922 -0.904804
v 0.416803 0.306607 -0.893530
vn 0.633549 -0.008157 -0.773660
v 0.637893 -0.302642 -0.752863
vn 0.532294 0.001869 0.846558
v 0.511872 0.267546 0.844926
vn 0.085492 0.011118 0.996277
v 0.090397 0.292211 0.983749
vn -0.997006 -0.002413 0.077282
v -0.982932 0.149784 0.075113
vn -0.872618 -0.010904 -0.488281
v -0.866695 0.289095 -0.474399
vn -0.719028 0.676874 0.157608
v -0.972328 0.500000 0.184912
vn 0.000000 1.000000 0.000000
v -0.786162 0.500000 0.239895
vn -0.361041 -0.000702 -0.932550
v -0.362857 0.316754 -0.918416
vn 0.225238 -0.697293 -0.680479
v 0.316246 -0.500000 -0.923975
vn 0.500125 -0.675369 0.541989
v 0.666566 -0.500000 0.735553
vn -0.439667 -0.682936 -0.583345
v -0.608546 -0.500000 -0.782070
vn 0.442181 -0.025208 -0.896571
v 0.445182 -0.298150 -0.878046
vn 0.897157 -0.001628 -0.441709
v 0.886513 -0.134862 -0.434729
vn 0.825066 -0.003417 0.565026
v 0.820195 -0.121717 0.545751
vn -0.560101 0.002217 0.828422
v -0.549615 -0.239619 0.820519
vn -0.801491 -0.012050 -0.597885
v -0.781007 -0.338079 -0.602680
vn 0.000000 1.000000 0.000000
v -0.226492 0.500000 -0.027274
vn 0.292077 -0.001951 -0.956393
v 0.282606 0.131797 -0.943740
vn 0.239600 0.684376 -0.688637
v 0.321709 0.500000 -0.934520
vn -0.189462 0.686793 -0.701726
v -0.257298 0.500000 -0.953415
vn -0.667351 0.651188 0.361381
v -0.894069 0.500000 0.427123
vn -0.528647 0.693265 0.489811
v -0.694571 0.500000 0.697431
vn 0.565621 0.677125 0.470717
v 0.779934 0.500000 0.607645
vn 0.512377 0.684066 -0.519157
v 0.668479 0.500000 -0.727100
vn 0.000000 1.000000 0.000000
v -0.482004 0.500000 0.494503
vn 0.380060 -0.696413 -0.608739
v 0.548703 -0.500000 -0.812561
vn -0.375303 -0.686446 0.622848
v -0.500508 -0.500000 0.852245
vn -0.707736 -0.701920 0.080117
v -0.975886 -0.500000 0.100586
vn -0.213868 -0.678217 0.703052
v -0.294028 -0.500000 0.947914
vn -0.335100 0.003297 -0.942177
v -0.332755 -0.012346 -0.931037
vn -0.170170 -0.668386 -0.724087
v -0.240621 -0.500000 -0.968322
vn 0.000000 -1.000000 0.000000
v 0.367182 -0.500000 -0.696877
vn 0.000000 -1.000000 0.000000
v 0.166283 -0.500000 -0.761053
vn 0.000000 1.000000 0.000000
v -0.650067 0.500000 0.358209
vn 0.000000 -1.000000 0.000000
v 0.769627 -0.500000 0.043718
vn 0.231650 -0.027742 -0.972404
v 0.209644 -0.283567 -0.962731
vn 0.000000 -1.000000 0.000000
v -0.652874 -0.500000 0.438005
vn 0.000000 -1.000000 0.000000
v -0.029848 -0.500000 -0.017250
vn 0.813504 -0.004459 -0.581542
v 0.801381 -0.270586 -0.579435
vn 0.604829 0.015513 0.796205
v 0.596624 -0.324617 0.788295
vn 0.072438 -0.001630 0.997372
v 0.067806 -0.315035 0.984226
vn -0.432310 -0.001517 0.901724
v -0.433863 0.299176 0.888281
vn 0.000000 -1.000000 0.000000
v -0.606447 -0.500000 -0.156024
vn 0.227245 -0.008102 -0.973804
v 0.205918 0.329908 -0.967049
vn 0.999301 -0.023069 -0.029432
v 0.985202 0.265396 -0.020713
vn -0.987216 -0.010912 0.159012
v -0.977124 0.329989 0.142457
vn -0.574305 -0.012560 -0.818545
v -0.549712 0.309002 -0.817821
vn 0.000000 1.000000 0.000000
v -0.440111 0.500000 0.290509
vn 0.000000 1.000000 0.000000
v 0.539772 0.500000 0.512423
vn 0.000000 1.000000 0.000000
v 0.554310 0.500000 0.004734
vn 0.000000 -1.000000 0.000000
v -0.156180 -0.500000 0.773471
vn 0.000000 -1.000000 0.000000
v 0.385762 -0.500000 0.700060
vn 0.000000 1.000000 0.000000
v -0.014972 0.500000 0.490435
vn -0.112423 0.004140 0.993652
v -0.119369 -0.341799 0.980365
vn 0.000000 -1.000000 0.000000
v -0.227308 -0.500000 -0.752248
vn 0.000000 -1.000000 0.000000
v 0.212061 -0.500000 -0.548638
vn 0.358302 -0.005307 -0.933591
v 0.358182 -0.084524 -0.919395
vn 0.998271 0.017575 -0.056094
v 0.986211 -0.113722 -0.050544
vn 0.888469 0.006704 0.458887
v 0.886177 0.049967 0.438905
vn 0.671834 0.004551 0.740687
v 0.657996 -0.100363 0.730665
vn -0.401351 0.012386 0.915840
v -0.405834 -0.121390 0.899919
vn -0.999648 0.001281 0.026509
v -0.985126 -0.041238 0.029004
vn -0.843727 0.004893 -0.536751
v -0.837864 0.066783 -0.527232
vn -0.521066 -0.003303 -0.853510
v -0.517497 -0.304120 -0.841735
vn 0.000000 1.000000 0.000000
v -0.031573 0.500000 0.313302
vn 0.000000 1.000000 0.000000
v -0.619374 0.500000 -0.486322
vn -0.039617 0.005105 0.999202
v -0.058762 0.369830 0.983475
vn 0.966065 0.012338 -0.258003
v 0.952836 -0.120950 -0.264022
vn 0.987961 0.000669 0.154699
v 0.975860 -0.130677 0.162366
vn -0.643924 -0.006170 0.765064
v -0.628475 0.314945 0.762205
vn -0.684989 0.002051 -0.728551
v -0.679671 -0.200379 -0.721614
vn 0.000000 1.000000 0.000000
v 0.699734 0.500000 -0.342563
vn -0.144610 -0.005246 -0.989475
v -0.131212 0.292119 -0.979129
vn 0.000000 -1.000000 0.000000
v 0.039238 -0.500000 0.367789
vn 0.822798 0.001714 -0.568331
v 0.812063 -0.013563 -0.564515
vn 0.927028 -0.009997 0.374860
v 0.921822 -0.137862 0.356665
vn -0.220031 0.001416 0.975492
v -0.221207 0.004067 0.955653
vn -0.991856 -0.002458 -0.127345
v -0.979124 0.125349 -0.129571
vn -0.106121 0.004808 -0.994342
v -0.110004 0.030094 -0.982166
vn -0.899561 0.006180 -0.436751
v -0.890407 -0.315400 -0.424611
vn -0.861881 0.008461 0.507040
v -0.852451 0.141537 0.497989
vn -0.956685 0.007856 0.291018
v -0.944590 0.154296 0.286044
vn -0.733089 0.001119 -0.680132
v -0.724047 0.259000 -0.664533
vn 0.000000 1.000000 0.000000
v -0.225646 0.500000 -0.495970
vn -0.400424 0.003766 -0.916322
v -0.386461 -0.174993 -0.910434
vn 0.713310 -0.001455 0.700847
v 0.699112 0.291559 0.689685
vn 0.551476 -0.008183 -0.834150
v 0.557410 -0.111722 -0.816413
vn 0.776749 0.020729 -0.629469
v 0.773872 0.195272 -0.613466
vn 0.999295 0.001219 0.037518
v 0.988057 -0.312186 0.039385
vn 0.497463 0.007623 0.867452
v 0.480320 -0.181210 0.861004
vn 0.202170 0.000682 0.979350
v 0.211938 0.104220 0.964710
vn -0.719045 0.001221 0.694962
v -0.705230 0.108250 0.689976
vn -0.984150 -0.001982 -0.177329
v -0.970733 -0.083652 -0.176684
vn -0.942573 -0.002942 -0.333988
v -0.930600 0.098984 -0.333998
vn -0.825453 -0.004446 -0.564454
v -0.810998 -0.147663 -0.565341
vn -0.616947 0.013039 -0.786896
v -0.596596 0.132870 -0.784845
vn -0.539959 0.004044 -0.841682
v -0.530283 -0.057331 -0.834484
vn 0.000000 1.000000 0.000000
v 0.364270 0.500000 -0.314879
vn 0.305504 -0.001536 0.952190
v 0.304760 0.299649 0.939316
vn 0.674963 0.009848 -0.737786
v 0.669571 0.053401 -0.729178
vn 0.000000 -1.000000 0.000000
v -0.110428 -0.500000 -0.382209
vn 0.000000 1.000000 0.000000
v -0.677872 0.500000 0.531186
vn -0.996594 -0.011956 -0.081597
v -0.984914 0.319052 -0.077842
vn 0.000000 1.000000 0.000000
v 0.308867 0.500000 0.557573
vn 0.000000 1.000000 0.000000
v 0.194026 0.500000 -0.452765
vn 0.047694 -0.032287 -0.998340
v 0.044175 0.360876 -0.988818
vn 0.000000 1.000000 0.000000
v -0.795342 0.500000 0.064047
vn 0.000000 1.000000 0.000000
v 0.424898 0.500000 0.700609
vn 0.000000 -1.000000 0.000000
v -0.315880 -0.500000 -0.332927
vn 0.000000 1.000000 0.000000
v 0.258141 0.500000 0.755323
vn 0.000000 1.000000 0.000000
v -0.026827 0.500000 -0.131493
vn 0.000000 1.000000 0.000000
v 0.758887 0.500000 0.114647
vn 0.000000 -1.000000 0.000000
v 0.416257 -0.500000 0.476294
vn 0.000000 -1.000000 0.000000
v 0.638506 -0.500000 0.206271
vn 0.000000 -1.000000 0.000000
v -0.516851 -0.500000 -0.316727
vn 0.000000 1.000000 0.000000
v 0.074034 0.500000 0.796738
vn 0.947025 -0.003050 -0.321144
v 0.927524 0.240777 -0.327936
vn 0.987542 0.001539 0.157348
v 0.976169 0.315215 0.154570
vn 0.000000 1.000000 0.000000
v -0.224093 0.500000 -0.256741
vn 0.932026 0.006872 -0.362326
v 0.913327 0.038837 -0.375629
vn 0.962774 0.008200 0.270184
v 0.952375 0.010802 0.274254
vn 0.997215 0.005260 0.074389
v 0.981659 0.089943 0.096176
vn 0.774668 0.003588 0.632358
v 0.768750 0.085915 0.618670
vn -0.009618 -0.005037 0.999941
v 0.007165 0.058370 0.985084
vn -0.569438 0.003085 0.822028
v -0.561030 -0.022464 0.811432
vn -0.918078 0.001452 0.396396
v -0.907638 -0.060443 0.390359
vn 0.000000 1.000000 0.000000
v -0.609820 0.500000 -0.040345
vn 0.000000 1.000000 0.000000
v 0.347516 0.500000 0.344139
vn 0.000000 1.000000 0.000000
v 0.173172 0.500000 -0.229499
vn 0.000000 -1.000000 0.000000
v 0.075677 -0.500000 -0.415927
vn 0.000000 -1.000000 0.000000
v -0.795717 -0.500000 -0.078659
vn 0.000000 -1.000000 0.000000
v -0.579373 -0.500000 0.024906
vn 0.528550 -0.009132 0.848853
v 0.505304 0.030255 0.847083
vn 0.000000 -1.000000 0.000000
v 0.265912 -0.500000 -0.311925
vn 0.000000 1.000000 0.000000
v 0.150659 0.500000 0.422985
vn 0.000000 -1.000000 0.000000
v -0.420706 -0.500000 -0.662120
vn 0.000000 -1.000000 0.000000
v 0.631733 -0.500000 -0.127632
vn 0.000000 -1.000000 0.000000
v 0.631256 -0.500000 -0.486459
vn 0.000000 1.000000 0.000000
v -0.030727 0.500000 0.094379
vn 0.000000 1.000000 0.000000
v -0.424641 0.500000 0.073930
vn 0.000000 -1.000000 0.000000
v -0.424819 -0.500000 -0.473796
vn 0.000000 -1.000000 0.000000
v -0.727390 -0.500000 -0.301167
vn 0.000000 1.000000 0.000000
v -0.085872 0.500000 0.646042
vn 0.000000 1.000000 0.000000
v 0.541546 0.500000 -0.210979
vn 0.000000 -1.000000 0.000000
v 0.538415 -0.500000 -0.635174
vn 0.000000 -1.000000 0.000000
v 0.794891 -0.500000 0.273759
vn 0.000000 -1.000000 0.000000
v -0.613161 -0.500000 -0.524781
vn 0.000000 1.000000 0.000000
v -0.423628 0.500000 -0.376430
vn 0.000000 -1.000000 0.000000
v 0.816041 -0.500000 -0.148624
vn 0.710806 -0.007495 -0.703348
v 0.703847 -0.129524 -0.696379
vn 0.768802 0.008827 0.639426
v 0.752214 -0.310236 0.640259
vn -0.971989 0.019991 -0.234176
v -0.959654 -0.297617 -0.233802
vn 0.000000 -1.000000 0.000000
v -0.100425 -0.500000 0.192061
vn 0.000000 -1.000000 0.000000
v -0.051787 -0.500000 0.579750
vn 0.000000 -1.000000 0.000000
v -0.475873 -0.500000 0.628298
vn -0.406051 -0.009044 0.913806
v -0.414643 0.084217 0.893579
vn 0.000000 -1.000000 0.000000
v 0.421759 -0.500000 -0.498130
vn -0.070540 0.013949 0.997411
v -0.063312 -0.156299 0.982395
vn -0.921894 -0.004617 0.387414
v -0.911899 -0.301292 0.380512
vn 0.456480 0.684571 0.568321
v 0.610793 0.500000 0.773609
vn 0.027843 -0.703952 -0.709701
v -0.004865 -0.500000 -0.982589
vn 0.134491 -0.001536 0.990914
v 0.144030 -0.107416 0.976617
vn -0.999999 -0.001138 -0.000069
v -0.988100 -0.277694 -0.000984
vn -0.958318 -0.002325 -0.285695
v -0.944587 0.305936 -0.286450
vn -0.712258 0.011710 -0.701820
v -0.705193 0.009838 -0.691927
vn 0.603748 -0.692437 0.394992
v 0.822284 -0.500000 0.540109
vn 0.984150 -0.012776 -0.176879
v 0.971798 0.321404 -0.166428
vn 0.949802 0.013192 0.312575
v 0.939573 0.183325 0.304348
vn -0.057979 0.680211 0.730720
v -0.098657 0.500000 0.982719
vn -0.237719 0.692017 0.681617
v -0.327689 0.500000 0.929007
vn 0.000000 1.000000 0.000000
v -0.441664 0.500000 -0.617734
vn 0.000000 -1.000000 0.000000
v 0.188289 -0.500000 -0.070486
vn 0.000000 -1.000000 0.000000
v 0.035195 -0.500000 -0.229201
vn 0.089774 -0.043517 -0.995011
v 0.046632 -0.365870 -0.988194
vn 0.000000 1.000000 0.000000
v 0.397679 0.500000 -0.508543
vn 0.073744 -0.010257 -0.997225
v 0.071532 0.184274 -0.986166
vn 0.000000 1.000000 0.000000
v -0.051405 0.500000 -0.852696
vn 0.002773 0.006195 -0.999977
v -0.010702 -0.195722 -0.991549
vn 0.000000 -1.000000 0.000000
v -0.267126 -0.500000 0.592653
vn 0.000000 -1.000000 0.000000
v -0.254177 -0.500000 -0.534681
vn 0.290402 0.003976 0.956897
v 0.295476 -0.287089 0.943333
vn -0.980063 0.002027 0.198677
v -0.965160 0.007079 0.198687
vn 0.000000 1.000000 0.000000
v -0.120242 0.500000 0.835886
vn -0.977224 -0.027976 0.210359
v -0.965669 -0.350082 0.211615
vn 0.000000 1.000000 0.000000
v 0.117141 0.500000 0.611797
vn 0.346054 -0.003391 0.938208
v 0.340412 -0.051361 0.929211
vn 0.000000 1.000000 0.000000
v 0.358569 0.500000 0.115221
vn 0.000000 -1.000000 0.000000
v 0.114847 -0.500000 0.148337
vn 0.000000 -1.000000 0.000000
v 0.260365 -0.500000 0.320322
vn 0.000000 -1.000000 0.000000
v 0.467738 -0.500000 0.259507
vn 0.000000 1.000000 0.000000
v 0.002589 0.500000 -0.626882
vn 0.000000 -1.000000 0.000000
v -0.407200 -0.500000 -0.118935
vn 0.000000 1.000000 0.000000
v 0.598803 0.500000 -0.529544
vn 0.000000 -1.000000 0.000000
v 0.239611 -0.500000 0.787257
vn 0.000000 -1.000000 0.000000
v -0.178129 -0.500000 -0.174515
vn 0.000000 1.000000 0.000000
v -0.232112 0.500000 0.447727
vn 0.000000 1.000000 0.000000
v 0.552061 0.500000 0.242208
vn 0.000000 1.000000 0.000000
v 0.748500 0.500000 -0.125122
vn 0.000000 1.000000 0.000000
v 0.161849 0.500000 0.214454
vn -0.563496 -0.004820 0.826105
v -0.554627 0.157170 0.816545
vn 0.967660 0.008304 0.252120
v 0.958598 -0.316442 0.246188
vn 0.124261 -0.689999 0.713064
v 0.188577 -0.500000 0.967886
vn 0.000000 1.000000 0.000000
v -0.244332 0.500000 -0.735299
vn -0.667509 -0.704044 0.242392
v -0.914893 -0.500000 0.355532
vn -0.412622 0.008596 0.910862
v -0.404034 -0.319613 0.901012
vn 0.000000 1.000000 0.000000
v -0.419906 0.500000 -0.146934
vn 0.000000 -1.000000 0.000000
v 0.412469 -0.500000 -0.109717
vn 0.000000 1.000000 0.000000
v -0.790987 0.500000 -0.142272
vn 0.000000 -1.000000 0.000000
v -0.409770 -0.500000 0.080321
vn -0.117988 -0.013228 0.992927
v -0.116298 0.210098 0.978159
vn -0.284434 -0.013699 0.958598
v -0.284607 0.188777 0.942291
vn -0.697384 0.008805 0.716644
v -0.691776 -0.349075 0.707061
vn 0.000000 -1.000000 0.000000
v -0.307364 -0.500000 0.225663
vn 0.000000 1.000000 0.000000
v 0.249199 0.500000 -0.672928
vn 0.000000 -1.000000 0.000000
v -0.514709 -0.500000 0.229548
vn -0.275579 0.004384 -0.961268
v -0.279975 0.153889 -0.947795
vn 0.000000 -1.000000 0.000000
v -0.023978 -0.500000 -0.604877
vn 0.386308 0.005447 0.922354
v 0.378219 0.130435 0.913062
vn 0.037106 0.725090 0.687654
v 0.058310 0.500000 0.972663
vn 0.000000 1.000000 0.000000
v -0.550536 0.500000 0.646914
vn 0.124840 -0.739910 -0.661020
v 0.155690 -0.500000 -0.953282
vn 0.000000 1.000000 0.000000
v -0.018475 0.500000 -0.365188
vn 0.635573 -0.003534 -0.772033
v 0.624934 0.287051 -0.761420
vn -0.576530 0.715835 0.393946
v -0.794320 0.500000 0.562277
vn -0.797477 0.021881 0.602952
v -0.774145 0.320233 0.609607
vn 0.000000 1.000000 0.000000
v 0.360337 0.500000 -0.107019
vn 0.000000 -1.000000 0.000000
v -0.238935 -0.500000 0.031902
vn 0.000000 -1.000000 0.000000
v -0.338703 -0.500000 0.758917
vn 0.649203 0.003415 0.760608
v 0.633762 0.115178 0.752513
vn 0.000000 -1.000000 0.000000
v -0.399700 -0.500000 0.419024
vn 0.000000 -1.000000 0.000000
v -0.181065 -0.500000 0.396215
vn 0.000000 -1.000000 0.000000
v 0.192947 -0.500000 0.572353
vn 0.000000 1.000000 0.000000
v 0.166729 0.500000 -0.007068
vn 0.000000 1.000000 0.000000
v -0.607722 0.500000 -0.257579
vn 0.000000 1.000000 0.000000
v 0.520173 0.500000 -0.381242
vn 0.987376 0.002202 -0.158379
v 0.967095 0.102472 -0.159589
vn 0.876131 0.001804 -0.482069
v 0.860198 0.325754 -0.479734
vn 0.000000 1.000000 0.000000
v 0.120090 0.500000 -0.815159
# 310 vertices, 0 vertices normals


usemtl material_0
vt 0.028645 0.640625
vt 0.029947 0.656250
vt 0.027343 0.640625
f 19/1/19 47/2/47 250/3/250
vt 0.929241 0.407279
vt 0.936120 0.393320
vt 0.935235 0.392809
f 32/4/32 25/5/25 210/6/210
vt 0.570759 0.092720
vt 0.566877 0.099445
vt 0.567762 0.099956
f 37/7/37 54/8/54 109/9/109
vt 0.966293 0.339014
vt 0.951804 0.342896
vt 0.947922 0.349621
f 25/10/25 46/11/46 210/12/210
vt 0.622724 0.447154
vt 0.621171 0.445962
vt 0.618596 0.446540
f 45/13/45 127/14/127 208/15/208
vt 0.874437 0.392047
vt 0.867193 0.393988
vt 0.865251 0.397350
f 217/16/217 229/17/229 104/18/104
vt 0.750000 0.531250
vt 0.748698 0.515625
vt 0.750000 0.515625
f 16/19/16 161/20/161 29/21/29
vt 0.235000 0.485981
vt 0.238750 0.486986
vt 0.238618 0.487479
f 92/22/92 249/23/249 1/24/1
vt 0.159471 0.467859
vt 0.148088 0.465338
vt 0.144471 0.463840
f 275/25/275 92/26/92 4/27/4
vt 0.130000 0.042154
vt 0.124510 0.047644
vt 0.123787 0.046921
f 242/28/242 68/29/68 43/30/43
vt 0.445204 0.115190
vt 0.448311 0.117573
vt 0.453078 0.123787
f 52/31/52 121/32/121 95/33/95
vt 0.982844 0.288823
vt 0.982844 0.296588
vt 0.983867 0.296588
f 29/34/29 221/35/221 35/36/35
vt 0.541471 0.147537
vt 0.543413 0.144175
vt 0.544469 0.140302
f 54/37/54 276/38/276 109/39/109
vt 0.762408 0.470175
vt 0.770173 0.470175
vt 0.776897 0.466293
f 104/40/104 105/41/105 81/42/81
vt 0.332031 0.953125
vt 0.333333 0.968750
vt 0.330729 0.953125
f 296/43/296 93/44/93 49/45/49
vt 0.033854 0.578125
vt 0.031250 0.562500
vt 0.033854 0.562500
f 70/46/70 19/47/19 103/48/103
vt 0.748698 0.546875
vt 0.747396 0.562500
vt 0.747396 0.546875
f 29/49/29 161/50/161 10/51/10
vt 0.154947 0.546875
vt 0.153645 0.562500
vt 0.153645 0.546875
f 9/52/9 88/53/88 31/54/31
vt 0.892808 0.381440
vt 0.883623 0.386744
vt 0.888926 0.388165
f 229/55/229 217/56/217 210/57/210
vt 0.822917 0.875000
vt 0.822917 0.867188
vt 0.825521 0.875000
f 189/58/189 33/59/33 309/60/309
vt 0.704427 0.578125
vt 0.703125 0.593750
vt 0.703125 0.578125
f 273/61/273 148/62/148 58/63/58
vt 0.635417 0.546875
vt 0.636719 0.539062
vt 0.636719 0.546875
f 223/64/223 238/65/238 58/66/58
vt 0.489583 0.875000
vt 0.489583 0.859375
vt 0.492187 0.875000
f 282/67/282 196/68/196 75/69/75
vt 0.468750 0.546875
vt 0.470052 0.539062
vt 0.470052 0.546875
f 126/70/126 101/71/101 53/72/53
vt 0.454427 0.578125
vt 0.453125 0.593750
vt 0.453125 0.578125
f 126/73/126 17/74/17 101/75/101
vt 0.406250 0.875000
vt 0.406250 0.859375
vt 0.408854 0.875000
f 272/76/272 228/77/228 114/78/114
vt 0.200520 0.562500
vt 0.201823 0.546875
vt 0.203125 0.562500
f 63/79/63 152/80/152 224/81/224
vt 0.156249 0.875000
vt 0.156249 0.859375
vt 0.158854 0.875000
f 155/82/155 135/83/135 77/84/77
vt 0.135417 0.546875
vt 0.136719 0.539062
vt 0.136719 0.546875
f 64/85/64 31/86/31 88/87/88
vt 0.031250 0.546875
f 19/47/19 233/88/233 103/48/103
vt 0.873698 0.734375
vt 0.872396 0.750000
vt 0.872396 0.734375
f 222/89/222 172/90/172 147/91/147
vt 0.707031 0.734375
vt 0.705729 0.750000
vt 0.705729 0.734375
f 193/92/193 131/93/131 148/94/148
vt 0.540364 0.734375
vt 0.539062 0.750000
vt 0.539062 0.734375
f 258/95/258 290/96/290 163/97/163
vt 0.207031 0.734375
vt 0.205729 0.750000
vt 0.205729 0.742188
f 165/98/165 166/99/166 63/100/63
vt 0.123698 0.734375
vt 0.122396 0.750000
vt 0.122396 0.734375
f 143/101/143 169/102/169 136/103/136
vt 0.023437 0.671875
vt 0.020833 0.656250
vt 0.024739 0.671875
f 151/104/151 250/105/250 47/106/47
vt 0.411250 0.178553
vt 0.411250 0.191543
vt 0.407500 0.185048
f 269/107/269 52/108/52 184/109/184
vt 0.767089 0.110934
vt 0.760816 0.109253
vt 0.759845 0.112875
f 146/110/146 304/111/304 226/112/226
vt 0.953125 0.656250
vt 0.951823 0.671875
vt 0.950521 0.656250
f 84/113/84 108/114/108 129/115/129
vt 0.893229 0.656250
vt 0.894531 0.640625
vt 0.895833 0.656250
f 222/116/222 73/117/73 159/118/159
vt 0.911459 0.656250
vt 0.910156 0.671875
vt 0.909505 0.664062
f 84/119/84 129/120/129 159/121/159
vt 0.912761 0.515625
vt 0.914063 0.500000
vt 0.914063 0.515625
f 73/122/73 98/123/98 84/124/84
vt 0.864583 0.500000
vt 0.863281 0.515625
vt 0.861979 0.500000
f 32/125/32 111/126/111 25/127/25
vt 0.868490 0.546875
vt 0.869792 0.531250
vt 0.869792 0.546875
f 111/128/111 32/129/32 73/130/73
vt 0.826823 0.765625
vt 0.828125 0.750000
vt 0.828125 0.765625
f 192/131/192 147/132/147 33/133/33
vt 0.833333 0.750000
vt 0.832031 0.765625
vt 0.830729 0.750000
f 160/134/160 33/135/33 147/136/147
vt 0.812500 0.500000
vt 0.808594 0.515625
vt 0.807292 0.500000
f 25/137/25 34/138/34 35/139/35
vt 0.828125 0.656250
vt 0.826823 0.671875
vt 0.825521 0.656250
f 111/140/111 147/141/147 85/142/85
vt 0.821614 0.609375
vt 0.822917 0.593750
vt 0.822917 0.609375
f 85/143/85 34/144/34 111/145/111
vt 0.829427 0.515625
vt 0.830729 0.500000
vt 0.830729 0.515625
f 34/146/34 25/147/25 111/148/111
vt 0.779948 0.515625
vt 0.781250 0.500000
vt 0.781250 0.515625
f 16/149/16 29/150/29 35/151/35
vt 0.789063 0.562500
vt 0.787761 0.578125
vt 0.786459 0.562500
f 35/152/35 34/153/34 16/154/16
vt 0.750000 0.937500
vt 0.749349 0.945312
vt 0.748047 0.945312
f 194/155/194 117/156/117 190/157/190
vt 0.713541 0.500000
vt 0.709635 0.515625
vt 0.708333 0.500000
f 10/158/10 273/159/273 11/160/11
vt 0.744792 0.656250
vt 0.743490 0.671875
vt 0.742187 0.656250
f 16/161/16 130/162/130 161/163/161
vt 0.701823 0.546875
vt 0.703125 0.531250
vt 0.703125 0.546875
f 58/164/58 11/165/11 273/166/273
vt 0.660156 0.765625
vt 0.661459 0.750000
vt 0.661459 0.765625
f 195/167/195 131/168/131 36/169/36
vt 0.661459 0.656250
vt 0.660156 0.671875
vt 0.658854 0.656250
f 148/170/148 131/171/131 86/172/86
vt 0.662761 0.578125
vt 0.663412 0.570312
vt 0.664063 0.578125
f 148/173/148 86/174/86 58/175/58
vt 0.665365 0.515625
vt 0.666667 0.500000
vt 0.666667 0.515625
f 238/176/238 11/177/11 58/178/58
vt 0.618490 0.546875
vt 0.619792 0.531250
vt 0.619792 0.546875
f 112/179/112 82/180/82 223/181/223
vt 0.578125 0.656250
vt 0.576823 0.671875
vt 0.575520 0.656250
f 112/182/112 132/183/132 162/184/162
vt 0.566406 0.515625
vt 0.567708 0.500000
vt 0.567708 0.515625
f 6/185/6 30/186/30 59/187/59
vt 0.583333 0.531250
vt 0.582031 0.546875
vt 0.580729 0.531250
f 112/188/112 59/189/59 30/190/30
vt 0.583333 0.500000
vt 0.582031 0.515625
vt 0.582031 0.500000
f 82/191/82 112/192/112 30/193/30
vt 0.535156 0.546875
vt 0.536458 0.531250
vt 0.536458 0.546875
f 113/194/113 274/195/274 253/196/253
vt 0.490885 0.890625
vt 0.492187 0.890625
f 282/197/282 75/69/75 139/198/139
vt 0.500000 0.750000
vt 0.498698 0.765625
vt 0.497396 0.750000
f 163/199/163 196/200/196 234/201/234
vt 0.490885 0.640625
vt 0.492187 0.625000
vt 0.492187 0.640625
f 230/202/230 113/203/113 234/204/234
vt 0.488281 0.609375
vt 0.489583 0.593750
vt 0.489583 0.609375
f 230/205/230 126/206/126 113/207/113
vt 0.500000 0.531250
vt 0.498698 0.546875
vt 0.497396 0.531250
f 113/208/113 126/209/126 53/210/53
vt 0.453125 0.921875
vt 0.452474 0.921875
vt 0.453125 0.914062
f 149/211/149 282/212/282 283/213/283
vt 0.416666 0.843750
vt 0.416015 0.851562
vt 0.414062 0.843750
f 149/214/149 283/215/283 228/216/228
vt 0.395833 0.500000
vt 0.391927 0.515625
vt 0.391276 0.507812
f 99/217/99 277/218/277 87/219/87
vt 0.416666 0.593750
vt 0.415364 0.609375
vt 0.414713 0.601562
f 101/220/101 17/221/17 277/222/277
vt 0.321614 0.859375
vt 0.322917 0.843750
vt 0.322917 0.859375
f 153/223/153 198/224/198 69/225/69
vt 0.333333 0.843750
vt 0.332031 0.859375
vt 0.330729 0.843750
f 164/226/164 153/227/153 69/228/69
vt 0.328125 0.656250
vt 0.326823 0.671875
vt 0.325521 0.656250
f 61/229/61 69/230/69 198/231/198
vt 0.321614 0.609375
vt 0.322265 0.601562
vt 0.322917 0.609375
f 198/232/198 231/233/231 61/234/61
vt 0.250000 0.750000
vt 0.248698 0.765625
vt 0.247396 0.750000
f 254/235/254 76/236/76 134/237/134
vt 0.244792 0.656250
vt 0.243490 0.671875
vt 0.243490 0.656250
f 62/238/62 134/239/134 235/240/235
vt 0.236979 0.500000
vt 0.235677 0.515625
vt 0.234375 0.500000
f 100/241/100 235/242/235 55/243/55
vt 0.200520 0.500000
vt 0.199218 0.515625
vt 0.197916 0.500000
f 3/244/3 152/245/152 9/246/9
vt 0.201823 0.515625
vt 0.203125 0.500000
vt 0.203125 0.515625
f 152/247/152 3/248/3 224/249/224
vt 0.154947 0.609375
vt 0.155598 0.601562
vt 0.156249 0.609375
f 167/250/167 152/251/152 63/252/63
vt 0.156249 0.531250
vt 0.156249 0.546875
f 152/52/152 88/253/88 9/254/9
vt 0.059895 0.718750
vt 0.057291 0.687500
vt 0.058593 0.695312
f 7/255/7 288/256/288 102/257/102
vt 0.062500 0.562500
vt 0.059895 0.531250
vt 0.062500 0.546875
f 157/258/157 70/259/70 136/260/136
vt 0.083333 0.718750
vt 0.082031 0.734375
vt 0.080729 0.718750
f 136/261/136 169/262/169 157/263/157
vt 0.083333 0.531250
vt 0.082031 0.546875
vt 0.080729 0.531250
f 83/264/83 136/265/136 45/266/45
vt 0.079427 0.515625
vt 0.080729 0.500000
vt 0.080729 0.515625
f 136/267/136 83/268/83 64/269/64
vt 0.033854 0.625000
vt 0.032552 0.640625
vt 0.031250 0.625000
f 70/270/70 47/271/47 19/272/19
vt 0.963541 0.984375
vt 0.964844 0.984375
vt 0.963541 1.000000
f 72/273/72 116/274/116 91/275/91
vt 0.958333 0.718750
vt 0.959635 0.734375
vt 0.958333 0.734375
f 108/276/108 57/277/57 129/278/129
vt 0.958333 0.531250
vt 0.959635 0.546875
vt 0.958333 0.546875
f 81/279/81 108/280/108 84/281/84
vt 0.921875 0.953125
vt 0.922526 0.953125
vt 0.921875 0.968750
f 40/282/40 72/283/72 91/284/91
vt 0.927083 0.875000
vt 0.924479 0.875000
vt 0.925781 0.859375
f 90/285/90 72/286/72 5/287/5
vt 0.877604 0.781250
vt 0.875000 0.765625
vt 0.876953 0.773438
f 66/288/66 160/289/160 295/290/295
vt 0.895833 0.750000
vt 0.890625 0.750000
vt 0.894531 0.734375
f 5/291/5 172/292/172 159/293/159
vt 0.854167 1.000000
vt 0.851562 1.000000
vt 0.853841 0.996094
f 96/294/96 13/295/13 66/296/66
vt 0.843750 0.875000
vt 0.841146 0.875000
vt 0.842448 0.859375
f 66/297/66 309/298/309 160/299/160
vt 0.835937 0.796875
vt 0.837239 0.796875
vt 0.835937 0.812500
f 33/300/33 160/301/160 309/302/309
vt 0.796875 1.000000
vt 0.794271 1.000000
vt 0.795573 0.984375
f 51/303/51 14/304/14 239/305/239
vt 0.792969 0.734375
vt 0.791667 0.718750
vt 0.792318 0.718750
f 140/306/140 192/307/192 308/308/308
vt 0.791667 0.593750
vt 0.792969 0.609375
vt 0.791667 0.609375
f 34/309/34 85/310/85 140/311/140
vt 0.760417 0.921875
vt 0.761719 0.921875
vt 0.760417 0.937500
f 117/312/117 239/313/239 14/314/14
vt 0.713541 0.984375
vt 0.714192 0.984375
vt 0.713541 1.000000
f 20/315/20 240/316/240 190/317/190
vt 0.710937 0.781250
vt 0.708333 0.765625
vt 0.709635 0.765625
f 240/318/240 131/319/131 193/320/193
vt 0.725260 0.734375
vt 0.727864 0.734375
vt 0.723958 0.750000
f 193/321/193 141/322/141 194/323/194
vt 0.709635 0.734375
vt 0.708333 0.718750
vt 0.709635 0.718750
f 141/324/141 193/325/193 148/326/148
vt 0.682292 1.000000
vt 0.679688 1.000000
vt 0.680990 0.984375
f 8/327/8 2/328/2 20/329/20
vt 0.677083 0.875000
vt 0.674479 0.875000
vt 0.675781 0.859375
f 240/330/240 36/331/36 131/332/131
vt 0.583333 1.000000
vt 0.578125 1.000000
vt 0.582031 0.984375
f 232/333/232 41/334/41 74/335/74
vt 0.559895 1.000000
vt 0.557291 1.000000
vt 0.558593 0.984375
f 41/336/41 42/337/42 171/338/171
vt 0.544270 0.843750
vt 0.541666 0.843750
vt 0.542968 0.828125
f 171/339/171 163/340/163 290/341/290
vt 0.546874 0.812500
vt 0.545572 0.812500
vt 0.545572 0.796875
f 258/342/258 163/343/163 234/344/234
vt 0.558593 0.734375
vt 0.561197 0.734375
vt 0.557291 0.750000
f 258/345/258 162/346/162 205/347/205
vt 0.515625 0.953125
vt 0.516927 0.953125
vt 0.515625 0.968750
f 75/348/75 171/349/171 42/350/42
vt 0.476562 1.000000
vt 0.475260 1.000000
vt 0.475260 0.984375
f 139/351/139 241/352/241 67/353/67
vt 0.475260 0.734375
vt 0.477864 0.734375
vt 0.473958 0.750000
f 149/354/149 230/355/230 196/356/196
vt 0.427083 0.984375
vt 0.428385 0.984375
vt 0.427083 1.000000
f 114/357/114 67/358/67 242/359/242
vt 0.416666 0.765625
vt 0.417968 0.765625
vt 0.417317 0.773438
f 228/360/228 133/361/133 149/362/149
vt 0.333333 0.765625
vt 0.334635 0.765625
vt 0.333333 0.781250
f 69/363/69 60/364/60 164/365/164
vt 0.302083 0.984375
vt 0.303386 0.984375
vt 0.302083 1.000000
f 49/366/49 93/367/93 78/368/78
vt 0.265625 0.984375
vt 0.266927 0.984375
vt 0.266276 0.992188
f 44/369/44 175/370/175 118/371/118
vt 0.210937 1.000000
vt 0.208333 1.000000
vt 0.209635 0.984375
f 28/372/28 22/373/22 236/374/236
vt 0.210937 0.781250
vt 0.208333 0.765625
vt 0.209635 0.765625
f 150/375/150 166/376/166 165/377/165
vt 0.177083 0.984375
vt 0.178385 0.984375
vt 0.177083 1.000000
f 77/378/77 236/379/236 22/380/22
vt 0.169270 0.796875
vt 0.170572 0.796875
vt 0.169270 0.812500
f 135/381/135 166/382/166 77/383/77
vt 0.126302 0.734375
vt 0.125000 0.718750
vt 0.126302 0.718750
f 143/384/143 237/385/237 169/386/169
vt 0.093750 1.000000
vt 0.091146 1.000000
vt 0.092448 0.984375
f 21/387/21 4/388/4 119/389/119
vt 0.088541 0.875000
vt 0.085937 0.875000
vt 0.087239 0.859375
f 168/390/168 119/391/119 7/392/7
vt 0.056818 0.388278
vt 0.057179 0.387917
vt 0.058010 0.389832
f 15/393/15 138/394/138 21/395/21
vt 0.108038 0.435884
vt 0.112793 0.433139
vt 0.115539 0.435884
f 21/396/21 243/397/243 4/398/4
vt 0.032106 0.332500
vt 0.041346 0.331495
vt 0.042351 0.335245
f 22/399/22 28/400/28 23/401/23
vt 0.227500 0.032500
vt 0.227500 0.027010
vt 0.235000 0.025000
f 241/402/241 255/403/255 242/404/242
vt 0.403750 0.178553
vt 0.400000 0.198039
vt 0.400000 0.185048
f 121/405/121 52/406/52 269/407/269
vt 0.080729 0.984375
vt 0.082031 0.984375
vt 0.080729 1.000000
f 80/408/80 119/409/119 4/410/4
vt 0.072916 1.000000
vt 0.070312 1.000000
vt 0.071614 0.984375
f 4/411/4 92/412/92 80/413/80
vt 0.067708 0.875000
vt 0.065104 0.875000
vt 0.067057 0.867188
f 119/414/119 80/415/80 7/416/7
vt 0.057291 0.750000
vt 0.055989 0.750000
vt 0.054687 0.718750
f 136/417/136 70/418/70 45/419/45
vt 0.036458 1.000000
vt 0.033854 1.000000
vt 0.035156 0.984375
f 80/420/80 92/421/92 145/422/145
vt 0.002604 0.546875
vt 0.003906 0.546875
vt 0.002604 0.562500
f 246/423/246 233/424/233 19/425/19
vt 0.981822 0.265529
vt 0.972636 0.266950
vt 0.972636 0.270833
f 29/426/29 107/427/107 221/428/221
vt 0.869933 0.071731
vt 0.861268 0.064487
vt 0.866571 0.069790
f 48/429/48 30/430/30 124/431/124
vt 0.532667 0.308235
vt 0.522060 0.297628
vt 0.525422 0.310176
f 55/432/55 203/433/203 100/434/100
vt 0.470380 0.170853
vt 0.469375 0.167103
vt 0.469869 0.166971
f 52/435/52 2/436/2 8/437/8
vt 0.805990 0.703125
vt 0.806641 0.710938
vt 0.805990 0.718750
f 140/438/140 85/439/85 192/440/192
vt 0.555989 0.703125
vt 0.556640 0.710938
vt 0.556315 0.714844
f 234/441/234 253/442/253 258/443/258
vt 0.305990 0.703125
vt 0.306641 0.710938
vt 0.305990 0.718750
f 62/444/62 198/445/198 254/446/254
vt 0.139323 0.703125
vt 0.139974 0.710938
vt 0.139323 0.718750
f 143/447/143 167/448/167 237/449/237
vt 0.720052 0.789062
vt 0.718750 0.796875
vt 0.720052 0.785156
f 190/450/190 240/451/240 194/452/194
vt 0.638672 0.554688
vt 0.637370 0.546875
f 58/453/58 86/66/86 223/454/223
vt 0.053385 0.500000
vt 0.055338 0.515625
vt 0.054687 0.515625
f 47/455/47 70/456/70 157/457/157
vt 0.342669 0.031656
vt 0.340794 0.031153
vt 0.341798 0.031158
f 41/458/41 182/459/182 42/460/42
vt 0.212500 0.459856
vt 0.205000 0.460860
vt 0.205000 0.459856
f 249/461/249 92/462/92 275/463/275
vt 0.223958 0.843750
vt 0.224609 0.835938
vt 0.225260 0.843750
f 236/464/236 166/465/166 150/466/150
vt 0.156250 0.043356
vt 0.160000 0.045096
vt 0.152500 0.047106
f 242/467/242 255/468/255 68/469/68
vt 0.543413 0.190763
vt 0.543413 0.194645
vt 0.543898 0.190893
f 276/470/276 100/471/100 56/472/56
vt 0.381510 0.546875
vt 0.382161 0.539062
vt 0.382812 0.546875
f 54/473/54 37/474/37 284/475/284
vt 0.214843 0.546875
vt 0.215495 0.539062
vt 0.217448 0.546875
f 224/476/224 3/477/3 55/478/55
vt 0.993490 0.953125
vt 0.992839 0.960938
vt 0.992187 0.937500
f 178/479/178 1/480/1 12/481/12
vt 0.982422 0.960938
vt 0.981771 0.968750
vt 0.980469 0.953125
f 12/482/12 91/483/91 116/484/116
vt 0.885417 0.687500
vt 0.886719 0.687500
vt 0.888021 0.718750
f 172/485/172 222/486/222 159/487/159
vt 0.723307 0.695312
vt 0.723958 0.687500
vt 0.723958 0.703125
f 141/488/141 273/489/273 161/490/161
vt 0.409505 0.960938
vt 0.410156 0.953125
vt 0.410156 0.968750
f 43/491/43 114/492/114 242/493/242
vt 0.401041 0.968750
vt 0.399739 0.968750
vt 0.399739 0.953125
f 142/494/142 114/495/114 43/496/43
vt 0.389974 0.695312
vt 0.390625 0.687500
vt 0.390625 0.703125
f 60/497/60 87/498/87 197/499/197
vt 0.158854 0.953125
vt 0.158854 0.968750
vt 0.157552 0.937500
f 77/500/77 15/501/15 155/502/155
vt 0.148437 0.968750
vt 0.150390 0.960938
vt 0.151041 0.968750
f 21/503/21 155/504/155 15/505/15
vt 0.460000 0.250000
vt 0.467500 0.256495
vt 0.467500 0.262990
f 184/506/184 14/507/14 270/508/270
vt 0.014974 0.945312
vt 0.015625 0.937500
vt 0.015625 0.953125
f 92/509/92 1/510/1 145/511/145
vt 0.539088 0.349356
vt 0.542221 0.354272
vt 0.540280 0.350910
f 9/512/9 214/513/214 3/514/3
vt 0.820782 0.036029
vt 0.822463 0.042303
vt 0.823434 0.038681
f 30/515/30 6/516/6 124/517/124
vt 0.218125 0.259743
vt 0.218125 0.262990
vt 0.212500 0.262990
f 211/518/211 183/519/183 89/520/89
vt 0.872115 0.271074
vt 0.874056 0.263829
vt 0.869463 0.268422
f 279/521/279 71/522/71 38/523/38
vt 0.736979 0.968750
vt 0.739583 0.960938
vt 0.739583 0.968750
f 8/524/8 190/525/190 14/526/14
vt 0.655599 0.960938
vt 0.656250 0.953125
vt 0.655599 0.968750
f 95/527/95 36/528/36 2/529/2
vt 0.572265 0.945312
vt 0.572916 0.937500
vt 0.572265 0.953125
f 41/530/41 171/531/171 74/532/74
vt 0.485677 0.875000
vt 0.485677 0.890625
vt 0.484375 0.875000
f 282/533/282 139/534/139 67/535/67
vt 0.404296 0.960938
vt 0.404947 0.953125
vt 0.404296 0.968750
f 43/536/43 94/537/94 142/538/142
vt 0.405598 0.960938
vt 0.406250 0.953125
vt 0.405598 0.968750
f 142/539/142 272/540/272 114/541/114
vt 0.238932 0.945312
vt 0.239583 0.937500
vt 0.238932 0.953125
f 44/542/44 28/543/28 175/544/175
vt 0.239583 0.953125
f 150/545/150 175/544/175 236/543/236
vt 0.156249 0.968750
vt 0.155598 0.968750
vt 0.156249 0.953125
f 77/546/77 22/547/22 15/548/15
vt 0.164387 0.450983
vt 0.159264 0.449610
vt 0.164019 0.446865
f 275/549/275 4/550/4 243/551/243
vt 0.049779 0.291986
vt 0.055404 0.295233
vt 0.051788 0.299486
f 280/552/280 23/553/23 28/554/28
vt 0.219534 0.393163
vt 0.213406 0.388041
vt 0.218529 0.389413
f 294/555/294 156/556/156 191/557/191
vt 0.277892 0.415762
vt 0.284019 0.420884
vt 0.278143 0.416699
f 183/558/183 201/559/201 294/560/294
vt 0.400000 0.159067
vt 0.400000 0.172058
vt 0.396250 0.152572
f 180/561/180 232/562/232 121/563/121
vt 0.048828 0.625000
vt 0.052083 0.656250
vt 0.048176 0.625000
f 103/564/103 45/565/45 70/566/70
vt 0.008463 0.960938
vt 0.009114 0.953125
vt 0.008463 0.968750
f 1/567/1 178/568/178 145/569/145
vt 0.541662 0.346969
vt 0.544314 0.349621
vt 0.542372 0.346259
f 213/570/213 187/571/187 219/572/219
vt 0.563802 0.546875
vt 0.563151 0.554688
vt 0.562500 0.546875
f 253/573/253 6/574/6 59/575/59
vt 0.313802 0.546875
vt 0.313151 0.554688
vt 0.312500 0.546875
f 276/576/276 54/577/54 231/578/231
vt 0.230469 0.546875
vt 0.229818 0.554688
vt 0.229167 0.546875
f 55/579/55 235/580/235 224/581/224
vt 0.251875 0.207781
vt 0.257500 0.211029
vt 0.251875 0.214276
f 271/582/271 211/583/211 137/584/137
vt 0.212500 0.211029
vt 0.218125 0.214276
vt 0.212500 0.217524
f 24/585/24 137/586/137 211/587/211
vt 0.720052 0.765625
vt 0.721354 0.765625
vt 0.721354 0.781250
f 240/588/240 193/589/193 194/590/194
vt 0.553385 0.765625
vt 0.554687 0.765625
vt 0.554687 0.781250
f 290/591/290 258/592/258 205/593/205
vt 0.465495 0.835938
vt 0.467122 0.824219
vt 0.466146 0.843750
f 149/594/149 196/595/196 282/596/282
vt 0.303386 0.765625
vt 0.304688 0.765625
vt 0.304688 0.781250
f 154/597/154 254/598/254 198/599/198
vt 0.220052 0.765625
vt 0.221354 0.765625
vt 0.221354 0.781250
f 150/600/150 165/601/165 134/602/134
vt 0.138021 0.750000
vt 0.139323 0.750000
vt 0.139323 0.765625
f 237/603/237 135/604/135 155/605/155
vt 0.430000 0.301961
vt 0.428125 0.298714
vt 0.430000 0.275981
f 270/606/270 122/607/122 184/608/184
vt 0.699359 0.213137
vt 0.705632 0.214818
vt 0.702981 0.212166
f 285/609/285 225/610/225 303/611/303
vt 0.100000 0.204534
vt 0.077500 0.211029
vt 0.100000 0.198039
f 179/612/179 78/613/78 79/614/79
vt 0.139375 0.311704
vt 0.145000 0.308457
vt 0.142188 0.313328
f 199/615/199 278/616/278 306/617/306
vt 0.240625 0.123344
vt 0.246250 0.120096
vt 0.246250 0.126591
f 125/618/125 257/619/257 207/620/207
vt 0.246250 0.178553
vt 0.251875 0.175305
vt 0.251875 0.181801
f 137/621/137 207/622/207 271/623/271
vt 0.341875 0.162315
vt 0.347500 0.159067
vt 0.341875 0.168810
f 207/624/207 200/625/200 271/626/271
vt 0.364375 0.149325
vt 0.370000 0.159067
vt 0.364375 0.155820
f 176/627/176 121/628/121 200/629/200
vt 0.062500 0.750000
vt 0.061197 0.726562
vt 0.062500 0.742188
f 7/630/7 102/631/102 169/632/169
vt 0.554400 0.302411
vt 0.552459 0.309656
vt 0.561645 0.300470
f 203/633/203 3/634/3 214/635/214
vt 0.581437 0.301891
vt 0.591333 0.302602
vt 0.588681 0.299950
f 203/636/203 214/637/214 115/638/115
vt 0.619600 0.284941
vt 0.624903 0.290244
vt 0.623222 0.283970
f 115/639/115 187/640/187 264/641/264
vt 0.660986 0.381440
vt 0.666289 0.386744
vt 0.668230 0.379499
f 208/642/208 127/643/127 252/644/252
vt 0.831300 0.285372
vt 0.828648 0.282721
vt 0.829004 0.287669
f 38/645/38 244/646/244 279/647/279
vt 0.884663 0.274436
vt 0.889966 0.279739
vt 0.888285 0.273465
f 71/648/71 209/649/209 107/650/107
vt 0.354426 0.036526
vt 0.351647 0.035649
vt 0.352618 0.035777
f 180/651/180 182/652/182 41/653/41
vt 0.364507 0.040153
vt 0.366250 0.041149
vt 0.362698 0.039404
f 232/654/232 180/655/180 41/656/41
vt 0.198639 0.368421
vt 0.199142 0.370296
vt 0.193014 0.365173
f 220/657/220 191/658/191 156/659/156
vt 0.103750 0.139779
vt 0.101875 0.140281
vt 0.107500 0.136029
f 97/660/97 106/661/106 174/662/174
vt 0.130000 0.134755
vt 0.131875 0.135257
vt 0.122500 0.137500
f 68/663/68 268/664/268 97/665/97
vt 0.101875 0.165257
vt 0.100000 0.164755
vt 0.107500 0.162010
f 24/666/24 212/667/212 120/668/120
vt 0.137500 0.160538
vt 0.141250 0.161543
vt 0.133750 0.164288
f 120/669/120 268/670/268 24/671/24
vt 0.150625 0.168810
vt 0.152500 0.164558
vt 0.156250 0.165563
f 24/672/24 268/673/268 137/674/137
vt 0.373750 0.113601
vt 0.373750 0.107106
vt 0.374687 0.108730
f 176/675/176 182/676/182 180/677/180
vt 0.471250 0.230514
vt 0.471250 0.224019
vt 0.475000 0.224019
f 8/678/8 184/679/184 52/680/52
vt 0.005208 0.601562
vt 0.007812 0.593750
vt 0.005208 0.609375
f 246/681/246 19/682/19 250/683/250
vt 0.518178 0.281058
vt 0.518178 0.279117
vt 0.517922 0.278147
f 187/684/187 213/685/213 181/686/181
vt 0.517795 0.303382
vt 0.517667 0.300470
vt 0.517603 0.300955
f 55/687/55 3/688/3 203/689/203
vt 0.786983 0.426848
vt 0.785658 0.426493
vt 0.785172 0.427333
f 50/690/50 105/691/105 289/692/289
vt 0.807296 0.366292
vt 0.802703 0.367002
vt 0.802703 0.368943
f 229/693/229 206/694/206 128/695/128
vt 0.798110 0.379360
vt 0.793517 0.380070
vt 0.793517 0.382011
f 128/696/128 206/697/206 202/698/202
vt 0.747589 0.437645
vt 0.749886 0.437290
vt 0.752182 0.434993
f 173/699/173 252/700/252 289/701/289
vt 0.720033 0.461319
vt 0.724625 0.460609
vt 0.724625 0.456727
f 213/702/213 208/703/208 252/704/252
vt 0.701661 0.471926
vt 0.706254 0.471215
vt 0.706254 0.467333
f 219/705/219 208/706/208 213/707/213
vt 0.551177 0.165667
vt 0.551177 0.163726
vt 0.549236 0.165147
f 56/708/56 287/709/287 109/710/109
vt 0.551177 0.177314
vt 0.550207 0.180936
vt 0.551177 0.181196
f 204/711/204 56/712/56 203/713/203
vt 0.624523 0.216378
vt 0.622581 0.223623
vt 0.627659 0.217219
f 287/714/287 204/715/204 281/716/281
vt 0.876587 0.179097
vt 0.890105 0.178837
vt 0.883832 0.177156
f 27/717/27 186/718/186 218/719/218
vt 0.931631 0.174434
vt 0.918113 0.174694
vt 0.917142 0.178317
f 107/720/107 218/721/218 186/722/186
vt 0.440442 0.140048
vt 0.439437 0.136298
vt 0.442685 0.140918
f 2/723/2 52/724/52 95/725/95
vt 0.977864 0.960938
vt 0.979167 0.953125
vt 0.977864 0.968750
f 116/726/116 178/727/178 12/728/12
vt 0.644531 0.960938
vt 0.645833 0.953125
vt 0.644531 0.968750
f 158/729/158 36/730/36 95/731/95
vt 0.311198 0.960938
vt 0.312500 0.953125
vt 0.311198 0.968750
f 49/732/49 154/733/154 153/734/153
vt 0.049479 0.515625
vt 0.052083 0.539062
vt 0.052083 0.546875
f 47/735/47 157/736/157 102/737/102
vt 0.961440 0.152580
vt 0.961551 0.152516
vt 0.960470 0.150899
f 27/738/27 218/739/218 238/740/238
vt 0.854506 0.437176
vt 0.847261 0.439117
vt 0.848302 0.442999
f 217/741/217 104/742/104 98/743/98
vt 0.786459 0.656250
vt 0.787435 0.660156
vt 0.787761 0.671875
f 16/744/16 140/745/140 130/746/130
vt 0.619792 0.656250
vt 0.620768 0.660156
vt 0.621094 0.671875
f 112/747/112 223/748/223 132/749/132
vt 0.119792 0.656250
vt 0.120768 0.660156
vt 0.121094 0.671875
f 64/750/64 143/751/143 136/752/136
vt 0.317708 0.820312
vt 0.319010 0.828125
vt 0.317708 0.828125
f 198/753/198 153/754/153 154/755/154
vt 0.158063 0.376692
vt 0.169313 0.383187
vt 0.159067 0.380442
f 156/756/156 275/757/275 243/758/243
vt 0.725911 0.554688
vt 0.723958 0.562500
vt 0.725586 0.550781
f 161/759/161 273/760/273 10/761/10
vt 0.813802 0.937500
vt 0.813802 0.945312
vt 0.813151 0.937500
f 239/762/239 189/763/189 51/764/51
vt 0.230469 0.937500
vt 0.230469 0.953125
vt 0.229167 0.937500
f 236/765/236 175/766/175 28/767/28
vt 0.147135 0.937500
vt 0.147135 0.953125
vt 0.146484 0.937500
f 168/768/168 155/769/155 119/770/119
vt 0.220000 0.097058
vt 0.220000 0.101813
vt 0.218125 0.098933
f 215/771/215 188/772/188 257/773/257
vt 0.767610 0.083898
vt 0.757713 0.083187
vt 0.759039 0.084513
f 304/774/304 26/775/26 226/776/226
vt 0.184375 0.175305
vt 0.190000 0.172058
vt 0.190000 0.178553
f 106/777/106 97/778/97 120/779/120
vt 0.053423 0.383438
vt 0.054796 0.384810
vt 0.053242 0.383618
f 22/780/22 23/781/23 15/782/15
vt 0.256948 0.399708
vt 0.255668 0.399365
vt 0.253885 0.397147
f 183/783/183 294/784/294 191/785/191
vt 0.815961 0.419084
vt 0.813310 0.418373
vt 0.808717 0.421025
f 104/786/104 229/787/229 128/788/128
vt 0.958858 0.323434
vt 0.954265 0.324145
vt 0.958858 0.325375
f 25/789/25 35/790/35 46/791/46
vt 0.582026 0.224403
vt 0.575753 0.222722
vt 0.578404 0.225374
f 204/792/204 287/793/287 56/794/56
vt 0.996419 0.707031
vt 0.996745 0.710938
vt 0.996094 0.718750
f 248/795/248 57/796/57 151/797/151
vt 0.220937 0.141206
vt 0.223750 0.146077
vt 0.218125 0.142829
f 125/798/125 137/799/137 268/800/268
vt 0.988281 0.640625
vt 0.987467 0.638672
vt 0.987956 0.636719
f 246/801/246 250/802/250 108/803/108
vt 0.517156 0.261647
vt 0.517028 0.259706
vt 0.516900 0.259706
f 204/804/204 264/805/264 281/806/281
vt 0.226562 0.150948
vt 0.223750 0.152572
f 137/799/137 125/807/125 207/808/207
vt 0.967593 0.178247
vt 0.958668 0.173914
vt 0.962225 0.176323
f 110/809/110 245/810/245 244/811/244
vt 0.555989 0.832031
vt 0.554687 0.843750
vt 0.555338 0.835938
f 205/812/205 74/813/74 290/814/290
vt 0.139323 0.832031
vt 0.138021 0.843750
vt 0.139323 0.828125
f 155/815/155 168/816/168 237/817/237
vt 0.202187 0.108927
vt 0.205000 0.112058
vt 0.197500 0.110048
f 215/818/215 125/819/125 268/820/268
vt 0.973958 0.812500
vt 0.975260 0.792969
vt 0.976562 0.781250
f 90/821/90 57/822/57 248/823/248
vt 0.931821 0.211367
vt 0.929525 0.213664
vt 0.934473 0.214019
f 10/824/10 218/825/218 107/826/107
vt 0.115673 0.342709
vt 0.121298 0.345957
vt 0.113363 0.342960
f 220/827/220 243/828/243 138/829/138
vt 0.661265 0.179636
vt 0.665858 0.175043
vt 0.664532 0.173717
f 287/830/287 281/831/281 285/832/285
vt 0.972982 0.558594
vt 0.973958 0.562500
vt 0.973633 0.562500
f 108/833/108 81/834/81 293/835/293
vt 0.299805 0.652344
vt 0.299642 0.654297
vt 0.298177 0.640625
f 231/836/231 198/837/198 62/838/62
vt 0.596836 0.412445
vt 0.599422 0.414499
vt 0.598387 0.412220
f 208/839/208 219/840/219 83/841/83
vt 0.071875 0.279228
vt 0.074687 0.279228
vt 0.069063 0.280852
f 179/842/179 199/843/199 280/844/280
vt 0.310938 0.313328
vt 0.312344 0.310892
vt 0.313750 0.314952
f 216/845/216 170/846/170 298/847/298
vt 0.782790 0.278197
vt 0.776516 0.276516
vt 0.779168 0.279168
f 260/848/260 244/849/244 38/850/38
vt 0.836933 0.226706
vt 0.863615 0.221238
vt 0.851422 0.222824
f 38/851/38 71/852/71 262/853/262
vt 0.124416 0.384210
vt 0.122106 0.384462
vt 0.122256 0.380586
f 220/854/220 138/855/138 306/856/306
vt 0.267109 0.016368
vt 0.266406 0.015585
vt 0.267930 0.015696
f 291/857/291 255/858/255 241/859/241
vt 0.127187 0.143511
vt 0.126250 0.143260
vt 0.133750 0.140514
f 120/860/120 97/861/97 268/862/268
vt 0.965782 0.178732
vt 0.976519 0.182580
f 225/863/225 299/864/299 110/809/110
vt 0.696637 0.260936
vt 0.699289 0.263588
vt 0.706533 0.261647
f 281/865/281 264/866/264 299/867/299
vt 0.898438 0.718750
vt 0.897787 0.703125
vt 0.898438 0.703125
f 5/868/5 159/869/159 129/870/129
vt 0.731771 0.718750
vt 0.731445 0.710938
vt 0.731771 0.703125
f 194/871/194 141/872/141 130/873/130
vt 0.648438 0.718750
vt 0.647787 0.703125
vt 0.648438 0.703125
f 195/874/195 86/875/86 131/876/131
vt 0.565104 0.718750
vt 0.564453 0.703125
vt 0.565104 0.703125
f 205/877/205 162/878/162 132/879/132
vt 0.481771 0.718750
vt 0.481120 0.703125
vt 0.481771 0.703125
f 196/880/196 230/881/230 234/882/234
vt 0.355132 0.462359
vt 0.347765 0.464862
vt 0.355000 0.461865
f 65/883/65 40/884/40 91/885/91
vt 0.983867 0.234471
vt 0.983867 0.238353
vt 0.984378 0.246118
f 107/886/107 29/887/29 10/888/10
vt 0.930470 0.135821
vt 0.934093 0.140153
vt 0.932151 0.136791
f 124/889/124 304/890/304 185/891/185
vt 0.083130 0.336600
vt 0.089558 0.333971
vt 0.085942 0.338224
f 21/892/21 138/893/138 243/894/243
vt 0.876302 0.718750
vt 0.875651 0.710938
vt 0.877604 0.718750
f 172/895/172 160/896/160 147/897/147
vt 0.407500 0.107106
vt 0.409240 0.106101
vt 0.410245 0.109851
f 269/898/269 122/899/122 259/900/259
vt 0.007161 0.656250
vt 0.006510 0.671875
vt 0.006510 0.656250
f 250/901/250 151/902/151 57/903/57
vt 0.330729 0.929688
vt 0.332031 0.921875
vt 0.331380 0.929688
f 49/904/49 153/905/153 297/906/297
vt 0.170587 0.408433
vt 0.165464 0.407060
vt 0.167841 0.405687
f 156/907/156 243/908/243 220/909/220
vt 0.101875 0.184276
vt 0.104687 0.182653
vt 0.103750 0.184779
f 212/910/212 89/911/89 278/912/278
vt 0.908337 0.315720
vt 0.912930 0.307245
vt 0.908337 0.307956
f 39/913/39 46/914/46 209/915/209
vt 0.625000 0.687500
vt 0.623047 0.695312
vt 0.623698 0.687500
f 195/916/195 132/917/132 86/918/86
vt 0.028645 0.765625
vt 0.031250 0.757812
vt 0.031250 0.765625
f 145/919/145 151/920/151 288/921/288
vt 0.875000 0.664062
vt 0.876302 0.671875
vt 0.875000 0.671875
f 147/922/147 111/923/111 222/924/222
vt 0.458333 0.664062
vt 0.459635 0.671875
vt 0.458333 0.671875
f 149/925/149 17/926/17 230/927/230
vt 0.291667 0.664062
vt 0.292969 0.671875
vt 0.291667 0.671875
f 62/928/62 256/929/256 231/930/231
vt 0.125000 0.664062
vt 0.126302 0.671875
vt 0.125000 0.671875
f 143/931/143 88/932/88 167/933/167
vt 0.204603 0.020577
vt 0.206478 0.020074
vt 0.207482 0.020070
f 68/934/68 255/935/255 215/936/215
vt 0.772704 0.240554
vt 0.768596 0.243336
vt 0.771733 0.244177
f 260/937/260 225/938/225 110/939/110
vt 0.712642 0.295313
vt 0.709375 0.301231
vt 0.713968 0.296638
f 299/940/299 267/941/267 110/942/110
vt 0.853682 0.040331
vt 0.851676 0.038952
vt 0.853456 0.040237
f 26/943/26 304/944/304 266/945/266
vt 0.722703 0.264039
vt 0.721022 0.257765
vt 0.719081 0.265009
f 299/946/299 264/947/264 267/948/267
vt 0.472331 0.589844
vt 0.472005 0.585938
vt 0.472656 0.578125
f 230/949/230 17/950/17 126/951/126
vt 0.103750 0.182401
vt 0.100000 0.183774
vt 0.103750 0.180024
f 89/952/89 212/953/212 24/954/24
vt 0.867002 0.353173
vt 0.862409 0.357766
vt 0.867002 0.354144
f 210/955/210 39/956/39 229/957/229
vt 0.903744 0.355254
vt 0.908337 0.350661
vt 0.908337 0.346779
f 210/958/210 46/959/46 39/960/39
vt 0.130000 0.119019
vt 0.124375 0.126017
vt 0.125313 0.124393
f 174/961/174 94/962/94 292/963/292
vt 0.717121 0.468304
vt 0.718091 0.466623
vt 0.713499 0.469274
f 103/964/103 50/965/50 127/966/127
vt 0.831249 0.147537
vt 0.824005 0.149478
vt 0.830764 0.149348
f 186/967/186 27/968/27 262/969/262
vt 0.902492 0.432595
vt 0.900939 0.433787
vt 0.901002 0.433898
f 32/970/32 210/971/210 217/972/217
vt 0.871745 0.648438
vt 0.871094 0.640625
vt 0.872396 0.640625
f 222/973/222 111/974/111 73/975/73
vt 0.788412 0.648438
vt 0.787761 0.640625
vt 0.789063 0.640625
f 140/976/140 16/977/16 34/978/34
vt 0.705078 0.648438
vt 0.704427 0.640625
vt 0.705078 0.640625
f 141/979/141 148/980/148 273/981/273
vt 0.663412 0.960938
vt 0.662761 0.953125
vt 0.664063 0.953125
f 20/982/20 2/983/2 36/984/36
vt 0.538411 0.648438
vt 0.537760 0.640625
vt 0.539062 0.640625
f 234/985/234 113/986/113 253/987/253
vt 0.455078 0.648438
vt 0.454427 0.640625
vt 0.455729 0.640625
f 149/988/149 133/989/133 17/990/17
vt 0.371745 0.648438
vt 0.371094 0.640625
vt 0.371745 0.640625
f 60/991/60 61/992/61 284/993/284
vt 0.121745 0.648438
vt 0.121094 0.640625
vt 0.122396 0.640625
f 143/994/143 64/995/64 88/996/88
vt 0.479423 0.295397
vt 0.479670 0.295463
vt 0.476920 0.302765
f 144/997/144 270/998/270 51/999/51
vt 0.396250 0.399389
vt 0.400000 0.405885
vt 0.392500 0.405885
f 144/1000/144 13/1001/13 265/1002/265
vt 0.558942 0.382722
vt 0.559912 0.384403
vt 0.563274 0.386344
f 214/1003/214 9/1004/9 219/1005/219
vt 0.052773 0.381342
vt 0.051220 0.380150
vt 0.050028 0.378597
f 23/1006/23 138/1007/138 15/1008/15
vt 0.245443 0.898438
vt 0.247396 0.906250
vt 0.246094 0.906250
f 150/1009/150 76/1010/76 175/1011/175
vt 0.205078 0.648438
vt 0.203125 0.656250
vt 0.204427 0.640625
f 165/1012/165 63/1013/63 224/1014/224
vt 0.033854 0.726562
vt 0.033854 0.718750
vt 0.035156 0.734375
f 151/1015/151 47/1016/47 102/1017/102
vt 0.033854 0.750000
vt 0.036458 0.765625
vt 0.031250 0.750000
f 151/1018/151 102/1019/102 288/1020/288
vt 0.383916 0.446369
vt 0.383618 0.446758
vt 0.383140 0.446965
f 65/1021/65 96/1022/96 40/1023/40
vt 0.405454 0.084471
vt 0.399462 0.077106
vt 0.404952 0.082596
f 121/1024/121 269/1025/269 200/1026/200
vt 0.719773 0.469014
vt 0.720743 0.467333
vt 0.711558 0.472636
f 233/1027/233 50/1028/50 103/1029/103
vt 0.553385 0.546875
vt 0.555012 0.558594
vt 0.554687 0.562500
f 253/1030/253 274/1031/274 6/1032/6
vt 0.305339 0.554688
vt 0.304037 0.546875
vt 0.304688 0.546875
f 276/1033/276 231/1034/231 256/1035/256
vt 0.958858 0.304022
vt 0.954265 0.306674
vt 0.956562 0.306319
f 35/1036/35 221/1037/221 46/1038/46
vt 0.344688 0.154196
vt 0.341875 0.155820
f 176/1039/176 200/625/200 207/1040/207
vt 0.516645 0.274264
vt 0.516389 0.271353
vt 0.516645 0.274750
f 264/1041/264 204/1042/204 115/1043/115
vt 0.594955 0.301631
vt 0.593984 0.305253
vt 0.598577 0.300660
f 115/1044/115 214/1045/214 187/1046/187
vt 0.807292 0.835938
vt 0.805990 0.843750
vt 0.807292 0.832031
f 33/1047/33 189/1048/189 192/1049/192
vt 0.390625 0.835938
vt 0.389974 0.839844
vt 0.390625 0.832031
f 197/1050/197 272/1051/272 164/1052/164
vt 0.681298 0.355825
vt 0.681654 0.360773
vt 0.682624 0.357150
f 181/1053/181 213/1054/213 252/1055/252
vt 0.399731 0.414389
vt 0.405221 0.408899
vt 0.395981 0.420884
f 265/1056/265 13/1057/13 96/1058/96
vt 0.473125 0.237010
vt 0.475000 0.237010
vt 0.475000 0.250000
f 184/1059/184 8/1060/8 14/1061/14
vt 0.094375 0.142291
vt 0.095312 0.142040
vt 0.094375 0.143664
f 93/1062/93 296/1063/296 174/1064/174
vt 0.016284 0.225559
vt 0.015535 0.227368
vt 0.015663 0.226397
f 44/1065/44 78/1066/78 179/1067/179
vt 0.982716 0.194677
vt 0.981822 0.189824
vt 0.982844 0.195648
f 11/1068/11 218/1069/218 10/1070/10
vt 0.901779 0.433302
f 32/970/32 217/972/217 98/1071/98
vt 0.394853 0.061224
vt 0.399982 0.067076
vt 0.399621 0.067437
f 121/1072/121 232/1073/232 95/1074/95
vt 0.750000 0.481822
vt 0.746118 0.482333
vt 0.751941 0.482589
f 105/1075/105 50/1076/50 293/1077/293
vt 0.754802 0.094054
vt 0.745876 0.089721
vt 0.751179 0.095024
f 226/1078/226 26/1079/26 123/1080/123
vt 0.166015 0.734375
vt 0.166666 0.750000
vt 0.165364 0.734375
f 63/1081/63 166/1082/166 135/1083/135
vt 0.677734 0.882812
vt 0.678386 0.890625
vt 0.677083 0.890625
f 240/1084/240 20/1085/20 36/1086/36
vt 0.177083 0.875000
vt 0.177734 0.890625
vt 0.177083 0.890625
f 166/1087/166 236/1088/236 77/1089/77
vt 0.891235 0.059726
vt 0.897960 0.063608
vt 0.894853 0.061224
f 30/1090/30 48/1091/48 82/1092/82
vt 0.630208 0.546875
vt 0.628906 0.546875
vt 0.630208 0.531250
f 238/1093/238 223/1094/223 82/1095/82
vt 0.693085 0.037589
vt 0.686100 0.040501
vt 0.693605 0.039530
f 123/1096/123 53/1097/53 101/1098/101
vt 0.926708 0.266290
vt 0.919819 0.269297
vt 0.910634 0.274601
f 221/1099/221 107/1100/107 209/1101/209
vt 0.181567 0.419413
vt 0.188063 0.422159
vt 0.187560 0.423531
f 275/1102/275 263/1103/263 249/1104/249
vt 0.331380 0.679688
vt 0.330729 0.687500
vt 0.330729 0.671875
f 60/1105/60 69/1106/69 61/1107/61
vt 0.164062 0.687500
vt 0.164062 0.679688
vt 0.164387 0.679688
f 135/1108/135 167/1109/167 63/1110/63
vt 0.050781 0.859375
vt 0.051432 0.855469
vt 0.052083 0.859375
f 145/1111/145 288/1112/288 80/1113/80
vt 0.908854 0.656250
f 84/119/84 159/121/159 73/1114/73
vt 0.410156 0.656250
vt 0.410156 0.671875
vt 0.408854 0.656250
f 87/1115/87 133/1116/133 197/1117/197
vt 0.405598 0.609375
vt 0.406250 0.593750
vt 0.406250 0.609375
f 87/1118/87 277/1119/277 133/1120/133
vt 0.242187 0.656250
f 235/240/235 134/239/134 165/1121/165
vt 0.888672 1.000000
vt 0.888021 1.000000
vt 0.888672 0.992188
f 66/1122/66 295/1123/295 96/1124/96
vt 0.755208 0.859375
vt 0.755534 0.863281
vt 0.755208 0.875000
f 194/1125/194 308/1126/308 117/1127/117
vt 0.714844 0.984375
f 20/316/20 190/1128/190 8/317/8
vt 0.598958 0.992188
vt 0.599609 0.988281
vt 0.598958 1.000000
f 232/1129/232 158/1130/158 95/1131/95
vt 0.593099 0.867188
vt 0.591146 0.875000
vt 0.592448 0.859375
f 301/1132/301 74/1133/74 205/1134/205
vt 0.585937 0.812500
vt 0.586588 0.796875
vt 0.587239 0.796875
f 301/1135/301 132/1136/132 195/1137/195
vt 0.473958 1.000000
f 241/352/241 242/1138/242 67/353/67
vt 0.291667 0.992188
vt 0.292969 0.984375
vt 0.291667 1.000000
f 118/1139/118 49/1140/49 78/1141/78
vt 0.265625 1.000000
f 44/369/44 118/371/118 78/1142/78
vt 0.250000 0.921875
vt 0.250651 0.929688
vt 0.250000 0.937500
f 76/1143/76 118/1144/118 175/1145/175
vt 0.252604 0.796875
vt 0.253255 0.796875
vt 0.252604 0.812500
f 76/1146/76 254/1147/254 154/1148/154
vt 0.915531 0.121592
vt 0.914300 0.117519
vt 0.914205 0.120266
f 48/1149/48 124/1150/124 185/1151/185
vt 0.710987 0.357956
vt 0.709175 0.358441
vt 0.708690 0.360252
f 245/1152/245 267/1153/267 173/1154/173
vt 0.347500 0.392894
vt 0.355937 0.394518
vt 0.358750 0.399389
f 65/1155/65 247/1156/247 265/1157/265
vt 0.804003 0.299411
vt 0.807626 0.298440
vt 0.806300 0.297114
f 245/1158/245 206/1159/206 244/1160/244
vt 0.280355 0.433826
vt 0.276789 0.429389
vt 0.282916 0.434512
f 263/1161/263 294/1162/294 177/1163/177
vt 0.517667 0.277176
f 187/684/187 181/686/181 264/1164/264
vt 0.961661 0.152453
f 218/739/218 11/1165/11 238/740/238
vt 0.782035 0.388155
vt 0.784332 0.386344
vt 0.784332 0.385373
f 245/1166/245 202/1167/202 206/1168/206
vt 0.987630 0.632812
vt 0.986654 0.636719
f 108/1169/108 250/802/250 57/1170/57
vt 0.723249 0.305919
vt 0.722278 0.309541
vt 0.723426 0.308393
f 110/1171/110 267/1172/267 245/1173/245
vt 0.998210 0.880859
vt 0.999023 0.886719
vt 0.998047 0.882812
f 151/1174/151 145/1175/145 248/1176/248
vt 0.998698 0.890625
f 178/1177/178 248/1176/248 145/1175/145
vt 0.323125 0.460107
vt 0.321250 0.459856
vt 0.325000 0.459856
f 65/1178/65 91/1179/91 286/1180/286
vt 0.814779 0.710938
vt 0.814453 0.703125
vt 0.815104 0.703125
f 192/1181/192 85/1182/85 147/1183/147
vt 0.148112 0.710938
vt 0.147786 0.703125
vt 0.148437 0.703125
f 237/1184/237 167/1185/167 135/1186/135
vt 0.769532 0.475028
vt 0.763969 0.475999
vt 0.778978 0.474057
f 233/1187/233 293/1188/293 50/1189/50
vt 0.347500 0.360418
vt 0.348203 0.361636
vt 0.347500 0.363666
f 170/1190/170 307/1191/307 247/1192/247
vt 0.737433 0.454335
vt 0.735865 0.454400
vt 0.733811 0.455306
f 127/1193/127 50/1194/50 289/1195/289
vt 0.479917 0.295529
f 270/998/270 14/1196/14 51/999/51
vt 0.301094 0.393706
vt 0.291250 0.386399
vt 0.296875 0.389647
f 247/1197/247 65/1198/65 286/1199/286
vt 0.619618 0.444770
f 45/14/45 208/1200/208 83/15/83
vt 0.388750 0.308457
vt 0.386875 0.318199
vt 0.386875 0.311704
f 216/1201/216 144/1202/144 307/1203/307
vt 0.249349 0.601562
vt 0.247396 0.593750
vt 0.248698 0.593750
f 256/1204/256 235/1205/235 100/1206/100
vt 0.248698 0.609375
f 235/1205/235 256/1204/256 62/1207/62
vt 0.216250 0.048505
vt 0.217187 0.046379
vt 0.227500 0.042010
f 215/1208/215 255/1209/255 188/1210/188
vt 0.330625 0.103858
vt 0.330625 0.110353
vt 0.327812 0.105482
f 182/1211/182 176/1212/176 257/1213/257
vt 0.556966 0.691406
vt 0.557291 0.687500
vt 0.557291 0.703125
f 258/1214/258 253/1215/253 162/1216/162
vt 0.898225 0.154807
vt 0.903173 0.155162
vt 0.890626 0.151800
f 260/1217/260 261/1218/261 146/1219/146
vt 0.837453 0.199669
vt 0.843727 0.201350
vt 0.844698 0.197728
f 186/1220/186 262/1221/262 71/1222/71
vt 0.156250 0.224019
vt 0.150625 0.220772
vt 0.156250 0.217524
f 106/1223/106 120/1224/120 18/1225/18
vt 0.327812 0.118472
vt 0.330625 0.116849
vt 0.330625 0.123344
f 257/1226/257 176/1227/176 207/1228/207
vt 0.873891 0.295814
vt 0.873536 0.290866
vt 0.871595 0.298110
f 209/1229/209 279/1230/279 39/1231/39
vt 0.797590 0.429690
vt 0.803994 0.426553
vt 0.806776 0.424387
f 128/1232/128 105/1233/105 104/1234/104
vt 0.784332 0.426138
vt 0.784752 0.426735
f 105/691/105 128/1235/128 289/1236/289
vt 0.923867 0.203412
vt 0.909863 0.205483
vt 0.909378 0.207295
f 107/1237/107 186/1238/186 71/1239/71
vt 0.173125 0.232138
vt 0.167500 0.230514
vt 0.178750 0.230514
f 120/1240/120 212/1241/212 18/1242/18
vt 0.779013 0.217010
vt 0.777201 0.217495
vt 0.778770 0.217915
f 38/1243/38 261/1244/261 260/1245/260
vt 0.766612 0.194276
vt 0.764558 0.195666
vt 0.771803 0.193725
f 262/1246/262 261/1247/261 38/1248/38
vt 0.956137 0.147277
vt 0.956977 0.147762
vt 0.956072 0.146679
f 185/1249/185 261/1250/261 262/1251/262
vt 0.247721 0.683594
vt 0.247396 0.687500
vt 0.247396 0.671875
f 254/1252/254 134/1253/134 62/1254/62
vt 0.517411 0.266015
vt 0.517667 0.267470
vt 0.517411 0.265529
f 264/1255/264 181/1256/181 267/1257/267
vt 0.839014 0.033707
vt 0.843733 0.036210
vt 0.844185 0.036397
f 26/1258/26 53/1259/53 123/1260/123
vt 0.123698 0.500000
vt 0.123698 0.515625
vt 0.122396 0.500000
f 31/1261/31 64/1262/64 83/1263/83
vt 0.960286 0.835938
vt 0.958333 0.843750
vt 0.959635 0.828125
f 90/1264/90 116/1265/116 72/1266/72
vt 0.962890 0.812500
vt 0.962239 0.812500
vt 0.962239 0.796875
f 90/1267/90 129/1268/129 57/1269/57
vt 0.510417 0.898438
vt 0.511719 0.890625
vt 0.510417 0.906250
f 75/1270/75 163/1271/163 171/1272/171
vt 0.963541 0.820312
vt 0.963867 0.820312
vt 0.963541 0.828125
f 129/1273/129 90/1274/90 5/1275/5
vt 0.819777 0.064877
vt 0.813018 0.065007
vt 0.825565 0.068369
f 266/1276/266 304/1277/304 124/1278/124
vt 0.684331 0.432342
vt 0.680708 0.433312
vt 0.682034 0.434638
f 103/1279/103 127/1280/127 45/1281/45
vt 0.300343 0.437441
vt 0.299313 0.438035
vt 0.297279 0.434880
f 298/1282/298 170/1283/170 201/1284/201
vt 0.375625 0.110353
f 176/675/176 180/677/180 121/1285/121
vt 0.775146 0.425617
vt 0.779739 0.422966
vt 0.779739 0.421025
f 245/1286/245 173/1287/173 202/1288/202
vt 0.759071 0.410634
vt 0.761368 0.412220
vt 0.761368 0.408337
f 173/1289/173 289/1290/289 202/1291/202
vt 0.818841 0.043273
vt 0.817871 0.046896
vt 0.823174 0.052199
f 6/1292/6 266/1293/266 124/1294/124
vt 0.580986 0.389846
vt 0.573291 0.384283
vt 0.581957 0.391527
f 219/1295/219 187/1296/187 214/1297/214
f 110/809/110 244/811/244 260/863/260
vt 0.452697 0.336716
vt 0.449952 0.339462
vt 0.450957 0.335712
f 13/1298/13 144/1299/144 51/1300/51
vt 0.791094 0.033897
vt 0.788442 0.031246
vt 0.781198 0.033187
f 266/1301/266 6/1302/6 274/1303/274
vt 0.560883 0.386084
f 9/1004/9 31/1304/31 219/1005/219
vt 0.238607 0.609375
vt 0.239583 0.625000
vt 0.238281 0.609375
f 235/1305/235 165/1306/165 224/1307/224
vt 0.908337 0.276897
f 221/1099/221 209/1101/209 46/1308/46
vt 0.327812 0.339309
vt 0.327812 0.337685
vt 0.330625 0.337685
f 247/1309/247 177/1310/177 170/1311/170
vt 0.600198 0.414386
f 219/840/219 31/1312/31 83/841/83
vt 0.156249 0.625000
vt 0.155598 0.609375
vt 0.156249 0.617188
f 167/1313/167 88/1314/88 152/1315/152
vt 0.174531 0.116969
vt 0.175938 0.116157
vt 0.176875 0.118786
f 268/1316/268 68/1317/68 215/1318/215
vt 0.505208 1.000000
vt 0.504232 0.996094
vt 0.503581 0.988281
f 75/1319/75 291/1320/291 139/1321/139
vt 0.433750 0.211029
vt 0.437500 0.211029
vt 0.433750 0.217524
f 122/1322/122 269/1323/269 184/1324/184
vt 0.441250 0.269486
vt 0.437500 0.282476
vt 0.439375 0.272733
f 122/1325/122 270/1326/270 216/1327/216
vt 0.886959 0.272139
vt 0.886604 0.267191
f 209/1328/209 71/1329/71 279/648/279
vt 0.386875 0.191543
vt 0.388750 0.185048
vt 0.392500 0.185048
f 269/1330/269 259/1331/259 200/1332/200
vt 0.731120 0.703125
f 141/872/141 161/1333/161 130/873/130
vt 0.297201 0.539062
vt 0.297038 0.542969
vt 0.296875 0.531250
f 100/1334/100 276/1335/276 256/1336/256
vt 0.397786 0.820312
vt 0.397135 0.820312
vt 0.397135 0.812500
f 228/1337/228 272/1338/272 197/1339/197
vt 0.389323 0.843750
f 272/1051/272 142/1340/142 164/1052/164
vt 0.237812 0.295466
vt 0.240625 0.297090
vt 0.235000 0.295466
f 89/1341/89 183/1342/183 191/1343/191
vt 0.572916 0.617188
vt 0.572265 0.609375
vt 0.572916 0.609375
f 162/1344/162 253/1345/253 59/1346/59
vt 0.561197 0.648438
vt 0.561197 0.640625
vt 0.562500 0.656250
f 162/1347/162 59/1348/59 112/1349/112
vt 0.788823 0.018178
vt 0.786882 0.017922
vt 0.781058 0.018178
f 26/1350/26 274/1351/274 53/1352/53
vt 0.812117 0.018178
vt 0.800990 0.020119
vt 0.797628 0.022060
f 266/1353/266 274/1354/274 26/1355/26
vt 0.522135 0.500000
vt 0.522135 0.515625
vt 0.520833 0.500000
f 274/1356/274 113/1357/113 53/1358/53
vt 0.794271 0.781250
vt 0.792318 0.765625
vt 0.792644 0.765625
f 189/1359/189 239/1360/239 308/1361/308
vt 0.170312 0.238633
vt 0.178750 0.237010
vt 0.171719 0.239445
f 212/1362/212 278/1363/278 199/1364/199
vt 0.586176 0.081870
vt 0.581294 0.088326
vt 0.586568 0.081975
f 302/1365/302 227/1366/227 109/1367/109
vt 0.438802 0.500000
vt 0.438151 0.507812
vt 0.437499 0.500000
f 99/1368/99 101/1369/101 277/1370/277
vt 0.446614 0.609375
vt 0.447916 0.601562
vt 0.447916 0.609375
f 133/1371/133 277/1372/277 17/1373/17
vt 0.062500 0.209387
vt 0.058750 0.210760
vt 0.062500 0.207010
f 278/1374/278 191/1375/191 220/1376/220
vt 0.209688 0.212653
vt 0.206875 0.214276
f 24/1377/24 211/587/211 89/1378/89
vt 0.826707 0.289965
f 279/647/279 244/646/244 206/1379/206
vt 0.016764 0.232255
vt 0.013517 0.236875
vt 0.014019 0.235000
f 179/1380/179 280/1381/280 44/1382/44
vt 0.071875 0.214276
vt 0.070000 0.213774
vt 0.073281 0.213465
f 89/1383/89 191/1384/191 278/1385/278
vt 0.370443 0.929688
vt 0.370768 0.925781
vt 0.371419 0.933594
f 296/1386/296 297/1387/297 94/1388/94
vt 0.322917 0.593750
f 231/233/231 54/1389/54 61/234/61
vt 0.028750 0.228505
vt 0.024062 0.231133
vt 0.025000 0.229510
f 18/1390/18 199/1391/199 179/1392/179
vt 0.398112 0.710938
vt 0.397786 0.703125
vt 0.398437 0.703125
f 228/1393/228 197/1394/197 133/1395/133
vt 0.253255 0.804688
vt 0.252930 0.804688
f 154/1396/154 118/1397/118 76/1147/76
vt 0.748698 0.953125
f 117/156/117 14/1398/14 190/157/190
vt 0.377604 0.781250
vt 0.375651 0.765625
vt 0.376302 0.765625
f 164/1399/164 60/1400/60 197/1401/197
vt 0.292318 0.984375
f 154/1402/154 49/1140/49 118/1139/118
vt 0.019043 0.283750
vt 0.031298 0.293995
vt 0.025673 0.290748
f 28/1403/28 44/1404/44 280/1405/280
vt 0.505208 0.859375
vt 0.505371 0.873047
vt 0.505208 0.875000
f 196/1406/196 163/1407/163 75/1408/75
vt 0.503906 0.984375
f 42/1319/42 291/1321/291 75/1409/75
vt 0.671146 0.026070
vt 0.668880 0.027969
vt 0.668295 0.028897
f 99/1410/99 227/1411/227 300/1412/300
vt 0.569618 0.114800
vt 0.569618 0.115286
vt 0.570588 0.114575
f 226/1413/226 251/1414/251 303/1415/303
vt 0.795736 0.908203
vt 0.794271 0.906250
vt 0.795573 0.906250
f 308/1416/308 239/1417/239 117/1418/117
vt 0.044277 0.209846
vt 0.047500 0.207010
vt 0.044219 0.209948
f 79/1419/79 106/1420/106 18/1421/18
vt 0.044219 0.210291
vt 0.043750 0.210760
f 179/1421/179 79/1422/79 18/1423/18
vt 0.983073 0.839844
vt 0.983236 0.835938
vt 0.983073 0.843750
f 116/1424/116 90/1425/90 248/1426/248
vt 0.983317 0.835938
vt 0.983398 0.835938
f 116/1427/116 248/1428/248 178/1426/178
vt 0.027934 0.174923
vt 0.029144 0.166706
vt 0.028121 0.174471
f 79/1429/79 78/1430/78 93/1431/93
vt 0.036807 0.179957
vt 0.037058 0.179019
vt 0.040538 0.181029
f 79/1432/79 93/1433/93 106/1434/106
vt 0.240625 0.464880
vt 0.242500 0.464880
vt 0.242500 0.464880
f 249/1435/249 12/1436/12 1/1437/1
vt 0.250000 0.463875
vt 0.246250 0.463875
vt 0.242500 0.463875
f 12/1438/12 310/1439/310 91/1440/91
vt 0.238932 0.859375
vt 0.239583 0.843750
vt 0.239583 0.859375
f 76/1441/76 150/1442/150 134/1443/134
vt 0.516645 0.275235
f 115/1043/115 204/1042/204 203/1444/203
vt 0.577474 0.765625
vt 0.578125 0.750000
vt 0.578125 0.765625
f 205/1445/205 132/1446/132 301/1447/301
vt 0.451823 0.921875
f 67/1448/67 283/213/283 282/212/282
vt 0.453125 0.906250
f 283/213/283 67/1448/67 114/1449/114
vt 0.415364 0.859375
f 283/215/283 114/1450/114 228/216/228
vt 0.375000 0.593750
vt 0.375651 0.601562
vt 0.375000 0.609375
f 54/1451/54 284/1452/284 61/1453/61
vt 0.066406 0.859375
f 7/416/7 80/415/80 288/1454/288
vt 0.340926 0.030660
f 42/460/42 182/459/182 188/1455/188
vt 0.882813 0.539062
vt 0.884115 0.546875
vt 0.882161 0.539062
f 98/1456/98 73/1457/73 32/1458/32
vt 0.899089 0.882812
vt 0.899333 0.883789
vt 0.899740 0.890625
f 40/1459/40 295/1460/295 72/1461/72
vt 0.145000 0.314952
f 306/617/306 278/616/278 220/1462/220
vt 0.249062 0.111977
vt 0.251875 0.110353
vt 0.251875 0.116849
f 188/1463/188 182/1464/182 257/1465/257
vt 0.699809 0.236551
vt 0.708735 0.240884
vt 0.706083 0.238232
f 225/1466/225 285/1467/285 299/1468/299
vt 0.259142 0.448238
vt 0.262892 0.448238
vt 0.260422 0.448581
f 249/1469/249 263/1470/263 310/1471/310
vt 0.622396 0.687500
f 86/918/86 132/917/132 223/1472/223
vt 0.850353 0.347499
vt 0.844038 0.348961
vt 0.853224 0.347540
f 206/1473/206 229/1474/229 39/1475/39
vt 0.372396 0.640625
f 60/991/60 284/993/284 87/1476/87
vt 0.130234 0.119986
vt 0.129648 0.120314
vt 0.130117 0.119503
f 94/1477/94 43/1478/43 292/1479/292
vt 0.092500 0.145539
f 93/1062/93 174/1064/174 106/1480/106
vt 0.565614 0.126345
vt 0.565493 0.125827
vt 0.565250 0.126733
f 287/1481/287 285/1482/285 302/1483/302
vt 0.265586 0.358997
vt 0.257500 0.353923
vt 0.268750 0.360418
f 263/1484/263 177/1485/177 286/1486/286
vt 0.840724 0.322352
vt 0.847305 0.319748
vt 0.853224 0.316481
f 279/1487/279 206/1488/206 39/1489/39
vt 0.833971 0.469205
vt 0.832290 0.470175
vt 0.832801 0.471061
f 81/1490/81 98/1491/98 104/1492/104
vt 0.944010 0.500000
vt 0.944010 0.515625
vt 0.942708 0.500000
f 81/1493/81 84/1494/84 98/1495/98
vt 0.876302 0.765625
f 295/290/295 160/289/160 172/1496/172
vt 0.598958 0.984375
vt 0.599284 0.990234
f 74/1497/74 301/1130/301 158/1498/158
vt 0.062500 0.734375
f 169/632/169 102/631/102 157/1499/157
vt 0.791221 0.421189
vt 0.793517 0.418893
vt 0.788925 0.419604
f 289/1500/289 128/1501/128 202/1502/202
vt 0.267812 0.017150
vt 0.269453 0.015807
vt 0.272500 0.016029
f 188/1503/188 291/1504/291 42/1505/42
vt 0.577799 0.925781
vt 0.577474 0.929688
vt 0.576823 0.921875
f 290/1506/290 74/1507/74 171/1508/171
vt 0.126250 0.122769
f 174/961/174 292/963/292 97/1509/97
vt 0.382661 0.447173
f 265/1021/265 96/1023/96 65/1510/65
vt 0.391562 0.230514
vt 0.392500 0.237010
vt 0.391094 0.230514
f 259/1511/259 122/1512/122 298/1513/298
vt 0.503255 0.992188
f 291/1320/291 241/1514/241 139/1321/139
vt 0.370469 0.176117
vt 0.371172 0.175711
vt 0.370000 0.178553
f 298/1515/298 305/1516/305 259/1517/259
vt 0.898112 0.816406
vt 0.897461 0.816406
vt 0.897136 0.812500
f 5/1518/5 295/1519/295 172/1520/172
vt 0.899577 0.884766
vt 0.900065 0.886719
f 295/1521/295 5/1522/5 72/1461/72
vt 0.129063 0.120643
f 43/1478/43 68/1523/68 292/1479/292
f 97/961/97 292/1479/292 68/1523/68
vt 0.930740 0.096338
vt 0.925069 0.087284
vt 0.924771 0.086896
f 48/1524/48 27/1525/27 238/1526/238
vt 0.975586 0.558594
vt 0.974772 0.552734
vt 0.974935 0.550781
f 246/1527/246 293/1528/293 233/1529/233
vt 0.284571 0.414071
vt 0.281005 0.409635
vt 0.284068 0.412196
f 201/1530/201 183/1531/183 305/1532/305
vt 0.752182 0.436934
f 252/700/252 127/1533/127 289/701/289
vt 0.973307 0.562500
f 108/833/108 293/835/293 246/1534/246
vt 0.180060 0.387808
vt 0.181843 0.390026
vt 0.180563 0.389683
f 156/1535/156 294/1536/294 263/1537/263
vt 0.757765 0.482844
f 105/1075/105 293/1077/293 81/1538/81
vt 0.889323 0.984375
f 40/1124/40 96/1539/96 295/1122/295
vt 0.089030 0.863281
vt 0.088541 0.859375
vt 0.088867 0.859375
f 168/1540/168 7/1541/7 169/1542/169
vt 0.686862 0.347610
vt 0.689999 0.348450
vt 0.690484 0.346639
f 181/1543/181 252/1544/252 173/1545/173
vt 0.706879 0.360738
vt 0.706394 0.362549
f 181/1546/181 173/1547/173 267/1153/267
vt 0.182986 0.392072
vt 0.184129 0.394119
f 156/1548/156 263/1549/263 275/1537/275
vt 0.089192 0.859375
f 168/1540/168 169/1542/169 237/1550/237
vt 0.924474 0.086507
f 48/1524/48 238/1526/238 82/1551/82
vt 0.289068 0.435290
vt 0.287034 0.432134
vt 0.290097 0.434696
f 177/1552/177 294/1553/294 201/1554/201
vt 0.145833 0.937500
f 119/770/119 155/769/155 21/1555/21
vt 0.096250 0.141789
f 296/1063/296 94/1556/94 174/1064/174
vt 0.346354 0.937500
vt 0.345703 0.937500
vt 0.345052 0.921875
f 164/1557/164 297/1558/297 153/1559/153
vt 0.120096 0.376961
f 306/856/306 138/855/138 23/1560/23
vt 0.330729 0.937500
f 49/904/49 297/906/297 296/1561/296
vt 0.114063 0.235386
vt 0.114063 0.232138
vt 0.116875 0.233762
f 199/1562/199 18/1563/18 212/1564/212
vt 0.323394 0.443618
vt 0.320707 0.442463
vt 0.320582 0.441994
f 305/1565/305 298/1566/298 201/1567/201
vt 0.372396 0.937500
f 297/1387/297 142/1568/142 94/1388/94
vt 0.371094 0.921875
f 142/1568/142 297/1387/297 164/1569/164
vt 0.712357 0.239914
f 299/1468/299 285/1467/285 281/1570/281
f 188/857/188 255/859/255 291/1504/291
vt 0.673412 0.024172
vt 0.667710 0.029825
f 101/1571/101 300/1412/300 123/1572/123
f 300/1412/300 101/1571/101 99/1410/99
f 74/1497/74 158/1498/158 232/1129/232
vt 0.651042 0.820312
vt 0.651693 0.826172
vt 0.651042 0.821289
f 195/1573/195 36/1574/36 158/1575/158
vt 0.557971 0.122841
vt 0.558214 0.118539
vt 0.557971 0.118959
f 287/1576/287 302/1577/302 109/1578/109
vt 0.545354 0.140813
f 276/38/276 56/1579/56 109/39/109
vt 0.544383 0.191023
f 56/472/56 100/471/100 203/1580/203
vt 0.437500 0.275981
f 216/1327/216 270/1326/270 144/1581/144
vt 0.762722 0.127234
vt 0.763207 0.125423
vt 0.755962 0.127364
f 303/1582/303 146/1583/146 226/1584/226
vt 0.567919 0.106581
vt 0.567677 0.107001
vt 0.568162 0.107131
f 300/1585/300 227/1586/227 251/1587/251
vt 0.962125 0.162502
vt 0.962291 0.162668
vt 0.959829 0.159495
f 225/1588/225 146/1589/146 303/1590/303
vt 0.910886 0.164023
vt 0.911791 0.163780
vt 0.911128 0.163117
f 260/1591/260 146/1592/146 225/1593/225
vt 0.567677 0.107486
vt 0.567677 0.107971
f 227/1594/227 302/1595/302 251/1587/251
vt 0.796778 0.113066
vt 0.799429 0.115717
vt 0.798589 0.112581
f 304/1596/304 146/1597/146 261/1598/261
vt 0.651367 0.825195
vt 0.651042 0.822266
f 158/1599/158 301/1600/301 195/1574/195
vt 0.576412 0.094783
f 227/1366/227 37/1601/37 109/1367/109
vt 0.371875 0.175305
vt 0.370586 0.177132
f 305/1516/305 271/1602/271 259/1603/259
vt 0.602878 0.069496
vt 0.600467 0.068647
vt 0.602668 0.069618
f 227/1604/227 99/1605/99 37/1606/37
vt 0.620900 0.056481
vt 0.621645 0.055830
vt 0.620512 0.056779
f 251/1607/251 226/1608/226 123/1609/123
vt 0.743935 0.096966
vt 0.737265 0.098333
vt 0.736691 0.098907
f 300/1610/300 251/1611/251 123/1612/123
vt 0.955686 0.150379
vt 0.952064 0.146046
vt 0.950383 0.145076
f 48/1613/48 185/1614/185 27/1615/27
vt 0.251875 0.266238
vt 0.254687 0.267862
vt 0.251875 0.269486
f 211/1616/211 305/1617/305 183/1618/183
vt 0.951449 0.144010
vt 0.951804 0.143655
vt 0.950123 0.142684
f 185/1619/185 262/1620/262 27/1621/27
vt 0.265938 0.264614
vt 0.263125 0.262990
vt 0.263125 0.259743
f 271/1622/271 305/1623/305 211/1624/211
vt 0.565311 0.126021
vt 0.565190 0.126474
f 303/1625/303 251/1626/251 302/1482/302
vt 0.565220 0.126603
f 303/1627/303 302/1483/302 285/1482/285
vt 0.803052 0.114747
vt 0.800400 0.112095
f 261/1628/261 185/1629/185 304/1597/304
vt 0.016115 0.278004
vt 0.015927 0.277551
vt 0.016046 0.276515
f 306/1630/306 280/1631/280 199/1632/199
vt 0.116525 0.328144
vt 0.108038 0.331962
vt 0.116274 0.327207
f 306/1633/306 23/1634/23 280/1635/280
f 259/1603/259 271/1602/271 200/1517/200
vt 0.390625 0.230514
f 298/1513/298 122/1512/122 216/1636/216
vt 0.298284 0.438630
f 170/1283/170 177/1637/177 201/1284/201
vt 0.348906 0.362854
f 307/1191/307 265/1638/265 247/1192/247
vt 0.385000 0.314952
f 307/1203/307 144/1202/144 265/1639/265
vt 0.371875 0.392894
vt 0.375625 0.389647
vt 0.373750 0.392894
f 307/1640/307 170/1641/170 216/1642/216
vt 0.792969 0.765625
f 189/1359/189 308/1361/308 192/1643/192
vt 0.790365 0.734375
vt 0.789063 0.742188
vt 0.789063 0.734375
f 140/1644/140 308/1645/308 130/1646/130
vt 0.812988 0.937500
f 51/764/51 189/763/189 309/1647/309
vt 0.747396 0.750000
vt 0.749023 0.761719
vt 0.748698 0.765625
f 130/1648/130 308/1649/308 194/1650/194
vt 0.853515 0.992188
f 66/296/66 13/295/13 309/1651/309
vt 0.812826 0.937500
vt 0.813151 0.941406
f 13/1652/13 51/763/51 309/1653/309
vt 0.302500 0.392894
f 247/1197/247 286/1199/286 177/1654/177
vt 0.242501 0.463875
f 310/1439/310 286/1655/286 91/1440/91
vt 0.244375 0.463875
vt 0.242500 0.463875
f 249/1438/249 310/1656/310 12/1657/12
vt 0.261703 0.448924
f 310/1471/310 263/1470/263 286/1658/286
vt 0.216250 0.100808
f 125/773/125 215/772/215 257/1659/257
vt 0.393229 0.500000
f 99/1660/99 87/219/87 284/1660/284
vt 0.390625 0.500000
f 37/1660/37 99/1661/99 284/1661/284
# 616 faces, 1661 coords texture

# End of File
