####
#
# OBJ File Generated by Meshlab
#
####
# Object cylinder_91.obj
#
# Vertices: 91
# Faces: 178
#
####
mtllib ./cylinder_91.obj.mtl

vn -0.476278 0.606783 -0.636376
v -0.567295 0.500000 -0.807028
vn 0.793809 0.595725 0.122391
v 0.974735 0.500000 0.101616
vn -0.568037 -0.675442 -0.470225
v -0.744703 -0.500000 -0.573989
vn 0.763903 -0.620064 0.178809
v 0.960215 -0.500000 0.229403
vn -0.685842 0.627146 -0.369200
v -0.869756 0.500000 -0.453062
vn 0.032569 0.063251 0.997466
v 0.012564 -0.169813 0.939814
vn 0.590977 -0.651774 -0.475328
v 0.788504 -0.500000 -0.586830
vn 0.279975 0.611890 0.739733
v 0.307638 0.500000 0.934742
vn -0.784485 0.616686 0.065436
v -0.982920 0.500000 0.080703
vn -0.267691 0.053735 -0.962005
v -0.235552 -0.182444 -0.910997
vn 0.000000 -1.000000 0.000000
v 0.544853 -0.500000 0.433048
vn 0.748990 0.612019 -0.253863
v 0.943840 0.500000 -0.291105
vn -0.127733 -0.632089 0.764295
v -0.170362 -0.500000 0.966366
vn -0.599585 -0.640291 0.480130
v -0.763195 -0.500000 0.624473
vn -0.755296 -0.632214 -0.172723
v -0.969110 -0.500000 -0.204305
vn -0.888381 0.052835 0.456056
v -0.855439 -0.215397 0.457176
vn -0.965052 -0.032038 0.260092
v -0.906869 0.167314 0.241737
vn 0.452532 -0.610839 0.649685
v 0.556693 -0.500000 0.805890
vn -0.398212 -0.613707 -0.681756
v -0.463054 -0.500000 -0.859546
vn -0.330829 0.060407 0.941755
v -0.326333 -0.172113 0.887062
vn 0.193148 0.626044 -0.755489
v 0.179053 0.500000 -0.963799
vn -0.202383 0.617759 -0.759878
v -0.257298 0.500000 -0.953415
vn -0.679539 0.630343 0.375359
v -0.844195 0.500000 0.494700
vn -0.499487 0.630868 0.593732
v -0.626410 0.500000 0.759380
vn 0.000000 1.000000 0.000000
v -0.478421 0.500000 0.542106
vn 0.296497 -0.750602 -0.590496
v 0.462059 -0.500000 -0.771300
vn -0.388246 -0.627564 0.674855
v -0.500508 -0.500000 0.852245
vn -0.736015 -0.654283 0.173772
v -0.945389 -0.500000 0.228059
vn 0.896640 0.047323 -0.440225
v 0.849584 -0.235092 -0.467499
vn -0.461532 -0.087726 -0.882775
v -0.409185 0.165733 -0.836724
vn 0.000000 1.000000 0.000000
v 0.691638 0.500000 0.031212
vn -0.158585 -0.060294 0.985503
v -0.162324 0.160778 0.930493
vn -0.751782 -0.061784 -0.656511
v -0.727718 0.178807 -0.584436
vn 0.000000 1.000000 0.000000
v -0.456167 0.500000 -0.426970
vn 0.998237 0.054834 -0.022716
v 0.965553 -0.228208 -0.029075
vn -0.638726 0.040244 -0.768382
v -0.590471 -0.164247 -0.710352
vn -0.023146 -0.061181 -0.997858
v -0.017324 0.158017 -0.953557
vn -0.784921 -0.032161 0.618760
v -0.733368 0.156786 0.592262
vn 0.000000 1.000000 0.000000
v -0.119190 0.500000 -0.163833
vn 0.606855 0.017917 -0.794611
v 0.609792 -0.113347 -0.762249
vn -0.890857 0.020135 -0.453838
v -0.885097 -0.139481 -0.386316
vn -0.503731 -0.055038 0.862105
v -0.475695 0.158986 0.817023
vn 0.000000 1.000000 0.000000
v -0.633948 0.500000 0.252269
vn 0.000000 -1.000000 0.000000
v -0.679271 -0.500000 -0.143740
vn 0.000000 -1.000000 0.000000
v 0.508108 -0.500000 -0.350755
vn 0.000000 -1.000000 0.000000
v -0.438685 -0.500000 -0.424843
vn 0.000000 -1.000000 0.000000
v 0.133256 -0.500000 -0.514400
vn 0.595072 0.606793 0.526965
v 0.718718 0.500000 0.657915
vn 0.026662 -0.614310 -0.788615
v -0.004865 -0.500000 -0.982589
vn 0.655905 -0.606441 0.449464
v 0.822284 -0.500000 0.540109
vn -0.256348 0.631448 0.731819
v -0.327689 0.500000 0.929007
vn 0.000000 -1.000000 0.000000
v 0.171992 -0.500000 -0.104535
vn 0.000000 1.000000 0.000000
v -0.162294 0.500000 -0.627336
vn 0.000000 -1.000000 0.000000
v -0.153258 -0.500000 -0.265822
vn 0.000000 1.000000 0.000000
v 0.326390 0.500000 -0.046800
vn 0.000000 -1.000000 0.000000
v 0.185507 -0.500000 0.296696
vn 0.000000 -1.000000 0.000000
v -0.407221 -0.500000 -0.094484
vn 0.000000 1.000000 0.000000
v -0.135346 0.500000 0.592312
vn 0.164972 -0.613677 0.772130
v 0.188577 -0.500000 0.967886
vn 0.000000 -1.000000 0.000000
v 0.551952 -0.500000 0.053744
vn 0.000000 -1.000000 0.000000
v -0.570959 -0.500000 0.208415
vn -0.637736 0.066523 0.767377
v -0.619874 -0.178423 0.719985
vn 0.000000 1.000000 0.000000
v 0.250575 0.500000 -0.447945
vn 0.718945 0.082079 0.690203
v 0.666295 -0.153192 0.632977
vn -0.006383 0.638668 0.769456
v -0.020174 0.500000 0.977691
vn 0.000000 -1.000000 0.000000
v -0.436575 -0.500000 0.482102
vn 0.000000 -1.000000 0.000000
v 0.191961 -0.500000 0.673308
vn 0.000000 1.000000 0.000000
v -0.561188 0.500000 -0.081015
vn 0.961291 0.001997 -0.275530
v 0.901219 0.089455 -0.257291
vn -0.972752 -0.020006 -0.230982
v -0.938562 0.203430 -0.229262
vn 0.718736 -0.678060 -0.153796
v 0.940316 -0.500000 -0.180050
vn 0.579890 -0.069842 0.811696
v 0.521437 0.175969 0.762606
vn 0.875353 -0.053412 0.480526
v 0.811656 0.216824 0.461010
vn 0.000000 1.000000 0.000000
v 0.238833 0.500000 0.622328
vn 0.000000 -1.000000 0.000000
v -0.154002 -0.500000 0.570840
vn 0.216321 -0.070386 0.973782
v 0.173340 0.163559 0.922998
vn 0.265716 -0.029501 -0.963600
v 0.262448 -0.167731 -0.918052
vn 0.524487 0.671952 -0.522872
v 0.704761 0.500000 -0.612505
vn -0.997618 0.049096 0.048457
v -0.955236 -0.155917 0.027295
vn 0.000000 1.000000 0.000000
v 0.482852 0.500000 0.316723
vn 0.000000 -1.000000 0.000000
v -0.194746 -0.500000 0.155750
vn 0.924085 0.098208 0.369353
v 0.874935 -0.158933 0.315028
vn 0.416522 0.077231 0.905839
v 0.361941 -0.165154 0.855324
vn 0.000000 -1.000000 0.000000
v -0.185220 -0.500000 -0.609711
vn 0.475728 0.046079 -0.878385
v 0.419605 0.215954 -0.847842
vn 0.793413 0.035765 -0.607632
v 0.749874 0.159157 -0.548207
vn 0.639953 0.709733 0.294516
v 0.846726 0.500000 0.379765
vn 0.000000 1.000000 0.000000
v 0.582037 0.500000 -0.273259
vn 0.000000 1.000000 0.000000
v -0.307342 0.500000 0.231537
vn 0.000000 1.000000 0.000000
v 0.080467 0.500000 0.257657
vn 0.995921 -0.055178 0.071391
v 0.925413 0.201288 0.009151
# 91 vertices, 0 vertices normals


usemtl material_0
vt 0.235000 0.485981
vt 0.238750 0.486986
vt 0.238618 0.487479
f 22/1/22 53/2/53 21/3/21
vt 0.159471 0.467859
vt 0.148088 0.465338
vt 0.144471 0.463840
f 53/4/53 22/5/22 1/6/1
vt 0.130000 0.042154
vt 0.124510 0.047644
vt 0.128447 0.043346
f 51/7/51 58/8/58 25/9/25
vt 0.031250 0.562500
vt 0.031250 0.546875
vt 0.033854 0.562500
f 10/10/10 49/11/49 19/12/19
vt 0.912761 0.515625
vt 0.914063 0.500000
vt 0.914063 0.515625
f 40/13/40 26/14/26 77/15/77
vt 0.868490 0.546875
vt 0.869792 0.531250
vt 0.869792 0.546875
f 29/16/29 7/17/7 40/18/40
vt 0.665365 0.515625
vt 0.666667 0.500000
vt 0.666667 0.515625
f 50/19/50 4/20/4 82/21/82
vt 0.535156 0.546875
vt 0.536458 0.531250
vt 0.536458 0.546875
f 6/22/6 59/23/59 83/24/83
vt 0.416666 0.593750
vt 0.415364 0.609375
vt 0.414713 0.601562
f 13/25/13 6/26/6 20/27/20
vt 0.154947 0.546875
vt 0.155598 0.539062
vt 0.155598 0.546875
f 15/28/15 41/29/41 3/30/3
vt 0.079427 0.515625
vt 0.080729 0.500000
vt 0.080729 0.515625
f 10/31/10 19/32/19 36/33/36
vt 0.583333 1.000000
vt 0.578125 1.000000
vt 0.582031 0.984375
f 48/34/48 8/35/8 72/36/72
vt 0.302083 0.984375
vt 0.303386 0.984375
vt 0.302083 1.000000
f 17/37/17 23/38/23 9/39/9
vt 0.265625 0.984375
vt 0.266927 0.984375
vt 0.266276 0.992188
f 9/40/9 70/41/70 17/42/17
vt 0.210937 0.781250
vt 0.208333 0.765625
vt 0.209635 0.765625
f 70/43/70 41/44/41 79/45/79
vt 0.126302 0.734375
vt 0.125000 0.718750
vt 0.126302 0.718750
f 36/46/36 30/47/30 10/48/10
vt 0.227500 0.032500
vt 0.227500 0.027010
vt 0.235000 0.025000
f 65/49/65 58/50/58 51/51/51
vt 0.072916 1.000000
vt 0.070312 1.000000
vt 0.071614 0.984375
f 1/52/1 22/53/22 30/54/30
vt 0.036458 1.000000
vt 0.033854 1.000000
vt 0.035156 0.984375
f 30/55/30 22/56/22 37/57/37
vt 0.532667 0.308235
vt 0.522060 0.297628
vt 0.525422 0.310176
f 15/58/15 44/59/44 28/60/28
vt 0.139323 0.703125
vt 0.139974 0.710938
vt 0.139323 0.718750
f 36/61/36 41/62/41 33/63/33
vt 0.223958 0.843750
vt 0.224609 0.835938
vt 0.225260 0.843750
f 33/64/33 41/65/41 70/66/70
vt 0.148437 0.968750
vt 0.150390 0.960938
vt 0.151041 0.968750
f 1/67/1 33/68/33 5/69/5
vt 0.238932 0.945312
vt 0.238932 0.945312
vt 0.238932 0.953125
f 9/70/9 5/71/5 70/72/70
vt 0.277892 0.415762
vt 0.284019 0.420884
vt 0.278143 0.416699
f 39/73/39 55/74/55 63/75/63
vt 0.313802 0.546875
vt 0.313151 0.554688
vt 0.312500 0.546875
f 28/76/28 14/77/14 16/78/16
vt 0.251875 0.207781
vt 0.257500 0.211029
vt 0.254687 0.212653
f 55/79/55 39/80/39 90/81/90
vt 0.364507 0.040153
vt 0.366250 0.041149
vt 0.362698 0.039404
f 48/82/48 74/83/74 8/84/8
vt 0.005208 0.601562
vt 0.007812 0.593750
vt 0.005208 0.609375
f 49/85/49 10/86/10 77/87/77
vt 0.720033 0.461319
vt 0.724625 0.460609
vt 0.724625 0.456727
f 57/88/57 46/89/46 54/90/54
vt 0.158063 0.376692
vt 0.169313 0.383187
vt 0.159067 0.380442
f 39/91/39 53/92/53 34/93/34
vt 0.220937 0.141206
vt 0.223750 0.146077
vt 0.218125 0.142829
f 74/94/74 90/95/90 58/96/58
vt 0.299805 0.652344
vt 0.299642 0.654297
vt 0.298177 0.640625
f 16/97/16 38/98/38 17/99/17
vt 0.127187 0.143511
vt 0.126250 0.143260
vt 0.133750 0.140514
f 89/100/89 25/101/25 58/102/58
vt 0.696637 0.260936
vt 0.699289 0.263588
vt 0.706533 0.261647
f 61/103/61 57/104/57 81/105/81
vt 0.731771 0.718750
vt 0.731608 0.714844
vt 0.731689 0.708984
f 91/106/91 73/107/73 82/108/82
vt 0.291667 0.664062
vt 0.292969 0.671875
vt 0.291667 0.671875
f 17/109/17 79/110/79 16/111/16
vt 0.455078 0.648438
vt 0.454427 0.640625
vt 0.455729 0.640625
f 76/112/76 32/113/32 6/114/6
vt 0.371745 0.648438
vt 0.371094 0.640625
vt 0.371745 0.640625
f 38/115/38 16/116/16 62/117/62
vt 0.558942 0.382722
vt 0.559912 0.384403
vt 0.563274 0.386344
f 44/118/44 3/119/3 46/120/46
vt 0.553385 0.546875
vt 0.555012 0.558594
vt 0.554687 0.562500
f 83/121/83 59/122/59 18/123/18
vt 0.305339 0.554688
vt 0.304037 0.546875
vt 0.304688 0.546875
f 28/124/28 16/125/16 79/126/79
vt 0.016284 0.225559
vt 0.015535 0.227368
vt 0.015663 0.226397
f 43/127/43 68/128/68 9/129/9
vt 0.630208 0.546875
vt 0.628906 0.546875
vt 0.630208 0.531250
f 50/130/50 64/131/64 18/132/18
vt 0.926708 0.266290
vt 0.919819 0.269297
vt 0.910634 0.274601
f 71/133/71 60/134/60 45/135/45
vt 0.410156 0.656250
vt 0.410156 0.671875
vt 0.409505 0.656250
f 20/136/20 32/137/32 42/138/42
vt 0.475260 1.000000
vt 0.473958 1.000000
vt 0.475260 0.984375
f 65/139/65 51/140/51 32/141/32
vt 0.250000 0.921875
vt 0.250651 0.929688
vt 0.250000 0.937500
f 79/142/79 17/143/17 70/144/70
vt 0.280355 0.433826
vt 0.276789 0.429389
vt 0.282916 0.434512
f 53/145/53 39/146/39 63/147/63
vt 0.782035 0.388155
vt 0.784332 0.386344
vt 0.784332 0.385373
f 52/148/52 47/149/47 45/150/45
vt 0.148112 0.710938
vt 0.147786 0.703125
vt 0.148437 0.703125
f 30/151/30 36/152/36 33/153/33
vt 0.249349 0.601562
vt 0.247396 0.593750
vt 0.248698 0.593750
f 79/154/79 15/155/15 28/156/28
vt 0.898225 0.154807
vt 0.903173 0.155162
vt 0.890626 0.151800
f 52/157/52 56/158/56 81/159/81
vt 0.956137 0.147277
vt 0.956977 0.147762
vt 0.956072 0.146679
f 11/160/11 56/161/56 60/162/60
vt 0.962890 0.812500
vt 0.962239 0.812500
vt 0.962239 0.796875
f 85/163/85 77/164/77 37/165/37
vt 0.963541 0.820312
vt 0.963867 0.820312
vt 0.963541 0.828125
f 77/166/77 85/167/85 40/168/40
vt 0.759071 0.410634
vt 0.761368 0.412220
vt 0.761368 0.408337
f 54/169/54 84/170/84 47/171/47
vt 0.580986 0.389846
vt 0.573291 0.384283
vt 0.581957 0.391527
f 46/172/46 57/173/57 44/174/44
vt 0.572916 0.617188
vt 0.572591 0.613281
vt 0.572916 0.609375
f 64/175/64 83/176/83 18/177/18
vt 0.522135 0.500000
vt 0.522135 0.515625
vt 0.520833 0.500000
f 59/178/59 6/179/6 13/180/13
vt 0.438802 0.500000
vt 0.438151 0.507812
vt 0.437499 0.500000
f 27/181/27 13/182/13 20/183/20
vt 0.446614 0.609375
vt 0.447916 0.601562
vt 0.447916 0.609375
f 32/184/32 20/185/20 6/186/6
vt 0.370443 0.929688
vt 0.370768 0.925781
vt 0.371419 0.933594
f 23/187/23 38/188/38 24/189/24
vt 0.019043 0.283750
vt 0.025171 0.288873
vt 0.025673 0.290748
f 34/190/34 5/191/5 68/192/68
vt 0.505208 1.000000
vt 0.503581 0.988281
vt 0.503906 0.984375
f 8/193/8 65/194/65 76/195/76
vt 0.569618 0.114800
vt 0.569618 0.115043
vt 0.570588 0.114575
f 56/196/56 75/197/75 81/198/81
vt 0.044277 0.209846
vt 0.047500 0.207010
vt 0.044219 0.209948
f 43/199/43 25/200/25 89/201/89
vt 0.375000 0.593750
vt 0.375651 0.601562
vt 0.375000 0.609375
f 14/202/14 62/203/62 16/204/16
vt 0.899577 0.884766
vt 0.899821 0.885742
vt 0.899740 0.890625
f 78/205/78 86/206/86 85/207/85
vt 0.749886 0.437290
vt 0.752182 0.436934
vt 0.752182 0.434993
f 54/208/54 46/209/46 84/210/84
vt 0.089030 0.863281
vt 0.088541 0.859375
vt 0.088867 0.859375
f 30/211/30 37/212/37 10/213/10
vt 0.706879 0.360738
vt 0.706394 0.362549
vt 0.709175 0.358441
f 57/214/57 54/215/54 81/216/81
vt 0.930740 0.096338
vt 0.924771 0.086896
vt 0.924474 0.086507
f 11/217/11 50/218/50 18/219/18
vt 0.146484 0.937500
vt 0.147135 0.953125
vt 0.145833 0.937500
f 30/220/30 33/221/33 1/222/1
vt 0.095312 0.142040
vt 0.096250 0.141789
vt 0.094375 0.143664
f 23/223/23 24/224/24 25/225/25
vt 0.543898 0.190893
vt 0.543413 0.194645
vt 0.544383 0.191023
f 61/226/61 28/227/28 44/228/44
vt 0.567677 0.107486
vt 0.567677 0.107971
vt 0.568162 0.107131
f 27/229/27 66/230/66 75/231/75
vt 0.796778 0.113066
vt 0.799429 0.115717
vt 0.798589 0.112581
f 67/232/67 75/233/75 56/234/56
vt 0.581294 0.088326
vt 0.576412 0.094783
vt 0.586568 0.081975
f 27/235/27 14/236/14 66/237/66
vt 0.790365 0.734375
vt 0.789063 0.742188
vt 0.789063 0.734375
f 29/238/29 69/239/69 35/240/35
vt 0.747396 0.750000
vt 0.749023 0.761719
vt 0.748698 0.765625
f 35/241/35 69/242/69 91/243/91
vt 0.393229 0.500000
vt 0.391276 0.507812
f 27/244/27 20/245/20 62/244/62
vt 0.390625 0.500000
f 14/244/14 27/246/27 62/246/62
vt 0.748047 0.546875
vt 0.747396 0.562500
vt 0.747396 0.546875
f 4/247/4 71/248/71 35/249/35
vt 0.156249 0.546875
vt 0.156249 0.531250
f 3/250/3 41/29/41 36/251/36
vt 0.539684 0.350133
vt 0.542221 0.354272
vt 0.540280 0.350910
f 3/252/3 44/253/44 15/254/15
vt 0.724935 0.558594
vt 0.723958 0.562500
vt 0.725586 0.550781
f 35/255/35 82/256/82 4/257/4
vt 0.230469 0.937500
vt 0.229818 0.945312
vt 0.229167 0.937500
f 33/258/33 70/259/70 5/260/5
vt 0.983867 0.234471
vt 0.984122 0.242235
vt 0.984378 0.246118
f 60/261/60 71/262/71 4/263/4
vt 0.516645 0.274507
vt 0.516389 0.271353
vt 0.516645 0.274750
f 57/264/57 61/265/61 44/266/44
vt 0.812500 0.500000
vt 0.808594 0.515625
vt 0.809896 0.500000
f 7/267/7 29/268/29 71/269/71
vt 0.788412 0.570312
vt 0.787761 0.578125
vt 0.786459 0.562500
f 71/270/71 29/271/29 35/272/35
vt 0.555989 0.703125
vt 0.556315 0.707031
vt 0.556152 0.708984
f 76/273/76 83/274/83 72/275/72
vt 0.958858 0.323434
vt 0.956562 0.323789
vt 0.956562 0.324760
f 7/276/7 71/277/71 45/278/45
vt 0.902492 0.432595
vt 0.900970 0.433842
vt 0.901747 0.433247
f 7/279/7 45/280/45 26/281/26
vt 0.565614 0.126345
vt 0.565372 0.126280
vt 0.565250 0.126733
f 61/282/61 81/283/81 66/284/66
vt 0.152031 0.167998
vt 0.152500 0.164558
vt 0.153437 0.167186
f 89/285/89 58/286/58 90/287/90
vt 0.475911 0.992188
f 76/288/76 65/139/65 32/141/32
vt 0.805152 0.298262
vt 0.806389 0.298351
vt 0.806300 0.297114
f 56/289/56 52/290/52 60/291/60
vt 0.748698 0.945312
vt 0.748698 0.953125
vt 0.748047 0.945312
f 73/292/73 91/293/91 2/294/2
vt 0.777443 0.424292
vt 0.779739 0.422966
vt 0.779739 0.421025
f 52/295/52 54/296/54 47/297/47
vt 0.427083 0.992188
vt 0.428385 0.984375
vt 0.427083 1.000000
f 42/298/42 32/299/32 51/300/51
vt 0.409505 0.960938
vt 0.410156 0.960938
vt 0.410156 0.968750
f 24/301/24 42/302/42 51/303/51
vt 0.567798 0.106791
vt 0.567677 0.107001
f 13/304/13 27/305/27 75/231/75
vt 0.371745 0.644531
vt 0.372070 0.644531
f 38/306/38 62/117/62 42/307/42
vt 0.372396 0.640625
f 20/308/20 42/307/42 62/117/62
vt 0.371501 0.932617
vt 0.372396 0.937500
f 38/309/38 42/310/42 24/189/24
vt 0.331054 0.929688
vt 0.331380 0.929688
vt 0.330729 0.937500
f 17/311/17 38/312/38 23/313/23
vt 0.577799 0.765625
vt 0.577799 0.757812
vt 0.578125 0.765625
f 72/314/72 64/315/64 73/316/73
vt 0.599121 0.987305
vt 0.599284 0.990234
vt 0.598958 0.992188
f 72/317/72 73/318/73 48/319/48
vt 0.545898 0.808594
vt 0.545572 0.812500
vt 0.545572 0.796875
f 83/320/83 76/321/76 6/322/6
vt 0.577392 0.926758
vt 0.577474 0.929688
vt 0.576823 0.921875
f 76/323/76 72/324/72 8/325/8
vt 0.272122 0.016001
vt 0.271328 0.016309
vt 0.272119 0.016001
f 65/326/65 8/327/8 74/328/74
vt 0.270165 0.016587
vt 0.271147 0.016293
f 65/329/65 74/328/74 58/330/58
vt 0.006836 0.659912
vt 0.006836 0.660156
vt 0.006673 0.660156
f 10/331/10 37/332/37 77/333/77
vt 0.164387 0.450983
vt 0.164019 0.446865
f 34/334/34 1/335/1 5/335/5
vt 0.164019 0.446865
f 53/334/53 1/335/1 34/336/34
vt 0.478172 0.299081
vt 0.479670 0.295463
vt 0.476920 0.302765
f 12/337/12 31/338/31 2/339/2
vt 0.164225 0.683594
vt 0.164062 0.679688
vt 0.164387 0.679688
f 79/340/79 41/341/41 15/342/15
vt 0.818356 0.045084
vt 0.817871 0.046896
vt 0.823174 0.052199
f 18/343/18 59/344/59 67/345/67
vt 0.737433 0.454335
vt 0.734838 0.454853
vt 0.734324 0.455079
f 84/346/84 19/347/19 49/348/49
vt 0.807626 0.298440
f 52/290/52 45/349/45 60/291/60
vt 0.126893 0.044538
f 24/9/24 51/8/51 25/350/25
vt 0.400000 0.159067
vt 0.400000 0.172058
vt 0.398125 0.155820
f 74/351/74 48/352/48 80/353/80
vt 0.375156 0.109542
vt 0.373750 0.113601
vt 0.374687 0.108730
f 80/354/80 90/355/90 74/356/74
vt 0.709507 0.358773
vt 0.709341 0.358607
vt 0.709099 0.359513
f 52/357/52 81/358/81 54/359/54
vt 0.390156 0.186672
vt 0.388750 0.185048
vt 0.390625 0.185048
f 80/360/80 31/361/31 55/362/55
vt 0.734068 0.455192
f 46/346/46 19/348/19 84/363/84
vt 0.565402 0.125924
vt 0.565190 0.126474
vt 0.565493 0.125827
f 81/364/81 75/365/75 66/366/66
vt 0.972982 0.558594
vt 0.973388 0.562500
vt 0.973307 0.562500
f 77/367/77 26/368/26 49/369/49
vt 0.901002 0.433898
f 26/281/26 45/280/45 47/370/47
vt 0.882589 0.539062
vt 0.884115 0.546875
vt 0.882568 0.539062
f 26/371/26 40/372/40 7/373/7
vt 0.637695 0.550781
vt 0.636719 0.546875
vt 0.637533 0.548828
f 82/374/82 73/375/73 64/376/64
vt 0.731771 0.703125
f 91/106/91 82/108/82 35/377/35
vt 0.636068 0.546875
vt 0.636719 0.539062
f 64/378/64 50/379/50 82/375/82
vt 0.557128 0.689453
vt 0.557291 0.695312
vt 0.557291 0.703125
f 72/380/72 83/381/83 64/382/64
vt 0.784941 0.018178
vt 0.786882 0.017922
vt 0.781058 0.018178
f 67/383/67 59/384/59 13/385/13
vt 0.620900 0.056481
vt 0.621079 0.056305
vt 0.620512 0.056779
f 75/386/75 67/387/67 13/388/13
vt 0.927755 0.091617
vt 0.925069 0.087284
vt 0.927755 0.091617
f 11/389/11 60/390/60 4/391/4
vt 0.924772 0.086896
f 50/391/50 11/392/11 4/218/4
vt 0.823174 0.052199
f 11/393/11 18/343/18 67/345/67
vt 0.803052 0.114747
f 56/394/56 11/233/11 67/233/67
vt 0.544469 0.140302
vt 0.543413 0.144175
f 14/395/14 28/396/28 61/395/61
vt 0.545354 0.140813
f 14/397/14 61/397/61 66/395/66
vt 0.851404 0.440088
vt 0.847261 0.439117
vt 0.848302 0.442999
f 47/398/47 84/399/84 49/400/49
vt 0.748059 0.482078
vt 0.746118 0.482333
vt 0.747574 0.482397
f 47/401/47 49/402/49 26/403/26
vt 0.998861 0.888672
vt 0.998372 0.886719
vt 0.998698 0.886719
f 37/404/37 22/405/22 21/406/21
vt 0.921875 0.964844
vt 0.922201 0.960938
vt 0.921875 0.968750
f 21/407/21 85/408/85 37/409/37
vt 0.792969 0.734375
vt 0.792318 0.726562
vt 0.792318 0.718750
f 29/410/29 86/411/86 69/412/69
vt 0.875000 0.671875
vt 0.875651 0.667969
vt 0.876302 0.671875
f 40/413/40 86/414/86 29/415/29
vt 0.900065 0.886719
f 86/206/86 40/416/40 85/207/85
vt 0.793457 0.773438
vt 0.792562 0.765625
vt 0.792644 0.765625
f 86/417/86 12/418/12 69/419/69
vt 0.451827 0.336214
vt 0.450889 0.337838
vt 0.450957 0.335712
f 78/420/78 88/421/88 12/422/12
vt 0.792521 0.765625
f 86/417/86 78/423/78 12/418/12
vt 0.123047 0.500000
vt 0.123698 0.515625
vt 0.122396 0.500000
f 3/424/3 36/425/36 19/426/19
vt 0.599422 0.414499
vt 0.599292 0.413303
vt 0.598387 0.412220
f 46/427/46 3/428/3 19/429/19
vt 0.392500 0.185048
f 80/360/80 55/362/55 90/430/90
vt 0.299313 0.438035
vt 0.298547 0.437395
vt 0.297279 0.434880
f 31/431/31 88/432/88 55/433/55
vt 0.663409 0.953156
vt 0.662761 0.953125
vt 0.663410 0.953140
f 48/434/48 73/435/73 87/436/87
vt 0.469869 0.166971
vt 0.469809 0.167489
vt 0.469867 0.166971
f 2/437/2 31/438/31 87/439/87
vt 0.237812 0.295466
vt 0.236406 0.295872
vt 0.235703 0.295669
f 68/440/68 43/441/43 89/442/89
vt 0.663412 0.953125
f 87/436/87 73/435/73 2/443/2
vt 0.469750 0.168007
f 80/444/80 87/439/87 31/438/31
vt 0.469865 0.166972
f 87/439/87 80/444/80 48/445/48
vt 0.325000 0.459856
vt 0.322656 0.460044
vt 0.322187 0.459981
f 63/446/63 88/447/88 78/448/78
vt 0.449952 0.339462
f 88/421/88 31/449/31 12/422/12
vt 0.297781 0.436755
f 88/432/88 63/450/63 55/433/55
vt 0.028075 0.174584
vt 0.029144 0.166706
vt 0.028121 0.174471
f 43/451/43 9/452/9 23/453/23
vt 0.036995 0.179254
vt 0.037058 0.179019
vt 0.040538 0.181029
f 43/454/43 23/455/23 25/456/25
vt 0.236758 0.295568
vt 0.235000 0.295466
f 34/440/34 68/457/68 39/458/39
vt 0.288308 0.433564
vt 0.287034 0.432134
vt 0.290097 0.434696
f 90/459/90 39/460/39 89/461/89
f 68/457/68 89/442/89 39/458/39
vt 0.795014 0.906372
vt 0.794968 0.906311
vt 0.795248 0.906250
f 2/462/2 91/463/91 12/464/12
vt 0.794922 0.906250
f 91/463/91 69/465/69 12/464/12
vt 0.031298 0.293995
f 5/466/5 9/466/9 68/192/68
vt 0.242500 0.463875
vt 0.246250 0.463875
vt 0.242500 0.463875
f 21/467/21 53/468/53 63/469/63
f 78/448/78 21/448/21 63/446/63
vt 0.922526 0.953125
f 21/470/21 78/470/78 85/408/85
# 178 faces, 470 coords texture

# End of File
