####
#
# OBJ File Generated by Meshlab
#
####
# Object cylinder_51.obj
#
# Vertices: 51
# Faces: 98
#
####
mtllib ./cylinder_51.obj.mtl

vn -0.345758 0.601303 -0.720338
v -0.412296 0.500000 -0.880221
vn 0.784163 0.605284 0.136819
v 0.974735 0.500000 0.101616
vn -0.579959 -0.660577 -0.476745
v -0.744703 -0.500000 -0.573989
vn 0.777492 -0.594705 0.204527
v 0.960215 -0.500000 0.229403
vn -0.668327 0.625049 -0.403302
v -0.869756 0.500000 -0.453062
vn 0.631763 -0.596206 -0.495394
v 0.788504 -0.500000 -0.586830
vn 0.244986 0.566595 0.786735
v 0.307638 0.500000 0.934742
vn -0.781505 0.620080 0.068933
v -0.982920 0.500000 0.080703
vn -0.202478 0.016238 -0.979152
v -0.157300 -0.011582 -0.884722
vn 0.000000 -1.000000 0.000000
v 0.550835 -0.500000 0.139822
vn 0.743479 0.598299 -0.298792
v 0.943840 0.500000 -0.291105
vn -0.281142 -0.588814 0.757798
v -0.335435 -0.500000 0.909306
vn -0.612696 -0.591088 0.524613
v -0.763195 -0.500000 0.624473
vn -0.763376 -0.624529 -0.164986
v -0.969110 -0.500000 -0.204305
vn -0.396188 -0.598715 -0.696114
v -0.463054 -0.500000 -0.859546
vn -0.232803 0.006089 0.972505
v -0.230072 -0.013982 0.846202
vn 0.147994 0.614389 -0.774999
v 0.179053 0.500000 -0.963799
vn -0.682061 0.633377 0.365549
v -0.844195 0.500000 0.494700
vn -0.457847 0.609938 0.646801
v -0.626410 0.500000 0.759380
vn 0.000000 1.000000 0.000000
v -0.590579 0.500000 0.044455
vn 0.311046 -0.736187 -0.601065
v 0.462059 -0.500000 -0.771300
vn -0.758081 -0.620272 0.201435
v -0.945389 -0.500000 0.228059
vn 0.000000 1.000000 0.000000
v -0.383181 0.500000 -0.348421
vn 0.999664 -0.012642 -0.022633
v 0.910344 0.001544 -0.030704
vn -0.635360 0.002605 -0.772211
v -0.596231 0.004034 -0.664909
vn -0.937015 -0.012075 -0.349081
v -0.911829 0.031975 -0.307789
vn 0.000000 -1.000000 0.000000
v 0.478287 -0.500000 -0.330873
vn 0.603705 0.578033 0.549016
v 0.718718 0.500000 0.657915
vn 0.021745 -0.600971 -0.798975
v -0.004865 -0.500000 -0.982589
vn 0.560388 -0.595087 0.576053
v 0.689489 -0.500000 0.673000
vn 0.000000 1.000000 0.000000
v -0.108530 0.500000 0.026549
vn 0.000000 -1.000000 0.000000
v 0.091664 -0.500000 -0.041701
vn 0.000000 1.000000 0.000000
v -0.365094 0.500000 0.463980
vn 0.158203 -0.573727 0.803623
v 0.188577 -0.500000 0.967886
vn 0.000000 -1.000000 0.000000
v -0.680491 -0.500000 0.011901
vn -0.127529 0.587690 0.798972
v -0.173931 0.500000 0.953349
vn 0.000000 -1.000000 0.000000
v 0.145066 -0.500000 0.488827
vn 0.849085 0.029296 -0.527443
v 0.779716 -0.013405 -0.454290
vn 0.755329 -0.634187 -0.165182
v 0.940316 -0.500000 -0.180050
vn 0.000000 1.000000 0.000000
v 0.143469 0.500000 0.502385
vn 0.000000 -1.000000 0.000000
v -0.314708 -0.500000 0.284309
vn 0.000000 1.000000 0.000000
v 0.472868 0.500000 -0.025893
vn 0.000000 -1.000000 0.000000
v -0.345825 -0.500000 -0.287354
vn 0.852458 0.007961 0.522736
v 0.783123 0.009469 0.420490
vn 0.491692 0.679586 -0.544429
v 0.573334 0.500000 -0.700329
vn 0.363082 -0.018859 0.931566
v 0.313554 0.033910 0.824314
vn 0.000000 -1.000000 0.000000
v 0.036373 -0.500000 -0.545503
vn 0.000000 1.000000 0.000000
v 0.055179 0.500000 -0.481657
vn 0.423508 0.001606 -0.905891
v 0.379431 -0.092147 -0.865624
vn -0.979346 -0.011142 0.201886
v -0.904166 -0.016953 0.148244
vn -0.750315 0.037096 0.660039
v -0.720484 -0.131325 0.584966
# 51 vertices, 0 vertices normals


usemtl material_0
vt 0.130000 0.042154
vt 0.124510 0.047644
vt 0.128447 0.043346
f 18/1/18 33/2/33 20/3/20
vt 0.031250 0.562500
vt 0.031250 0.546875
vt 0.033854 0.562500
f 9/4/9 29/5/29 15/6/15
vt 0.665365 0.515625
vt 0.666667 0.500000
vt 0.666667 0.515625
f 30/7/30 4/8/4 44/9/44
vt 0.535156 0.546875
vt 0.536458 0.531250
vt 0.536458 0.546875
f 16/10/16 34/11/34 46/12/46
vt 0.154947 0.546875
vt 0.155598 0.539062
vt 0.155598 0.546875
f 14/13/14 26/14/26 3/15/3
vt 0.079427 0.515625
vt 0.080729 0.500000
vt 0.080729 0.515625
f 9/16/9 15/17/15 25/18/25
vt 0.583333 1.000000
vt 0.578125 1.000000
vt 0.582031 0.984375
f 28/19/28 7/20/7 46/21/46
vt 0.266276 0.992188
vt 0.265951 0.988281
vt 0.266602 0.988281
f 22/22/22 50/23/50 14/24/14
vt 0.148437 0.968750
vt 0.150390 0.960938
vt 0.151041 0.968750
f 1/25/1 25/26/25 5/27/5
vt 0.238932 0.945312
vt 0.238932 0.945312
vt 0.238932 0.953125
f 8/28/8 5/29/5 26/30/26
vt 0.364507 0.040153
vt 0.366250 0.041149
vt 0.362698 0.039404
f 28/31/28 40/32/40 7/33/7
vt 0.005208 0.601562
vt 0.007812 0.593750
vt 0.005208 0.609375
f 29/34/29 9/35/9 49/36/49
vt 0.220937 0.141206
vt 0.223750 0.146077
vt 0.218125 0.142829
f 40/37/40 31/38/31 33/39/33
vt 0.926708 0.266290
vt 0.919819 0.269297
vt 0.910634 0.274601
f 39/40/39 10/41/10 27/42/27
vt 0.522135 0.500000
vt 0.522135 0.515625
vt 0.520833 0.500000
f 34/43/34 16/44/16 12/45/12
vt 0.370443 0.929688
vt 0.370768 0.925781
vt 0.371419 0.933594
f 18/46/18 51/47/51 19/48/19
vt 0.569618 0.114800
vt 0.569618 0.115043
vt 0.570588 0.114575
f 32/49/32 41/50/41 43/51/43
vt 0.146484 0.937500
vt 0.147135 0.953125
vt 0.145833 0.937500
f 9/52/9 25/53/25 1/54/1
vt 0.095312 0.142040
vt 0.096250 0.141789
vt 0.094375 0.143664
f 18/55/18 19/56/19 33/57/33
vt 0.796778 0.113066
vt 0.799429 0.115717
vt 0.798589 0.112581
f 37/58/37 41/59/41 32/60/32
vt 0.393229 0.500000
vt 0.391276 0.507812
f 12/61/12 16/62/16 51/61/51
vt 0.390625 0.500000
f 13/61/13 12/63/12 51/63/51
vt 0.748047 0.546875
vt 0.747396 0.562500
vt 0.747396 0.546875
f 4/64/4 39/65/39 24/66/24
vt 0.156249 0.546875
vt 0.156249 0.531250
f 3/67/3 26/14/26 25/68/25
vt 0.539684 0.350133
vt 0.542221 0.354272
vt 0.540280 0.350910
f 3/69/3 43/70/43 35/71/35
vt 0.724935 0.558594
vt 0.723958 0.562500
vt 0.725586 0.550781
f 24/72/24 44/73/44 4/74/4
vt 0.230469 0.937500
vt 0.229818 0.945312
vt 0.229167 0.937500
f 25/75/25 26/76/26 5/77/5
vt 0.983867 0.234471
vt 0.984122 0.242235
vt 0.984378 0.246118
f 10/78/10 39/79/39 4/80/4
vt 0.812500 0.500000
vt 0.808594 0.515625
f 39/81/39 38/82/38 24/81/24
vt 0.958858 0.323434
vt 0.956562 0.323789
vt 0.956562 0.324760
f 6/83/6 39/84/39 27/85/27
vt 0.902492 0.432595
vt 0.900970 0.433842
vt 0.901747 0.433247
f 6/86/6 27/87/27 21/88/21
vt 0.565614 0.126345
vt 0.565372 0.126280
vt 0.565250 0.126733
f 35/89/35 43/90/43 41/91/41
vt 0.475911 0.992188
vt 0.475260 1.000000
vt 0.475260 0.992188
f 46/92/46 7/93/7 36/94/36
vt 0.748698 0.945312
vt 0.748698 0.953125
vt 0.748047 0.945312
f 44/95/44 24/96/24 2/97/2
vt 0.777443 0.424292
vt 0.779739 0.422966
vt 0.779739 0.421995
f 32/98/32 43/99/43 47/100/47
vt 0.427083 0.992188
vt 0.428385 0.984375
vt 0.427083 1.000000
f 16/101/16 46/102/46 36/103/36
vt 0.409505 0.960938
vt 0.410156 0.960938
vt 0.410156 0.968750
f 19/104/19 16/105/16 36/106/36
vt 0.371501 0.932617
vt 0.372396 0.937500
f 51/107/51 16/108/16 19/48/19
vt 0.331054 0.929688
vt 0.331217 0.929688
vt 0.330892 0.933594
f 22/109/22 51/110/51 50/111/50
vt 0.599121 0.987305
vt 0.599284 0.990234
vt 0.598958 0.992188
f 46/112/46 44/113/44 28/114/28
vt 0.272122 0.016001
vt 0.271328 0.016309
vt 0.272119 0.016001
f 36/115/36 7/116/7 40/117/40
vt 0.270165 0.016587
vt 0.271147 0.016293
f 36/118/36 40/117/40 33/119/33
vt 0.478172 0.299081
vt 0.479670 0.295463
vt 0.476920 0.302765
f 11/120/11 42/121/42 2/122/2
vt 0.818356 0.045084
vt 0.817871 0.046896
vt 0.823174 0.052199
f 30/123/30 34/124/34 37/125/37
vt 0.806389 0.298351
vt 0.807626 0.298440
vt 0.806300 0.297114
f 32/126/32 27/127/27 10/128/10
vt 0.126893 0.044538
f 19/3/19 36/2/36 33/129/33
vt 0.400000 0.159067
vt 0.400000 0.172058
vt 0.398125 0.155820
f 40/130/40 28/131/28 42/132/42
vt 0.375156 0.109542
vt 0.373750 0.113601
vt 0.374687 0.108730
f 42/133/42 31/134/31 40/135/40
vt 0.972982 0.558594
vt 0.973388 0.562500
vt 0.973307 0.562500
f 49/136/49 21/137/21 29/138/29
vt 0.900986 0.433870
f 47/88/47 27/87/27 32/139/32
vt 0.636068 0.546875
vt 0.636719 0.539062
vt 0.636719 0.546875
f 46/140/46 30/141/30 44/142/44
vt 0.784941 0.018178
vt 0.786882 0.017922
vt 0.781058 0.018178
f 37/143/37 34/144/34 12/145/12
vt 0.620900 0.056481
vt 0.621079 0.056305
vt 0.620512 0.056779
f 41/146/41 37/147/37 12/148/12
vt 0.927755 0.091617
vt 0.924772 0.086896
vt 0.924771 0.086896
f 30/149/30 10/150/10 4/151/4
vt 0.823174 0.052199
f 10/152/10 30/123/30 37/125/37
vt 0.803052 0.114747
f 32/153/32 10/59/10 37/59/37
vt 0.544469 0.140302
vt 0.543413 0.144175
f 13/154/13 22/155/22 35/154/35
vt 0.748059 0.482078
vt 0.746118 0.482333
vt 0.747574 0.482397
f 47/156/47 29/157/29 21/158/21
vt 0.998861 0.888672
vt 0.998372 0.886719
vt 0.998698 0.886719
f 9/159/9 1/160/1 17/161/17
vt 0.921875 0.964844
vt 0.922201 0.960938
vt 0.921875 0.968750
f 17/162/17 49/163/49 9/164/9
vt 0.451827 0.336214
vt 0.450889 0.337838
vt 0.450957 0.335712
f 45/165/45 42/166/42 11/167/11
vt 0.793457 0.773438
vt 0.792521 0.765625
vt 0.792562 0.765625
f 38/168/38 45/169/45 11/170/11
vt 0.123047 0.500000
vt 0.123698 0.515625
vt 0.122396 0.500000
f 3/171/3 25/172/25 15/173/15
vt 0.599422 0.414499
vt 0.599292 0.413303
vt 0.598839 0.412762
f 15/174/15 43/175/43 3/176/3
vt 0.663409 0.953156
vt 0.662761 0.953125
vt 0.663410 0.953140
f 28/177/28 44/178/44 2/179/2
vt 0.469867 0.166971
vt 0.469750 0.168007
vt 0.469865 0.166972
f 2/180/2 42/181/42 28/182/28
vt 0.028075 0.174584
vt 0.029144 0.166706
vt 0.028121 0.174471
f 20/183/20 8/184/8 18/185/18
vt 0.288308 0.433564
vt 0.287671 0.432849
vt 0.290097 0.434696
f 33/186/33 31/187/31 20/188/20
vt 0.236758 0.295568
vt 0.235703 0.295669
vt 0.235000 0.295466
f 23/189/23 20/190/20 31/191/31
vt 0.795014 0.906372
vt 0.794968 0.906311
vt 0.795248 0.906250
f 2/192/2 24/193/24 11/194/11
vt 0.794922 0.906250
f 24/193/24 38/195/38 11/194/11
vt 0.031298 0.293995
vt 0.028486 0.292371
f 23/196/23 5/196/5 20/197/20
vt 0.901002 0.433898
f 21/88/21 27/139/27 47/198/47
vt 0.545354 0.140813
f 12/199/12 13/199/13 41/154/41
f 13/199/13 35/199/35 41/154/41
vt 0.530870 0.308716
vt 0.522060 0.297628
vt 0.530856 0.308720
f 14/200/14 3/201/3 35/202/35
vt 0.528990 0.309115
vt 0.529045 0.309205
f 22/202/22 14/203/14 35/204/35
vt 0.922526 0.953125
vt 0.922364 0.957031
f 17/205/17 45/205/45 49/206/49
vt 0.322187 0.459981
vt 0.323594 0.459918
f 45/207/45 17/207/17 48/208/48
vt 0.554199 0.552734
vt 0.555012 0.558594
vt 0.554687 0.562500
f 46/209/46 34/210/34 30/211/30
vt 0.598387 0.412220
f 47/174/47 43/176/43 15/212/15
vt 0.735487 0.454723
vt 0.734838 0.454853
vt 0.734324 0.455079
f 47/213/47 15/214/15 29/215/29
vt 0.164203 0.448924
vt 0.164019 0.446865
vt 0.164019 0.446865
f 23/216/23 1/217/1 5/218/5
f 5/196/5 8/196/8 20/197/20
vt 0.158063 0.376692
vt 0.164190 0.381815
vt 0.159067 0.380442
f 31/219/31 48/220/48 23/221/23
vt 0.164295 0.449954
vt 0.164203 0.448924
f 48/222/48 17/223/17 1/216/1
vt 0.298164 0.437075
vt 0.297781 0.436755
vt 0.297279 0.434880
f 42/224/42 48/225/48 31/226/31
vt 0.164111 0.447895
f 48/227/48 1/217/1 23/216/23
vt 0.322656 0.460044
f 48/208/48 42/228/42 45/207/45
f 39/81/39 6/82/6 38/81/38
vt 0.868490 0.546875
vt 0.869792 0.531250
vt 0.869141 0.546875
f 38/229/38 6/230/6 49/231/49
vt 0.302083 1.000000
vt 0.302735 0.984375
vt 0.303386 0.984375
f 8/232/8 50/233/50 18/234/18
vt 0.265625 0.984375
vt 0.266927 0.984375
f 8/235/8 26/236/26 50/23/50
f 14/24/14 50/23/50 26/236/26
vt 0.375000 0.593750
vt 0.375326 0.605469
vt 0.375000 0.609375
f 13/237/13 51/238/51 22/239/22
vt 0.899577 0.884766
vt 0.899821 0.885742
vt 0.899658 0.887695
f 45/240/45 38/241/38 49/242/49
vt 0.330729 0.937500
vt 0.331380 0.929688
f 18/243/18 50/111/50 51/244/51
vt 0.882589 0.539062
vt 0.883342 0.542969
vt 0.882568 0.539062
f 21/245/21 49/246/49 6/247/6
# 98 faces, 247 coords texture

# End of File
