####
#
# OBJ File Generated by Meshlab
#
####
# Object cylinder_186.obj
#
# Vertices: 186
# Faces: 368
#
####
mtllib ./cylinder_186.obj.mtl

vn -0.432669 0.657282 -0.617072
v -0.567295 0.500000 -0.807028
vn 0.549574 0.012810 -0.835347
v 0.550035 0.052296 -0.808403
vn 0.325851 -0.674760 0.662209
v 0.446819 -0.500000 0.876226
vn 0.733674 0.652285 0.190385
v 0.959460 0.500000 0.228565
vn -0.611060 -0.670938 -0.420057
v -0.795079 -0.500000 -0.570302
vn 0.736240 -0.654224 0.173038
v 0.960215 -0.500000 0.229403
vn 0.025043 0.655569 -0.754720
v 0.036396 0.500000 -0.993079
vn 0.636750 0.653907 -0.408602
v 0.845279 0.500000 -0.517499
vn 0.750905 0.660344 -0.009312
v 0.990010 0.500000 -0.025333
vn -0.621497 0.647042 -0.441676
v -0.816363 0.500000 -0.564721
vn -0.183794 0.039477 0.982172
v -0.184878 -0.247797 0.959815
vn 0.000000 1.000000 0.000000
v -0.493340 0.500000 0.146681
vn -0.702957 0.666169 -0.249139
v -0.923148 0.500000 -0.341403
vn 0.000000 1.000000 0.000000
v -0.742770 0.500000 -0.245925
vn 0.000000 1.000000 0.000000
v -0.255091 0.500000 0.260298
vn 0.663900 -0.671981 -0.328144
v 0.853536 -0.500000 -0.493081
vn 0.540184 -0.662357 -0.519119
v 0.723471 -0.500000 -0.680578
vn 0.899263 -0.038817 -0.435682
v 0.884238 0.268761 -0.413101
vn 0.943027 -0.004606 -0.332683
v 0.914114 -0.224008 -0.345243
vn 0.727364 -0.681359 -0.081809
v 0.969242 -0.500000 -0.075707
vn 0.916966 -0.043151 0.396625
v 0.887560 0.259125 0.381027
vn 0.463698 0.656136 -0.595374
v 0.607096 0.500000 -0.778525
vn 0.238097 0.653443 0.718555
v 0.307638 0.500000 0.934742
vn -0.761233 0.647685 -0.032067
v -0.993511 0.500000 -0.023506
vn -0.233107 -0.647939 -0.725146
v -0.317562 -0.500000 -0.937023
vn -0.146745 0.056212 -0.987576
v -0.175374 -0.283197 -0.952519
vn 0.000000 -1.000000 0.000000
v 0.479866 -0.500000 0.459407
vn 0.000000 -1.000000 0.000000
v -0.024261 -0.500000 -0.790643
vn 0.709950 0.669578 -0.218257
v 0.943840 0.500000 -0.291105
vn 0.000000 1.000000 0.000000
v 0.700697 0.500000 0.314324
vn -0.028889 -0.670722 0.741146
v -0.046696 -0.500000 0.984818
vn -0.584491 -0.658009 0.474757
v -0.763195 -0.500000 0.624473
vn -0.737911 -0.650168 -0.181024
v -0.969110 -0.500000 -0.204305
vn 0.148124 -0.044448 -0.987969
v 0.166104 -0.005161 -0.954277
vn 0.925562 0.037089 0.376774
v 0.897693 -0.251511 0.371466
vn -0.878244 0.032920 0.477079
v -0.855290 -0.255503 0.463026
vn -0.954950 0.013352 0.296468
v -0.926409 -0.017455 0.283625
vn 0.000000 1.000000 0.000000
v -0.352157 0.500000 0.677123
vn 0.535944 -0.021407 -0.843982
v 0.512456 0.288031 -0.825438
vn 0.532608 -0.019762 0.846131
v 0.510875 0.236983 0.815821
vn -0.738872 0.650100 0.177310
v -0.972328 0.500000 0.184912
vn 0.000000 1.000000 0.000000
v -0.707811 0.500000 0.260636
vn 0.505130 -0.658184 0.558246
v 0.666566 -0.500000 0.735553
vn -0.471717 -0.652873 -0.592655
v -0.608546 -0.500000 -0.782070
vn 0.352049 0.004002 -0.935973
v 0.378924 -0.315262 -0.893584
vn -0.456435 0.044107 0.888663
v -0.432750 -0.247007 0.875522
vn 0.000000 1.000000 0.000000
v -0.271113 0.500000 0.008746
vn 0.256085 0.664102 -0.702416
v 0.321709 0.500000 -0.934520
vn -0.209525 0.661232 -0.720327
v -0.257298 0.500000 -0.953415
vn -0.644123 0.661117 0.384746
v -0.844195 0.500000 0.494700
vn -0.486928 0.653530 0.579483
v -0.626410 0.500000 0.759380
vn 0.641763 0.644505 0.415636
v 0.826643 0.500000 0.542220
vn 0.000000 1.000000 0.000000
v -0.495685 0.500000 0.444113
vn 0.369982 -0.679863 -0.633166
v 0.548703 -0.500000 -0.812561
vn -0.402292 -0.663289 0.631038
v -0.500508 -0.500000 0.852245
vn -0.733311 -0.675117 0.080444
v -0.975886 -0.500000 0.100586
vn -0.218941 -0.659453 0.719156
v -0.294028 -0.500000 0.947914
vn 0.000000 -1.000000 0.000000
v 0.235508 -0.500000 -0.686229
vn 0.000000 -1.000000 0.000000
v 0.724536 -0.500000 0.070155
vn 0.000000 -1.000000 0.000000
v -0.625178 -0.500000 0.422830
vn 0.806112 0.022851 -0.591321
v 0.785055 -0.246177 -0.589754
vn 0.561851 0.036540 0.826431
v 0.553749 -0.252696 0.806413
vn -0.493969 -0.026748 0.869068
v -0.471939 0.251513 0.848691
vn 0.000000 -1.000000 0.000000
v -0.683799 -0.500000 -0.257691
vn 0.350671 -0.022305 -0.936233
v 0.341752 0.162413 -0.913181
vn 0.999169 -0.036919 -0.017276
v 0.973304 0.182083 -0.040515
vn -0.449491 -0.020207 -0.893056
v -0.432411 0.278260 -0.873951
vn 0.000000 1.000000 0.000000
v 0.531081 0.500000 0.486538
vn 0.000000 1.000000 0.000000
v 0.448407 0.500000 -0.049052
vn 0.000000 -1.000000 0.000000
v 0.325703 -0.500000 0.716133
vn 0.000000 -1.000000 0.000000
v 0.187531 -0.500000 -0.442377
vn 0.349068 -0.020829 -0.936866
v 0.364064 -0.097683 -0.898119
vn 0.997122 0.006649 -0.075526
v 0.970407 -0.089633 -0.086740
vn -0.342051 0.013528 0.939584
v -0.324713 0.002815 0.914890
vn -0.999498 0.013214 -0.028786
v -0.971052 -0.058772 -0.036338
vn -0.781533 0.001493 -0.623862
v -0.763250 0.014092 -0.605260
vn -0.437987 0.048287 -0.897683
v -0.431547 -0.325556 -0.876515
vn 0.000000 1.000000 0.000000
v -0.491656 0.500000 -0.450673
vn 0.096316 -0.009078 0.995309
v 0.093167 0.238758 0.963856
vn 0.995664 0.023388 0.090033
v 0.970922 -0.274457 0.083296
vn -0.660647 0.026300 -0.750236
v -0.637892 -0.231717 -0.736377
vn -0.168778 -0.045266 -0.984614
v -0.161815 0.258464 -0.962426
vn 0.000000 -1.000000 0.000000
v -0.076473 -0.500000 0.306302
vn -0.958769 0.023289 -0.283230
v -0.939062 -0.272969 -0.257137
vn -0.817949 0.013065 0.575142
v -0.789953 -0.003373 0.556931
vn -0.911550 -0.026448 0.410339
v -0.884518 0.242987 0.387615
vn -0.692418 -0.028135 -0.720948
v -0.674906 0.266874 -0.700362
vn 0.000000 1.000000 0.000000
v -0.234828 0.500000 -0.483030
vn -0.366451 0.002805 -0.930433
v -0.376948 -0.123609 -0.897009
vn 0.753416 -0.034964 0.656614
v 0.731176 0.246851 0.633038
vn 0.578814 0.011882 -0.815373
v 0.590695 -0.234184 -0.780444
vn 0.737446 -0.005535 -0.675384
v 0.716714 0.226961 -0.656938
vn 0.986028 -0.019483 -0.165437
v 0.959835 -0.318403 -0.144070
vn 0.202287 0.021115 0.979098
v 0.196927 -0.013912 0.954890
vn -0.935587 0.002407 -0.353088
v -0.909933 -0.011539 -0.351216
vn -0.860527 -0.000876 -0.509404
v -0.839348 -0.249768 -0.493954
vn 0.722921 0.015839 -0.690749
v 0.707745 -0.037316 -0.679702
vn 0.000000 1.000000 0.000000
v 0.259884 0.500000 0.397973
vn 0.000000 1.000000 0.000000
v 0.183058 0.500000 -0.489467
vn 0.000000 1.000000 0.000000
v -0.044593 0.500000 -0.097799
vn 0.000000 1.000000 0.000000
v 0.711848 0.500000 0.086491
vn 0.000000 -1.000000 0.000000
v 0.695324 -0.500000 0.294467
vn 0.000000 -1.000000 0.000000
v -0.396457 -0.500000 -0.327675
vn 0.000000 1.000000 0.000000
v -0.262082 0.500000 -0.252774
vn 0.866790 0.017026 -0.498383
v 0.837279 0.011159 -0.501138
vn 0.863744 0.016798 0.503651
v 0.828311 0.001442 0.501236
vn -0.063862 0.014383 0.997855
v -0.058112 -0.002002 0.968675
vn -0.606876 0.013002 0.794690
v -0.578473 0.001910 0.775441
vn 0.000000 1.000000 0.000000
v -0.734514 0.500000 0.032525
vn 0.000000 -1.000000 0.000000
v -0.750978 -0.500000 -0.053955
vn 0.000000 -1.000000 0.000000
v 0.423146 -0.500000 -0.255957
vn 0.000000 1.000000 0.000000
v -0.003391 0.500000 0.328888
vn 0.000000 -1.000000 0.000000
v -0.294030 -0.500000 -0.613918
vn 0.000000 -1.000000 0.000000
v 0.705783 -0.500000 -0.164434
vn 0.000000 -1.000000 0.000000
v 0.680392 -0.500000 -0.404413
vn 0.000000 1.000000 0.000000
v -0.077948 0.500000 0.121797
vn 0.000000 -1.000000 0.000000
v -0.610176 -0.500000 -0.490027
vn 0.778972 0.042087 0.625645
v 0.750612 -0.251427 0.625977
vn 0.000000 -1.000000 0.000000
v 0.035153 -0.500000 0.751245
vn 0.000000 -1.000000 0.000000
v -0.442576 -0.500000 0.598874
vn 0.000000 -1.000000 0.000000
v 0.466180 -0.500000 -0.547278
vn 0.463966 0.648021 0.603991
v 0.610793 0.500000 0.773609
vn 0.015637 -0.644215 -0.764684
v -0.004865 -0.500000 -0.982589
vn 0.071392 0.028490 0.997041
v 0.070885 -0.251489 0.972457
vn -0.998918 0.031098 -0.034591
v -0.977094 -0.319717 -0.042178
vn -0.878014 -0.031941 -0.477568
v -0.853588 0.252221 -0.466221
vn -0.568595 -0.002961 -0.822612
v -0.546314 0.049484 -0.804841
vn 0.635226 -0.668488 0.386797
v 0.822284 -0.500000 0.540109
vn 0.974341 -0.043633 -0.220809
v 0.956791 0.304387 -0.211181
vn -0.250867 0.657327 0.710624
v -0.327689 0.500000 0.929007
vn 0.000000 -1.000000 0.000000
v 0.295210 -0.500000 -0.001280
vn 0.000000 -1.000000 0.000000
v 0.102540 -0.500000 -0.194345
vn 0.000000 1.000000 0.000000
v 0.395519 0.500000 -0.621394
vn 0.000000 1.000000 0.000000
v -0.064732 0.500000 -0.671503
vn 0.000000 -1.000000 0.000000
v -0.099806 -0.500000 -0.383670
vn 0.000000 1.000000 0.000000
v 0.179491 0.500000 0.104273
vn 0.000000 -1.000000 0.000000
v 0.008432 -0.500000 0.056086
vn 0.000000 -1.000000 0.000000
v 0.222163 -0.500000 0.249989
vn 0.000000 -1.000000 0.000000
v 0.490442 -0.500000 0.172893
vn 0.000000 -1.000000 0.000000
v -0.492635 -0.500000 -0.081726
vn 0.000000 1.000000 0.000000
v 0.653417 0.500000 -0.452783
vn 0.000000 -1.000000 0.000000
v -0.195848 -0.500000 -0.136703
vn 0.000000 1.000000 0.000000
v -0.193378 0.500000 0.505847
vn 0.000000 1.000000 0.000000
v 0.472625 0.500000 0.224602
vn 0.000000 1.000000 0.000000
v 0.696748 0.500000 -0.177019
vn 0.149002 -0.667562 0.729493
v 0.188577 -0.500000 0.967886
vn 0.000000 1.000000 0.000000
v -0.322720 0.500000 -0.673214
vn -0.693361 -0.667549 0.271347
v -0.914893 -0.500000 0.355532
vn 0.000000 -1.000000 0.000000
v 0.527432 -0.500000 -0.035790
vn 0.000000 -1.000000 0.000000
v -0.632448 -0.500000 0.173896
vn -0.190317 -0.019244 0.981534
v -0.189852 0.249829 0.953718
vn -0.691835 0.034892 0.721213
v -0.668477 -0.249751 0.708474
vn 0.000000 1.000000 0.000000
v 0.174915 0.500000 -0.741911
vn -0.311992 -0.022245 -0.949824
v -0.326237 0.084738 -0.918438
vn 0.000000 -1.000000 0.000000
v 0.000566 -0.500000 -0.583889
vn 0.670439 0.028331 0.741424
v 0.645280 -0.005258 0.722553
vn -0.009501 0.669370 0.742869
v -0.020174 0.500000 0.977691
vn 0.185233 -0.678034 -0.711308
v 0.235968 -0.500000 -0.938628
vn 0.000000 1.000000 0.000000
v -0.037050 0.500000 -0.366449
vn -0.746129 -0.026310 0.665281
v -0.716130 0.247703 0.651062
vn 0.000000 1.000000 0.000000
v 0.194335 0.500000 -0.204635
vn 0.000000 -1.000000 0.000000
v -0.371913 -0.500000 0.361090
vn 0.000000 -1.000000 0.000000
v 0.137678 -0.500000 0.505857
vn 0.000000 1.000000 0.000000
v -0.498700 0.500000 -0.127045
vn 0.000000 1.000000 0.000000
v 0.429518 0.500000 -0.332054
vn 0.961024 -0.009992 -0.276283
v 0.931691 0.075150 -0.269368
vn -0.640596 -0.709512 -0.293650
v -0.882094 -0.500000 -0.387304
vn -0.980818 -0.028779 -0.192791
v -0.955538 0.237252 -0.188551
vn 0.660747 -0.728783 -0.179688
v 0.911389 -0.500000 -0.284394
vn 0.449925 0.030026 0.892561
v 0.429899 -0.015000 0.871897
vn 0.000000 -1.000000 0.000000
v -0.293926 -0.500000 0.113096
vn 0.974784 0.003090 0.223130
v 0.942461 0.016250 0.197218
vn 0.099423 -0.047084 -0.993931
v 0.105701 0.229159 -0.972410
vn 0.981539 -0.053929 0.183504
v 0.957113 0.290998 0.149816
vn 0.000000 1.000000 0.000000
v 0.313747 0.500000 0.659155
vn 0.000000 -1.000000 0.000000
v -0.234704 -0.500000 0.781092
vn 0.000000 1.000000 0.000000
v 0.061719 0.500000 0.571501
vn -0.991478 -0.046346 0.121752
v -0.963182 0.234743 0.102088
vn 0.000000 -1.000000 0.000000
v -0.159031 -0.500000 0.550919
vn -0.977611 0.032819 0.207844
v -0.955214 -0.273761 0.192523
vn 0.327003 0.021314 0.944783
v 0.318658 -0.254007 0.922496
vn 0.334447 0.000113 0.942414
v 0.308745 0.190189 0.911171
vn 0.126463 0.019854 -0.991773
v 0.131454 -0.252626 -0.947430
vn 0.000000 1.000000 0.000000
v -0.119846 0.500000 0.741841
vn 0.000000 1.000000 0.000000
v 0.109108 0.500000 0.779006
vn -0.069377 -0.027411 -0.997214
v -0.066628 -0.053529 -0.955783
# 186 vertices, 0 vertices normals


usemtl material_0
vt 0.235000 0.485981
vt 0.238750 0.486986
vt 0.238618 0.487479
f 49/1/49 134/2/134 7/3/7
vt 0.159471 0.467859
vt 0.148088 0.465338
vt 0.144471 0.463840
f 147/4/147 49/5/49 1/6/1
vt 0.130000 0.042154
vt 0.124510 0.047644
vt 0.123787 0.046921
f 130/7/130 38/8/38 51/9/51
vt 0.445204 0.115190
vt 0.448311 0.117573
vt 0.453078 0.123787
f 30/10/30 68/11/68 52/12/52
vt 0.541471 0.147537
vt 0.543413 0.144175
vt 0.544469 0.140302
f 32/13/32 148/14/148 60/15/60
vt 0.635417 0.546875
vt 0.636719 0.539062
vt 0.636719 0.546875
f 118/16/118 128/17/128 35/18/35
vt 0.468750 0.546875
vt 0.470052 0.539062
vt 0.470052 0.546875
f 11/19/11 57/20/57 31/21/31
vt 0.156249 0.875000
vt 0.156249 0.859375
vt 0.158854 0.875000
f 87/22/87 76/23/76 126/24/126
vt 0.031250 0.562500
vt 0.031250 0.546875
vt 0.033854 0.562500
f 26/25/26 123/26/123 25/27/25
vt 0.207031 0.734375
vt 0.205729 0.750000
vt 0.205729 0.742188
f 75/28/75 95/29/95 84/30/84
vt 0.123698 0.734375
vt 0.122396 0.750000
vt 0.122396 0.734375
f 81/31/81 89/32/89 77/33/77
vt 0.411250 0.178553
vt 0.411250 0.191543
vt 0.407500 0.185048
f 144/34/144 30/35/30 101/36/101
vt 0.953125 0.656250
vt 0.951823 0.671875
vt 0.952474 0.656250
f 45/37/45 183/38/183 72/39/72
vt 0.911459 0.656250
vt 0.910156 0.671875
vt 0.909505 0.664062
f 45/40/45 72/41/72 91/42/91
vt 0.912761 0.515625
vt 0.914063 0.500000
vt 0.914063 0.515625
f 91/43/91 54/44/54 45/45/45
vt 0.864583 0.500000
vt 0.863281 0.515625
vt 0.861979 0.500000
f 17/46/17 61/47/61 16/48/16
vt 0.868490 0.546875
vt 0.869792 0.531250
vt 0.869792 0.546875
f 61/49/61 17/50/17 91/51/91
vt 0.833333 0.750000
vt 0.832031 0.765625
vt 0.830729 0.750000
f 92/52/92 18/53/18 105/54/105
vt 0.821614 0.609375
vt 0.822917 0.593750
vt 0.822917 0.609375
f 105/55/105 19/56/19 61/57/61
vt 0.829427 0.515625
vt 0.830729 0.500000
vt 0.830729 0.515625
f 19/58/19 16/59/16 61/60/61
vt 0.789063 0.562500
vt 0.788412 0.570312
vt 0.786459 0.562500
f 20/61/20 169/62/169 93/63/93
vt 0.665365 0.515625
vt 0.666667 0.500000
vt 0.666667 0.515625
f 128/64/128 6/65/6 35/66/35
vt 0.618490 0.546875
vt 0.619792 0.531250
vt 0.619792 0.546875
f 62/67/62 43/68/43 118/69/118
vt 0.583333 0.500000
vt 0.582031 0.515625
vt 0.582031 0.500000
f 43/70/43 62/71/62 3/72/3
vt 0.535156 0.546875
vt 0.536458 0.531250
vt 0.536458 0.546875
f 124/73/124 146/74/146 181/75/181
vt 0.500000 0.750000
vt 0.498698 0.765625
vt 0.497396 0.750000
f 94/76/94 107/77/107 124/78/124
vt 0.500000 0.531250
vt 0.498698 0.546875
vt 0.497396 0.531250
f 124/79/124 11/80/11 31/81/31
vt 0.416666 0.843750
vt 0.416015 0.851562
vt 0.415364 0.843750
f 107/82/107 151/83/151 74/84/74
vt 0.416666 0.593750
vt 0.415364 0.609375
vt 0.414713 0.601562
f 57/85/57 11/86/11 46/87/46
vt 0.236979 0.500000
vt 0.235677 0.515625
vt 0.234375 0.500000
f 56/88/56 125/89/125 33/90/33
vt 0.154947 0.546875
vt 0.155598 0.539062
vt 0.155598 0.546875
f 84/91/84 96/92/96 167/93/167
vt 0.062500 0.562500
vt 0.059895 0.531250
vt 0.062500 0.546875
f 89/94/89 26/95/26 77/96/77
vt 0.083333 0.531250
vt 0.082031 0.546875
vt 0.080729 0.531250
f 44/97/44 77/98/77 25/99/25
vt 0.079427 0.515625
vt 0.080729 0.500000
vt 0.080729 0.515625
f 77/100/77 44/101/44 81/102/81
vt 0.963541 0.984375
vt 0.964844 0.984375
vt 0.963541 1.000000
f 39/103/39 65/104/65 48/105/48
vt 0.958333 0.531250
vt 0.959635 0.546875
vt 0.958333 0.546875
f 158/106/158 183/107/183 45/108/45
vt 0.921875 0.953125
vt 0.922526 0.953125
vt 0.921875 0.968750
f 22/109/22 39/110/39 48/111/48
vt 0.927083 0.875000
vt 0.924479 0.875000
vt 0.925781 0.859375
f 65/112/65 39/113/39 2/114/2
vt 0.895833 0.750000
vt 0.890625 0.750000
vt 0.894531 0.734375
f 2/115/2 97/116/97 91/117/91
vt 0.835937 0.796875
vt 0.837239 0.796875
vt 0.835937 0.812500
f 18/118/18 92/119/92 8/120/8
vt 0.796875 1.000000
vt 0.794271 1.000000
vt 0.795573 0.984375
f 29/121/29 9/122/9 129/123/129
vt 0.792969 0.734375
vt 0.791667 0.718750
vt 0.792318 0.718750
f 19/124/19 105/125/105 166/126/166
vt 0.760417 0.921875
vt 0.761719 0.921875
vt 0.760417 0.937500
f 66/127/66 129/128/129 9/129/9
vt 0.709635 0.734375
vt 0.708333 0.718750
vt 0.709635 0.718750
f 80/130/80 172/131/172 35/132/35
vt 0.677083 0.875000
vt 0.674479 0.875000
vt 0.675130 0.867188
f 174/133/174 21/134/21 172/135/172
vt 0.583333 1.000000
vt 0.578125 1.000000
vt 0.582031 0.984375
f 122/136/122 23/137/23 40/138/40
vt 0.546874 0.812500
vt 0.545572 0.812500
vt 0.546223 0.804688
f 156/139/156 40/140/40 170/141/170
vt 0.302083 0.984375
vt 0.303386 0.984375
vt 0.302083 1.000000
f 86/142/86 50/143/50 41/144/41
vt 0.265625 0.984375
vt 0.266927 0.984375
vt 0.266276 0.992188
f 24/145/24 168/146/168 178/147/178
vt 0.210937 0.781250
vt 0.208333 0.765625
vt 0.209635 0.765625
f 168/148/168 95/149/95 75/150/75
vt 0.169270 0.796875
vt 0.170572 0.796875
vt 0.169270 0.812500
f 76/151/76 95/152/95 126/153/126
vt 0.126302 0.734375
vt 0.125000 0.718750
vt 0.126302 0.718750
f 81/154/81 127/155/127 89/156/89
vt 0.088541 0.875000
vt 0.085937 0.875000
vt 0.087239 0.859375
f 127/157/127 67/158/67 154/159/154
vt 0.227500 0.032500
vt 0.227500 0.027010
vt 0.235000 0.025000
f 157/160/157 184/161/184 130/162/130
vt 0.403750 0.178553
vt 0.400000 0.198039
vt 0.400000 0.185048
f 68/163/68 30/164/30 144/165/144
vt 0.072916 1.000000
vt 0.070312 1.000000
vt 0.071614 0.984375
f 1/166/1 49/167/49 67/168/67
vt 0.057291 0.750000
vt 0.055989 0.750000
vt 0.054687 0.718750
f 77/169/77 26/170/26 25/171/25
vt 0.036458 1.000000
vt 0.033854 1.000000
vt 0.035156 0.984375
f 67/172/67 49/173/49 82/174/82
vt 0.869933 0.071731
vt 0.861268 0.064487
vt 0.866571 0.069790
f 70/175/70 43/176/43 3/177/3
vt 0.532667 0.308235
vt 0.522060 0.297628
vt 0.525422 0.310176
f 33/178/33 110/179/110 56/180/56
vt 0.470380 0.170853
vt 0.469375 0.167103
vt 0.469869 0.166971
f 30/181/30 52/182/52 4/183/4
vt 0.139323 0.703125
vt 0.139974 0.710938
vt 0.139323 0.718750
f 81/184/81 96/185/96 76/186/76
vt 0.638672 0.554688
vt 0.637370 0.546875
f 35/187/35 106/18/106 118/188/118
vt 0.212500 0.459856
vt 0.205000 0.460860
vt 0.205000 0.459856
f 134/189/134 49/190/49 147/191/147
vt 0.223958 0.843750
vt 0.224609 0.835938
vt 0.225260 0.843750
f 126/192/126 95/193/95 168/194/168
vt 0.156250 0.043356
vt 0.160000 0.045096
vt 0.152500 0.047106
f 130/195/130 184/196/184 38/197/38
vt 0.543413 0.190763
vt 0.543413 0.194645
vt 0.543898 0.190893
f 148/198/148 56/199/56 150/200/150
vt 0.982422 0.960938
vt 0.981771 0.968750
vt 0.981445 0.957031
f 7/201/7 48/202/48 173/203/173
vt 0.158854 0.953125
vt 0.158854 0.968750
vt 0.157552 0.937500
f 126/204/126 10/205/10 87/206/87
vt 0.148437 0.968750
vt 0.150390 0.960938
vt 0.151041 0.968750
f 1/207/1 87/208/87 10/209/10
vt 0.460000 0.250000
vt 0.467500 0.256495
vt 0.467500 0.262990
f 101/210/101 9/211/9 145/212/145
vt 0.014974 0.945312
vt 0.015625 0.937500
vt 0.015625 0.953125
f 49/213/49 7/214/7 82/215/82
vt 0.539088 0.349356
vt 0.542221 0.354272
vt 0.539684 0.350133
f 5/216/5 117/217/117 167/218/167
vt 0.218125 0.259743
vt 0.218125 0.262990
vt 0.212500 0.262990
f 116/219/116 100/220/100 47/221/47
vt 0.238932 0.945312
vt 0.239583 0.937500
vt 0.238932 0.953125
f 24/222/24 13/223/13 168/224/168
vt 0.156249 0.968750
vt 0.155598 0.968750
vt 0.156249 0.953125
f 126/225/126 13/226/13 10/227/10
vt 0.219534 0.393163
vt 0.213406 0.388041
vt 0.218529 0.389413
f 159/228/159 88/229/88 104/230/104
vt 0.277892 0.415762
vt 0.284019 0.420884
vt 0.278143 0.416699
f 100/231/100 161/232/161 159/233/159
vt 0.400000 0.159067
vt 0.400000 0.172058
vt 0.396250 0.152572
f 175/234/175 122/235/122 68/236/68
vt 0.313802 0.546875
vt 0.313151 0.554688
vt 0.312500 0.546875
f 148/237/148 32/238/32 36/239/36
vt 0.230469 0.546875
vt 0.229818 0.554688
vt 0.229167 0.546875
f 33/240/33 125/241/125 84/242/84
vt 0.251875 0.207781
vt 0.257500 0.211029
vt 0.251875 0.214276
f 136/243/136 116/244/116 112/245/112
vt 0.720052 0.765625
vt 0.721354 0.765625
vt 0.721354 0.781250
f 174/246/174 172/247/172 66/248/66
vt 0.303386 0.765625
vt 0.304688 0.765625
vt 0.304688 0.781250
f 86/249/86 37/250/37 85/251/85
vt 0.138021 0.750000
vt 0.139323 0.750000
vt 0.139323 0.765625
f 127/252/127 76/253/76 87/254/87
vt 0.430000 0.301961
vt 0.428125 0.298714
vt 0.430000 0.275981
f 145/255/145 69/256/69 101/257/101
vt 0.100000 0.204534
vt 0.077500 0.211029
vt 0.100000 0.198039
f 109/258/109 41/259/41 42/260/42
vt 0.341875 0.162315
vt 0.347500 0.159067
vt 0.341875 0.168810
f 112/261/112 98/262/98 136/263/136
vt 0.554400 0.302411
vt 0.552459 0.309656
vt 0.561645 0.300470
f 110/264/110 33/265/33 64/266/64
vt 0.619600 0.284941
vt 0.624903 0.290244
vt 0.623222 0.283970
f 64/267/64 103/268/103 140/269/140
vt 0.884663 0.274436
vt 0.889966 0.279739
vt 0.888285 0.273465
f 139/270/139 149/271/149 59/272/59
vt 0.364507 0.040153
vt 0.366250 0.041149
vt 0.362698 0.039404
f 122/273/122 175/274/175 23/275/23
vt 0.198639 0.368421
vt 0.199142 0.370296
vt 0.193014 0.365173
f 78/276/78 104/277/104 88/278/88
vt 0.130000 0.134755
vt 0.131875 0.135257
vt 0.122500 0.137500
f 38/279/38 143/280/143 53/281/53
vt 0.471250 0.230514
vt 0.471250 0.224019
vt 0.475000 0.224019
f 4/282/4 101/283/101 30/284/30
vt 0.005208 0.601562
vt 0.007812 0.593750
vt 0.005208 0.609375
f 123/285/123 26/286/26 183/287/183
vt 0.786983 0.426848
vt 0.785658 0.426493
vt 0.785172 0.427333
f 28/288/28 58/289/58 155/290/155
vt 0.807296 0.366292
vt 0.802703 0.367002
vt 0.802703 0.368943
f 121/291/121 111/292/111 71/293/71
vt 0.720033 0.461319
vt 0.724625 0.460609
vt 0.724625 0.456727
f 103/294/103 113/295/113 135/296/135
vt 0.701661 0.471926
vt 0.706254 0.471215
vt 0.706254 0.467333
f 117/297/117 113/298/113 103/299/103
vt 0.644531 0.960938
vt 0.645833 0.953125
vt 0.644531 0.968750
f 90/300/90 21/301/21 52/302/52
vt 0.854506 0.437176
vt 0.847261 0.439117
vt 0.848302 0.442999
f 121/303/121 58/304/58 54/305/54
vt 0.786459 0.656250
vt 0.787435 0.660156
vt 0.787761 0.671875
f 93/306/93 19/307/19 73/308/73
vt 0.619792 0.656250
vt 0.620768 0.660156
vt 0.621094 0.671875
f 62/309/62 118/310/118 156/311/156
vt 0.158063 0.376692
vt 0.169313 0.383187
vt 0.159067 0.380442
f 88/312/88 147/313/147 78/314/78
vt 0.725911 0.554688
vt 0.724935 0.558594
vt 0.725586 0.550781
f 20/315/20 93/316/93 80/317/80
vt 0.813802 0.937500
vt 0.813802 0.945312
vt 0.813151 0.937500
f 129/318/129 18/319/18 29/320/29
vt 0.147135 0.937500
vt 0.147135 0.953125
vt 0.146484 0.937500
f 127/321/127 87/322/87 67/323/67
vt 0.053423 0.383438
vt 0.054796 0.384810
vt 0.053242 0.383618
f 13/324/13 14/325/14 10/326/10
vt 0.256948 0.399708
vt 0.255668 0.399365
vt 0.253885 0.397147
f 100/327/100 159/328/159 104/329/104
vt 0.815961 0.419084
vt 0.813310 0.418373
vt 0.808717 0.421025
f 58/330/58 121/331/121 71/332/71
vt 0.996419 0.707031
vt 0.996745 0.710938
vt 0.996094 0.718750
f 173/333/173 34/334/34 186/335/186
vt 0.220937 0.141206
vt 0.223750 0.146077
vt 0.218125 0.142829
f 177/336/177 112/337/112 143/338/143
vt 0.967593 0.178247
vt 0.958668 0.173914
vt 0.962225 0.176323
f 137/339/137 132/340/132 131/341/131
vt 0.202187 0.108927
vt 0.205000 0.112058
vt 0.197500 0.110048
f 184/342/184 177/343/177 143/344/143
vt 0.973958 0.812500
vt 0.975260 0.792969
vt 0.976562 0.781250
f 65/345/65 34/346/34 173/347/173
vt 0.931821 0.211367
vt 0.929525 0.213664
vt 0.934473 0.214019
f 6/348/6 102/349/102 59/350/59
vt 0.299805 0.652344
vt 0.299642 0.654297
vt 0.298177 0.640625
f 36/351/36 85/352/85 37/353/37
vt 0.596836 0.412445
vt 0.599422 0.414499
vt 0.598387 0.412220
f 113/354/113 117/355/117 44/356/44
vt 0.127187 0.143511
vt 0.126250 0.143260
vt 0.133750 0.140514
f 15/357/15 53/358/53 143/359/143
vt 0.965782 0.178732
vt 0.976519 0.182580
f 83/360/83 171/361/171 137/339/137
vt 0.696637 0.260936
vt 0.699289 0.263588
vt 0.706533 0.261647
f 150/362/150 140/363/140 171/364/171
vt 0.898438 0.718750
vt 0.897787 0.703125
vt 0.898438 0.703125
f 2/365/2 91/366/91 72/367/72
vt 0.731771 0.718750
vt 0.731608 0.714844
vt 0.731771 0.703125
f 66/368/66 172/369/172 73/370/73
vt 0.355132 0.462359
vt 0.347765 0.464862
vt 0.355000 0.461865
f 133/371/133 22/372/22 48/373/48
vt 0.930470 0.135821
vt 0.934093 0.140153
vt 0.932151 0.136791
f 70/374/70 163/375/163 27/376/27
vt 0.876302 0.718750
vt 0.875651 0.710938
vt 0.877604 0.718750
f 97/377/97 92/378/92 105/379/105
vt 0.101875 0.184276
vt 0.104687 0.182653
vt 0.103750 0.184779
f 12/380/12 47/381/47 164/382/164
vt 0.028645 0.765625
vt 0.031250 0.757812
vt 0.031250 0.765625
f 82/383/82 186/384/186 154/385/154
vt 0.875000 0.664062
vt 0.876302 0.671875
vt 0.875000 0.671875
f 105/386/105 61/387/61 97/388/97
vt 0.458333 0.664062
vt 0.459635 0.671875
vt 0.458333 0.671875
f 107/389/107 11/390/11 124/391/124
vt 0.291667 0.664062
vt 0.292969 0.671875
vt 0.291667 0.671875
f 37/392/37 180/393/180 36/394/36
vt 0.712642 0.295313
vt 0.709375 0.301231
vt 0.713968 0.296638
f 171/395/171 142/396/142 137/397/137
vt 0.722703 0.264039
vt 0.721022 0.257765
vt 0.719081 0.265009
f 171/398/171 140/399/140 142/400/142
vt 0.103750 0.182401
vt 0.100000 0.183774
vt 0.103750 0.180024
f 47/401/47 12/402/12 15/403/15
vt 0.717121 0.468304
vt 0.718091 0.466623
vt 0.713499 0.469274
f 25/404/25 28/405/28 113/406/113
vt 0.902492 0.432595
vt 0.900939 0.433787
vt 0.900970 0.433842
f 17/407/17 16/408/16 115/409/115
vt 0.871745 0.648438
vt 0.871094 0.640625
vt 0.872396 0.640625
f 97/410/97 61/411/61 91/412/91
vt 0.663412 0.960938
vt 0.663086 0.957031
vt 0.663412 0.953125
f 4/413/4 21/414/21 174/415/174
vt 0.455078 0.648438
vt 0.454427 0.640625
vt 0.455729 0.640625
f 107/416/107 74/417/74 11/418/11
vt 0.371745 0.648438
vt 0.371094 0.640625
vt 0.371745 0.640625
f 85/419/85 36/420/36 152/421/152
vt 0.479423 0.295397
vt 0.479670 0.295463
vt 0.476920 0.302765
f 141/422/141 145/423/145 29/424/29
vt 0.558942 0.382722
vt 0.559912 0.384403
vt 0.563274 0.386344
f 64/425/64 167/426/167 117/427/117
vt 0.052773 0.381342
vt 0.051220 0.380150
vt 0.050028 0.378597
f 14/428/14 78/429/78 10/430/10
vt 0.033854 0.726562
vt 0.033854 0.718750
vt 0.035156 0.734375
f 186/431/186 26/432/26 89/433/89
vt 0.033854 0.750000
vt 0.036458 0.765625
vt 0.031250 0.750000
f 186/434/186 89/435/89 154/436/154
vt 0.405454 0.084471
vt 0.399462 0.077106
vt 0.404952 0.082596
f 68/437/68 144/438/144 98/439/98
vt 0.719773 0.469014
vt 0.720743 0.467333
vt 0.711558 0.472636
f 123/440/123 28/441/28 25/442/25
vt 0.553385 0.546875
vt 0.555012 0.558594
vt 0.554687 0.562500
f 181/443/181 146/444/146 3/445/3
vt 0.305339 0.554688
vt 0.304037 0.546875
vt 0.304688 0.546875
f 148/446/148 36/447/36 180/448/180
vt 0.399731 0.414389
vt 0.405221 0.408899
vt 0.395981 0.420884
f 141/449/141 8/450/8 22/451/22
vt 0.473125 0.237010
vt 0.475000 0.237010
vt 0.475000 0.250000
f 101/452/101 4/453/4 9/454/9
vt 0.016284 0.225559
vt 0.015535 0.227368
vt 0.015663 0.226397
f 24/455/24 41/456/41 109/457/109
vt 0.901002 0.433898
vt 0.901779 0.433302
f 17/407/17 121/458/121 54/459/54
vt 0.394853 0.061224
vt 0.399982 0.067076
vt 0.399621 0.067437
f 68/460/68 122/461/122 52/462/52
vt 0.750000 0.481822
vt 0.746118 0.482333
vt 0.751941 0.482589
f 58/463/58 28/464/28 158/465/158
vt 0.166015 0.734375
vt 0.166666 0.750000
vt 0.165364 0.734375
f 96/466/96 95/467/95 76/468/76
vt 0.891235 0.059726
vt 0.897960 0.063608
vt 0.894853 0.061224
f 43/469/43 70/470/70 27/471/27
vt 0.630208 0.546875
vt 0.628906 0.546875
vt 0.630208 0.531250
f 128/472/128 118/473/118 43/474/43
vt 0.693085 0.037589
vt 0.686100 0.040501
vt 0.693605 0.039530
f 176/475/176 31/476/31 57/477/57
vt 0.926708 0.266290
vt 0.919819 0.269297
vt 0.910634 0.274601
f 20/478/20 59/479/59 114/480/114
vt 0.164062 0.687500
vt 0.164062 0.679688
vt 0.164387 0.679688
f 95/481/95 96/482/96 84/483/84
vt 0.050781 0.859375
vt 0.051432 0.855469
vt 0.052083 0.859375
f 82/484/82 154/485/154 67/486/67
vt 0.410156 0.656250
vt 0.410156 0.671875
vt 0.409505 0.656250
f 46/487/46 74/488/74 108/489/108
vt 0.598958 0.992188
vt 0.599609 0.988281
vt 0.598958 1.000000
f 122/490/122 90/491/90 52/492/52
vt 0.585937 0.812500
vt 0.586588 0.796875
vt 0.587239 0.796875
f 90/493/90 156/494/156 106/495/106
vt 0.475260 1.000000
vt 0.473958 1.000000
vt 0.475260 0.984375
f 157/496/157 130/497/130 151/498/151
vt 0.291667 0.992188
vt 0.292969 0.984375
vt 0.291667 1.000000
f 178/499/178 86/500/86 41/501/41
vt 0.265625 1.000000
f 24/145/24 178/147/178 41/502/41
vt 0.250000 0.921875
vt 0.250651 0.929688
vt 0.250000 0.937500
f 75/503/75 178/504/178 168/505/168
vt 0.252604 0.796875
vt 0.253255 0.796875
vt 0.252604 0.804688
f 75/506/75 37/507/37 178/508/178
vt 0.280355 0.433826
vt 0.276789 0.429389
vt 0.282916 0.434512
f 134/509/134 159/510/159 99/511/99
vt 0.961551 0.152516
vt 0.961661 0.152453
vt 0.960470 0.150899
f 102/512/102 6/513/6 128/514/128
vt 0.782035 0.388155
vt 0.784332 0.386344
vt 0.784332 0.385373
f 132/515/132 71/516/71 111/517/111
vt 0.723249 0.305919
vt 0.722278 0.309541
vt 0.723426 0.308393
f 137/518/137 142/519/142 132/520/132
vt 0.998210 0.880859
vt 0.999023 0.886719
vt 0.998047 0.882812
f 186/521/186 82/522/82 173/523/173
vt 0.998698 0.890625
f 7/524/7 173/523/173 82/522/82
vt 0.323125 0.460107
vt 0.321250 0.459856
vt 0.325000 0.459856
f 133/525/133 48/526/48 153/527/153
vt 0.148112 0.710938
vt 0.147786 0.703125
vt 0.148437 0.703125
f 127/528/127 81/529/81 76/530/76
vt 0.769532 0.475028
vt 0.763969 0.475999
vt 0.778978 0.474057
f 123/531/123 158/532/158 28/533/28
vt 0.737433 0.454335
vt 0.735865 0.454400
vt 0.733811 0.455306
f 113/534/113 28/535/28 155/536/155
vt 0.479917 0.295529
f 145/423/145 9/537/9 29/424/29
vt 0.621171 0.445962
vt 0.619618 0.444770
vt 0.618596 0.446540
f 25/538/25 113/539/113 44/540/44
vt 0.249349 0.601562
vt 0.247396 0.593750
vt 0.248698 0.593750
f 180/541/180 125/542/125 56/543/56
vt 0.248372 0.597656
vt 0.248698 0.609375
f 75/542/75 180/544/180 37/545/37
vt 0.330625 0.103858
vt 0.330625 0.110353
vt 0.327812 0.105482
f 175/546/175 98/547/98 177/548/177
vt 0.556966 0.691406
vt 0.557128 0.689453
vt 0.557291 0.703125
f 156/549/156 170/550/170 62/551/62
vt 0.898225 0.154807
vt 0.903173 0.155162
vt 0.890626 0.151800
f 137/552/137 138/553/138 83/554/83
vt 0.156250 0.224019
vt 0.150625 0.220772
vt 0.156250 0.217524
f 53/555/53 15/556/15 12/557/12
vt 0.327812 0.118472
vt 0.330625 0.116849
vt 0.330625 0.123344
f 177/558/177 98/559/98 112/560/112
vt 0.873891 0.295814
vt 0.873536 0.290866
vt 0.871595 0.298110
f 114/561/114 149/562/149 111/563/111
vt 0.784332 0.426138
vt 0.784752 0.426735
f 58/289/58 71/564/71 155/565/155
vt 0.923867 0.203412
vt 0.909863 0.205483
vt 0.909378 0.207295
f 59/566/59 102/567/102 139/568/139
vt 0.779013 0.217010
vt 0.777201 0.217495
vt 0.778770 0.217915
f 131/569/131 138/570/138 137/571/137
vt 0.766612 0.194276
vt 0.764558 0.195666
vt 0.771803 0.193725
f 139/572/139 138/573/138 131/574/131
vt 0.956137 0.147277
vt 0.956977 0.147762
vt 0.956072 0.146679
f 27/575/27 138/576/138 139/577/139
vt 0.517411 0.266015
vt 0.517667 0.267470
vt 0.517411 0.265529
f 140/578/140 103/579/103 142/580/142
vt 0.839014 0.033707
vt 0.843733 0.036210
vt 0.844185 0.036397
f 119/581/119 31/582/31 176/583/176
vt 0.123698 0.500000
vt 0.123698 0.515625
vt 0.122396 0.500000
f 5/584/5 81/585/81 44/586/44
vt 0.962890 0.812500
vt 0.962239 0.812500
vt 0.962239 0.796875
f 65/587/65 72/588/72 34/589/34
vt 0.963541 0.820312
vt 0.963867 0.820312
vt 0.963541 0.828125
f 72/590/72 65/591/65 2/592/2
vt 0.819777 0.064877
vt 0.813018 0.065007
vt 0.825565 0.068369
f 119/593/119 163/594/163 70/595/70
vt 0.373750 0.113601
vt 0.374687 0.108730
vt 0.375625 0.110353
f 98/596/98 175/597/175 68/598/68
vt 0.759071 0.410634
vt 0.761368 0.412220
vt 0.761368 0.408337
f 135/599/135 155/600/155 71/601/71
vt 0.818841 0.043273
vt 0.817871 0.046896
vt 0.823174 0.052199
f 3/602/3 146/603/146 70/604/70
vt 0.580986 0.389846
vt 0.573291 0.384283
vt 0.581957 0.391527
f 117/605/117 103/606/103 64/607/64
vt 0.452697 0.336716
vt 0.449952 0.339462
vt 0.450957 0.335712
f 8/608/8 141/609/141 29/610/29
vt 0.791094 0.033897
vt 0.788442 0.031246
vt 0.781198 0.033187
f 119/611/119 70/612/70 146/613/146
vt 0.238607 0.609375
vt 0.239583 0.625000
vt 0.238281 0.609375
f 125/614/125 75/615/75 84/616/84
vt 0.922116 0.268942
f 20/478/20 114/480/114 169/617/169
vt 0.327812 0.339309
vt 0.327812 0.337685
vt 0.330625 0.337685
f 133/618/133 99/619/99 165/620/165
vt 0.600198 0.414386
f 117/355/117 5/621/5 44/356/44
vt 0.174531 0.116969
vt 0.175938 0.116157
vt 0.176875 0.118786
f 143/622/143 38/623/38 184/624/184
vt 0.433750 0.211029
vt 0.437500 0.211029
vt 0.433750 0.217524
f 69/625/69 144/626/144 101/627/101
vt 0.441250 0.269486
vt 0.437500 0.282476
vt 0.439375 0.272733
f 69/628/69 145/629/145 165/630/165
vt 0.886959 0.272139
vt 0.886604 0.267191
vt 0.885811 0.273287
f 114/631/114 59/632/59 149/633/149
vt 0.731445 0.710938
vt 0.731120 0.703125
f 80/634/80 93/635/93 73/370/73
vt 0.297201 0.539062
vt 0.297038 0.542969
vt 0.296875 0.531250
f 56/636/56 148/637/148 180/638/180
vt 0.237812 0.295466
vt 0.240625 0.297090
vt 0.235000 0.295466
f 47/639/47 100/640/100 104/641/104
vt 0.572916 0.617188
vt 0.572265 0.609375
vt 0.572916 0.609375
f 62/642/62 181/643/181 3/644/3
vt 0.788823 0.018178
vt 0.786882 0.017922
vt 0.781058 0.018178
f 119/645/119 146/646/146 31/647/31
vt 0.522135 0.500000
vt 0.522135 0.515625
vt 0.520833 0.500000
f 146/648/146 124/649/124 31/650/31
vt 0.794271 0.781250
vt 0.792318 0.765625
vt 0.792644 0.765625
f 18/651/18 129/652/129 166/653/166
vt 0.170312 0.238633
vt 0.178750 0.237010
vt 0.171719 0.239445
f 12/654/12 164/655/164 109/656/109
vt 0.586176 0.081870
vt 0.581294 0.088326
vt 0.586568 0.081975
f 162/657/162 120/658/120 60/659/60
vt 0.438802 0.500000
vt 0.438151 0.507812
vt 0.437499 0.500000
f 55/660/55 57/661/57 46/662/46
vt 0.446614 0.609375
vt 0.447916 0.601562
vt 0.447916 0.609375
f 74/663/74 46/664/46 11/665/11
vt 0.062500 0.209387
vt 0.058750 0.210760
vt 0.062500 0.207010
f 164/666/164 104/667/104 78/668/78
vt 0.209688 0.212653
vt 0.212500 0.217524
vt 0.206875 0.214276
f 15/669/15 116/670/116 47/671/47
vt 0.829004 0.287669
vt 0.828648 0.282721
vt 0.827855 0.288817
f 111/672/111 131/673/131 132/674/132
vt 0.016764 0.232255
vt 0.013517 0.236875
vt 0.014019 0.235000
f 109/675/109 14/676/14 24/677/24
vt 0.071875 0.214276
vt 0.070000 0.213774
vt 0.073281 0.213465
f 47/678/47 104/679/104 164/680/164
vt 0.370443 0.929688
vt 0.370768 0.925781
vt 0.371419 0.933594
f 50/681/50 160/682/160 51/683/51
vt 0.398112 0.710938
vt 0.397786 0.703125
vt 0.398274 0.707031
f 63/684/63 108/685/108 74/686/74
vt 0.749349 0.945312
vt 0.748698 0.953125
vt 0.748698 0.945312
f 66/687/66 9/688/9 174/689/174
vt 0.019043 0.283750
vt 0.031298 0.293995
vt 0.025673 0.290748
f 13/690/13 24/691/24 14/692/14
vt 0.505208 0.859375
vt 0.505371 0.873047
vt 0.505208 0.867188
f 107/693/107 94/694/94 79/695/79
vt 0.505208 1.000000
vt 0.503581 0.988281
vt 0.503906 0.984375
f 23/696/23 157/697/157 79/698/79
vt 0.569618 0.114800
vt 0.569618 0.115043
vt 0.570588 0.114575
f 163/699/163 179/700/179 83/701/83
vt 0.795736 0.908203
vt 0.794271 0.906250
vt 0.795573 0.906250
f 166/702/166 129/703/129 66/704/66
vt 0.044277 0.209846
vt 0.047500 0.207010
vt 0.044219 0.209948
f 42/705/42 53/706/53 12/707/12
vt 0.044219 0.210291
vt 0.043750 0.210760
f 109/707/109 42/708/42 12/709/12
vt 0.027934 0.174923
vt 0.029144 0.166706
vt 0.028121 0.174471
f 42/710/42 41/711/41 50/712/50
vt 0.036807 0.179957
vt 0.037058 0.179019
vt 0.040538 0.181029
f 42/713/42 50/714/50 53/715/53
vt 0.250000 0.463875
vt 0.246250 0.463875
vt 0.242500 0.463875
f 7/716/7 134/717/134 153/718/153
vt 0.375000 0.593750
vt 0.375651 0.601562
vt 0.375000 0.609375
f 32/719/32 152/720/152 36/721/36
vt 0.882813 0.539062
vt 0.884115 0.546875
vt 0.882161 0.539062
f 54/722/54 91/723/91 17/724/17
vt 0.899089 0.882812
vt 0.899333 0.883789
vt 0.899740 0.890625
f 22/725/22 92/726/92 39/727/39
vt 0.623698 0.687500
vt 0.623047 0.695312
vt 0.622396 0.687500
f 106/728/106 156/729/156 118/730/118
vt 0.265586 0.358997
vt 0.257500 0.353923
vt 0.268750 0.360418
f 134/731/134 99/732/99 153/733/153
vt 0.833971 0.469205
vt 0.832290 0.470175
vt 0.832801 0.471061
f 158/734/158 54/735/54 58/736/58
vt 0.944010 0.500000
vt 0.944010 0.515625
vt 0.942708 0.500000
f 158/737/158 45/738/45 54/739/54
vt 0.577636 0.927734
vt 0.577474 0.929688
vt 0.577392 0.926758
f 170/740/170 40/741/40 182/742/182
vt 0.383916 0.446369
vt 0.383140 0.446965
vt 0.382661 0.447173
f 141/743/141 22/744/22 133/745/133
vt 0.391562 0.230514
vt 0.392500 0.237010
vt 0.391094 0.230514
f 136/746/136 69/747/69 161/748/161
vt 0.898112 0.816406
vt 0.897461 0.816406
vt 0.897136 0.812500
f 2/749/2 92/750/92 97/751/97
vt 0.899577 0.884766
vt 0.900065 0.886719
f 92/752/92 2/753/2 39/727/39
vt 0.130000 0.119019
vt 0.130117 0.119503
vt 0.129063 0.120643
f 53/754/53 51/755/51 38/756/38
vt 0.930740 0.096338
vt 0.925069 0.087284
vt 0.924771 0.086896
f 27/757/27 102/758/102 128/759/128
vt 0.284571 0.414071
vt 0.281005 0.409635
vt 0.284068 0.412196
f 161/760/161 100/761/100 136/762/136
vt 0.749886 0.437290
vt 0.752182 0.436934
vt 0.752182 0.434993
f 135/763/135 113/764/113 155/765/155
vt 0.972982 0.558594
vt 0.973633 0.562500
vt 0.973307 0.562500
f 183/766/183 158/767/158 123/768/123
vt 0.180060 0.387808
vt 0.181843 0.390026
vt 0.180563 0.389683
f 88/769/88 159/770/159 134/771/134
vt 0.089030 0.863281
vt 0.088541 0.859375
vt 0.088867 0.859375
f 127/772/127 154/773/154 89/774/89
vt 0.706879 0.360738
vt 0.706394 0.362549
vt 0.709175 0.358441
f 103/775/103 135/776/135 142/777/142
vt 0.182986 0.392072
vt 0.184129 0.394119
f 88/778/88 134/779/134 147/771/147
vt 0.924474 0.086507
f 27/757/27 128/759/128 43/780/43
vt 0.289068 0.435290
vt 0.287034 0.432134
vt 0.290097 0.434696
f 99/781/99 159/782/159 161/783/161
vt 0.145833 0.937500
f 67/323/67 87/322/87 1/784/1
vt 0.095312 0.142040
vt 0.096250 0.141789
vt 0.094375 0.143664
f 50/785/50 51/786/51 53/787/53
vt 0.122256 0.380586
vt 0.122106 0.384462
vt 0.120096 0.376961
f 164/788/164 78/789/78 14/790/14
vt 0.673412 0.024172
vt 0.668295 0.028897
vt 0.667710 0.029825
f 57/791/57 55/792/55 176/793/176
vt 0.651042 0.820312
vt 0.651693 0.826172
vt 0.651042 0.821289
f 106/794/106 21/795/21 90/796/90
vt 0.557971 0.122841
vt 0.558214 0.118539
vt 0.557971 0.118959
f 150/797/150 162/798/162 60/799/60
vt 0.545354 0.140813
f 148/14/148 150/800/150 60/15/60
vt 0.544383 0.191023
f 150/200/150 56/199/56 110/801/110
vt 0.437500 0.275981
f 165/630/165 145/629/145 141/802/141
vt 0.567677 0.107486
vt 0.567677 0.107971
vt 0.568162 0.107131
f 120/803/120 162/804/162 179/805/179
vt 0.796778 0.113066
vt 0.799429 0.115717
vt 0.798589 0.112581
f 163/806/163 83/807/83 138/808/138
vt 0.576412 0.094783
f 120/658/120 32/809/32 60/659/60
vt 0.602878 0.069496
vt 0.600467 0.068647
vt 0.602668 0.069618
f 120/810/120 55/811/55 32/812/32
vt 0.620900 0.056481
vt 0.621645 0.055830
vt 0.620512 0.056779
f 179/813/179 119/814/119 176/815/176
vt 0.743935 0.096966
vt 0.737265 0.098333
vt 0.736978 0.098620
f 55/816/55 120/817/120 176/818/176
vt 0.251875 0.266238
vt 0.254687 0.267862
vt 0.251875 0.269486
f 116/819/116 136/820/136 100/821/100
vt 0.951449 0.144010
vt 0.951804 0.143655
vt 0.950123 0.142684
f 27/822/27 139/823/139 102/824/102
vt 0.565311 0.126021
vt 0.565190 0.126474
vt 0.565493 0.125827
f 83/825/83 179/826/179 162/827/162
vt 0.803052 0.114747
vt 0.800400 0.112095
f 138/828/138 27/829/27 163/807/163
vt 0.016115 0.278004
vt 0.015927 0.277551
vt 0.016046 0.276515
f 164/830/164 14/831/14 109/832/109
vt 0.390625 0.230514
f 161/748/161 69/747/69 165/833/165
vt 0.299313 0.438035
vt 0.298284 0.438630
vt 0.297279 0.434880
f 165/834/165 99/835/99 161/836/161
vt 0.348203 0.361636
vt 0.348906 0.362854
vt 0.347500 0.363666
f 165/837/165 141/838/141 133/839/133
vt 0.792969 0.765625
f 18/651/18 166/653/166 105/840/105
vt 0.790365 0.734375
vt 0.789063 0.742188
vt 0.789063 0.734375
f 19/841/19 166/842/166 73/843/73
vt 0.812988 0.937500
f 29/320/29 18/319/18 8/844/8
vt 0.747396 0.750000
vt 0.749023 0.761719
vt 0.748698 0.765625
f 73/845/73 166/846/166 66/847/66
vt 0.301094 0.393706
vt 0.296875 0.389647
vt 0.302500 0.392894
f 133/848/133 153/849/153 99/850/99
vt 0.242501 0.463875
f 7/717/7 153/851/153 48/718/48
vt 0.393229 0.500000
vt 0.391276 0.507812
f 55/852/55 46/853/46 152/852/152
vt 0.390625 0.500000
f 32/852/32 55/854/55 152/854/152
vt 0.748047 0.546875
vt 0.747396 0.562500
vt 0.747396 0.546875
f 6/855/6 20/856/20 80/857/80
vt 0.414062 0.843750
f 74/84/74 151/83/151 63/858/63
vt 0.200520 0.500000
vt 0.199218 0.515625
vt 0.199218 0.500000
f 33/859/33 84/860/84 167/861/167
vt 0.156249 0.546875
f 96/92/96 5/862/5 167/93/167
vt 0.156249 0.531250
f 5/862/5 96/92/96 81/863/81
vt 0.540280 0.350910
f 167/218/167 64/217/64 33/864/33
vt 0.723958 0.562500
f 80/316/80 35/865/35 6/317/6
vt 0.230469 0.937500
vt 0.229818 0.945312
vt 0.229167 0.937500
f 126/866/126 168/867/168 13/868/13
vt 0.983867 0.234471
vt 0.984122 0.242235
vt 0.984378 0.246118
f 59/869/59 20/870/20 6/871/6
vt 0.516645 0.274507
vt 0.516389 0.271353
vt 0.516645 0.274750
f 140/872/140 150/873/150 110/874/110
vt 0.516517 0.273294
vt 0.516645 0.275235
f 64/874/64 140/875/140 110/876/110
vt 0.812500 0.500000
vt 0.808594 0.515625
vt 0.809896 0.500000
f 16/877/16 19/878/19 169/879/169
vt 0.787761 0.578125
f 169/62/169 19/880/19 93/63/93
vt 0.555989 0.703125
vt 0.556315 0.707031
vt 0.556152 0.708984
f 94/881/94 181/882/181 170/883/170
vt 0.958858 0.323434
vt 0.956562 0.323789
vt 0.956562 0.324760
f 16/884/16 169/885/169 115/886/115
f 172/369/172 80/634/80 73/370/73
f 17/407/17 115/409/115 121/458/121
vt 0.557291 0.687500
f 170/550/170 181/887/181 62/551/62
vt 0.917523 0.271594
f 169/617/169 114/480/114 115/888/115
f 149/633/149 139/632/139 131/270/131
vt 0.851788 0.347519
vt 0.844038 0.348961
vt 0.853224 0.347540
f 111/889/111 121/890/121 115/891/115
vt 0.565614 0.126345
vt 0.565372 0.126280
vt 0.565250 0.126733
f 150/892/150 171/893/171 162/894/162
vt 0.840724 0.322352
vt 0.850264 0.318115
vt 0.853224 0.316481
f 114/895/114 111/896/111 115/897/115
vt 0.709220 0.239073
vt 0.708735 0.240884
vt 0.712357 0.239914
f 171/898/171 83/899/83 162/900/162
vt 0.888184 1.000000
vt 0.888102 1.000000
vt 0.888672 0.992188
f 8/901/8 92/902/92 22/903/22
vt 0.660156 0.765625
vt 0.660808 0.757812
vt 0.661459 0.765625
f 106/904/106 172/905/172 21/906/21
vt 0.661459 0.656250
vt 0.659505 0.664062
vt 0.658854 0.656250
f 35/907/35 172/908/172 106/909/106
vt 0.152031 0.167998
vt 0.152500 0.164558
vt 0.153437 0.167186
f 15/910/15 143/911/143 112/912/112
vt 0.577311 0.923828
vt 0.576823 0.921875
f 79/913/79 182/742/182 23/914/23
vt 0.154375 0.165060
vt 0.156250 0.165563
f 116/912/116 15/915/15 112/916/112
vt 0.475911 0.992188
f 79/917/79 157/496/157 151/498/151
vt 0.980469 0.953125
f 173/203/173 48/202/48 65/918/65
vt 0.485677 0.875000
vt 0.485026 0.882812
vt 0.484375 0.875000
f 107/919/107 79/920/79 151/921/151
vt 0.805152 0.298262
vt 0.807626 0.298440
vt 0.806300 0.297114
f 131/922/131 111/923/111 149/924/149
vt 0.748047 0.945312
f 174/689/174 9/688/9 4/925/4
vt 0.408873 0.108478
vt 0.409240 0.106101
vt 0.410245 0.109851
f 144/926/144 69/927/69 136/928/136
vt 0.709838 0.359104
vt 0.708690 0.360252
f 132/929/132 142/777/142 135/930/135
vt 0.777443 0.424292
vt 0.779739 0.422966
vt 0.779739 0.421025
f 132/931/132 135/932/135 71/933/71
vt 0.387812 0.188296
vt 0.388750 0.185048
vt 0.392500 0.185048
f 144/934/144 136/935/136 98/936/98
vt 0.662761 0.953125
f 52/414/52 21/937/21 4/415/4
vt 0.427083 0.992188
vt 0.428385 0.984375
vt 0.427083 1.000000
f 63/938/63 151/939/151 130/940/130
vt 0.409505 0.960938
vt 0.410156 0.960938
vt 0.410156 0.968750
f 51/941/51 63/942/63 130/943/130
vt 0.371582 0.931641
vt 0.372396 0.937500
vt 0.371501 0.932617
f 108/944/108 63/945/63 160/946/160
vt 0.371094 0.921875
vt 0.371745 0.929688
f 85/947/85 108/948/108 160/682/160
vt 0.567798 0.106791
vt 0.567677 0.107001
f 176/949/176 120/950/120 179/805/179
vt 0.371745 0.644531
vt 0.372070 0.644531
f 85/951/85 152/421/152 108/952/108
vt 0.372396 0.640625
f 46/953/46 108/952/108 152/421/152
f 160/946/160 63/945/63 51/683/51
vt 0.331054 0.929688
vt 0.332031 0.921875
vt 0.331380 0.929688
f 86/954/86 85/955/85 160/956/160
vt 0.330729 0.937500
f 86/954/86 160/956/160 50/957/50
vt 0.252604 0.812500
f 178/508/178 37/507/37 86/958/86
vt 0.763952 0.110094
vt 0.760816 0.109253
vt 0.759845 0.112875
f 179/959/179 163/960/163 119/961/119
vt 0.244141 0.664062
vt 0.243490 0.671875
vt 0.243490 0.656250
f 180/962/180 75/963/75 125/964/125
vt 0.951823 0.656250
f 72/39/72 183/38/183 34/965/34
vt 0.577799 0.765625
vt 0.577799 0.757812
vt 0.578125 0.765625
f 40/966/40 156/967/156 90/968/90
vt 0.599121 0.987305
vt 0.599284 0.990234
f 40/969/40 90/970/90 122/490/122
vt 0.545898 0.808594
vt 0.545572 0.796875
f 181/971/181 94/140/94 124/972/124
vt 0.577799 0.925781
f 94/973/94 182/742/182 79/913/79
f 182/742/182 94/973/94 170/740/170
f 182/742/182 40/741/40 23/914/23
vt 0.272125 0.016002
vt 0.271328 0.016309
vt 0.272122 0.016001
f 157/974/157 23/975/23 185/976/185
vt 0.270175 0.016585
vt 0.270165 0.016587
vt 0.271147 0.016293
f 157/977/157 185/978/185 184/979/184
vt 0.272119 0.016001
f 185/976/185 23/975/23 175/980/175
f 185/978/185 177/980/177 184/979/184
vt 0.270156 0.016590
f 177/980/177 185/978/185 175/981/175
vt 0.006836 0.659668
vt 0.006836 0.659912
vt 0.006673 0.660156
f 26/982/26 186/983/186 183/984/183
vt 0.006836 0.660156
f 186/983/186 34/985/34 183/984/183
vt 0.164387 0.450983
vt 0.164019 0.446865
f 78/986/78 1/987/1 10/987/10
vt 0.164019 0.446865
f 147/986/147 1/987/1 78/988/78
# 368 faces, 988 coords texture

# End of File
