# Blender 3.3.0
# www.blender.org
mtllib cylinder.mtl
o Cylinder
v 0.000000 -0.500000 -1.000000
v 0.000000 0.500000 -1.000000
v 0.258819 -0.500000 -0.965926
v 0.258819 0.500000 -0.965926
v 0.500000 -0.500000 -0.866025
v 0.500000 0.500000 -0.866025
v 0.707107 -0.500000 -0.707107
v 0.707107 0.500000 -0.707107
v 0.866025 -0.500000 -0.500000
v 0.866025 0.500000 -0.500000
v 0.965926 -0.500000 -0.258819
v 0.965926 0.500000 -0.258819
v 1.000000 -0.500000 0.000000
v 1.000000 0.500000 0.000000
v 0.965926 -0.500000 0.258819
v 0.965926 0.500000 0.258819
v 0.866025 -0.500000 0.500000
v 0.866025 0.500000 0.500000
v 0.707107 -0.500000 0.707107
v 0.707107 0.500000 0.707107
v 0.500000 -0.500000 0.866025
v 0.500000 0.500000 0.866025
v 0.258819 -0.500000 0.965926
v 0.258819 0.500000 0.965926
v 0.000000 -0.500000 1.000000
v 0.000000 0.500000 1.000000
v -0.258819 -0.500000 0.965926
v -0.258819 0.500000 0.965926
v -0.500000 -0.500000 0.866025
v -0.500000 0.500000 0.866025
v -0.707107 -0.500000 0.707107
v -0.707107 0.500000 0.707107
v -0.866025 -0.500000 0.500000
v -0.866025 0.500000 0.500000
v -0.965926 -0.500000 0.258819
v -0.965926 0.500000 0.258819
v -1.000000 -0.500000 0.000000
v -1.000000 0.500000 0.000000
v -0.965926 -0.500000 -0.258819
v -0.965926 0.500000 -0.258819
v -0.866025 -0.500000 -0.500000
v -0.866025 0.500000 -0.500000
v -0.707107 -0.500000 -0.707107
v -0.707107 0.500000 -0.707107
v -0.500000 -0.500000 -0.866025
v -0.500000 0.500000 -0.866025
v -0.258819 -0.500000 -0.965926
v -0.258819 0.500000 -0.965926
vn 0.1305 -0.0000 -0.9914
vn 0.3827 -0.0000 -0.9239
vn 0.6088 -0.0000 -0.7934
vn 0.7934 -0.0000 -0.6088
vn 0.9239 -0.0000 -0.3827
vn 0.9914 -0.0000 -0.1305
vn 0.9914 -0.0000 0.1305
vn 0.9239 -0.0000 0.3827
vn 0.7934 -0.0000 0.6088
vn 0.6088 -0.0000 0.7934
vn 0.3827 -0.0000 0.9239
vn 0.1305 -0.0000 0.9914
vn -0.1305 -0.0000 0.9914
vn -0.3827 -0.0000 0.9239
vn -0.6088 -0.0000 0.7934
vn -0.7934 -0.0000 0.6088
vn -0.9239 -0.0000 0.3827
vn -0.9914 -0.0000 0.1305
vn -0.9914 -0.0000 -0.1305
vn -0.9239 -0.0000 -0.3827
vn -0.7934 -0.0000 -0.6088
vn -0.6088 -0.0000 -0.7934
vn -0.0000 1.0000 -0.0000
vn -0.3827 -0.0000 -0.9239
vn -0.1305 -0.0000 -0.9914
vn -0.0000 -1.0000 -0.0000
vt 1.000000 0.500000
vt -0.000000 0.500000
vt 0.750000 0.490000
vt 1.000000 1.000000
vt 0.250000 0.490000
vt -0.000000 1.000000
vt 0.958333 0.500000
vt 0.812117 0.481822
vt 0.958333 1.000000
vt 0.312117 0.481822
vt 0.916667 0.500000
vt 0.870000 0.457846
vt 0.916667 1.000000
vt 0.370000 0.457846
vt 0.875000 0.500000
vt 0.919706 0.419706
vt 0.875000 1.000000
vt 0.419706 0.419706
vt 0.833333 0.500000
vt 0.957846 0.370000
vt 0.833333 1.000000
vt 0.457846 0.370000
vt 0.791667 0.500000
vt 0.981822 0.312117
vt 0.791667 1.000000
vt 0.481822 0.312117
vt 0.750000 0.500000
vt 0.990000 0.250000
vt 0.750000 1.000000
vt 0.490000 0.250000
vt 0.708333 0.500000
vt 0.981822 0.187883
vt 0.708333 1.000000
vt 0.481822 0.187883
vt 0.666667 0.500000
vt 0.957846 0.130000
vt 0.666667 1.000000
vt 0.457846 0.130000
vt 0.625000 0.500000
vt 0.919706 0.080294
vt 0.625000 1.000000
vt 0.419706 0.080294
vt 0.583333 0.500000
vt 0.870000 0.042154
vt 0.583333 1.000000
vt 0.370000 0.042154
vt 0.541666 0.500000
vt 0.812117 0.018178
vt 0.541666 1.000000
vt 0.312117 0.018178
vt 0.500000 0.500000
vt 0.750000 0.010000
vt 0.500000 1.000000
vt 0.250000 0.010000
vt 0.458333 0.500000
vt 0.687883 0.018178
vt 0.458333 1.000000
vt 0.187883 0.018178
vt 0.416666 0.500000
vt 0.630000 0.042154
vt 0.416666 1.000000
vt 0.130000 0.042154
vt 0.375000 0.500000
vt 0.580294 0.080294
vt 0.375000 1.000000
vt 0.080294 0.080294
vt 0.333333 0.500000
vt 0.542154 0.130000
vt 0.333333 1.000000
vt 0.042154 0.130000
vt 0.291667 0.500000
vt 0.518178 0.187883
vt 0.291667 1.000000
vt 0.018178 0.187883
vt 0.250000 0.500000
vt 0.510000 0.250000
vt 0.250000 1.000000
vt 0.010000 0.250000
vt 0.208333 0.500000
vt 0.518178 0.312117
vt 0.208333 1.000000
vt 0.018178 0.312117
vt 0.166666 0.500000
vt 0.542154 0.370000
vt 0.166666 1.000000
vt 0.042154 0.370000
vt 0.125000 0.500000
vt 0.580294 0.419706
vt 0.125000 1.000000
vt 0.080294 0.419706
vt 0.083333 0.500000
vt 0.630000 0.457846
vt 0.130000 0.457846
vt 0.083333 1.000000
vt 0.041666 0.500000
vt 0.687883 0.481822
vt 0.187883 0.481822
vt 0.041666 1.000000
s 0
f 2/4/1 3/7/1 1/1/1
f 4/9/2 5/11/2 3/7/2
f 6/13/3 7/15/3 5/11/3
f 8/17/4 9/19/4 7/15/4
f 10/21/5 11/23/5 9/19/5
f 12/25/6 13/27/6 11/23/6
f 14/29/7 15/31/7 13/27/7
f 16/33/8 17/35/8 15/31/8
f 18/37/9 19/39/9 17/35/9
f 20/41/10 21/43/10 19/39/10
f 22/45/11 23/47/11 21/43/11
f 24/49/12 25/51/12 23/47/12
f 26/53/13 27/55/13 25/51/13
f 28/57/14 29/59/14 27/55/14
f 30/61/15 31/63/15 29/59/15
f 32/65/16 33/67/16 31/63/16
f 34/69/17 35/71/17 33/67/17
f 36/73/18 37/75/18 35/71/18
f 38/77/19 39/79/19 37/75/19
f 40/81/20 41/83/20 39/79/20
f 42/85/21 43/87/21 41/83/21
f 44/89/22 45/91/22 43/87/22
f 38/78/23 22/46/23 6/14/23
f 46/94/24 47/95/24 45/91/24
f 48/98/25 1/2/25 47/95/25
f 39/80/26 47/96/26 15/32/26
f 2/4/1 4/9/1 3/7/1
f 4/9/2 6/13/2 5/11/2
f 6/13/3 8/17/3 7/15/3
f 8/17/4 10/21/4 9/19/4
f 10/21/5 12/25/5 11/23/5
f 12/25/6 14/29/6 13/27/6
f 14/29/7 16/33/7 15/31/7
f 16/33/8 18/37/8 17/35/8
f 18/37/9 20/41/9 19/39/9
f 20/41/10 22/45/10 21/43/10
f 22/45/11 24/49/11 23/47/11
f 24/49/12 26/53/12 25/51/12
f 26/53/13 28/57/13 27/55/13
f 28/57/14 30/61/14 29/59/14
f 30/61/15 32/65/15 31/63/15
f 32/65/16 34/69/16 33/67/16
f 34/69/17 36/73/17 35/71/17
f 36/73/18 38/77/18 37/75/18
f 38/77/19 40/81/19 39/79/19
f 40/81/20 42/85/20 41/83/20
f 42/85/21 44/89/21 43/87/21
f 44/89/22 46/94/22 45/91/22
f 6/14/23 4/10/23 2/5/23
f 2/5/23 48/97/23 46/93/23
f 46/93/23 44/90/23 42/86/23
f 42/86/23 40/82/23 38/78/23
f 38/78/23 36/74/23 34/70/23
f 34/70/23 32/66/23 30/62/23
f 30/62/23 28/58/23 26/54/23
f 26/54/23 24/50/23 22/46/23
f 22/46/23 20/42/23 18/38/23
f 18/38/23 16/34/23 14/30/23
f 14/30/23 12/26/23 10/22/23
f 10/22/23 8/18/23 6/14/23
f 6/14/23 2/5/23 46/93/23
f 46/93/23 42/86/23 6/14/23
f 42/86/23 38/78/23 6/14/23
f 38/78/23 34/70/23 30/62/23
f 30/62/23 26/54/23 38/78/23
f 26/54/23 22/46/23 38/78/23
f 22/46/23 18/38/23 14/30/23
f 14/30/23 10/22/23 6/14/23
f 22/46/23 14/30/23 6/14/23
f 46/94/24 48/98/24 47/95/24
f 48/98/25 2/6/25 1/2/25
f 47/96/26 1/3/26 3/8/26
f 3/8/26 5/12/26 7/16/26
f 7/16/26 9/20/26 11/24/26
f 11/24/26 13/28/26 15/32/26
f 15/32/26 17/36/26 19/40/26
f 19/40/26 21/44/26 23/48/26
f 23/48/26 25/52/26 27/56/26
f 27/56/26 29/60/26 31/64/26
f 31/64/26 33/68/26 35/72/26
f 35/72/26 37/76/26 39/80/26
f 39/80/26 41/84/26 43/88/26
f 43/88/26 45/92/26 47/96/26
f 47/96/26 3/8/26 7/16/26
f 7/16/26 11/24/26 47/96/26
f 11/24/26 15/32/26 47/96/26
f 15/32/26 19/40/26 23/48/26
f 23/48/26 27/56/26 31/64/26
f 31/64/26 35/72/26 39/80/26
f 39/80/26 43/88/26 47/96/26
f 15/32/26 23/48/26 31/64/26
f 31/64/26 39/80/26 15/32/26
