# Blender 3.3.0
# www.blender.org
mtllib torus.mtl
o Torus.001
v 1.340000 0.000000 0.000000
v 1.306329 0.147520 0.000000
v 1.211986 0.265823 0.000000
v 1.075657 0.331475 0.000000
v 0.924343 0.331475 0.000000
v 0.788014 0.265823 0.000000
v 0.693671 0.147520 0.000000
v 0.660000 0.000000 0.000000
v 0.693671 -0.147520 0.000000
v 0.788014 -0.265823 0.000000
v 0.924343 -0.331475 0.000000
v 1.075657 -0.331475 0.000000
v 1.211986 -0.265823 0.000000
v 1.306329 -0.147520 0.000000
v 1.319642 0.000000 -0.232689
v 1.286483 0.147520 -0.226842
v 1.193574 0.265823 -0.210459
v 1.059315 0.331475 -0.186786
v 0.910300 0.331475 -0.160510
v 0.776042 0.265823 -0.136837
v 0.683132 0.147520 -0.120455
v 0.649973 0.000000 -0.114608
v 0.683132 -0.147520 -0.120455
v 0.776042 -0.265823 -0.136837
v 0.910300 -0.331475 -0.160510
v 1.059315 -0.331475 -0.186786
v 1.193574 -0.265823 -0.210459
v 1.286483 -0.147520 -0.226842
v 1.259188 0.000000 -0.458307
v 1.227548 0.147520 -0.446791
v 1.138895 0.265823 -0.414524
v 1.010787 0.331475 -0.367896
v 0.868598 0.331475 -0.316144
v 0.740490 0.265823 -0.269516
v 0.651837 0.147520 -0.237249
v 0.620197 0.000000 -0.225733
v 0.651837 -0.147520 -0.237249
v 0.740490 -0.265823 -0.269516
v 0.868598 -0.331475 -0.316144
v 1.010787 -0.331475 -0.367896
v 1.138895 -0.265823 -0.414524
v 1.227548 -0.147520 -0.446791
v 1.160474 0.000000 -0.670000
v 1.131314 0.147520 -0.653165
v 1.049611 0.265823 -0.605993
v 0.931546 0.331475 -0.537829
v 0.800504 0.331475 -0.462172
v 0.682440 0.265823 -0.394007
v 0.600736 0.147520 -0.346835
v 0.571577 0.000000 -0.330000
v 0.600736 -0.147520 -0.346835
v 0.682440 -0.265823 -0.394007
v 0.800504 -0.331475 -0.462172
v 0.931546 -0.331475 -0.537829
v 1.049611 -0.265823 -0.605993
v 1.131314 -0.147520 -0.653165
v 1.026499 0.000000 -0.861335
v 1.000706 0.147520 -0.839692
v 0.928435 0.265823 -0.779050
v 0.824001 0.331475 -0.691419
v 0.708088 0.331475 -0.594156
v 0.603653 0.265823 -0.506525
v 0.531383 0.147520 -0.445883
v 0.505589 0.000000 -0.424240
v 0.531383 -0.147520 -0.445883
v 0.603653 -0.265823 -0.506525
v 0.708088 -0.331475 -0.594156
v 0.824001 -0.331475 -0.691419
v 0.928435 -0.265823 -0.779050
v 1.000706 -0.147520 -0.839692
v 0.861335 0.000000 -1.026500
v 0.839692 0.147520 -1.000706
v 0.779050 0.265823 -0.928436
v 0.691419 0.331475 -0.824001
v 0.594156 0.331475 -0.708088
v 0.506525 0.265823 -0.603653
v 0.445883 0.147520 -0.531383
v 0.424240 0.000000 -0.505589
v 0.445883 -0.147520 -0.531383
v 0.506525 -0.265823 -0.603653
v 0.594156 -0.331475 -0.708088
v 0.691419 -0.331475 -0.824001
v 0.779050 -0.265823 -0.928436
v 0.839692 -0.147520 -1.000706
v 0.670000 0.000000 -1.160474
v 0.653165 0.147520 -1.131315
v 0.605993 0.265823 -1.049611
v 0.537829 0.331475 -0.931546
v 0.462171 0.331475 -0.800505
v 0.394007 0.265823 -0.682440
v 0.346835 0.147520 -0.600736
v 0.330000 0.000000 -0.571577
v 0.346835 -0.147520 -0.600736
v 0.394007 -0.265823 -0.682440
v 0.462171 -0.331475 -0.800505
v 0.537829 -0.331475 -0.931546
v 0.605993 -0.265823 -1.049611
v 0.653165 -0.147520 -1.131315
v 0.458307 0.000000 -1.259188
v 0.446791 0.147520 -1.227548
v 0.414524 0.265823 -1.138895
v 0.367896 0.331475 -1.010787
v 0.316144 0.331475 -0.868598
v 0.269516 0.265823 -0.740490
v 0.237249 0.147520 -0.651837
v 0.225733 0.000000 -0.620197
v 0.237249 -0.147520 -0.651837
v 0.269516 -0.265823 -0.740490
v 0.316144 -0.331475 -0.868598
v 0.367896 -0.331475 -1.010787
v 0.414524 -0.265823 -1.138895
v 0.446791 -0.147520 -1.227548
v 0.232689 0.000000 -1.319642
v 0.226842 0.147520 -1.286483
v 0.210459 0.265823 -1.193574
v 0.186786 0.331475 -1.059315
v 0.160511 0.331475 -0.910300
v 0.136837 0.265823 -0.776042
v 0.120455 0.147520 -0.683132
v 0.114608 0.000000 -0.649973
v 0.120455 -0.147520 -0.683132
v 0.136837 -0.265823 -0.776042
v 0.160511 -0.331475 -0.910300
v 0.186786 -0.331475 -1.059315
v 0.210459 -0.265823 -1.193574
v 0.226842 -0.147520 -1.286483
v 0.000000 0.000000 -1.340000
v 0.000000 0.147520 -1.306329
v 0.000000 0.265823 -1.211986
v 0.000000 0.331475 -1.075657
v 0.000000 0.331475 -0.924343
v 0.000000 0.265823 -0.788014
v 0.000000 0.147520 -0.693671
v 0.000000 0.000000 -0.660000
v 0.000000 -0.147520 -0.693671
v 0.000000 -0.265823 -0.788014
v 0.000000 -0.331475 -0.924343
v 0.000000 -0.331475 -1.075657
v 0.000000 -0.265823 -1.211986
v 0.000000 -0.147520 -1.306329
v -0.232688 0.000000 -1.319642
v -0.226842 0.147520 -1.286483
v -0.210459 0.265823 -1.193574
v -0.186786 0.331475 -1.059316
v -0.160510 0.331475 -0.910300
v -0.136837 0.265823 -0.776042
v -0.120455 0.147520 -0.683132
v -0.114608 0.000000 -0.649973
v -0.120455 -0.147520 -0.683132
v -0.136837 -0.265823 -0.776042
v -0.160510 -0.331475 -0.910300
v -0.186786 -0.331475 -1.059316
v -0.210459 -0.265823 -1.193574
v -0.226842 -0.147520 -1.286483
v -0.458307 0.000000 -1.259188
v -0.446791 0.147520 -1.227548
v -0.414524 0.265823 -1.138895
v -0.367896 0.331475 -1.010787
v -0.316144 0.331475 -0.868598
v -0.269516 0.265823 -0.740491
v -0.237249 0.147520 -0.651837
v -0.225733 0.000000 -0.620197
v -0.237249 -0.147520 -0.651837
v -0.269516 -0.265823 -0.740491
v -0.316144 -0.331475 -0.868598
v -0.367896 -0.331475 -1.010787
v -0.414524 -0.265823 -1.138895
v -0.446791 -0.147520 -1.227548
v -0.670000 0.000000 -1.160474
v -0.653165 0.147520 -1.131315
v -0.605993 0.265823 -1.049611
v -0.537828 0.331475 -0.931547
v -0.462171 0.331475 -0.800505
v -0.394007 0.265823 -0.682440
v -0.346835 0.147520 -0.600736
v -0.330000 0.000000 -0.571577
v -0.346835 -0.147520 -0.600736
v -0.394007 -0.265823 -0.682440
v -0.462171 -0.331475 -0.800505
v -0.537828 -0.331475 -0.931547
v -0.605993 -0.265823 -1.049611
v -0.653165 -0.147520 -1.131315
v -0.861335 0.000000 -1.026500
v -0.839692 0.147520 -1.000707
v -0.779050 0.265823 -0.928436
v -0.691419 0.331475 -0.824001
v -0.594156 0.331475 -0.708088
v -0.506525 0.265823 -0.603653
v -0.445883 0.147520 -0.531383
v -0.424240 0.000000 -0.505589
v -0.445883 -0.147520 -0.531383
v -0.506525 -0.265823 -0.603653
v -0.594156 -0.331475 -0.708088
v -0.691419 -0.331475 -0.824001
v -0.779050 -0.265823 -0.928436
v -0.839692 -0.147520 -1.000707
v -1.026499 0.000000 -0.861336
v -1.000706 0.147520 -0.839693
v -0.928435 0.265823 -0.779050
v -0.824001 0.331475 -0.691419
v -0.708088 0.331475 -0.594156
v -0.603653 0.265823 -0.506525
v -0.531382 0.147520 -0.445883
v -0.505589 0.000000 -0.424240
v -0.531382 -0.147520 -0.445883
v -0.603653 -0.265823 -0.506525
v -0.708088 -0.331475 -0.594156
v -0.824001 -0.331475 -0.691419
v -0.928435 -0.265823 -0.779050
v -1.000706 -0.147520 -0.839693
v -1.160474 0.000000 -0.670000
v -1.131314 0.147520 -0.653165
v -1.049611 0.265823 -0.605994
v -0.931546 0.331475 -0.537829
v -0.800504 0.331475 -0.462172
v -0.682440 0.265823 -0.394007
v -0.600736 0.147520 -0.346836
v -0.571577 0.000000 -0.330000
v -0.600736 -0.147520 -0.346836
v -0.682440 -0.265823 -0.394007
v -0.800504 -0.331475 -0.462172
v -0.931546 -0.331475 -0.537829
v -1.049611 -0.265823 -0.605994
v -1.131314 -0.147520 -0.653165
v -1.259188 0.000000 -0.458307
v -1.227548 0.147520 -0.446791
v -1.138895 0.265823 -0.414524
v -1.010787 0.331475 -0.367897
v -0.868598 0.331475 -0.316144
v -0.740490 0.265823 -0.269517
v -0.651837 0.147520 -0.237250
v -0.620197 0.000000 -0.225734
v -0.651837 -0.147520 -0.237250
v -0.740490 -0.265823 -0.269517
v -0.868598 -0.331475 -0.316144
v -1.010787 -0.331475 -0.367897
v -1.138895 -0.265823 -0.414524
v -1.227548 -0.147520 -0.446791
v -1.319642 0.000000 -0.232689
v -1.286483 0.147520 -0.226842
v -1.193573 0.265823 -0.210460
v -1.059315 0.331475 -0.186786
v -0.910300 0.331475 -0.160511
v -0.776042 0.265823 -0.136837
v -0.683132 0.147520 -0.120455
v -0.649973 0.000000 -0.114608
v -0.683132 -0.147520 -0.120455
v -0.776042 -0.265823 -0.136837
v -0.910300 -0.331475 -0.160511
v -1.059315 -0.331475 -0.186786
v -1.193573 -0.265823 -0.210460
v -1.286483 -0.147520 -0.226842
v -1.340000 0.000000 -0.000000
v -1.306329 0.147520 -0.000000
v -1.211986 0.265823 -0.000000
v -1.075657 0.331475 -0.000000
v -0.924343 0.331475 -0.000000
v -0.788014 0.265823 -0.000000
v -0.693671 0.147520 -0.000000
v -0.660000 0.000000 -0.000000
v -0.693671 -0.147520 -0.000000
v -0.788014 -0.265823 -0.000000
v -0.924343 -0.331475 -0.000000
v -1.075657 -0.331475 -0.000000
v -1.211986 -0.265823 -0.000000
v -1.306329 -0.147520 -0.000000
v -1.319642 0.000000 0.232688
v -1.286483 0.147520 0.226842
v -1.193574 0.265823 0.210459
v -1.059316 0.331475 0.186786
v -0.910300 0.331475 0.160510
v -0.776042 0.265823 0.136837
v -0.683132 0.147520 0.120455
v -0.649973 0.000000 0.114608
v -0.683132 -0.147520 0.120455
v -0.776042 -0.265823 0.136837
v -0.910300 -0.331475 0.160510
v -1.059316 -0.331475 0.186786
v -1.193574 -0.265823 0.210459
v -1.286483 -0.147520 0.226842
v -1.259188 0.000000 0.458307
v -1.227548 0.147520 0.446791
v -1.138895 0.265823 0.414524
v -1.010787 0.331475 0.367896
v -0.868598 0.331475 0.316144
v -0.740491 0.265823 0.269516
v -0.651837 0.147520 0.237249
v -0.620197 0.000000 0.225733
v -0.651837 -0.147520 0.237249
v -0.740491 -0.265823 0.269516
v -0.868598 -0.331475 0.316144
v -1.010787 -0.331475 0.367896
v -1.138895 -0.265823 0.414524
v -1.227548 -0.147520 0.446791
v -1.160474 0.000000 0.670000
v -1.131315 0.147520 0.653164
v -1.049611 0.265823 0.605993
v -0.931547 0.331475 0.537828
v -0.800505 0.331475 0.462171
v -0.682440 0.265823 0.394007
v -0.600736 0.147520 0.346835
v -0.571577 0.000000 0.330000
v -0.600736 -0.147520 0.346835
v -0.682440 -0.265823 0.394007
v -0.800505 -0.331475 0.462171
v -0.931547 -0.331475 0.537828
v -1.049611 -0.265823 0.605993
v -1.131315 -0.147520 0.653164
v -1.026500 0.000000 0.861335
v -1.000707 0.147520 0.839692
v -0.928436 0.265823 0.779050
v -0.824001 0.331475 0.691419
v -0.708088 0.331475 0.594156
v -0.603653 0.265823 0.506525
v -0.531383 0.147520 0.445883
v -0.505589 0.000000 0.424240
v -0.531383 -0.147520 0.445883
v -0.603653 -0.265823 0.506525
v -0.708088 -0.331475 0.594156
v -0.824001 -0.331475 0.691419
v -0.928436 -0.265823 0.779050
v -1.000707 -0.147520 0.839692
v -0.861335 0.000000 1.026500
v -0.839692 0.147520 1.000707
v -0.779050 0.265823 0.928436
v -0.691419 0.331475 0.824001
v -0.594156 0.331475 0.708088
v -0.506525 0.265823 0.603653
v -0.445883 0.147520 0.531383
v -0.424240 0.000000 0.505589
v -0.445883 -0.147520 0.531383
v -0.506525 -0.265823 0.603653
v -0.594156 -0.331475 0.708088
v -0.691419 -0.331475 0.824001
v -0.779050 -0.265823 0.928436
v -0.839692 -0.147520 1.000707
v -0.670000 0.000000 1.160474
v -0.653165 0.147520 1.131315
v -0.605993 0.265823 1.049611
v -0.537828 0.331475 0.931547
v -0.462171 0.331475 0.800505
v -0.394007 0.265823 0.682440
v -0.346835 0.147520 0.600736
v -0.330000 0.000000 0.571577
v -0.346835 -0.147520 0.600736
v -0.394007 -0.265823 0.682440
v -0.462171 -0.331475 0.800505
v -0.537828 -0.331475 0.931547
v -0.605993 -0.265823 1.049611
v -0.653165 -0.147520 1.131315
v -0.458307 0.000000 1.259188
v -0.446791 0.147520 1.227548
v -0.414524 0.265823 1.138895
v -0.367896 0.331475 1.010787
v -0.316144 0.331475 0.868598
v -0.269516 0.265823 0.740491
v -0.237249 0.147520 0.651837
v -0.225733 0.000000 0.620197
v -0.237249 -0.147520 0.651837
v -0.269516 -0.265823 0.740491
v -0.316144 -0.331475 0.868598
v -0.367896 -0.331475 1.010787
v -0.414524 -0.265823 1.138895
v -0.446791 -0.147520 1.227548
v -0.232688 0.000000 1.319642
v -0.226842 0.147520 1.286483
v -0.210459 0.265823 1.193574
v -0.186786 0.331475 1.059316
v -0.160510 0.331475 0.910300
v -0.136837 0.265823 0.776042
v -0.120455 0.147520 0.683132
v -0.114608 0.000000 0.649973
v -0.120455 -0.147520 0.683132
v -0.136837 -0.265823 0.776042
v -0.160510 -0.331475 0.910300
v -0.186786 -0.331475 1.059316
v -0.210459 -0.265823 1.193574
v -0.226842 -0.147520 1.286483
v 0.000000 0.000000 1.340000
v 0.000000 0.147520 1.306329
v 0.000000 0.265823 1.211986
v 0.000000 0.331475 1.075657
v 0.000000 0.331475 0.924343
v 0.000000 0.265823 0.788014
v 0.000000 0.147520 0.693671
v 0.000000 0.000000 0.660000
v 0.000000 -0.147520 0.693671
v 0.000000 -0.265823 0.788014
v 0.000000 -0.331475 0.924343
v 0.000000 -0.331475 1.075657
v 0.000000 -0.265823 1.211986
v 0.000000 -0.147520 1.306329
v 0.232689 0.000000 1.319642
v 0.226842 0.147520 1.286483
v 0.210459 0.265823 1.193574
v 0.186786 0.331475 1.059315
v 0.160511 0.331475 0.910300
v 0.136837 0.265823 0.776042
v 0.120455 0.147520 0.683132
v 0.114608 0.000000 0.649973
v 0.120455 -0.147520 0.683132
v 0.136837 -0.265823 0.776042
v 0.160511 -0.331475 0.910300
v 0.186786 -0.331475 1.059315
v 0.210459 -0.265823 1.193574
v 0.226842 -0.147520 1.286483
v 0.458307 0.000000 1.259188
v 0.446791 0.147520 1.227548
v 0.414524 0.265823 1.138895
v 0.367896 0.331475 1.010787
v 0.316144 0.331475 0.868598
v 0.269516 0.265823 0.740490
v 0.237249 0.147520 0.651837
v 0.225733 0.000000 0.620197
v 0.237249 -0.147520 0.651837
v 0.269516 -0.265823 0.740490
v 0.316144 -0.331475 0.868598
v 0.367896 -0.331475 1.010787
v 0.414524 -0.265823 1.138895
v 0.446791 -0.147520 1.227548
v 0.670000 0.000000 1.160474
v 0.653165 0.147520 1.131315
v 0.605993 0.265823 1.049611
v 0.537829 0.331475 0.931546
v 0.462171 0.331475 0.800505
v 0.394007 0.265823 0.682440
v 0.346835 0.147520 0.600736
v 0.330000 0.000000 0.571577
v 0.346835 -0.147520 0.600736
v 0.394007 -0.265823 0.682440
v 0.462171 -0.331475 0.800505
v 0.537829 -0.331475 0.931546
v 0.605993 -0.265823 1.049611
v 0.653165 -0.147520 1.131315
v 0.861335 0.000000 1.026500
v 0.839692 0.147520 1.000706
v 0.779050 0.265823 0.928436
v 0.691419 0.331475 0.824001
v 0.594156 0.331475 0.708088
v 0.506525 0.265823 0.603653
v 0.445883 0.147520 0.531383
v 0.424240 0.000000 0.505589
v 0.445883 -0.147520 0.531383
v 0.506525 -0.265823 0.603653
v 0.594156 -0.331475 0.708088
v 0.691419 -0.331475 0.824001
v 0.779050 -0.265823 0.928436
v 0.839692 -0.147520 1.000706
v 1.026499 0.000000 0.861335
v 1.000706 0.147520 0.839692
v 0.928435 0.265823 0.779050
v 0.824001 0.331475 0.691419
v 0.708088 0.331475 0.594156
v 0.603653 0.265823 0.506525
v 0.531383 0.147520 0.445883
v 0.505589 0.000000 0.424240
v 0.531383 -0.147520 0.445883
v 0.603653 -0.265823 0.506525
v 0.708088 -0.331475 0.594156
v 0.824001 -0.331475 0.691419
v 0.928435 -0.265823 0.779050
v 1.000706 -0.147520 0.839692
v 1.160474 0.000000 0.670000
v 1.131314 0.147520 0.653165
v 1.049611 0.265823 0.605993
v 0.931546 0.331475 0.537829
v 0.800504 0.331475 0.462172
v 0.682440 0.265823 0.394007
v 0.600736 0.147520 0.346835
v 0.571577 0.000000 0.330000
v 0.600736 -0.147520 0.346835
v 0.682440 -0.265823 0.394007
v 0.800504 -0.331475 0.462172
v 0.931546 -0.331475 0.537829
v 1.049611 -0.265823 0.605993
v 1.131314 -0.147520 0.653165
v 1.259188 0.000000 0.458307
v 1.227548 0.147520 0.446791
v 1.138895 0.265823 0.414524
v 1.010787 0.331475 0.367897
v 0.868598 0.331475 0.316144
v 0.740490 0.265823 0.269517
v 0.651837 0.147520 0.237249
v 0.620197 0.000000 0.225733
v 0.651837 -0.147520 0.237249
v 0.740490 -0.265823 0.269517
v 0.868598 -0.331475 0.316144
v 1.010787 -0.331475 0.367897
v 1.138895 -0.265823 0.414524
v 1.227548 -0.147520 0.446791
v 1.319642 0.000000 0.232689
v 1.286483 0.147520 0.226842
v 1.193574 0.265823 0.210459
v 1.059315 0.331475 0.186786
v 0.910300 0.331475 0.160511
v 0.776042 0.265823 0.136837
v 0.683132 0.147520 0.120455
v 0.649973 0.000000 0.114608
v 0.683132 -0.147520 0.120455
v 0.776042 -0.265823 0.136837
v 0.910300 -0.331475 0.160511
v 1.059315 -0.331475 0.186786
v 1.193574 -0.265823 0.210459
v 1.286483 -0.147520 0.226842
vn 0.9714 0.2217 -0.0850
vn 0.7800 0.6220 -0.0682
vn 0.4336 0.9003 -0.0379
vn -0.0000 1.0000 -0.0000
vn -0.4336 0.9003 0.0379
vn -0.7800 0.6220 0.0682
vn -0.9714 0.2217 0.0850
vn -0.9714 -0.2217 0.0850
vn -0.7800 -0.6220 0.0682
vn -0.4336 -0.9003 0.0379
vn -0.0000 -1.0000 -0.0000
vn 0.4336 -0.9003 -0.0379
vn 0.7800 -0.6220 -0.0682
vn 0.9714 -0.2217 -0.0850
vn 0.9419 0.2217 -0.2524
vn 0.7563 0.6220 -0.2027
vn 0.4204 0.9003 -0.1126
vn -0.4204 0.9003 0.1126
vn -0.7563 0.6220 0.2027
vn -0.9419 0.2217 0.2524
vn -0.9419 -0.2217 0.2524
vn -0.7563 -0.6220 0.2027
vn -0.4204 -0.9003 0.1126
vn 0.4204 -0.9003 -0.1126
vn 0.7563 -0.6220 -0.2027
vn 0.9419 -0.2217 -0.2524
vn 0.8838 0.2217 -0.4121
vn 0.7096 0.6220 -0.3309
vn 0.3945 0.9003 -0.1839
vn -0.3944 0.9003 0.1839
vn -0.7096 0.6220 0.3309
vn -0.8838 0.2217 0.4121
vn -0.8838 -0.2217 0.4121
vn -0.7096 -0.6220 0.3309
vn -0.3945 -0.9003 0.1839
vn 0.3945 -0.9003 -0.1839
vn 0.7096 -0.6220 -0.3309
vn 0.8838 -0.2217 -0.4121
vn 0.7988 0.2217 -0.5593
vn 0.6414 0.6220 -0.4491
vn 0.3565 0.9003 -0.2496
vn -0.3565 0.9003 0.2496
vn -0.6414 0.6220 0.4491
vn -0.7988 0.2217 0.5593
vn -0.7988 -0.2217 0.5593
vn -0.6414 -0.6220 0.4491
vn -0.3565 -0.9003 0.2496
vn 0.3565 -0.9003 -0.2496
vn 0.6414 -0.6220 -0.4491
vn 0.7988 -0.2217 -0.5593
vn 0.6895 0.2217 -0.6895
vn 0.5537 0.6220 -0.5537
vn 0.3078 0.9003 -0.3078
vn -0.3078 0.9003 0.3078
vn -0.5537 0.6220 0.5537
vn -0.6895 0.2217 0.6895
vn -0.6895 -0.2217 0.6895
vn -0.5537 -0.6220 0.5537
vn -0.3078 -0.9003 0.3078
vn 0.3078 -0.9003 -0.3078
vn 0.5537 -0.6220 -0.5537
vn 0.6895 -0.2217 -0.6895
vn 0.5593 0.2217 -0.7988
vn 0.4491 0.6220 -0.6414
vn 0.2496 0.9003 -0.3565
vn -0.2496 0.9003 0.3565
vn -0.4491 0.6220 0.6414
vn -0.5593 0.2217 0.7988
vn -0.5593 -0.2217 0.7988
vn -0.4491 -0.6220 0.6414
vn -0.2496 -0.9003 0.3565
vn 0.2496 -0.9003 -0.3565
vn 0.4491 -0.6220 -0.6414
vn 0.5593 -0.2217 -0.7988
vn 0.4121 0.2217 -0.8838
vn 0.3309 0.6220 -0.7096
vn 0.1839 0.9003 -0.3945
vn -0.1839 0.9003 0.3945
vn -0.3309 0.6220 0.7096
vn -0.4121 0.2217 0.8838
vn -0.4121 -0.2217 0.8838
vn -0.3309 -0.6220 0.7096
vn -0.1839 -0.9003 0.3945
vn 0.1839 -0.9003 -0.3945
vn 0.3309 -0.6220 -0.7096
vn 0.4121 -0.2217 -0.8838
vn 0.2524 0.2217 -0.9419
vn 0.2027 0.6220 -0.7563
vn 0.1126 0.9003 -0.4204
vn -0.1126 0.9003 0.4204
vn -0.2027 0.6220 0.7563
vn -0.2524 0.2217 0.9419
vn -0.2524 -0.2217 0.9419
vn -0.2027 -0.6220 0.7563
vn -0.1126 -0.9003 0.4204
vn 0.1126 -0.9003 -0.4204
vn 0.2027 -0.6220 -0.7563
vn 0.2524 -0.2217 -0.9419
vn 0.0850 0.2217 -0.9714
vn 0.0682 0.6220 -0.7800
vn 0.0379 0.9003 -0.4336
vn -0.0379 0.9003 0.4336
vn -0.0682 0.6220 0.7800
vn -0.0850 0.2217 0.9714
vn -0.0850 -0.2217 0.9714
vn -0.0682 -0.6220 0.7800
vn -0.0379 -0.9003 0.4336
vn 0.0379 -0.9003 -0.4336
vn 0.0682 -0.6220 -0.7800
vn 0.0850 -0.2217 -0.9714
vn -0.0850 0.2217 -0.9714
vn -0.0682 0.6220 -0.7800
vn -0.0379 0.9003 -0.4336
vn 0.0379 0.9003 0.4336
vn 0.0682 0.6220 0.7800
vn 0.0850 0.2217 0.9714
vn 0.0850 -0.2217 0.9714
vn 0.0682 -0.6220 0.7800
vn 0.0379 -0.9003 0.4336
vn -0.0379 -0.9003 -0.4336
vn -0.0682 -0.6220 -0.7800
vn -0.0850 -0.2217 -0.9714
vn -0.2524 0.2217 -0.9419
vn -0.2027 0.6220 -0.7563
vn -0.1126 0.9003 -0.4204
vn 0.1126 0.9003 0.4204
vn 0.2027 0.6220 0.7563
vn 0.2524 0.2217 0.9419
vn 0.2524 -0.2217 0.9419
vn 0.2027 -0.6220 0.7563
vn 0.1126 -0.9003 0.4204
vn -0.1126 -0.9003 -0.4204
vn -0.2027 -0.6220 -0.7563
vn -0.2524 -0.2217 -0.9419
vn -0.4121 0.2217 -0.8838
vn -0.3309 0.6220 -0.7096
vn -0.1839 0.9003 -0.3945
vn 0.1839 0.9003 0.3944
vn 0.3309 0.6220 0.7096
vn 0.4121 0.2217 0.8838
vn 0.4121 -0.2217 0.8838
vn 0.3309 -0.6220 0.7096
vn 0.1839 -0.9003 0.3945
vn -0.1839 -0.9003 -0.3945
vn -0.3309 -0.6220 -0.7096
vn -0.4121 -0.2217 -0.8838
vn -0.5593 0.2217 -0.7988
vn -0.4491 0.6220 -0.6414
vn -0.2496 0.9003 -0.3565
vn 0.2496 0.9003 0.3565
vn 0.4491 0.6220 0.6414
vn 0.5593 0.2217 0.7988
vn 0.5593 -0.2217 0.7988
vn 0.4491 -0.6220 0.6414
vn 0.2496 -0.9003 0.3565
vn -0.2496 -0.9003 -0.3565
vn -0.4491 -0.6220 -0.6414
vn -0.5593 -0.2217 -0.7988
vn -0.6895 0.2217 -0.6895
vn -0.5537 0.6220 -0.5537
vn -0.3078 0.9003 -0.3078
vn 0.3078 0.9003 0.3078
vn 0.5537 0.6220 0.5537
vn 0.6895 0.2217 0.6895
vn 0.6895 -0.2217 0.6895
vn 0.5537 -0.6220 0.5537
vn 0.3078 -0.9003 0.3078
vn -0.3078 -0.9003 -0.3078
vn -0.5537 -0.6220 -0.5537
vn -0.6895 -0.2217 -0.6895
vn -0.7988 0.2217 -0.5593
vn -0.6414 0.6220 -0.4491
vn -0.3565 0.9003 -0.2496
vn 0.3565 0.9003 0.2496
vn 0.6414 0.6220 0.4491
vn 0.7988 0.2217 0.5593
vn 0.7988 -0.2217 0.5593
vn 0.6414 -0.6220 0.4491
vn 0.3565 -0.9003 0.2496
vn -0.3565 -0.9003 -0.2496
vn -0.6414 -0.6220 -0.4491
vn -0.7988 -0.2217 -0.5593
vn -0.8838 0.2217 -0.4121
vn -0.7096 0.6220 -0.3309
vn -0.3945 0.9003 -0.1839
vn 0.3945 0.9003 0.1839
vn 0.7096 0.6220 0.3309
vn 0.8838 0.2217 0.4121
vn 0.8838 -0.2217 0.4121
vn 0.7096 -0.6220 0.3309
vn 0.3945 -0.9003 0.1839
vn -0.3945 -0.9003 -0.1839
vn -0.7096 -0.6220 -0.3309
vn -0.8838 -0.2217 -0.4121
vn -0.9419 0.2217 -0.2524
vn -0.7563 0.6220 -0.2027
vn -0.4204 0.9003 -0.1126
vn 0.4204 0.9003 0.1126
vn 0.7563 0.6220 0.2027
vn 0.9419 0.2217 0.2524
vn 0.9419 -0.2217 0.2524
vn 0.7563 -0.6220 0.2027
vn 0.4204 -0.9003 0.1126
vn -0.4204 -0.9003 -0.1126
vn -0.7563 -0.6220 -0.2027
vn -0.9419 -0.2217 -0.2524
vn -0.9714 0.2217 -0.0850
vn -0.7800 0.6220 -0.0682
vn -0.4336 0.9003 -0.0379
vn 0.4336 0.9003 0.0379
vn 0.7800 0.6220 0.0682
vn 0.9714 0.2217 0.0850
vn 0.9714 -0.2217 0.0850
vn 0.7800 -0.6220 0.0682
vn 0.4336 -0.9003 0.0379
vn -0.4336 -0.9003 -0.0379
vn -0.7800 -0.6220 -0.0682
vn -0.9714 -0.2217 -0.0850
vn -0.3945 0.9003 0.1839
vn -0.1839 0.9003 0.3944
vn 0.1839 0.9003 -0.3944
vn 0.1839 0.9003 0.3945
vn 0.1839 -0.9003 0.3944
vn -0.1839 -0.9003 -0.3944
vn 0.3944 0.9003 0.1839
vn 0.3944 -0.9003 0.1839
vn 0.1839 -0.9003 -0.3944
vn -0.1839 -0.9003 0.3944
vn -0.3944 0.9003 -0.1839
vn -0.3944 -0.9003 -0.1839
vt 0.500000 0.500000
vt 0.500000 0.571429
vt 0.500000 0.642857
vt 0.500000 0.714286
vt 0.500000 0.785714
vt 0.500000 0.857143
vt 0.500000 0.928571
vt 0.500000 1.000000
vt 0.500000 -0.000000
vt 0.500000 0.071429
vt 0.500000 0.142857
vt 0.500000 0.214286
vt 0.500000 0.285714
vt 0.500000 0.357143
vt 0.500000 0.428571
vt 0.527778 0.500000
vt 0.527778 0.571429
vt 0.527778 0.642857
vt 0.527778 0.714286
vt 0.527778 0.785714
vt 0.527778 0.857143
vt 0.527778 0.928571
vt 0.527778 -0.000000
vt 0.527778 1.000000
vt 0.527778 0.071429
vt 0.527778 0.142857
vt 0.527778 0.214286
vt 0.527778 0.285714
vt 0.527778 0.357143
vt 0.527778 0.428571
vt 0.555556 0.500000
vt 0.555556 0.571429
vt 0.555556 0.642857
vt 0.555556 0.714286
vt 0.555556 0.785714
vt 0.555556 0.857143
vt 0.555556 0.928571
vt 0.555556 -0.000000
vt 0.555556 1.000000
vt 0.555556 0.071429
vt 0.555556 0.142857
vt 0.555556 0.214286
vt 0.555556 0.285714
vt 0.555556 0.357143
vt 0.555556 0.428571
vt 0.583333 0.500000
vt 0.583333 0.571429
vt 0.583333 0.642857
vt 0.583333 0.714286
vt 0.583333 0.785714
vt 0.583333 0.857143
vt 0.583333 0.928571
vt 0.583333 -0.000000
vt 0.583333 1.000000
vt 0.583333 0.071429
vt 0.583333 0.142857
vt 0.583333 0.214286
vt 0.583333 0.285714
vt 0.583333 0.357143
vt 0.583333 0.428571
vt 0.611111 0.500000
vt 0.611111 0.571429
vt 0.611111 0.642857
vt 0.611111 0.714286
vt 0.611111 0.785714
vt 0.611111 0.857143
vt 0.611111 0.928571
vt 0.611111 1.000000
vt 0.611111 -0.000000
vt 0.611111 0.071429
vt 0.611111 0.142857
vt 0.611111 0.214286
vt 0.611111 0.285714
vt 0.611111 0.357143
vt 0.611111 0.428571
vt 0.638889 0.500000
vt 0.638889 0.571429
vt 0.638889 0.642857
vt 0.638889 0.714286
vt 0.638889 0.785714
vt 0.638889 0.857143
vt 0.638889 0.928571
vt 0.638889 1.000000
vt 0.638889 -0.000000
vt 0.638889 0.071429
vt 0.638889 0.142857
vt 0.638889 0.214286
vt 0.638889 0.285714
vt 0.638889 0.357143
vt 0.638889 0.428571
vt 0.666667 0.500000
vt 0.666667 0.571429
vt 0.666667 0.642857
vt 0.666667 0.714286
vt 0.666667 0.785714
vt 0.666667 0.857143
vt 0.666667 0.928571
vt 0.666667 1.000000
vt 0.666667 -0.000000
vt 0.666667 0.071429
vt 0.666667 0.142857
vt 0.666667 0.214286
vt 0.666667 0.285714
vt 0.666667 0.357143
vt 0.666667 0.428571
vt 0.694444 0.500000
vt 0.694444 0.571429
vt 0.694444 0.642857
vt 0.694444 0.714286
vt 0.694444 0.785714
vt 0.694444 0.857143
vt 0.694444 0.928571
vt 0.694444 -0.000000
vt 0.694444 1.000000
vt 0.694444 0.071429
vt 0.694444 0.142857
vt 0.694444 0.214286
vt 0.694444 0.285714
vt 0.694444 0.357143
vt 0.694444 0.428571
vt 0.722222 0.500000
vt 0.722222 0.571429
vt 0.722222 0.642857
vt 0.722222 0.714286
vt 0.722222 0.785714
vt 0.722222 0.857143
vt 0.722222 0.928571
vt 0.722222 1.000000
vt 0.722222 -0.000000
vt 0.722222 0.071429
vt 0.722222 0.142857
vt 0.722222 0.214286
vt 0.722222 0.285714
vt 0.722222 0.357143
vt 0.722222 0.428571
vt 0.750000 0.500000
vt 0.750000 0.571429
vt 0.750000 0.642857
vt 0.750000 0.714286
vt 0.750000 0.785714
vt 0.750000 0.857143
vt 0.750000 0.928571
vt 0.750000 1.000000
vt 0.750000 -0.000000
vt 0.750000 0.071429
vt 0.750000 0.142857
vt 0.750000 0.214286
vt 0.750000 0.285714
vt 0.750000 0.357143
vt 0.750000 0.428571
vt 0.777778 0.500000
vt 0.777778 0.571429
vt 0.777778 0.642857
vt 0.777778 0.714286
vt 0.777778 0.785714
vt 0.777778 0.857143
vt 0.777778 0.928571
vt 0.777778 -0.000000
vt 0.777778 1.000000
vt 0.777778 0.071429
vt 0.777778 0.142857
vt 0.777778 0.214286
vt 0.777778 0.285714
vt 0.777778 0.357143
vt 0.777778 0.428571
vt 0.805556 0.500000
vt 0.805556 0.571429
vt 0.805556 0.642857
vt 0.805556 0.714286
vt 0.805556 0.785714
vt 0.805556 0.857143
vt 0.805556 0.928571
vt 0.805556 -0.000000
vt 0.805556 1.000000
vt 0.805556 0.071429
vt 0.805556 0.142857
vt 0.805556 0.214286
vt 0.805556 0.285714
vt 0.805556 0.357143
vt 0.805556 0.428571
vt 0.833333 0.500000
vt 0.833333 0.571429
vt 0.833333 0.642857
vt 0.833333 0.714286
vt 0.833333 0.785714
vt 0.833333 0.857143
vt 0.833333 0.928571
vt 0.833333 -0.000000
vt 0.833333 1.000000
vt 0.833333 0.071429
vt 0.833333 0.142857
vt 0.833333 0.214286
vt 0.833333 0.285714
vt 0.833333 0.357143
vt 0.833333 0.428571
vt 0.861111 0.500000
vt 0.861111 0.571429
vt 0.861111 0.642857
vt 0.861111 0.714286
vt 0.861111 0.785714
vt 0.861111 0.857143
vt 0.861111 0.928571
vt 0.861111 -0.000000
vt 0.861111 1.000000
vt 0.861111 0.071429
vt 0.861111 0.142857
vt 0.861111 0.214286
vt 0.861111 0.285714
vt 0.861111 0.357143
vt 0.861111 0.428571
vt 0.888889 0.500000
vt 0.888889 0.571429
vt 0.888889 0.642857
vt 0.888889 0.714286
vt 0.888889 0.785714
vt 0.888889 0.857143
vt 0.888889 0.928571
vt 0.888889 -0.000000
vt 0.888889 1.000000
vt 0.888889 0.071429
vt 0.888889 0.142857
vt 0.888889 0.214286
vt 0.888889 0.285714
vt 0.888889 0.357143
vt 0.888889 0.428571
vt 0.916667 0.500000
vt 0.916667 0.571429
vt 0.916667 0.642857
vt 0.916667 0.714286
vt 0.916667 0.785714
vt 0.916667 0.857143
vt 0.916667 0.928571
vt 0.916667 1.000000
vt 0.916667 -0.000000
vt 0.916667 0.071429
vt 0.916667 0.142857
vt 0.916667 0.214286
vt 0.916667 0.285714
vt 0.916667 0.357143
vt 0.916667 0.428571
vt 0.944444 0.500000
vt 0.944444 0.571429
vt 0.944444 0.642857
vt 0.944444 0.714286
vt 0.944444 0.785714
vt 0.944444 0.857143
vt 0.944444 0.928571
vt 0.944444 -0.000000
vt 0.944444 1.000000
vt 0.944444 0.071429
vt 0.944444 0.142857
vt 0.944444 0.214286
vt 0.944444 0.285714
vt 0.944444 0.357143
vt 0.944444 0.428571
vt 0.972222 0.500000
vt 0.972222 0.571429
vt 0.972222 0.642857
vt 0.972222 0.714286
vt 0.972222 0.785714
vt 0.972222 0.857143
vt 0.972222 0.928571
vt 0.972222 -0.000000
vt 0.972222 1.000000
vt 0.972222 0.071429
vt 0.972222 0.142857
vt 0.972222 0.214286
vt 0.972222 0.285714
vt 0.972222 0.357143
vt 0.972222 0.428571
vt 1.000000 0.500000
vt 0.000000 0.500000
vt 1.000000 0.571429
vt 0.000000 0.571429
vt 1.000000 0.642857
vt 0.000000 0.642857
vt 0.000000 0.714286
vt 1.000000 0.714286
vt 1.000000 0.785714
vt 0.000000 0.785714
vt 1.000000 0.857143
vt 0.000000 0.857143
vt 1.000000 0.928571
vt 0.000000 0.928571
vt 1.000000 1.000000
vt 1.000000 -0.000000
vt 0.000000 1.000000
vt 0.000000 -0.000000
vt 0.000000 0.071429
vt 1.000000 0.071429
vt 1.000000 0.142857
vt 0.000000 0.142857
vt 1.000000 0.214286
vt 0.000000 0.214286
vt 1.000000 0.285714
vt 0.000000 0.285714
vt 1.000000 0.357143
vt 0.000000 0.357143
vt 1.000000 0.428571
vt 0.000000 0.428571
vt 0.027778 0.500000
vt 0.027778 0.571429
vt 0.027778 0.642857
vt 0.027778 0.714286
vt 0.027778 0.785714
vt 0.027778 0.857143
vt 0.027778 0.928571
vt 0.027778 1.000000
vt 0.027778 -0.000000
vt 0.027778 0.071429
vt 0.027778 0.142857
vt 0.027778 0.214286
vt 0.027778 0.285714
vt 0.027778 0.357143
vt 0.027778 0.428571
vt 0.055556 0.500000
vt 0.055556 0.571429
vt 0.055556 0.642857
vt 0.055556 0.714286
vt 0.055556 0.785714
vt 0.055556 0.857143
vt 0.055556 0.928571
vt 0.055556 -0.000000
vt 0.055556 1.000000
vt 0.055556 0.071429
vt 0.055556 0.142857
vt 0.055556 0.214286
vt 0.055556 0.285714
vt 0.055556 0.357143
vt 0.055556 0.428571
vt 0.083333 0.500000
vt 0.083333 0.571429
vt 0.083333 0.642857
vt 0.083333 0.714286
vt 0.083333 0.785714
vt 0.083333 0.857143
vt 0.083333 0.928571
vt 0.083333 -0.000000
vt 0.083333 1.000000
vt 0.083333 0.071429
vt 0.083333 0.142857
vt 0.083333 0.214286
vt 0.083333 0.285714
vt 0.083333 0.357143
vt 0.083333 0.428571
vt 0.111111 0.500000
vt 0.111111 0.571429
vt 0.111111 0.642857
vt 0.111111 0.714286
vt 0.111111 0.785714
vt 0.111111 0.857143
vt 0.111111 0.928571
vt 0.111111 -0.000000
vt 0.111111 1.000000
vt 0.111111 0.071429
vt 0.111111 0.142857
vt 0.111111 0.214286
vt 0.111111 0.285714
vt 0.111111 0.357143
vt 0.111111 0.428571
vt 0.138889 0.500000
vt 0.138889 0.571429
vt 0.138889 0.642857
vt 0.138889 0.714286
vt 0.138889 0.785714
vt 0.138889 0.857143
vt 0.138889 0.928571
vt 0.138889 1.000000
vt 0.138889 -0.000000
vt 0.138889 0.071429
vt 0.138889 0.142857
vt 0.138889 0.214286
vt 0.138889 0.285714
vt 0.138889 0.357143
vt 0.138889 0.428571
vt 0.166667 0.500000
vt 0.166667 0.571429
vt 0.166667 0.642857
vt 0.166667 0.714286
vt 0.166667 0.785714
vt 0.166667 0.857143
vt 0.166667 0.928571
vt 0.166667 -0.000000
vt 0.166667 1.000000
vt 0.166667 0.071429
vt 0.166667 0.142857
vt 0.166667 0.214286
vt 0.166667 0.285714
vt 0.166667 0.357143
vt 0.166667 0.428571
vt 0.194444 0.500000
vt 0.194444 0.571429
vt 0.194444 0.642857
vt 0.194444 0.714286
vt 0.194444 0.785714
vt 0.194444 0.857143
vt 0.194444 0.928571
vt 0.194444 -0.000000
vt 0.194444 1.000000
vt 0.194444 0.071429
vt 0.194444 0.142857
vt 0.194444 0.214286
vt 0.194444 0.285714
vt 0.194444 0.357143
vt 0.194444 0.428571
vt 0.222222 0.500000
vt 0.222222 0.571429
vt 0.222222 0.642857
vt 0.222222 0.714286
vt 0.222222 0.785714
vt 0.222222 0.857143
vt 0.222222 0.928571
vt 0.222222 1.000000
vt 0.222222 -0.000000
vt 0.222222 0.071429
vt 0.222222 0.142857
vt 0.222222 0.214286
vt 0.222222 0.285714
vt 0.222222 0.357143
vt 0.222222 0.428571
vt 0.250000 0.500000
vt 0.250000 0.571429
vt 0.250000 0.642857
vt 0.250000 0.714286
vt 0.250000 0.785714
vt 0.250000 0.857143
vt 0.250000 0.928571
vt 0.250000 1.000000
vt 0.250000 -0.000000
vt 0.250000 0.071429
vt 0.250000 0.142857
vt 0.250000 0.214286
vt 0.250000 0.285714
vt 0.250000 0.357143
vt 0.250000 0.428571
vt 0.277778 0.500000
vt 0.277778 0.571429
vt 0.277778 0.642857
vt 0.277778 0.714286
vt 0.277778 0.785714
vt 0.277778 0.857143
vt 0.277778 0.928571
vt 0.277778 -0.000000
vt 0.277778 1.000000
vt 0.277778 0.071429
vt 0.277778 0.142857
vt 0.277778 0.214286
vt 0.277778 0.285714
vt 0.277778 0.357143
vt 0.277778 0.428571
vt 0.305556 0.500000
vt 0.305556 0.571429
vt 0.305556 0.642857
vt 0.305556 0.714286
vt 0.305556 0.785714
vt 0.305556 0.857143
vt 0.305556 0.928571
vt 0.305556 1.000000
vt 0.305556 -0.000000
vt 0.305556 0.071429
vt 0.305556 0.142857
vt 0.305556 0.214286
vt 0.305556 0.285714
vt 0.305556 0.357143
vt 0.305556 0.428571
vt 0.333333 0.500000
vt 0.333333 0.571429
vt 0.333333 0.642857
vt 0.333333 0.714286
vt 0.333333 0.785714
vt 0.333333 0.857143
vt 0.333333 0.928571
vt 0.333333 -0.000000
vt 0.333333 1.000000
vt 0.333333 0.071429
vt 0.333333 0.142857
vt 0.333333 0.214286
vt 0.333333 0.285714
vt 0.333333 0.357143
vt 0.333333 0.428571
vt 0.361111 0.500000
vt 0.361111 0.571429
vt 0.361111 0.642857
vt 0.361111 0.714286
vt 0.361111 0.785714
vt 0.361111 0.857143
vt 0.361111 0.928571
vt 0.361111 1.000000
vt 0.361111 -0.000000
vt 0.361111 0.071429
vt 0.361111 0.142857
vt 0.361111 0.214286
vt 0.361111 0.285714
vt 0.361111 0.357143
vt 0.361111 0.428571
vt 0.388889 0.500000
vt 0.388889 0.571429
vt 0.388889 0.642857
vt 0.388889 0.714286
vt 0.388889 0.785714
vt 0.388889 0.857143
vt 0.388889 0.928571
vt 0.388889 1.000000
vt 0.388889 -0.000000
vt 0.388889 0.071429
vt 0.388889 0.142857
vt 0.388889 0.214286
vt 0.388889 0.285714
vt 0.388889 0.357143
vt 0.388889 0.428571
vt 0.416667 0.500000
vt 0.416667 0.571429
vt 0.416667 0.642857
vt 0.416667 0.714286
vt 0.416667 0.785714
vt 0.416667 0.857143
vt 0.416667 0.928571
vt 0.416667 -0.000000
vt 0.416667 1.000000
vt 0.416667 0.071429
vt 0.416667 0.142857
vt 0.416667 0.214286
vt 0.416667 0.285714
vt 0.416667 0.357143
vt 0.416667 0.428571
vt 0.444444 0.500000
vt 0.444444 0.571429
vt 0.444444 0.642857
vt 0.444444 0.714286
vt 0.444444 0.785714
vt 0.444444 0.857143
vt 0.444444 0.928571
vt 0.444444 -0.000000
vt 0.444444 1.000000
vt 0.444444 0.071429
vt 0.444444 0.142857
vt 0.444444 0.214286
vt 0.444444 0.285714
vt 0.444444 0.357143
vt 0.444444 0.428571
vt 0.472222 0.500000
vt 0.472222 0.571429
vt 0.472222 0.642857
vt 0.472222 0.714286
vt 0.472222 0.785714
vt 0.472222 0.857143
vt 0.472222 0.928571
vt 0.472222 -0.000000
vt 0.472222 1.000000
vt 0.472222 0.071429
vt 0.472222 0.142857
vt 0.472222 0.214286
vt 0.472222 0.285714
vt 0.472222 0.357143
vt 0.472222 0.428571
s 0
f 15/16/1 2/2/1 1/1/1
f 16/17/2 3/3/2 2/2/2
f 17/18/3 4/4/3 3/3/3
f 18/19/4 5/5/4 4/4/4
f 19/20/5 6/6/5 5/5/5
f 20/21/6 7/7/6 6/6/6
f 21/22/7 8/8/7 7/7/7
f 22/23/8 9/10/8 8/9/8
f 9/10/9 24/26/9 10/11/9
f 24/26/10 11/12/10 10/11/10
f 11/12/11 26/28/11 12/13/11
f 26/28/12 13/14/12 12/13/12
f 13/14/13 28/30/13 14/15/13
f 28/30/14 1/1/14 14/15/14
f 29/31/15 16/17/15 15/16/15
f 30/32/16 17/18/16 16/17/16
f 31/33/17 18/19/17 17/18/17
f 18/19/4 33/35/4 19/20/4
f 33/35/18 20/21/18 19/20/18
f 34/36/19 21/22/19 20/21/19
f 35/37/20 22/24/20 21/22/20
f 36/38/21 23/25/21 22/23/21
f 37/40/22 24/26/22 23/25/22
f 38/41/23 25/27/23 24/26/23
f 39/42/11 26/28/11 25/27/11
f 26/28/24 41/44/24 27/29/24
f 27/29/25 42/45/25 28/30/25
f 42/45/26 15/16/26 28/30/26
f 43/46/27 30/32/27 29/31/27
f 30/32/28 45/48/28 31/33/28
f 31/33/29 46/49/29 32/34/29
f 46/49/4 33/35/4 32/34/4
f 33/35/30 48/51/30 34/36/30
f 34/36/31 49/52/31 35/37/31
f 49/52/32 36/39/32 35/37/32
f 50/53/33 37/40/33 36/38/33
f 51/55/34 38/41/34 37/40/34
f 52/56/35 39/42/35 38/41/35
f 53/57/11 40/43/11 39/42/11
f 54/58/36 41/44/36 40/43/36
f 55/59/37 42/45/37 41/44/37
f 56/60/38 29/31/38 42/45/38
f 43/46/39 58/62/39 44/47/39
f 44/47/40 59/63/40 45/48/40
f 59/63/41 46/49/41 45/48/41
f 60/64/4 47/50/4 46/49/4
f 47/50/42 62/66/42 48/51/42
f 48/51/43 63/67/43 49/52/43
f 63/67/44 50/54/44 49/52/44
f 64/69/45 51/55/45 50/53/45
f 65/70/46 52/56/46 51/55/46
f 66/71/47 53/57/47 52/56/47
f 67/72/11 54/58/11 53/57/11
f 68/73/48 55/59/48 54/58/48
f 69/74/49 56/60/49 55/59/49
f 70/75/50 43/46/50 56/60/50
f 71/76/51 58/62/51 57/61/51
f 58/62/52 73/78/52 59/63/52
f 73/78/53 60/64/53 59/63/53
f 74/79/4 61/65/4 60/64/4
f 75/80/54 62/66/54 61/65/54
f 76/81/55 63/67/55 62/66/55
f 77/82/56 64/68/56 63/67/56
f 64/69/57 79/85/57 65/70/57
f 79/85/58 66/71/58 65/70/58
f 66/71/59 81/87/59 67/72/59
f 81/87/11 68/73/11 67/72/11
f 82/88/60 69/74/60 68/73/60
f 83/89/61 70/75/61 69/74/61
f 70/75/62 71/76/62 57/61/62
f 71/76/63 86/92/63 72/77/63
f 86/92/64 73/78/64 72/77/64
f 87/93/65 74/79/65 73/78/65
f 88/94/4 75/80/4 74/79/4
f 89/95/66 76/81/66 75/80/66
f 76/81/67 91/97/67 77/82/67
f 77/82/68 92/98/68 78/83/68
f 92/99/69 79/85/69 78/84/69
f 93/100/70 80/86/70 79/85/70
f 94/101/71 81/87/71 80/86/71
f 81/87/11 96/103/11 82/88/11
f 82/88/72 97/104/72 83/89/72
f 97/104/73 84/90/73 83/89/73
f 98/105/74 71/76/74 84/90/74
f 99/106/75 86/92/75 85/91/75
f 86/92/76 101/108/76 87/93/76
f 101/108/77 88/94/77 87/93/77
f 102/109/4 89/95/4 88/94/4
f 103/110/78 90/96/78 89/95/78
f 104/111/79 91/97/79 90/96/79
f 105/112/80 92/98/80 91/97/80
f 92/99/81 107/115/81 93/100/81
f 93/100/82 108/116/82 94/101/82
f 108/116/83 95/102/83 94/101/83
f 95/102/11 110/118/11 96/103/11
f 96/103/84 111/119/84 97/104/84
f 111/119/85 98/105/85 97/104/85
f 112/120/86 85/91/86 98/105/86
f 113/121/87 100/107/87 99/106/87
f 114/122/88 101/108/88 100/107/88
f 115/123/89 102/109/89 101/108/89
f 102/109/4 117/125/4 103/110/4
f 117/125/90 104/111/90 103/110/90
f 118/126/91 105/112/91 104/111/91
f 119/127/92 106/114/92 105/112/92
f 120/129/93 107/115/93 106/113/93
f 107/115/94 122/131/94 108/116/94
f 108/116/95 123/132/95 109/117/95
f 109/117/11 124/133/11 110/118/11
f 124/133/96 111/119/96 110/118/96
f 125/134/97 112/120/97 111/119/97
f 126/135/98 99/106/98 112/120/98
f 127/136/99 114/122/99 113/121/99
f 128/137/100 115/123/100 114/122/100
f 129/138/101 116/124/101 115/123/101
f 116/124/4 131/140/4 117/125/4
f 131/140/102 118/126/102 117/125/102
f 132/141/103 119/127/103 118/126/103
f 119/127/104 134/143/104 120/128/104
f 134/144/105 121/130/105 120/129/105
f 135/145/106 122/131/106 121/130/106
f 136/146/107 123/132/107 122/131/107
f 137/147/11 124/133/11 123/132/11
f 124/133/108 139/149/108 125/134/108
f 139/149/109 126/135/109 125/134/109
f 140/150/110 113/121/110 126/135/110
f 141/151/111 128/137/111 127/136/111
f 142/152/112 129/138/112 128/137/112
f 129/138/113 144/154/113 130/139/113
f 130/139/4 145/155/4 131/140/4
f 131/140/114 146/156/114 132/141/114
f 132/141/115 147/157/115 133/142/115
f 147/157/116 134/143/116 133/142/116
f 134/144/117 149/160/117 135/145/117
f 149/160/118 136/146/118 135/145/118
f 150/161/119 137/147/119 136/146/119
f 151/162/11 138/148/11 137/147/11
f 152/163/120 139/149/120 138/148/120
f 153/164/121 140/150/121 139/149/121
f 154/165/122 127/136/122 140/150/122
f 155/166/123 142/152/123 141/151/123
f 142/152/124 157/168/124 143/153/124
f 157/168/125 144/154/125 143/153/125
f 158/169/4 145/155/4 144/154/4
f 159/170/126 146/156/126 145/155/126
f 160/171/127 147/157/127 146/156/127
f 161/172/128 148/159/128 147/157/128
f 162/173/129 149/160/129 148/158/129
f 163/175/130 150/161/130 149/160/130
f 150/161/131 165/177/131 151/162/131
f 151/162/11 166/178/11 152/163/11
f 152/163/132 167/179/132 153/164/132
f 167/179/133 154/165/133 153/164/133
f 154/165/134 155/166/134 141/151/134
f 155/166/135 170/182/135 156/167/135
f 156/167/136 171/183/136 157/168/136
f 171/183/137 158/169/137 157/168/137
f 172/184/4 159/170/4 158/169/4
f 173/185/138 160/171/138 159/170/138
f 160/171/139 175/187/139 161/172/139
f 175/187/140 162/174/140 161/172/140
f 176/188/141 163/175/141 162/173/141
f 163/175/142 178/191/142 164/176/142
f 178/191/143 165/177/143 164/176/143
f 179/192/11 166/178/11 165/177/11
f 180/193/144 167/179/144 166/178/144
f 181/194/145 168/180/145 167/179/145
f 182/195/146 155/166/146 168/180/146
f 169/181/147 184/197/147 170/182/147
f 170/182/148 185/198/148 171/183/148
f 171/183/149 186/199/149 172/184/149
f 186/199/4 173/185/4 172/184/4
f 187/200/150 174/186/150 173/185/150
f 188/201/151 175/187/151 174/186/151
f 189/202/152 176/189/152 175/187/152
f 190/203/153 177/190/153 176/188/153
f 191/205/154 178/191/154 177/190/154
f 192/206/155 179/192/155 178/191/155
f 179/192/11 194/208/11 180/193/11
f 194/208/156 181/194/156 180/193/156
f 195/209/157 182/195/157 181/194/157
f 196/210/158 169/181/158 182/195/158
f 197/211/159 184/197/159 183/196/159
f 198/212/160 185/198/160 184/197/160
f 185/198/161 200/214/161 186/199/161
f 186/199/4 201/215/4 187/200/4
f 201/215/162 188/201/162 187/200/162
f 202/216/163 189/202/163 188/201/163
f 203/217/164 190/204/164 189/202/164
f 204/218/165 191/205/165 190/203/165
f 191/205/166 206/221/166 192/206/166
f 206/221/167 193/207/167 192/206/167
f 207/222/11 194/208/11 193/207/11
f 208/223/168 195/209/168 194/208/168
f 195/209/169 210/225/169 196/210/169
f 210/225/170 183/196/170 196/210/170
f 211/226/171 198/212/171 197/211/171
f 198/212/172 213/228/172 199/213/172
f 213/228/173 200/214/173 199/213/173
f 214/229/4 201/215/4 200/214/4
f 215/230/174 202/216/174 201/215/174
f 202/216/175 217/232/175 203/217/175
f 217/232/176 204/219/176 203/217/176
f 218/234/177 205/220/177 204/218/177
f 219/235/178 206/221/178 205/220/178
f 220/236/179 207/222/179 206/221/179
f 221/237/11 208/223/11 207/222/11
f 222/238/180 209/224/180 208/223/180
f 223/239/181 210/225/181 209/224/181
f 224/240/182 197/211/182 210/225/182
f 225/241/183 212/227/183 211/226/183
f 226/242/184 213/228/184 212/227/184
f 227/243/185 214/229/185 213/228/185
f 228/244/4 215/230/4 214/229/4
f 229/245/186 216/231/186 215/230/186
f 216/231/187 231/247/187 217/232/187
f 231/247/188 218/233/188 217/232/188
f 218/234/189 233/250/189 219/235/189
f 233/250/190 220/236/190 219/235/190
f 220/236/191 235/252/191 221/237/191
f 221/237/11 236/253/11 222/238/11
f 222/238/192 237/254/192 223/239/192
f 223/239/193 238/255/193 224/240/193
f 224/240/194 225/241/194 211/226/194
f 239/256/195 226/242/195 225/241/195
f 226/242/196 241/258/196 227/243/196
f 241/258/197 228/244/197 227/243/197
f 228/244/4 243/260/4 229/245/4
f 229/245/198 244/261/198 230/246/198
f 244/261/199 231/247/199 230/246/199
f 245/262/200 232/249/200 231/247/200
f 246/263/201 233/250/201 232/248/201
f 247/265/202 234/251/202 233/250/202
f 234/251/203 249/267/203 235/252/203
f 249/267/11 236/253/11 235/252/11
f 236/253/204 251/269/204 237/254/204
f 237/254/205 252/270/205 238/255/205
f 252/270/206 225/241/206 238/255/206
f 253/271/207 240/257/207 239/256/207
f 254/273/208 241/258/208 240/257/208
f 255/275/209 242/259/209 241/258/209
f 256/278/4 243/260/4 242/259/4
f 243/260/210 258/281/210 244/261/210
f 258/281/211 245/262/211 244/261/211
f 259/283/212 246/264/212 245/262/212
f 260/286/213 247/265/213 246/263/213
f 261/290/214 248/266/214 247/265/214
f 262/291/215 249/267/215 248/266/215
f 263/293/11 250/268/11 249/267/11
f 264/295/216 251/269/216 250/268/216
f 265/297/217 252/270/217 251/269/217
f 252/270/218 253/271/218 239/256/218
f 267/301/7 254/274/7 253/272/7
f 254/274/6 269/303/6 255/276/6
f 255/276/5 270/304/5 256/277/5
f 270/304/4 257/280/4 256/277/4
f 271/305/3 258/282/3 257/280/3
f 272/306/2 259/284/2 258/282/2
f 273/307/1 260/287/1 259/284/1
f 260/288/14 275/310/14 261/289/14
f 275/310/13 262/292/13 261/289/13
f 276/311/12 263/294/12 262/292/12
f 277/312/11 264/296/11 263/294/11
f 278/313/10 265/298/10 264/296/10
f 279/314/9 266/300/9 265/298/9
f 280/315/8 253/272/8 266/300/8
f 281/316/20 268/302/20 267/301/20
f 268/302/19 283/318/19 269/303/19
f 283/318/18 270/304/18 269/303/18
f 284/319/4 271/305/4 270/304/4
f 271/305/17 286/321/17 272/306/17
f 286/321/16 273/307/16 272/306/16
f 273/307/15 288/324/15 274/308/15
f 288/323/26 275/310/26 274/309/26
f 275/310/25 290/326/25 276/311/25
f 290/326/24 277/312/24 276/311/24
f 277/312/11 292/328/11 278/313/11
f 292/328/23 279/314/23 278/313/23
f 293/329/22 280/315/22 279/314/22
f 294/330/21 267/301/21 280/315/21
f 295/331/32 282/317/32 281/316/32
f 296/332/31 283/318/31 282/317/31
f 297/333/219 284/319/219 283/318/219
f 298/334/4 285/320/4 284/319/4
f 285/320/29 300/336/29 286/321/29
f 300/336/28 287/322/28 286/321/28
f 301/337/27 288/324/27 287/322/27
f 302/338/38 289/325/38 288/323/38
f 289/325/37 304/341/37 290/326/37
f 304/341/36 291/327/36 290/326/36
f 305/342/11 292/328/11 291/327/11
f 306/343/35 293/329/35 292/328/35
f 307/344/34 294/330/34 293/329/34
f 308/345/33 281/316/33 294/330/33
f 295/331/44 310/347/44 296/332/44
f 296/332/43 311/348/43 297/333/43
f 297/333/42 312/349/42 298/334/42
f 312/349/4 299/335/4 298/334/4
f 313/350/41 300/336/41 299/335/41
f 314/351/40 301/337/40 300/336/40
f 315/352/39 302/339/39 301/337/39
f 316/353/50 303/340/50 302/338/50
f 317/355/49 304/341/49 303/340/49
f 318/356/48 305/342/48 304/341/48
f 319/357/11 306/343/11 305/342/11
f 320/358/47 307/344/47 306/343/47
f 321/359/46 308/345/46 307/344/46
f 322/360/45 295/331/45 308/345/45
f 323/361/56 310/347/56 309/346/56
f 310/347/55 325/363/55 311/348/55
f 325/363/54 312/349/54 311/348/54
f 326/364/4 313/350/4 312/349/4
f 327/365/53 314/351/53 313/350/53
f 328/366/52 315/352/52 314/351/52
f 329/367/51 316/354/51 315/352/51
f 330/369/62 317/355/62 316/353/62
f 331/370/61 318/356/61 317/355/61
f 332/371/60 319/357/60 318/356/60
f 319/357/11 334/373/11 320/358/11
f 334/373/59 321/359/59 320/358/59
f 335/374/58 322/360/58 321/359/58
f 322/360/57 323/361/57 309/346/57
f 337/376/68 324/362/68 323/361/68
f 338/377/67 325/363/67 324/362/67
f 339/378/66 326/364/66 325/363/66
f 326/364/4 341/380/4 327/365/4
f 341/380/65 328/366/65 327/365/65
f 342/381/64 329/367/64 328/366/64
f 329/367/63 344/384/63 330/368/63
f 344/383/74 331/370/74 330/369/74
f 345/385/73 332/371/73 331/370/73
f 332/371/72 347/387/72 333/372/72
f 347/387/11 334/373/11 333/372/11
f 334/373/71 349/389/71 335/374/71
f 335/374/70 350/390/70 336/375/70
f 336/375/69 337/376/69 323/361/69
f 351/391/80 338/377/80 337/376/80
f 352/392/79 339/378/79 338/377/79
f 353/393/220 340/379/220 339/378/220
f 340/379/4 355/395/4 341/380/4
f 355/395/221 342/381/221 341/380/221
f 342/381/76 357/397/76 343/382/76
f 357/397/75 344/384/75 343/382/75
f 358/398/86 345/385/86 344/383/86
f 359/400/85 346/386/85 345/385/85
f 360/401/84 347/387/84 346/386/84
f 361/402/11 348/388/11 347/387/11
f 362/403/83 349/389/83 348/388/83
f 349/389/82 364/405/82 350/390/82
f 350/390/81 351/391/81 337/376/81
f 351/391/92 366/407/92 352/392/92
f 366/407/91 353/393/91 352/392/91
f 353/393/90 368/409/90 354/394/90
f 354/394/4 369/410/4 355/395/4
f 355/395/89 370/411/89 356/396/89
f 356/396/88 371/412/88 357/397/88
f 371/412/87 358/399/87 357/397/87
f 372/414/98 359/400/98 358/398/98
f 373/415/97 360/401/97 359/400/97
f 374/416/96 361/402/96 360/401/96
f 375/417/11 362/403/11 361/402/11
f 376/418/95 363/404/95 362/403/95
f 363/404/94 378/420/94 364/405/94
f 378/420/93 351/391/93 364/405/93
f 379/421/104 366/407/104 365/406/104
f 380/422/103 367/408/103 366/407/103
f 381/423/102 368/409/102 367/408/102
f 382/424/4 369/410/4 368/409/4
f 383/425/101 370/411/101 369/410/101
f 384/426/100 371/412/100 370/411/100
f 371/412/99 386/428/99 372/413/99
f 386/429/110 373/415/110 372/414/110
f 373/415/109 388/431/109 374/416/109
f 374/416/108 389/432/108 375/417/108
f 389/432/11 376/418/11 375/417/11
f 376/418/107 391/434/107 377/419/107
f 391/434/106 378/420/106 377/419/106
f 392/435/105 365/406/105 378/420/105
f 393/436/116 380/422/116 379/421/116
f 394/437/115 381/423/115 380/422/115
f 395/438/114 382/424/114 381/423/114
f 396/439/4 383/425/4 382/424/4
f 397/440/113 384/426/113 383/425/113
f 398/441/112 385/427/112 384/426/112
f 399/442/111 386/428/111 385/427/111
f 386/429/122 401/445/122 387/430/122
f 387/430/121 402/446/121 388/431/121
f 402/446/120 389/432/120 388/431/120
f 403/447/11 390/433/11 389/432/11
f 404/448/119 391/434/119 390/433/119
f 405/449/118 392/435/118 391/434/118
f 406/450/117 379/421/117 392/435/117
f 407/451/128 394/437/128 393/436/128
f 408/452/127 395/438/127 394/437/127
f 409/453/126 396/439/126 395/438/126
f 410/454/4 397/440/4 396/439/4
f 397/440/125 412/456/125 398/441/125
f 398/441/124 413/457/124 399/442/124
f 413/457/123 400/444/123 399/442/123
f 414/459/134 401/445/134 400/443/134
f 415/460/133 402/446/133 401/445/133
f 416/461/132 403/447/132 402/446/132
f 417/462/11 404/448/11 403/447/11
f 418/463/131 405/449/131 404/448/131
f 419/464/130 406/450/130 405/449/130
f 406/450/129 407/451/129 393/436/129
f 421/466/140 408/452/140 407/451/140
f 422/467/139 409/453/139 408/452/139
f 409/453/222 424/469/222 410/454/222
f 410/454/4 425/470/4 411/455/4
f 425/470/137 412/456/137 411/455/137
f 412/456/136 427/472/136 413/457/136
f 413/457/135 428/474/135 414/458/135
f 428/473/146 415/460/146 414/459/146
f 429/475/145 416/461/145 415/460/145
f 416/461/144 431/477/144 417/462/144
f 431/477/11 418/463/11 417/462/11
f 432/478/143 419/464/143 418/463/143
f 433/479/142 420/465/142 419/464/142
f 420/465/141 421/466/141 407/451/141
f 435/481/152 422/467/152 421/466/152
f 436/482/151 423/468/151 422/467/151
f 423/468/150 438/484/150 424/469/150
f 424/469/4 439/485/4 425/470/4
f 425/470/149 440/486/149 426/471/149
f 440/486/148 427/472/148 426/471/148
f 441/487/147 428/474/147 427/472/147
f 442/489/158 429/475/158 428/473/158
f 429/475/157 444/491/157 430/476/157
f 444/491/156 431/477/156 430/476/156
f 445/492/11 432/478/11 431/477/11
f 446/493/155 433/479/155 432/478/155
f 447/494/154 434/480/154 433/479/154
f 448/495/153 421/466/153 434/480/153
f 435/481/164 450/497/164 436/482/164
f 450/497/163 437/483/163 436/482/163
f 451/498/162 438/484/162 437/483/162
f 452/499/4 439/485/4 438/484/4
f 439/485/161 454/501/161 440/486/161
f 454/501/160 441/487/160 440/486/160
f 441/487/159 456/503/159 442/488/159
f 456/504/170 443/490/170 442/489/170
f 443/490/169 458/506/169 444/491/169
f 458/506/168 445/492/168 444/491/168
f 445/492/11 460/508/11 446/493/11
f 460/508/167 447/494/167 446/493/167
f 447/494/166 462/510/166 448/495/166
f 462/510/165 435/481/165 448/495/165
f 463/511/176 450/497/176 449/496/176
f 464/512/175 451/498/175 450/497/175
f 465/513/174 452/499/174 451/498/174
f 466/514/4 453/500/4 452/499/4
f 467/515/173 454/501/173 453/500/173
f 468/516/172 455/502/172 454/501/172
f 469/517/171 456/503/171 455/502/171
f 456/504/182 471/520/182 457/505/182
f 457/505/181 472/521/181 458/506/181
f 472/521/180 459/507/180 458/506/180
f 473/522/11 460/508/11 459/507/11
f 474/523/179 461/509/179 460/508/179
f 461/509/178 476/525/178 462/510/178
f 462/510/177 463/511/177 449/496/177
f 477/526/188 464/512/188 463/511/188
f 478/527/187 465/513/187 464/512/187
f 465/513/186 480/529/186 466/514/186
f 480/529/4 467/515/4 466/514/4
f 481/530/185 468/516/185 467/515/185
f 482/531/184 469/517/184 468/516/184
f 483/532/183 470/519/183 469/517/183
f 484/533/194 471/520/194 470/518/194
f 485/535/193 472/521/193 471/520/193
f 472/521/192 487/537/192 473/522/192
f 473/522/11 488/538/11 474/523/11
f 488/538/191 475/524/191 474/523/191
f 475/524/190 490/540/190 476/525/190
f 476/525/189 477/526/189 463/511/189
f 477/526/200 492/542/200 478/527/200
f 492/542/199 479/528/199 478/527/199
f 493/543/198 480/529/198 479/528/198
f 494/544/4 481/530/4 480/529/4
f 481/530/197 496/546/197 482/531/197
f 482/531/196 497/547/196 483/532/196
f 497/547/195 484/534/195 483/532/195
f 498/548/206 485/535/206 484/533/206
f 499/550/205 486/536/205 485/535/205
f 500/551/204 487/537/204 486/536/204
f 501/552/11 488/538/11 487/537/11
f 502/553/203 489/539/203 488/538/203
f 503/554/202 490/540/202 489/539/202
f 504/555/201 477/526/201 490/540/201
f 1/1/212 492/542/212 491/541/212
f 2/2/211 493/543/211 492/542/211
f 3/3/210 494/544/210 493/543/210
f 4/4/4 495/545/4 494/544/4
f 5/5/209 496/546/209 495/545/209
f 6/6/208 497/547/208 496/546/208
f 7/7/207 498/549/207 497/547/207
f 8/9/218 499/550/218 498/548/218
f 9/10/217 500/551/217 499/550/217
f 500/551/216 11/12/216 501/552/216
f 501/552/11 12/13/11 502/553/11
f 502/553/215 13/14/215 503/554/215
f 503/554/214 14/15/214 504/555/214
f 14/15/213 491/541/213 504/555/213
f 15/16/1 16/17/1 2/2/1
f 16/17/2 17/18/2 3/3/2
f 17/18/3 18/19/3 4/4/3
f 18/19/4 19/20/4 5/5/4
f 19/20/5 20/21/5 6/6/5
f 20/21/6 21/22/6 7/7/6
f 21/22/7 22/24/7 8/8/7
f 22/23/8 23/25/8 9/10/8
f 9/10/9 23/25/9 24/26/9
f 24/26/10 25/27/10 11/12/10
f 11/12/11 25/27/11 26/28/11
f 26/28/12 27/29/12 13/14/12
f 13/14/13 27/29/13 28/30/13
f 28/30/14 15/16/14 1/1/14
f 29/31/15 30/32/15 16/17/15
f 30/32/16 31/33/16 17/18/16
f 31/33/17 32/34/17 18/19/17
f 18/19/4 32/34/4 33/35/4
f 33/35/18 34/36/18 20/21/18
f 34/36/19 35/37/19 21/22/19
f 35/37/20 36/39/20 22/24/20
f 36/38/21 37/40/21 23/25/21
f 37/40/22 38/41/22 24/26/22
f 38/41/23 39/42/23 25/27/23
f 39/42/11 40/43/11 26/28/11
f 26/28/24 40/43/24 41/44/24
f 27/29/25 41/44/25 42/45/25
f 42/45/26 29/31/26 15/16/26
f 43/46/27 44/47/27 30/32/27
f 30/32/28 44/47/28 45/48/28
f 31/33/29 45/48/29 46/49/29
f 46/49/4 47/50/4 33/35/4
f 33/35/219 47/50/219 48/51/219
f 34/36/31 48/51/31 49/52/31
f 49/52/32 50/54/32 36/39/32
f 50/53/33 51/55/33 37/40/33
f 51/55/34 52/56/34 38/41/34
f 52/56/35 53/57/35 39/42/35
f 53/57/11 54/58/11 40/43/11
f 54/58/36 55/59/36 41/44/36
f 55/59/37 56/60/37 42/45/37
f 56/60/38 43/46/38 29/31/38
f 43/46/39 57/61/39 58/62/39
f 44/47/40 58/62/40 59/63/40
f 59/63/41 60/64/41 46/49/41
f 60/64/4 61/65/4 47/50/4
f 47/50/42 61/65/42 62/66/42
f 48/51/43 62/66/43 63/67/43
f 63/67/44 64/68/44 50/54/44
f 64/69/45 65/70/45 51/55/45
f 65/70/46 66/71/46 52/56/46
f 66/71/47 67/72/47 53/57/47
f 67/72/11 68/73/11 54/58/11
f 68/73/48 69/74/48 55/59/48
f 69/74/49 70/75/49 56/60/49
f 70/75/50 57/61/50 43/46/50
f 71/76/51 72/77/51 58/62/51
f 58/62/52 72/77/52 73/78/52
f 73/78/53 74/79/53 60/64/53
f 74/79/4 75/80/4 61/65/4
f 75/80/54 76/81/54 62/66/54
f 76/81/55 77/82/55 63/67/55
f 77/82/56 78/83/56 64/68/56
f 64/69/57 78/84/57 79/85/57
f 79/85/58 80/86/58 66/71/58
f 66/71/59 80/86/59 81/87/59
f 81/87/11 82/88/11 68/73/11
f 82/88/60 83/89/60 69/74/60
f 83/89/61 84/90/61 70/75/61
f 70/75/62 84/90/62 71/76/62
f 71/76/63 85/91/63 86/92/63
f 86/92/64 87/93/64 73/78/64
f 87/93/65 88/94/65 74/79/65
f 88/94/4 89/95/4 75/80/4
f 89/95/66 90/96/66 76/81/66
f 76/81/67 90/96/67 91/97/67
f 77/82/68 91/97/68 92/98/68
f 92/99/69 93/100/69 79/85/69
f 93/100/70 94/101/70 80/86/70
f 94/101/71 95/102/71 81/87/71
f 81/87/11 95/102/11 96/103/11
f 82/88/72 96/103/72 97/104/72
f 97/104/73 98/105/73 84/90/73
f 98/105/74 85/91/74 71/76/74
f 99/106/75 100/107/75 86/92/75
f 86/92/76 100/107/76 101/108/76
f 101/108/77 102/109/77 88/94/77
f 102/109/4 103/110/4 89/95/4
f 103/110/78 104/111/78 90/96/78
f 104/111/79 105/112/79 91/97/79
f 105/112/80 106/114/80 92/98/80
f 92/99/81 106/113/81 107/115/81
f 93/100/82 107/115/82 108/116/82
f 108/116/83 109/117/83 95/102/83
f 95/102/11 109/117/11 110/118/11
f 96/103/84 110/118/84 111/119/84
f 111/119/85 112/120/85 98/105/85
f 112/120/86 99/106/86 85/91/86
f 113/121/87 114/122/87 100/107/87
f 114/122/88 115/123/88 101/108/88
f 115/123/89 116/124/89 102/109/89
f 102/109/4 116/124/4 117/125/4
f 117/125/90 118/126/90 104/111/90
f 118/126/91 119/127/91 105/112/91
f 119/127/92 120/128/92 106/114/92
f 120/129/93 121/130/93 107/115/93
f 107/115/94 121/130/94 122/131/94
f 108/116/95 122/131/95 123/132/95
f 109/117/11 123/132/11 124/133/11
f 124/133/96 125/134/96 111/119/96
f 125/134/97 126/135/97 112/120/97
f 126/135/98 113/121/98 99/106/98
f 127/136/99 128/137/99 114/122/99
f 128/137/100 129/138/100 115/123/100
f 129/138/101 130/139/101 116/124/101
f 116/124/4 130/139/4 131/140/4
f 131/140/102 132/141/102 118/126/102
f 132/141/103 133/142/103 119/127/103
f 119/127/104 133/142/104 134/143/104
f 134/144/105 135/145/105 121/130/105
f 135/145/106 136/146/106 122/131/106
f 136/146/107 137/147/107 123/132/107
f 137/147/11 138/148/11 124/133/11
f 124/133/108 138/148/108 139/149/108
f 139/149/109 140/150/109 126/135/109
f 140/150/110 127/136/110 113/121/110
f 141/151/111 142/152/111 128/137/111
f 142/152/112 143/153/112 129/138/112
f 129/138/113 143/153/113 144/154/113
f 130/139/4 144/154/4 145/155/4
f 131/140/114 145/155/114 146/156/114
f 132/141/115 146/156/115 147/157/115
f 147/157/116 148/159/116 134/143/116
f 134/144/117 148/158/117 149/160/117
f 149/160/118 150/161/118 136/146/118
f 150/161/119 151/162/119 137/147/119
f 151/162/11 152/163/11 138/148/11
f 152/163/120 153/164/120 139/149/120
f 153/164/121 154/165/121 140/150/121
f 154/165/122 141/151/122 127/136/122
f 155/166/123 156/167/123 142/152/123
f 142/152/124 156/167/124 157/168/124
f 157/168/125 158/169/125 144/154/125
f 158/169/4 159/170/4 145/155/4
f 159/170/126 160/171/126 146/156/126
f 160/171/127 161/172/127 147/157/127
f 161/172/128 162/174/128 148/159/128
f 162/173/129 163/175/129 149/160/129
f 163/175/130 164/176/130 150/161/130
f 150/161/131 164/176/131 165/177/131
f 151/162/11 165/177/11 166/178/11
f 152/163/132 166/178/132 167/179/132
f 167/179/133 168/180/133 154/165/133
f 154/165/134 168/180/134 155/166/134
f 155/166/135 169/181/135 170/182/135
f 156/167/136 170/182/136 171/183/136
f 171/183/137 172/184/137 158/169/137
f 172/184/4 173/185/4 159/170/4
f 173/185/222 174/186/222 160/171/222
f 160/171/139 174/186/139 175/187/139
f 175/187/140 176/189/140 162/174/140
f 176/188/141 177/190/141 163/175/141
f 163/175/142 177/190/142 178/191/142
f 178/191/223 179/192/223 165/177/223
f 179/192/11 180/193/11 166/178/11
f 180/193/224 181/194/224 167/179/224
f 181/194/145 182/195/145 168/180/145
f 182/195/146 169/181/146 155/166/146
f 169/181/147 183/196/147 184/197/147
f 170/182/148 184/197/148 185/198/148
f 171/183/149 185/198/149 186/199/149
f 186/199/4 187/200/4 173/185/4
f 187/200/150 188/201/150 174/186/150
f 188/201/151 189/202/151 175/187/151
f 189/202/152 190/204/152 176/189/152
f 190/203/153 191/205/153 177/190/153
f 191/205/154 192/206/154 178/191/154
f 192/206/155 193/207/155 179/192/155
f 179/192/11 193/207/11 194/208/11
f 194/208/156 195/209/156 181/194/156
f 195/209/157 196/210/157 182/195/157
f 196/210/158 183/196/158 169/181/158
f 197/211/159 198/212/159 184/197/159
f 198/212/160 199/213/160 185/198/160
f 185/198/161 199/213/161 200/214/161
f 186/199/4 200/214/4 201/215/4
f 201/215/162 202/216/162 188/201/162
f 202/216/163 203/217/163 189/202/163
f 203/217/164 204/219/164 190/204/164
f 204/218/165 205/220/165 191/205/165
f 191/205/166 205/220/166 206/221/166
f 206/221/167 207/222/167 193/207/167
f 207/222/11 208/223/11 194/208/11
f 208/223/168 209/224/168 195/209/168
f 195/209/169 209/224/169 210/225/169
f 210/225/170 197/211/170 183/196/170
f 211/226/171 212/227/171 198/212/171
f 198/212/172 212/227/172 213/228/172
f 213/228/173 214/229/173 200/214/173
f 214/229/4 215/230/4 201/215/4
f 215/230/174 216/231/174 202/216/174
f 202/216/175 216/231/175 217/232/175
f 217/232/176 218/233/176 204/219/176
f 218/234/177 219/235/177 205/220/177
f 219/235/178 220/236/178 206/221/178
f 220/236/179 221/237/179 207/222/179
f 221/237/11 222/238/11 208/223/11
f 222/238/180 223/239/180 209/224/180
f 223/239/181 224/240/181 210/225/181
f 224/240/182 211/226/182 197/211/182
f 225/241/183 226/242/183 212/227/183
f 226/242/184 227/243/184 213/228/184
f 227/243/185 228/244/185 214/229/185
f 228/244/4 229/245/4 215/230/4
f 229/245/225 230/246/225 216/231/225
f 216/231/187 230/246/187 231/247/187
f 231/247/188 232/249/188 218/233/188
f 218/234/189 232/248/189 233/250/189
f 233/250/190 234/251/190 220/236/190
f 220/236/226 234/251/226 235/252/226
f 221/237/11 235/252/11 236/253/11
f 222/238/192 236/253/192 237/254/192
f 223/239/193 237/254/193 238/255/193
f 224/240/194 238/255/194 225/241/194
f 239/256/195 240/257/195 226/242/195
f 226/242/196 240/257/196 241/258/196
f 241/258/197 242/259/197 228/244/197
f 228/244/4 242/259/4 243/260/4
f 229/245/198 243/260/198 244/261/198
f 244/261/199 245/262/199 231/247/199
f 245/262/200 246/264/200 232/249/200
f 246/263/201 247/265/201 233/250/201
f 247/265/202 248/266/202 234/251/202
f 234/251/203 248/266/203 249/267/203
f 249/267/11 250/268/11 236/253/11
f 236/253/204 250/268/204 251/269/204
f 237/254/205 251/269/205 252/270/205
f 252/270/206 239/256/206 225/241/206
f 253/271/207 254/273/207 240/257/207
f 254/273/208 255/275/208 241/258/208
f 255/275/209 256/278/209 242/259/209
f 256/278/4 257/279/4 243/260/4
f 243/260/210 257/279/210 258/281/210
f 258/281/211 259/283/211 245/262/211
f 259/283/212 260/285/212 246/264/212
f 260/286/213 261/290/213 247/265/213
f 261/290/214 262/291/214 248/266/214
f 262/291/215 263/293/215 249/267/215
f 263/293/11 264/295/11 250/268/11
f 264/295/216 265/297/216 251/269/216
f 265/297/217 266/299/217 252/270/217
f 252/270/218 266/299/218 253/271/218
f 267/301/7 268/302/7 254/274/7
f 254/274/6 268/302/6 269/303/6
f 255/276/5 269/303/5 270/304/5
f 270/304/4 271/305/4 257/280/4
f 271/305/3 272/306/3 258/282/3
f 272/306/2 273/307/2 259/284/2
f 273/307/1 274/308/1 260/287/1
f 260/288/14 274/309/14 275/310/14
f 275/310/13 276/311/13 262/292/13
f 276/311/12 277/312/12 263/294/12
f 277/312/11 278/313/11 264/296/11
f 278/313/10 279/314/10 265/298/10
f 279/314/9 280/315/9 266/300/9
f 280/315/8 267/301/8 253/272/8
f 281/316/20 282/317/20 268/302/20
f 268/302/19 282/317/19 283/318/19
f 283/318/18 284/319/18 270/304/18
f 284/319/4 285/320/4 271/305/4
f 271/305/17 285/320/17 286/321/17
f 286/321/16 287/322/16 273/307/16
f 273/307/15 287/322/15 288/324/15
f 288/323/26 289/325/26 275/310/26
f 275/310/25 289/325/25 290/326/25
f 290/326/24 291/327/24 277/312/24
f 277/312/11 291/327/11 292/328/11
f 292/328/23 293/329/23 279/314/23
f 293/329/22 294/330/22 280/315/22
f 294/330/21 281/316/21 267/301/21
f 295/331/32 296/332/32 282/317/32
f 296/332/31 297/333/31 283/318/31
f 297/333/219 298/334/219 284/319/219
f 298/334/4 299/335/4 285/320/4
f 285/320/29 299/335/29 300/336/29
f 300/336/28 301/337/28 287/322/28
f 301/337/27 302/339/27 288/324/27
f 302/338/38 303/340/38 289/325/38
f 289/325/37 303/340/37 304/341/37
f 304/341/36 305/342/36 291/327/36
f 305/342/11 306/343/11 292/328/11
f 306/343/35 307/344/35 293/329/35
f 307/344/34 308/345/34 294/330/34
f 308/345/33 295/331/33 281/316/33
f 295/331/44 309/346/44 310/347/44
f 296/332/43 310/347/43 311/348/43
f 297/333/42 311/348/42 312/349/42
f 312/349/4 313/350/4 299/335/4
f 313/350/41 314/351/41 300/336/41
f 314/351/40 315/352/40 301/337/40
f 315/352/39 316/354/39 302/339/39
f 316/353/50 317/355/50 303/340/50
f 317/355/49 318/356/49 304/341/49
f 318/356/48 319/357/48 305/342/48
f 319/357/11 320/358/11 306/343/11
f 320/358/47 321/359/47 307/344/47
f 321/359/46 322/360/46 308/345/46
f 322/360/45 309/346/45 295/331/45
f 323/361/56 324/362/56 310/347/56
f 310/347/55 324/362/55 325/363/55
f 325/363/54 326/364/54 312/349/54
f 326/364/4 327/365/4 313/350/4
f 327/365/53 328/366/53 314/351/53
f 328/366/52 329/367/52 315/352/52
f 329/367/51 330/368/51 316/354/51
f 330/369/62 331/370/62 317/355/62
f 331/370/61 332/371/61 318/356/61
f 332/371/60 333/372/60 319/357/60
f 319/357/11 333/372/11 334/373/11
f 334/373/59 335/374/59 321/359/59
f 335/374/58 336/375/58 322/360/58
f 322/360/57 336/375/57 323/361/57
f 337/376/68 338/377/68 324/362/68
f 338/377/67 339/378/67 325/363/67
f 339/378/66 340/379/66 326/364/66
f 326/364/4 340/379/4 341/380/4
f 341/380/65 342/381/65 328/366/65
f 342/381/64 343/382/64 329/367/64
f 329/367/63 343/382/63 344/384/63
f 344/383/74 345/385/74 331/370/74
f 345/385/73 346/386/73 332/371/73
f 332/371/72 346/386/72 347/387/72
f 347/387/11 348/388/11 334/373/11
f 334/373/71 348/388/71 349/389/71
f 335/374/70 349/389/70 350/390/70
f 336/375/69 350/390/69 337/376/69
f 351/391/80 352/392/80 338/377/80
f 352/392/79 353/393/79 339/378/79
f 353/393/78 354/394/78 340/379/78
f 340/379/4 354/394/4 355/395/4
f 355/395/77 356/396/77 342/381/77
f 342/381/76 356/396/76 357/397/76
f 357/397/75 358/399/75 344/384/75
f 358/398/86 359/400/86 345/385/86
f 359/400/85 360/401/85 346/386/85
f 360/401/227 361/402/227 347/387/227
f 361/402/11 362/403/11 348/388/11
f 362/403/228 363/404/228 349/389/228
f 349/389/82 363/404/82 364/405/82
f 350/390/81 364/405/81 351/391/81
f 351/391/92 365/406/92 366/407/92
f 366/407/91 367/408/91 353/393/91
f 353/393/90 367/408/90 368/409/90
f 354/394/4 368/409/4 369/410/4
f 355/395/89 369/410/89 370/411/89
f 356/396/88 370/411/88 371/412/88
f 371/412/87 372/413/87 358/399/87
f 372/414/98 373/415/98 359/400/98
f 373/415/97 374/416/97 360/401/97
f 374/416/96 375/417/96 361/402/96
f 375/417/11 376/418/11 362/403/11
f 376/418/95 377/419/95 363/404/95
f 363/404/94 377/419/94 378/420/94
f 378/420/93 365/406/93 351/391/93
f 379/421/104 380/422/104 366/407/104
f 380/422/103 381/423/103 367/408/103
f 381/423/102 382/424/102 368/409/102
f 382/424/4 383/425/4 369/410/4
f 383/425/101 384/426/101 370/411/101
f 384/426/100 385/427/100 371/412/100
f 371/412/99 385/427/99 386/428/99
f 386/429/110 387/430/110 373/415/110
f 373/415/109 387/430/109 388/431/109
f 374/416/108 388/431/108 389/432/108
f 389/432/11 390/433/11 376/418/11
f 376/418/107 390/433/107 391/434/107
f 391/434/106 392/435/106 378/420/106
f 392/435/105 379/421/105 365/406/105
f 393/436/116 394/437/116 380/422/116
f 394/437/115 395/438/115 381/423/115
f 395/438/114 396/439/114 382/424/114
f 396/439/4 397/440/4 383/425/4
f 397/440/113 398/441/113 384/426/113
f 398/441/112 399/442/112 385/427/112
f 399/442/111 400/444/111 386/428/111
f 386/429/122 400/443/122 401/445/122
f 387/430/121 401/445/121 402/446/121
f 402/446/120 403/447/120 389/432/120
f 403/447/11 404/448/11 390/433/11
f 404/448/119 405/449/119 391/434/119
f 405/449/118 406/450/118 392/435/118
f 406/450/117 393/436/117 379/421/117
f 407/451/128 408/452/128 394/437/128
f 408/452/127 409/453/127 395/438/127
f 409/453/126 410/454/126 396/439/126
f 410/454/4 411/455/4 397/440/4
f 397/440/125 411/455/125 412/456/125
f 398/441/124 412/456/124 413/457/124
f 413/457/123 414/458/123 400/444/123
f 414/459/134 415/460/134 401/445/134
f 415/460/133 416/461/133 402/446/133
f 416/461/132 417/462/132 403/447/132
f 417/462/11 418/463/11 404/448/11
f 418/463/131 419/464/131 405/449/131
f 419/464/130 420/465/130 406/450/130
f 406/450/129 420/465/129 407/451/129
f 421/466/140 422/467/140 408/452/140
f 422/467/139 423/468/139 409/453/139
f 409/453/222 423/468/222 424/469/222
f 410/454/4 424/469/4 425/470/4
f 425/470/137 426/471/137 412/456/137
f 412/456/136 426/471/136 427/472/136
f 413/457/135 427/472/135 428/474/135
f 428/473/146 429/475/146 415/460/146
f 429/475/145 430/476/145 416/461/145
f 416/461/144 430/476/144 431/477/144
f 431/477/11 432/478/11 418/463/11
f 432/478/143 433/479/143 419/464/143
f 433/479/142 434/480/142 420/465/142
f 420/465/141 434/480/141 421/466/141
f 435/481/152 436/482/152 422/467/152
f 436/482/151 437/483/151 423/468/151
f 423/468/150 437/483/150 438/484/150
f 424/469/4 438/484/4 439/485/4
f 425/470/149 439/485/149 440/486/149
f 440/486/148 441/487/148 427/472/148
f 441/487/147 442/488/147 428/474/147
f 442/489/158 443/490/158 429/475/158
f 429/475/157 443/490/157 444/491/157
f 444/491/156 445/492/156 431/477/156
f 445/492/11 446/493/11 432/478/11
f 446/493/155 447/494/155 433/479/155
f 447/494/154 448/495/154 434/480/154
f 448/495/153 435/481/153 421/466/153
f 435/481/164 449/496/164 450/497/164
f 450/497/163 451/498/163 437/483/163
f 451/498/162 452/499/162 438/484/162
f 452/499/4 453/500/4 439/485/4
f 439/485/161 453/500/161 454/501/161
f 454/501/160 455/502/160 441/487/160
f 441/487/159 455/502/159 456/503/159
f 456/504/170 457/505/170 443/490/170
f 443/490/169 457/505/169 458/506/169
f 458/506/168 459/507/168 445/492/168
f 445/492/11 459/507/11 460/508/11
f 460/508/167 461/509/167 447/494/167
f 447/494/166 461/509/166 462/510/166
f 462/510/165 449/496/165 435/481/165
f 463/511/176 464/512/176 450/497/176
f 464/512/175 465/513/175 451/498/175
f 465/513/174 466/514/174 452/499/174
f 466/514/4 467/515/4 453/500/4
f 467/515/173 468/516/173 454/501/173
f 468/516/172 469/517/172 455/502/172
f 469/517/171 470/519/171 456/503/171
f 456/504/182 470/518/182 471/520/182
f 457/505/181 471/520/181 472/521/181
f 472/521/180 473/522/180 459/507/180
f 473/522/11 474/523/11 460/508/11
f 474/523/179 475/524/179 461/509/179
f 461/509/178 475/524/178 476/525/178
f 462/510/177 476/525/177 463/511/177
f 477/526/188 478/527/188 464/512/188
f 478/527/187 479/528/187 465/513/187
f 465/513/186 479/528/186 480/529/186
f 480/529/4 481/530/4 467/515/4
f 481/530/229 482/531/229 468/516/229
f 482/531/184 483/532/184 469/517/184
f 483/532/183 484/534/183 470/519/183
f 484/533/194 485/535/194 471/520/194
f 485/535/193 486/536/193 472/521/193
f 472/521/230 486/536/230 487/537/230
f 473/522/11 487/537/11 488/538/11
f 488/538/191 489/539/191 475/524/191
f 475/524/190 489/539/190 490/540/190
f 476/525/189 490/540/189 477/526/189
f 477/526/200 491/541/200 492/542/200
f 492/542/199 493/543/199 479/528/199
f 493/543/198 494/544/198 480/529/198
f 494/544/4 495/545/4 481/530/4
f 481/530/197 495/545/197 496/546/197
f 482/531/196 496/546/196 497/547/196
f 497/547/195 498/549/195 484/534/195
f 498/548/206 499/550/206 485/535/206
f 499/550/205 500/551/205 486/536/205
f 500/551/204 501/552/204 487/537/204
f 501/552/11 502/553/11 488/538/11
f 502/553/203 503/554/203 489/539/203
f 503/554/202 504/555/202 490/540/202
f 504/555/201 491/541/201 477/526/201
f 1/1/212 2/2/212 492/542/212
f 2/2/211 3/3/211 493/543/211
f 3/3/210 4/4/210 494/544/210
f 4/4/4 5/5/4 495/545/4
f 5/5/209 6/6/209 496/546/209
f 6/6/208 7/7/208 497/547/208
f 7/7/207 8/8/207 498/549/207
f 8/9/218 9/10/218 499/550/218
f 9/10/217 10/11/217 500/551/217
f 500/551/216 10/11/216 11/12/216
f 501/552/11 11/12/11 12/13/11
f 502/553/215 12/13/215 13/14/215
f 503/554/214 13/14/214 14/15/214
f 14/15/213 1/1/213 491/541/213
