####
#
# OBJ File Generated by Meshlab
#
####
# Object flat_v134.obj
#
# Vertices: 134
# Faces: 223
#
####
mtllib ./flat_v134.obj.mtl

vn 0.000000 1.000000 0.000000
v -1.000000 0.000000 1.000000
vn 0.000000 1.000000 0.000000
v 1.000000 0.000000 1.000000
vn 0.000000 1.000000 0.000000
v -1.000000 0.000000 -1.000000
vn 0.000000 1.000000 0.000000
v 1.000000 0.000000 -1.000000
vn 0.000000 1.000000 0.000000
v -1.000000 0.000000 -0.089844
vn 0.000000 1.000000 0.000000
v -1.000000 0.000000 0.472656
vn 0.000000 1.000000 0.000000
v -1.000000 0.000000 -0.277344
vn 0.000000 1.000000 0.000000
v -1.000000 0.000000 0.660156
vn 0.000000 1.000000 0.000000
v -0.366904 0.000000 0.381306
vn 0.000000 1.000000 0.000000
v -1.000000 0.000000 -0.714844
vn 0.000000 1.000000 0.000000
v -1.000000 0.000000 -0.464844
vn 0.000000 1.000000 0.000000
v -1.000000 0.000000 0.097656
vn 0.000000 1.000000 0.000000
v -1.000000 0.000000 0.285156
vn 0.000000 1.000000 0.000000
v 0.243671 0.000000 0.160297
vn 0.000000 1.000000 0.000000
v -0.641659 0.000000 0.213588
vn 0.000000 1.000000 0.000000
v 0.497280 0.000000 -0.367279
vn 0.000000 1.000000 0.000000
v -0.345529 0.000000 -0.870912
vn 0.000000 1.000000 0.000000
v 0.173986 0.000000 -0.156715
vn 0.000000 1.000000 0.000000
v 0.801804 0.000000 0.289435
vn 0.000000 1.000000 0.000000
v 0.428982 0.000000 -0.160418
vn 0.000000 1.000000 0.000000
v -0.013970 0.000000 0.816135
vn 0.000000 1.000000 0.000000
v -0.003683 0.000000 -0.584087
vn 0.000000 1.000000 0.000000
v 0.653320 0.000000 1.000000
vn 0.000000 1.000000 0.000000
v -0.158203 0.000000 1.000000
vn 0.000000 1.000000 0.000000
v -0.658203 0.000000 1.000000
vn 0.000000 1.000000 0.000000
v 1.000000 0.000000 0.653320
vn 0.000000 1.000000 0.000000
v 1.000000 0.000000 0.402344
vn 0.000000 1.000000 0.000000
v 1.000000 0.000000 0.152344
vn 0.000000 1.000000 0.000000
v 1.000000 0.000000 -0.035156
vn 0.000000 1.000000 0.000000
v 1.000000 0.000000 -0.222656
vn 0.000000 1.000000 0.000000
v 1.000000 0.000000 -0.410156
vn 0.000000 1.000000 0.000000
v 1.000000 0.000000 -0.597656
vn 0.000000 1.000000 0.000000
v 1.000000 0.000000 -0.785156
vn 0.000000 1.000000 0.000000
v 0.430020 0.000000 0.072386
vn 0.000000 1.000000 0.000000
v -0.661258 0.000000 0.676063
vn 0.000000 1.000000 0.000000
v -0.881092 0.000000 -0.121471
vn 0.000000 1.000000 0.000000
v -0.442709 0.000000 0.718553
vn 0.000000 1.000000 0.000000
v -0.849750 0.000000 0.270521
vn 0.000000 1.000000 0.000000
v 0.784002 0.000000 0.789361
vn 0.000000 1.000000 0.000000
v -0.142164 0.000000 0.385530
vn 0.000000 1.000000 0.000000
v 0.406598 0.000000 0.309502
vn 0.000000 1.000000 0.000000
v 0.458886 0.000000 -0.831321
vn 0.000000 1.000000 0.000000
v -0.008180 0.000000 -0.192388
vn 0.000000 1.000000 0.000000
v 0.629976 0.000000 -0.760848
vn 0.000000 1.000000 0.000000
v -0.611194 0.000000 -0.614608
vn 0.000000 1.000000 0.000000
v -0.768499 0.000000 0.050508
vn 0.000000 1.000000 0.000000
v -0.699719 0.000000 0.406404
vn 0.000000 1.000000 0.000000
v -0.867410 0.000000 0.678163
vn 0.000000 1.000000 0.000000
v 0.796461 0.000000 0.530011
vn 0.000000 1.000000 0.000000
v -0.235689 0.000000 -0.524450
vn 0.000000 1.000000 0.000000
v -0.077704 0.000000 0.611114
vn 0.000000 1.000000 0.000000
v 0.830794 0.000000 -0.485214
vn 0.000000 1.000000 0.000000
v -0.768415 0.000000 0.853921
vn 0.000000 1.000000 0.000000
v -0.181474 0.000000 -0.744972
vn 0.000000 1.000000 0.000000
v -0.445274 0.000000 -0.460688
vn 0.000000 1.000000 0.000000
v -0.320023 0.000000 0.010463
vn 0.000000 1.000000 0.000000
v 0.600341 0.000000 0.641487
vn 0.000000 1.000000 0.000000
v -0.393124 0.000000 -0.668770
vn 0.000000 1.000000 0.000000
v 0.077509 0.000000 0.455235
vn 0.000000 1.000000 0.000000
v 0.623936 0.000000 -0.035395
vn 0.000000 1.000000 0.000000
v 0.062869 0.000000 0.011639
vn 0.000000 1.000000 0.000000
v 0.867188 0.000000 1.000000
vn 0.000000 1.000000 0.000000
v 0.464844 0.000000 1.000000
vn 0.000000 1.000000 0.000000
v 0.277344 0.000000 1.000000
vn 0.000000 1.000000 0.000000
v 0.041016 0.000000 1.000000
vn 0.000000 1.000000 0.000000
v -0.851562 0.000000 1.000000
vn 0.000000 1.000000 0.000000
v -1.000000 0.000000 0.896484
vn 0.000000 1.000000 0.000000
v 1.000000 0.000000 0.867188
vn 0.000000 1.000000 0.000000
v 0.809570 0.000000 -1.000000
vn 0.000000 1.000000 0.000000
v 0.621094 0.000000 -1.000000
vn 0.000000 1.000000 0.000000
v 0.433594 0.000000 -1.000000
vn 0.000000 1.000000 0.000000
v 0.246094 0.000000 -1.000000
vn 0.000000 1.000000 0.000000
v 0.058594 0.000000 -1.000000
vn 0.000000 1.000000 0.000000
v -0.128906 0.000000 -1.000000
vn 0.000000 1.000000 0.000000
v -0.316406 0.000000 -1.000000
vn 0.000000 1.000000 0.000000
v -0.503906 0.000000 -1.000000
vn 0.000000 1.000000 0.000000
v -0.691406 0.000000 -1.000000
vn 0.000000 1.000000 0.000000
v -0.878906 0.000000 -1.000000
vn 0.000000 1.000000 0.000000
v -0.524074 0.000000 0.522075
vn 0.000000 1.000000 0.000000
v 0.283671 0.000000 0.679193
vn 0.000000 1.000000 0.000000
v 0.813596 0.000000 -0.869114
vn 0.000000 1.000000 0.000000
v -0.554946 0.000000 -0.819166
vn 0.000000 1.000000 0.000000
v -0.840706 0.000000 -0.337347
vn 0.000000 1.000000 0.000000
v 0.611835 0.000000 0.183357
vn 0.000000 1.000000 0.000000
v 0.483011 0.000000 -0.496739
vn 0.000000 1.000000 0.000000
v -0.826236 0.000000 -0.565550
vn 0.000000 1.000000 0.000000
v 0.266288 0.000000 0.488552
vn 0.000000 1.000000 0.000000
v 0.142778 0.000000 -0.875528
vn 0.000000 1.000000 0.000000
v 0.433034 0.000000 0.756756
vn 0.000000 1.000000 0.000000
v 0.644056 0.000000 -0.236059
vn 0.000000 1.000000 0.000000
v 0.639966 0.000000 -0.561701
vn 0.000000 1.000000 0.000000
v 0.164163 0.000000 -0.725706
vn 0.000000 1.000000 0.000000
v 0.606160 0.000000 0.411858
vn 0.000000 1.000000 0.000000
v 0.306922 0.000000 0.859410
vn 0.000000 1.000000 0.000000
v 0.582458 0.000000 0.836812
vn 0.000000 1.000000 0.000000
v -1.000000 0.000000 -0.857422
vn 0.000000 1.000000 0.000000
v -0.568882 0.000000 0.859759
vn 0.000000 1.000000 0.000000
v 0.097841 0.000000 -0.365070
vn 0.000000 1.000000 0.000000
v -0.375599 0.000000 0.892707
vn 0.000000 1.000000 0.000000
v -0.360352 0.000000 1.000000
vn 0.000000 1.000000 0.000000
v -0.225275 0.000000 0.769752
vn 0.000000 1.000000 0.000000
v -0.442931 0.000000 0.194476
vn 0.000000 1.000000 0.000000
v -0.297138 0.000000 0.568429
vn 0.000000 1.000000 0.000000
v -0.652355 0.000000 -0.401913
vn 0.000000 1.000000 0.000000
v -0.683906 0.000000 -0.172591
vn 0.000000 1.000000 0.000000
v 0.820265 0.000000 -0.672933
vn 0.000000 1.000000 0.000000
v -0.549628 0.000000 0.011185
vn 0.000000 1.000000 0.000000
v 0.252777 0.000000 -0.022901
vn 0.000000 1.000000 0.000000
v -0.536307 0.000000 0.347926
vn 0.000000 1.000000 0.000000
v 0.807736 0.000000 0.068828
vn 0.000000 1.000000 0.000000
v 0.831061 0.000000 -0.310077
vn 0.000000 1.000000 0.000000
v 0.671194 0.000000 -0.398021
vn 0.000000 1.000000 0.000000
v 0.818197 0.000000 -0.128946
vn 0.000000 1.000000 0.000000
v -0.116697 0.000000 -0.362764
vn 0.000000 1.000000 0.000000
v -0.509277 0.000000 1.000000
vn 0.000000 1.000000 0.000000
v 0.051040 0.000000 0.250814
vn 0.000000 1.000000 0.000000
v 0.216014 0.000000 0.332375
vn 0.000000 1.000000 0.000000
v 0.236170 0.000000 -0.541998
vn 0.000000 1.000000 0.000000
v -0.742186 0.000000 0.519933
vn 0.000000 1.000000 0.000000
v 0.295928 0.000000 -0.823246
vn 0.000000 1.000000 0.000000
v -0.138035 0.000000 -0.098059
vn 0.000000 1.000000 0.000000
v -0.799753 0.000000 -0.791434
vn 0.000000 1.000000 0.000000
v -0.265519 0.000000 0.222643
vn 0.000000 1.000000 0.000000
v 0.432354 0.000000 0.539867
vn 0.000000 1.000000 0.000000
v 0.003546 0.000000 -0.823123
vn 0.000000 1.000000 0.000000
v -0.450561 0.000000 -0.166563
vn 0.000000 1.000000 0.000000
v 0.307659 0.000000 -0.343984
vn 0.000000 1.000000 0.000000
v -0.310894 0.000000 -0.341333
vn 0.000000 1.000000 0.000000
v 0.125644 0.000000 0.647157
vn 0.000000 1.000000 0.000000
v 0.163493 0.000000 0.848064
vn 0.000000 1.000000 0.000000
v -0.128111 0.000000 0.137468
vn 0.000000 1.000000 0.000000
v 0.410978 0.000000 -0.677884
vn 0.000000 1.000000 0.000000
v -0.253484 0.000000 -0.205934
vn 0.000000 1.000000 0.000000
v -0.502380 0.000000 -0.299573
# 134 vertices, 0 vertices normals


usemtl material_0
vt 0.640625 0.015625
vt 0.632812 0.015625
vt 0.636719 0.007812
f 63/1/63 89/2/89 94/3/94
vt 0.015625 0.078125
vt 0.000000 0.078125
vt 0.015625 0.062500
f 48/4/48 67/5/67 53/6/53
vt 0.500000 0.984375
vt 0.484375 1.000000
vt 0.484375 0.984375
f 125/7/125 73/8/73 74/9/74
vt 0.375000 0.984375
vt 0.359375 1.000000
vt 0.359375 0.984375
f 17/10/17 74/11/74 75/12/75
vt 0.312500 0.984375
vt 0.296875 1.000000
vt 0.296875 0.984375
f 17/13/17 75/14/75 76/15/76
vt 0.968750 0.843750
vt 0.953125 0.859375
vt 0.953125 0.843750
f 32/16/32 106/17/106 52/18/52
vt 0.859375 0.812500
vt 0.843750 0.812500
vt 0.859375 0.796875
f 81/19/81 44/20/44 106/21/106
vt 0.390625 0.875000
vt 0.375000 0.890625
vt 0.375000 0.875000
f 50/22/50 54/23/54 58/24/58
vt 0.890625 0.781250
vt 0.875000 0.796875
vt 0.875000 0.789062
f 52/25/52 106/26/106 91/27/91
vt 0.968750 0.000000
vt 0.953125 0.015625
vt 0.953125 0.000000
f 2/28/2 68/29/68 62/30/62
vt 0.921875 0.000000
vt 0.906250 0.015625
vt 0.906250 0.000000
f 62/31/62 39/32/39 23/33/23
vt 0.828125 0.015625
vt 0.812500 0.031250
vt 0.824219 0.015625
f 23/34/23 39/35/39 95/36/95
vt 0.781250 0.000000
vt 0.773438 0.007812
vt 0.765625 0.000000
f 23/37/23 95/38/95 63/39/63
vt 0.515625 0.140625
vt 0.511719 0.144531
vt 0.507812 0.140625
f 21/40/21 129/41/129 51/42/51
vt 0.015625 0.796875
vt 0.000000 0.812500
vt 0.000000 0.796875
f 83/43/83 86/44/86 11/45/11
vt 0.015625 0.671875
vt 0.000000 0.687500
vt 0.000000 0.671875
f 83/46/83 11/47/11 7/48/7
vt 0.015625 0.609375
vt 0.000000 0.625000
vt 0.000000 0.609375
f 36/49/36 7/50/7 5/51/5
vt 0.484375 0.000000
vt 0.468750 0.015625
vt 0.468750 0.000000
f 65/52/65 21/53/21 24/54/24
vt 0.398438 0.007812
vt 0.390625 0.015625
vt 0.390625 0.011719
f 24/55/24 21/56/21 101/57/101
vt 0.015625 0.484375
vt 0.007812 0.492188
vt 0.000000 0.484375
f 46/58/46 36/59/36 12/60/12
vt 0.015625 0.421875
vt 0.007812 0.429688
vt 0.000000 0.421875
f 13/61/13 38/62/38 12/63/12
vt 0.015625 0.296875
vt 0.000000 0.312500
vt 0.000000 0.296875
f 38/64/38 13/65/13 6/66/6
vt 0.156250 0.000000
vt 0.140625 0.015625
vt 0.140625 0.000000
f 25/67/25 53/68/53 66/69/66
vt 0.015625 0.234375
vt 0.000000 0.250000
vt 0.000000 0.234375
f 8/70/8 48/71/48 6/72/6
vt 0.015625 0.109375
vt 0.000000 0.125000
vt 0.000000 0.109375
f 48/73/48 8/74/8 67/75/67
vt 0.015625 0.046875
vt 0.000000 0.062500
vt 0.000000 0.046875
f 66/76/66 53/77/53 67/78/67
vt 0.015625 0.000000
vt 0.000000 0.015625
vt 0.000000 0.000000
f 66/79/66 67/80/67 1/81/1
vt 1.000000 0.031250
vt 1.000000 0.046875
vt 0.984375 0.046875
f 62/82/62 68/83/68 39/84/39
vt 1.000000 0.078125
vt 1.000000 0.093750
vt 0.996094 0.082031
f 68/85/68 26/86/26 39/87/39
vt 1.000000 0.218750
vt 1.000000 0.234375
vt 0.992188 0.234375
f 26/88/26 27/89/27 49/90/49
vt 1.000000 0.343750
vt 1.000000 0.359375
vt 0.992188 0.351562
f 27/91/27 28/92/28 19/93/19
vt 0.843750 0.421875
vt 0.843750 0.425781
vt 0.841797 0.423828
f 19/94/19 28/95/28 110/96/110
vt 0.687500 0.445312
vt 0.687500 0.453125
vt 0.679688 0.453125
f 34/97/34 60/98/60 20/99/20
vt 1.000000 0.718750
vt 1.000000 0.734375
vt 0.984375 0.734375
f 31/100/31 32/101/32 52/102/52
vt 1.000000 0.843750
vt 1.000000 0.859375
vt 0.996094 0.855469
f 32/103/32 33/104/33 106/105/106
vt 1.000000 0.906250
vt 1.000000 0.921875
vt 0.984375 0.921875
f 81/106/81 4/107/4 69/108/69
vt 1.000000 0.984375
vt 1.000000 1.000000
vt 0.984375 1.000000
f 81/109/81 33/110/33 4/111/4
vt 0.859375 0.984375
vt 0.859375 1.000000
vt 0.843750 1.000000
f 81/112/81 69/113/69 70/114/70
vt 0.796875 0.984375
vt 0.796875 1.000000
vt 0.781250 1.000000
f 42/115/42 70/116/70 71/117/71
vt 0.328125 0.734375
vt 0.328125 0.750000
vt 0.312500 0.750000
f 55/118/55 50/119/50 58/120/58
vt 0.343750 0.921875
vt 0.343750 0.937500
vt 0.328125 0.937500
f 54/121/54 17/122/17 58/123/58
vt 0.234375 0.984375
vt 0.234375 1.000000
vt 0.218750 1.000000
f 82/124/82 76/125/76 77/126/77
vt 0.046875 0.984375
vt 0.046875 1.000000
vt 0.031250 1.000000
f 96/127/96 78/128/78 3/129/3
vt 0.203125 0.179688
vt 0.203125 0.171875
vt 0.218750 0.171875
f 79/130/79 35/131/35 37/132/37
vt 0.210938 0.046875
vt 0.207031 0.054688
vt 0.207031 0.046875
f 25/133/25 97/134/97 53/135/53
vt 0.289062 0.898438
vt 0.281250 0.906250
vt 0.285156 0.894531
f 58/136/58 17/137/17 82/138/82
vt 0.226562 0.007812
vt 0.218750 0.015625
vt 0.218750 0.007812
f 115/139/115 99/140/99 97/141/97
vt 0.062500 0.125000
vt 0.046875 0.132812
vt 0.046875 0.125000
f 53/142/53 35/143/35 48/144/48
vt 0.539062 0.273438
vt 0.535156 0.277344
vt 0.535156 0.269531
f 14/145/14 116/146/116 117/147/117
vt 0.671875 0.992188
vt 0.671875 1.000000
vt 0.664062 0.996094
f 120/148/120 71/149/71 72/150/72
vt 0.242188 0.757812
vt 0.250000 0.765625
vt 0.234375 0.765625
f 45/151/45 58/152/58 82/153/82
vt 0.386719 0.121094
vt 0.390625 0.125000
vt 0.387695 0.124023
f 101/154/101 51/155/51 103/156/103
vt 0.742188 0.984375
vt 0.734375 1.000000
vt 0.734375 0.984375
f 44/157/44 70/158/70 42/159/42
vt 0.335938 0.050781
vt 0.328125 0.046875
vt 0.339844 0.048828
f 101/160/101 37/161/37 99/162/99
vt 0.632812 0.789062
vt 0.630859 0.781250
vt 0.632324 0.785156
f 92/163/92 118/164/118 132/165/132
vt 0.804688 0.984375
f 81/166/81 70/116/70 44/115/44
vt 0.210938 0.914062
vt 0.218750 0.921875
vt 0.203125 0.921875
f 82/167/82 17/168/17 76/169/76
vt 0.882812 0.375000
vt 0.875000 0.390625
vt 0.878906 0.375000
f 49/170/49 19/171/19 93/172/93
vt 0.246094 0.753906
vt 0.244141 0.759766
f 45/151/45 104/173/104 55/174/55
vt 0.664062 0.998047
vt 0.656250 1.000000
f 73/150/73 88/175/88 72/176/72
vt 0.960938 0.343750
vt 0.953125 0.359375
vt 0.953125 0.343750
f 19/177/19 49/178/49 27/179/27
vt 0.984375 0.234375
f 26/88/26 49/90/49 39/180/39
vt 0.873047 0.402344
vt 0.867188 0.406250
vt 0.875000 0.398438
f 93/181/93 84/182/84 41/183/41
vt 0.855469 0.300781
vt 0.843750 0.296875
vt 0.859375 0.296875
f 93/184/93 57/185/57 49/186/49
vt 0.875000 0.375000
f 93/172/93 19/171/19 84/187/84
vt 0.621094 0.136719
vt 0.625000 0.140625
vt 0.615234 0.138672
f 80/188/80 94/189/94 89/190/89
vt 0.593750 0.000000
vt 0.578125 0.007812
vt 0.578125 0.003906
f 64/191/64 94/192/94 130/193/130
vt 0.822266 0.015625
f 95/36/95 39/35/39 57/194/57
vt 0.765625 0.015625
f 95/38/95 89/195/89 63/39/63
vt 0.875000 0.187500
vt 0.867188 0.203125
vt 0.859375 0.203125
f 89/196/89 95/197/95 57/198/57
vt 0.820312 0.015625
f 57/194/57 39/35/39 49/199/49
vt 0.765625 0.250000
vt 0.766602 0.251953
vt 0.765625 0.265625
f 117/200/117 87/201/87 41/202/41
vt 0.750000 0.253906
vt 0.750000 0.251953
f 89/200/89 57/203/57 124/204/124
vt 0.984375 0.562500
vt 0.984375 0.578125
f 30/205/30 31/206/31 111/205/111
vt 0.015625 0.921875
vt 0.007812 0.925781
vt 0.005859 0.924805
f 10/207/10 11/208/11 86/209/86
vt 0.257812 0.171875
vt 0.253906 0.179688
vt 0.250000 0.171875
f 101/210/101 103/211/103 37/212/37
vt 0.000000 0.500000
f 36/59/36 5/213/5 12/60/12
vt 0.464844 0.679688
vt 0.460938 0.687500
vt 0.457031 0.687500
f 43/214/43 98/215/98 114/216/114
vt 0.429688 0.703125
vt 0.421875 0.703125
vt 0.429688 0.699219
f 22/217/22 50/218/50 114/219/114
vt 0.203125 0.046875
f 97/134/97 35/220/35 53/135/53
vt 0.203125 0.062500
f 35/220/35 97/134/97 37/221/37
vt 0.222656 0.003906
f 100/139/100 99/141/99 115/222/115
vt 0.546875 0.710938
vt 0.554688 0.705078
vt 0.558594 0.704102
f 22/223/22 98/224/98 118/225/118
vt 0.406250 0.000000
vt 0.390625 0.003906
vt 0.398438 0.000000
f 24/226/24 99/227/99 100/228/100
vt 0.343750 0.046875
f 99/162/99 37/161/37 97/229/97
vt 0.882812 0.531250
vt 0.878906 0.531250
vt 0.876953 0.531250
f 60/230/60 110/231/110 113/232/113
vt 0.125000 0.640625
vt 0.109375 0.640625
vt 0.125000 0.632812
f 104/233/104 83/234/83 105/235/105
vt 0.242188 0.507812
vt 0.234375 0.515625
vt 0.240234 0.505859
f 102/236/102 56/237/56 107/238/107
f 101/57/101 99/226/99 24/55/24
vt 0.000000 0.437500
f 38/62/38 46/239/46 12/63/12
vt 0.671875 0.453125
f 20/99/20 108/240/108 34/97/34
vt 1.000000 0.539062
vt 1.000000 0.546875
vt 0.996094 0.542969
f 110/241/110 29/242/29 113/243/113
vt 0.437500 0.812500
vt 0.429688 0.828125
vt 0.421875 0.828125
f 50/244/50 22/245/22 54/246/54
vt 0.179688 0.593750
vt 0.179688 0.589844
vt 0.187500 0.578125
f 46/247/46 105/248/105 36/249/36
vt 0.742188 0.460938
vt 0.742188 0.464844
vt 0.734375 0.468750
f 34/250/34 84/251/84 60/252/60
vt 0.250000 0.367188
vt 0.242188 0.367188
vt 0.250000 0.363281
f 9/253/9 102/254/102 109/255/109
vt 0.250000 0.187500
f 103/211/103 79/256/79 37/212/37
vt 0.050781 0.378906
vt 0.046875 0.390625
vt 0.046875 0.375000
f 15/257/15 46/258/46 38/259/38
vt 0.140625 0.546875
vt 0.125000 0.554688
vt 0.125000 0.546875
f 107/260/107 105/261/105 46/262/46
vt 0.164062 0.273438
vt 0.160156 0.277344
vt 0.156250 0.265625
f 79/263/79 109/264/109 47/265/47
vt 0.421875 0.984375
vt 0.414062 1.000000
vt 0.406250 1.000000
f 17/266/17 54/267/54 74/268/74
vt 0.773438 0.449219
vt 0.773438 0.445312
vt 0.781250 0.437500
f 84/269/84 34/270/34 41/271/41
vt 0.171875 0.992188
vt 0.179688 0.992188
vt 0.171875 1.000000
f 122/272/122 82/273/82 77/274/77
vt 0.816406 0.769531
vt 0.816406 0.777344
vt 0.812500 0.765625
f 91/275/91 106/276/106 44/277/44
vt 0.253906 0.750000
vt 0.250000 0.750000
f 55/278/55 58/152/58 45/279/45
vt 0.984375 0.859375
f 106/105/106 33/104/33 81/280/81
f 90/205/90 111/206/111 112/205/112
vt 0.052734 0.380859
vt 0.051758 0.379883
f 107/281/107 46/258/46 15/282/15
vt 0.837891 0.427734
vt 0.835938 0.429688
f 110/283/110 28/95/28 29/284/29
vt 0.814453 0.779297
vt 0.812500 0.781250
vt 0.812500 0.773438
f 91/285/91 44/286/44 132/287/132
vt 0.622559 0.052246
vt 0.622803 0.052490
vt 0.619873 0.053467
f 21/288/21 130/289/130 129/290/129
vt 0.153320 0.867188
vt 0.149414 0.875000
vt 0.148926 0.875000
f 45/291/45 82/292/82 122/293/122
vt 0.367188 0.460938
vt 0.367188 0.457031
vt 0.371094 0.455078
f 56/294/56 123/295/123 131/296/131
vt 0.171875 0.265625
vt 0.164062 0.269531
f 79/297/79 103/263/103 9/298/9
vt 1.000000 0.656250
vt 1.000000 0.664062
vt 0.984375 0.671875
f 112/299/112 111/300/111 52/301/52
vt 0.519531 0.632812
vt 0.531250 0.625000
vt 0.523438 0.630859
f 43/302/43 61/303/61 18/304/18
vt 0.527344 0.812500
vt 0.523438 0.816406
vt 0.523438 0.812500
f 118/305/118 92/306/92 22/307/22
vt 0.812500 0.578125
vt 0.808594 0.583984
vt 0.796875 0.593750
f 20/308/20 90/309/90 16/310/16
vt 0.751953 0.578125
vt 0.750000 0.578125
vt 0.765625 0.562500
f 90/311/90 20/312/20 60/313/60
f 111/205/111 31/206/31 52/205/52
vt 0.996094 0.539062
vt 0.992188 0.546875
vt 0.990234 0.546875
f 113/314/113 30/315/30 111/316/111
vt 0.994141 0.539062
vt 0.988281 0.546875
f 113/317/113 111/316/111 90/318/90
vt 0.437500 0.695312
f 22/217/22 114/219/114 98/319/98
vt 0.218750 0.000000
f 115/222/115 97/141/97 25/320/25
vt 0.812500 0.695312
vt 0.808594 0.703125
vt 0.812500 0.691406
f 112/321/112 91/322/91 85/323/85
vt 0.875000 0.531250
f 60/230/60 113/232/113 90/324/90
vt 0.246094 0.425781
vt 0.250000 0.429688
vt 0.242188 0.429688
f 15/325/15 102/326/102 107/327/107
f 113/243/113 29/242/29 30/315/30
vt 0.250000 0.359375
f 109/255/109 102/254/102 15/328/15
vt 0.837891 0.429688
vt 0.843750 0.437500
f 110/329/110 60/330/60 84/284/84
vt 0.843750 0.426758
f 19/95/19 110/331/110 84/284/84
vt 0.156250 0.281250
vt 0.158203 0.271484
f 109/264/109 15/332/15 47/333/47
f 112/205/112 52/206/52 91/205/91
vt 0.562500 0.375000
vt 0.546875 0.390625
vt 0.554688 0.375000
f 14/334/14 61/335/61 116/336/116
vt 0.656250 0.359375
vt 0.656250 0.375000
vt 0.652344 0.371094
f 41/337/41 34/338/34 14/339/14
vt 0.531250 0.265625
f 116/146/116 59/340/59 117/147/117
vt 0.617188 0.683594
vt 0.625000 0.671875
vt 0.625000 0.675781
f 118/341/118 98/342/98 127/343/127
vt 0.664062 1.000000
vt 0.660156 1.000000
f 88/175/88 92/344/92 120/345/120
vt 0.634766 0.406250
vt 0.625000 0.421875
vt 0.632812 0.406250
f 14/346/14 34/347/34 108/348/108
vt 0.519531 0.820312
vt 0.521484 0.816406
f 92/306/92 88/349/88 125/350/125
vt 0.804688 0.589844
f 90/309/90 112/351/112 16/310/16
f 47/333/47 15/332/15 38/265/38
vt 0.015625 0.636719
vt 0.000000 0.640625
vt 0.015625 0.632812
f 83/352/83 7/353/7 36/354/36
vt 0.015625 0.203125
vt 0.007812 0.203125
vt 0.015625 0.187500
f 48/355/48 119/356/119 6/357/6
vt 0.031250 0.187500
vt 0.015625 0.195312
f 35/358/35 119/359/119 48/357/48
vt 0.517578 0.816406
vt 0.515625 0.820312
vt 0.515625 0.812500
f 125/360/125 54/361/54 22/362/22
vt 0.671875 0.828125
vt 0.679688 0.824219
vt 0.679688 0.828125
f 42/363/42 120/364/120 132/365/132
vt 0.601562 0.812500
vt 0.603516 0.809570
vt 0.609375 0.804688
f 71/366/71 120/367/120 42/368/42
vt 0.007812 0.632812
vt 0.015625 0.625000
f 105/354/105 83/369/83 36/370/36
vt 0.148438 0.875000
f 45/291/45 122/293/122 86/371/86
vt 0.542969 0.267578
vt 0.539062 0.269531
vt 0.541016 0.266602
f 87/372/87 117/373/117 59/374/59
f 88/175/88 120/345/120 72/176/72
vt 0.405762 0.623535
vt 0.406250 0.625000
vt 0.398438 0.617188
f 121/375/121 133/376/133 56/377/56
f 92/306/92 125/350/125 22/307/22
vt 0.000000 0.929688
vt 0.007812 0.929688
vt 0.000000 0.937500
f 96/378/96 122/379/122 78/380/78
vt 0.359375 0.453125
f 56/294/56 102/381/102 123/295/123
vt 0.769531 0.257812
vt 0.767578 0.253906
vt 0.769531 0.250000
f 93/382/93 124/383/124 57/384/57
f 124/383/124 93/382/93 41/202/41
vt 0.757812 0.250000
f 89/200/89 124/204/124 80/385/80
vt 0.003906 0.923828
vt 0.000000 0.921875
f 10/207/10 122/386/122 96/387/96
vt 0.178711 0.756836
vt 0.171875 0.765625
vt 0.177734 0.755859
f 104/388/104 45/389/45 86/390/86
vt 0.476562 0.992188
vt 0.474609 0.998047
vt 0.468750 1.000000
f 54/391/54 125/392/125 74/393/74
vt 0.101562 0.996094
vt 0.109375 1.000000
vt 0.093750 1.000000
f 122/394/122 77/395/77 78/396/78
vt 0.173828 0.759766
vt 0.175781 0.753906
f 83/390/83 104/397/104 86/398/86
f 125/392/125 88/8/88 73/393/73
f 87/201/87 124/383/124 41/202/41
f 10/207/10 86/209/86 122/386/122
vt 0.183594 0.585938
vt 0.181641 0.593750
vt 0.180664 0.593750
f 105/399/105 126/400/126 134/401/134
vt 0.498047 0.507812
vt 0.498047 0.511719
vt 0.496094 0.507812
f 43/402/43 121/403/121 61/404/61
vt 0.534180 0.274414
vt 0.533203 0.279297
f 40/405/40 116/146/116 131/406/131
vt 0.312500 0.687500
vt 0.312500 0.691406
vt 0.304688 0.695312
f 126/407/126 128/408/128 134/409/134
vt 0.320312 0.632812
vt 0.320312 0.640625
vt 0.316406 0.640625
f 126/410/126 133/411/133 128/412/128
vt 0.304688 0.699219
vt 0.312500 0.703125
vt 0.296875 0.703125
f 128/413/128 50/414/50 55/415/55
vt 0.184570 0.589844
vt 0.185547 0.585938
f 126/416/126 105/399/105 107/417/107
vt 0.527344 0.628906
vt 0.523438 0.632812
f 43/302/43 18/418/18 98/419/98
vt 0.324219 0.285156
vt 0.324219 0.281250
vt 0.328125 0.281250
f 9/420/9 103/421/103 40/422/40
vt 0.750000 0.250000
f 80/385/80 124/204/124 87/423/87
vt 0.437500 0.093750
vt 0.437500 0.089844
vt 0.453125 0.078125
f 87/424/87 129/425/129 80/426/80
vt 0.710938 0.617188
vt 0.718750 0.625000
vt 0.703125 0.625000
f 127/427/127 20/428/20 16/429/16
vt 0.500000 0.140625
vt 0.507812 0.148438
f 51/430/51 129/41/129 59/431/59
vt 0.429688 0.085938
vt 0.429688 0.078125
vt 0.437500 0.078125
f 51/432/51 101/433/101 21/434/21
vt 0.623047 0.052734
vt 0.617188 0.054688
f 129/290/129 130/435/130 80/436/80
vt 0.164062 0.265625
f 79/297/79 9/298/9 109/437/109
vt 0.437500 0.689453
vt 0.437500 0.691406
f 128/438/128 114/439/114 50/218/50
vt 0.593750 0.671875
vt 0.583984 0.679688
vt 0.582031 0.679688
f 18/440/18 127/441/127 98/442/98
vt 0.544922 0.266602
vt 0.542969 0.265625
f 129/443/129 87/372/87 59/444/59
vt 0.640625 0.000000
f 63/1/63 94/3/94 64/445/64
vt 0.468750 0.250000
vt 0.460938 0.257812
vt 0.453125 0.250000
f 59/446/59 40/447/40 51/448/51
vt 0.324219 0.283203
vt 0.320312 0.281250
f 40/449/40 103/450/103 51/421/51
vt 0.648438 0.367188
f 41/337/41 14/339/14 117/451/117
vt 0.372070 0.399414
vt 0.367188 0.398438
vt 0.373047 0.396484
f 123/452/123 102/453/102 9/454/9
vt 0.532227 0.272461
vt 0.533203 0.271484
vt 0.531250 0.281250
f 40/455/40 59/456/59 116/457/116
vt 0.371094 0.394531
vt 0.375000 0.390625
f 40/454/40 123/458/123 9/459/9
vt 0.578125 0.000000
f 64/191/64 130/193/130 65/460/65
vt 0.619141 0.052734
vt 0.622070 0.051758
vt 0.618164 0.053711
f 21/461/21 65/462/65 130/463/130
f 130/289/130 94/435/94 80/290/80
vt 0.375000 0.453125
f 56/294/56 131/296/131 121/464/121
vt 0.482422 0.429688
vt 0.481445 0.427734
vt 0.484375 0.429688
f 61/465/61 131/466/131 116/467/116
vt 0.480469 0.429688
f 121/468/121 131/466/131 61/465/61
vt 0.645508 0.488281
vt 0.640625 0.500000
vt 0.646484 0.484375
f 108/469/108 61/470/61 14/471/14
f 40/405/40 131/406/131 123/457/123
vt 0.642578 0.656250
vt 0.648438 0.648438
vt 0.644531 0.656250
f 18/472/18 108/473/108 20/474/20
vt 0.648438 0.652344
vt 0.648438 0.656250
f 127/474/127 18/475/18 20/476/20
vt 0.621094 0.683594
vt 0.625000 0.679688
f 85/477/85 118/341/118 127/478/127
vt 0.621094 0.679688
f 85/479/85 127/343/127 16/478/16
vt 0.015625 0.289062
vt 0.015381 0.281494
vt 0.015503 0.281372
f 47/480/47 6/481/6 119/482/119
vt 0.781250 0.906250
vt 0.773438 0.898438
vt 0.781250 0.898438
f 44/483/44 42/484/42 132/485/132
f 91/285/91 132/287/132 85/277/85
vt 0.631836 0.781250
vt 0.631592 0.783203
f 85/486/85 132/487/132 118/164/118
vt 0.687500 0.828125
f 132/365/132 120/364/120 92/488/92
vt 0.235352 0.512695
vt 0.237793 0.509277
f 133/489/133 126/490/126 56/237/56
vt 0.187500 0.203125
vt 0.187256 0.187744
vt 0.187378 0.187622
f 79/491/79 47/492/47 119/493/119
vt 0.312500 0.699219
vt 0.308594 0.701172
f 133/494/133 114/414/114 128/495/128
vt 0.468750 0.671875
vt 0.460938 0.679688
f 43/496/43 114/216/114 133/497/133
vt 0.455078 0.687500
f 133/498/133 121/497/121 43/216/43
vt 0.015625 0.281250
f 38/480/38 6/482/6 47/499/47
f 126/490/126 107/238/107 56/237/56
vt 0.800781 0.703125
vt 0.804688 0.695312
vt 0.804688 0.703125
f 85/500/85 16/501/16 112/502/112
f 18/304/18 61/303/61 108/418/108
vt 0.250000 0.671875
vt 0.253906 0.671875
vt 0.250000 0.687500
f 104/503/104 134/504/134 55/505/55
f 105/399/105 134/401/134 104/247/104
f 134/409/134 128/408/128 55/415/55
vt 0.187500 0.187500
f 79/491/79 119/493/119 35/506/35
# 223 faces, 506 coords texture

# End of File
