####
#
# OBJ File Generated by Meshlab
#
####
# Object flat_v26.obj
#
# Vertices: 26
# Faces: 32
#
####
vn 0.000000 1.000000 0.000000
v -1.000000 0.000000 1.000000
vn 0.000000 1.000000 0.000000
v 1.000000 0.000000 1.000000
vn 0.000000 1.000000 0.000000
v -1.000000 0.000000 -1.000000
vn 0.000000 1.000000 0.000000
v 1.000000 0.000000 -1.000000
vn 0.000000 1.000000 0.000000
v 1.000000 0.000000 0.704666
vn 0.000000 1.000000 0.000000
v -0.026276 0.000000 1.000000
vn 0.000000 1.000000 0.000000
v 0.665588 0.000000 -1.000000
vn 0.000000 1.000000 0.000000
v -0.700851 0.000000 1.000000
vn 0.000000 1.000000 0.000000
v 0.657646 0.000000 1.000000
vn 0.000000 1.000000 0.000000
v -1.000000 0.000000 0.441345
vn 0.000000 1.000000 0.000000
v 1.000000 0.000000 -0.265136
vn 0.000000 1.000000 0.000000
v 1.000000 0.000000 -0.748413
vn 0.000000 1.000000 0.000000
v -0.850097 0.000000 -1.000000
vn 0.000000 1.000000 0.000000
v 0.231446 0.000000 -1.000000
vn 0.000000 1.000000 0.000000
v 0.500811 0.000000 0.514804
vn 0.000000 1.000000 0.000000
v -0.603083 0.000000 -0.582874
vn 0.000000 1.000000 0.000000
v -0.307617 0.000000 -1.000000
vn 0.000000 1.000000 0.000000
v -1.000000 0.000000 -0.728638
vn 0.000000 1.000000 0.000000
v -1.000000 0.000000 -0.211426
vn 0.000000 1.000000 0.000000
v 1.000000 0.000000 0.157227
vn 0.000000 1.000000 0.000000
v -0.521087 0.000000 -0.003534
vn 0.000000 1.000000 0.000000
v -0.020839 0.000000 0.273450
vn 0.000000 1.000000 0.000000
v 0.573160 0.000000 -0.578572
vn 0.000000 1.000000 0.000000
v 0.486281 0.000000 -0.062603
vn 0.000000 1.000000 0.000000
v -0.027059 0.000000 -0.420035
vn 0.000000 1.000000 0.000000
v -0.463646 0.000000 0.547694
# 26 vertices, 0 vertices normals

f 3//3 18//18 13//13
f 2//2 5//5 9//9
f 10//10 8//8 26//26
f 1//1 8//8 10//10
f 5//5 20//20 15//15
f 11//11 12//12 23//23
f 7//7 12//12 4//4
f 6//6 26//26 8//8
f 18//18 19//19 16//16
f 17//17 25//25 14//14
f 6//6 9//9 15//15
f 5//5 15//15 9//9
f 14//14 25//25 23//23
f 14//14 23//23 7//7
f 23//23 24//24 11//11
f 22//22 15//15 24//24
f 21//21 26//26 22//22
f 10//10 21//21 19//19
f 21//21 10//10 26//26
f 21//21 22//22 25//25
f 23//23 12//12 7//7
f 24//24 20//20 11//11
f 20//20 24//24 15//15
f 22//22 24//24 25//25
f 19//19 21//21 16//16
f 24//24 23//23 25//25
f 13//13 18//18 16//16
f 16//16 25//25 17//17
f 13//13 16//16 17//17
f 21//21 25//25 16//16
f 6//6 15//15 22//22
f 26//26 6//6 22//22
# 32 faces, 0 coords texture

# End of File
