####
#
# OBJ File Generated by Meshlab
#
####
# Object flat_v377.obj
#
# Vertices: 377
# Faces: 675
#
####
mtllib ./flat_v377.obj.mtl

vn 0.000000 1.000000 0.000000
v -1.000000 0.000000 1.000000
vn 0.000000 1.000000 0.000000
v 1.000000 0.000000 1.000000
vn 0.000000 1.000000 0.000000
v -1.000000 0.000000 -1.000000
vn 0.000000 1.000000 0.000000
v 1.000000 0.000000 -1.000000
vn 0.000000 1.000000 0.000000
v -1.000000 0.000000 -0.089844
vn 0.000000 1.000000 0.000000
v -1.000000 0.000000 0.472656
vn 0.000000 1.000000 0.000000
v -1.000000 0.000000 -0.277344
vn 0.000000 1.000000 0.000000
v -1.000000 0.000000 0.660156
vn 0.000000 1.000000 0.000000
v -1.000000 0.000000 -0.714844
vn 0.000000 1.000000 0.000000
v -1.000000 0.000000 -0.464844
vn 0.000000 1.000000 0.000000
v -1.000000 0.000000 0.097656
vn 0.000000 1.000000 0.000000
v -1.000000 0.000000 0.285156
vn 0.000000 1.000000 0.000000
v 0.145424 0.000000 -0.151549
vn 0.000000 1.000000 0.000000
v 0.653320 0.000000 1.000000
vn 0.000000 1.000000 0.000000
v -0.158203 0.000000 1.000000
vn 0.000000 1.000000 0.000000
v -0.658203 0.000000 1.000000
vn 0.000000 1.000000 0.000000
v 1.000000 0.000000 0.653320
vn 0.000000 1.000000 0.000000
v 1.000000 0.000000 0.402344
vn 0.000000 1.000000 0.000000
v 1.000000 0.000000 0.152344
vn 0.000000 1.000000 0.000000
v 1.000000 0.000000 -0.035156
vn 0.000000 1.000000 0.000000
v 1.000000 0.000000 -0.222656
vn 0.000000 1.000000 0.000000
v 1.000000 0.000000 -0.410156
vn 0.000000 1.000000 0.000000
v 1.000000 0.000000 -0.597656
vn 0.000000 1.000000 0.000000
v 1.000000 0.000000 -0.785156
vn 0.000000 1.000000 0.000000
v -0.693200 0.000000 0.583106
vn 0.000000 1.000000 0.000000
v -0.374537 0.000000 0.778292
vn 0.000000 1.000000 0.000000
v 0.026866 0.000000 -0.195337
vn 0.000000 1.000000 0.000000
v -0.529051 0.000000 -0.699284
vn 0.000000 1.000000 0.000000
v -0.790450 0.000000 0.650139
vn 0.000000 1.000000 0.000000
v 0.772976 0.000000 0.528364
vn 0.000000 1.000000 0.000000
v -0.265815 0.000000 -0.600317
vn 0.000000 1.000000 0.000000
v -0.446775 0.000000 -0.453390
vn 0.000000 1.000000 0.000000
v 0.637906 0.000000 -0.033211
vn 0.000000 1.000000 0.000000
v 0.867188 0.000000 1.000000
vn 0.000000 1.000000 0.000000
v 0.464844 0.000000 1.000000
vn 0.000000 1.000000 0.000000
v 0.277344 0.000000 1.000000
vn 0.000000 1.000000 0.000000
v -0.008789 0.000000 1.000000
vn 0.000000 1.000000 0.000000
v -0.851562 0.000000 1.000000
vn 0.000000 1.000000 0.000000
v -1.000000 0.000000 0.896484
vn 0.000000 1.000000 0.000000
v 1.000000 0.000000 0.867188
vn 0.000000 1.000000 0.000000
v 0.809570 0.000000 -1.000000
vn 0.000000 1.000000 0.000000
v 0.621094 0.000000 -1.000000
vn 0.000000 1.000000 0.000000
v 0.433594 0.000000 -1.000000
vn 0.000000 1.000000 0.000000
v 0.246094 0.000000 -1.000000
vn 0.000000 1.000000 0.000000
v 0.058594 0.000000 -1.000000
vn 0.000000 1.000000 0.000000
v -0.128906 0.000000 -1.000000
vn 0.000000 1.000000 0.000000
v -0.316406 0.000000 -1.000000
vn 0.000000 1.000000 0.000000
v -0.503906 0.000000 -1.000000
vn 0.000000 1.000000 0.000000
v -0.691406 0.000000 -1.000000
vn 0.000000 1.000000 0.000000
v -0.878906 0.000000 -1.000000
vn 0.000000 1.000000 0.000000
v 0.271557 0.000000 0.662178
vn 0.000000 1.000000 0.000000
v 0.660080 0.000000 0.199756
vn 0.000000 1.000000 0.000000
v 0.479461 0.000000 -0.479063
vn 0.000000 1.000000 0.000000
v 0.284027 0.000000 0.431687
vn 0.000000 1.000000 0.000000
v 0.463766 0.000000 0.770502
vn 0.000000 1.000000 0.000000
v 0.506297 0.000000 -0.604850
vn 0.000000 1.000000 0.000000
v 0.641210 0.000000 0.468119
vn 0.000000 1.000000 0.000000
v 0.525043 0.000000 0.871115
vn 0.000000 1.000000 0.000000
v -1.000000 0.000000 -0.857422
vn 0.000000 1.000000 0.000000
v -0.360352 0.000000 1.000000
vn 0.000000 1.000000 0.000000
v -0.247703 0.000000 0.778172
vn 0.000000 1.000000 0.000000
v -0.716853 0.000000 -0.243008
vn 0.000000 1.000000 0.000000
v 0.291421 0.000000 0.023435
vn 0.000000 1.000000 0.000000
v 0.890619 0.000000 0.089561
vn 0.000000 1.000000 0.000000
v 0.678163 0.000000 -0.440602
vn 0.000000 1.000000 0.000000
v -0.122880 0.000000 -0.468067
vn 0.000000 1.000000 0.000000
v -0.509277 0.000000 1.000000
vn 0.000000 1.000000 0.000000
v 0.226427 0.000000 0.317666
vn 0.000000 1.000000 0.000000
v 0.233322 0.000000 -0.445991
vn 0.000000 1.000000 0.000000
v -0.704372 0.000000 0.447026
vn 0.000000 1.000000 0.000000
v -0.074226 0.000000 -0.114056
vn 0.000000 1.000000 0.000000
v -0.823058 0.000000 -0.788188
vn 0.000000 1.000000 0.000000
v 0.149553 0.000000 0.651076
vn 0.000000 1.000000 0.000000
v 0.195524 0.000000 0.771892
vn 0.000000 1.000000 0.000000
v 0.417812 0.000000 -0.698977
vn 0.000000 1.000000 0.000000
v -0.538738 0.000000 -0.373941
vn 0.000000 1.000000 0.000000
v -0.878800 0.000000 0.811307
vn 0.000000 1.000000 0.000000
v -0.812982 0.000000 0.895125
vn 0.000000 1.000000 0.000000
v -0.096735 0.000000 -0.845076
vn 0.000000 1.000000 0.000000
v 0.798312 0.000000 -0.591614
vn 0.000000 1.000000 0.000000
v 0.775507 0.000000 -0.721197
vn 0.000000 1.000000 0.000000
v 0.702154 0.000000 -0.544859
vn 0.000000 1.000000 0.000000
v 0.646552 0.000000 0.823105
vn 0.000000 1.000000 0.000000
v 0.760254 0.000000 1.000000
vn 0.000000 1.000000 0.000000
v 0.037961 0.000000 0.643690
vn 0.000000 1.000000 0.000000
v -0.898821 0.000000 -0.394455
vn 0.000000 1.000000 0.000000
v -0.111908 0.000000 0.777226
vn 0.000000 1.000000 0.000000
v -0.194075 0.000000 0.890865
vn 0.000000 1.000000 0.000000
v -0.823232 0.000000 -0.078242
vn 0.000000 1.000000 0.000000
v -0.917226 0.000000 -0.036369
vn 0.000000 1.000000 0.000000
v -0.839715 0.000000 0.034461
vn 0.000000 1.000000 0.000000
v -0.883614 0.000000 0.164606
vn 0.000000 1.000000 0.000000
v -0.754883 0.000000 1.000000
vn 0.000000 1.000000 0.000000
v -0.906959 0.000000 0.498988
vn 0.000000 1.000000 0.000000
v -1.000000 0.000000 0.778320
vn 0.000000 1.000000 0.000000
v 0.919798 0.000000 0.919556
vn 0.000000 1.000000 0.000000
v 1.000000 0.000000 0.760254
vn 0.000000 1.000000 0.000000
v 1.000000 0.000000 0.527832
vn 0.000000 1.000000 0.000000
v 0.885130 0.000000 0.463491
vn 0.000000 1.000000 0.000000
v 1.000000 0.000000 0.277344
vn 0.000000 1.000000 0.000000
v 0.884026 0.000000 0.336101
vn 0.000000 1.000000 0.000000
v 0.885891 0.000000 0.210214
vn 0.000000 1.000000 0.000000
v 0.894509 0.000000 -0.764449
vn 0.000000 1.000000 0.000000
v 0.904785 0.000000 -1.000000
vn 0.000000 1.000000 0.000000
v 0.900887 0.000000 -0.882816
vn 0.000000 1.000000 0.000000
v 1.000000 0.000000 -0.892578
vn 0.000000 1.000000 0.000000
v 0.710475 0.000000 -0.929437
vn 0.000000 1.000000 0.000000
v -0.361052 0.000000 -0.623093
vn 0.000000 1.000000 0.000000
v -0.302360 0.000000 -0.702517
vn 0.000000 1.000000 0.000000
v -0.653164 0.000000 -0.891047
vn 0.000000 1.000000 0.000000
v -0.576991 0.000000 0.653912
vn 0.000000 1.000000 0.000000
v -0.484801 0.000000 0.558235
vn 0.000000 1.000000 0.000000
v -0.416972 0.000000 -0.702638
vn 0.000000 1.000000 0.000000
v -0.770849 0.000000 0.775130
vn 0.000000 1.000000 0.000000
v -0.185889 0.000000 0.665585
vn 0.000000 1.000000 0.000000
v 0.175519 0.000000 -0.648944
vn 0.000000 1.000000 0.000000
v 0.766443 0.000000 0.397683
vn 0.000000 1.000000 0.000000
v -0.593891 0.000000 -0.608622
vn 0.000000 1.000000 0.000000
v 0.782254 0.000000 0.654644
vn 0.000000 1.000000 0.000000
v 0.650203 0.000000 0.325485
vn 0.000000 1.000000 0.000000
v 0.535140 0.000000 0.378710
vn 0.000000 1.000000 0.000000
v 0.569114 0.000000 0.570469
vn 0.000000 1.000000 0.000000
v 0.769279 0.000000 0.267602
vn 0.000000 1.000000 0.000000
v 0.233504 0.000000 0.893999
vn 0.000000 1.000000 0.000000
v 0.574922 0.000000 0.746652
vn 0.000000 1.000000 0.000000
v 0.512167 0.000000 0.660685
vn 0.000000 1.000000 0.000000
v 0.459958 0.000000 0.559775
vn 0.000000 1.000000 0.000000
v 0.396911 0.000000 0.665601
vn 0.000000 1.000000 0.000000
v -1.000000 0.000000 -0.589844
vn 0.000000 1.000000 0.000000
v -0.904632 0.000000 -0.698202
vn 0.000000 1.000000 0.000000
v -0.367519 0.000000 0.566190
vn 0.000000 1.000000 0.000000
v -0.090265 0.000000 -0.235625
vn 0.000000 1.000000 0.000000
v 0.122305 0.000000 -0.390608
vn 0.000000 1.000000 0.000000
v -0.259277 0.000000 1.000000
vn 0.000000 1.000000 0.000000
v -0.715071 0.000000 -0.341473
vn 0.000000 1.000000 0.000000
v -0.626218 0.000000 -0.301225
vn 0.000000 1.000000 0.000000
v 0.430440 0.000000 0.033592
vn 0.000000 1.000000 0.000000
v -0.151644 0.000000 -0.576886
vn 0.000000 1.000000 0.000000
v 0.661827 0.000000 0.082495
vn 0.000000 1.000000 0.000000
v -0.366373 0.000000 0.369727
vn 0.000000 1.000000 0.000000
v -0.658628 0.000000 0.061644
vn 0.000000 1.000000 0.000000
v 0.629241 0.000000 -0.344193
vn 0.000000 1.000000 0.000000
v -0.479104 0.000000 0.378634
vn 0.000000 1.000000 0.000000
v -0.055144 0.000000 0.005154
vn 0.000000 1.000000 0.000000
v 0.561134 0.000000 -0.254001
vn 0.000000 1.000000 0.000000
v -0.636057 0.000000 0.179755
vn 0.000000 1.000000 0.000000
v 0.773570 0.000000 0.140912
vn 0.000000 1.000000 0.000000
v 0.186054 0.000000 0.204022
vn 0.000000 1.000000 0.000000
v 0.089384 0.000000 0.302555
vn 0.000000 1.000000 0.000000
v 0.231204 0.000000 -0.336880
vn 0.000000 1.000000 0.000000
v -0.807095 0.000000 -0.313248
vn 0.000000 1.000000 0.000000
v -0.114312 0.000000 -0.752020
vn 0.000000 1.000000 0.000000
v -0.802122 0.000000 -0.680068
vn 0.000000 1.000000 0.000000
v 0.036174 0.000000 0.433449
vn 0.000000 1.000000 0.000000
v 0.418861 0.000000 0.434461
vn 0.000000 1.000000 0.000000
v 0.340828 0.000000 0.548764
vn 0.000000 1.000000 0.000000
v -0.616736 0.000000 -0.184034
vn 0.000000 1.000000 0.000000
v -0.102045 0.000000 0.280144
vn 0.000000 1.000000 0.000000
v -0.410663 0.000000 -0.215216
vn 0.000000 1.000000 0.000000
v -0.506133 0.000000 -0.135291
vn 0.000000 1.000000 0.000000
v 0.131014 0.000000 -0.270733
vn 0.000000 1.000000 0.000000
v -0.248429 0.000000 0.563736
vn 0.000000 1.000000 0.000000
v -0.251041 0.000000 0.365914
vn 0.000000 1.000000 0.000000
v 0.216661 0.000000 0.542671
vn 0.000000 1.000000 0.000000
v -0.017425 0.000000 0.544729
vn 0.000000 1.000000 0.000000
v -0.131353 0.000000 0.555282
vn 0.000000 1.000000 0.000000
v -0.141390 0.000000 0.361309
vn 0.000000 1.000000 0.000000
v 0.108931 0.000000 0.880299
vn 0.000000 1.000000 0.000000
v 0.159180 0.000000 1.000000
vn 0.000000 1.000000 0.000000
v 0.385565 0.000000 -0.581728
vn 0.000000 1.000000 0.000000
v -0.919857 0.000000 0.394152
vn 0.000000 1.000000 0.000000
v -0.393458 0.000000 -0.097828
vn 0.000000 1.000000 0.000000
v -0.593628 0.000000 0.519931
vn 0.000000 1.000000 0.000000
v -0.204041 0.000000 -0.268916
vn 0.000000 1.000000 0.000000
v 0.742236 0.000000 -0.341653
vn 0.000000 1.000000 0.000000
v 0.542764 0.000000 -0.913747
vn 0.000000 1.000000 0.000000
v 0.455036 0.000000 -0.825957
vn 0.000000 1.000000 0.000000
v 0.117996 0.000000 -0.527378
vn 0.000000 1.000000 0.000000
v 0.079818 0.000000 0.749900
vn 0.000000 1.000000 0.000000
v 0.331551 0.000000 0.795849
vn 0.000000 1.000000 0.000000
v 0.676134 0.000000 -0.240517
vn 0.000000 1.000000 0.000000
v -0.752077 0.000000 0.111527
vn 0.000000 1.000000 0.000000
v -0.307562 0.000000 0.465981
vn 0.000000 1.000000 0.000000
v -0.912670 0.000000 -0.141642
vn 0.000000 1.000000 0.000000
v -0.079314 0.000000 0.448965
vn 0.000000 1.000000 0.000000
v 0.059273 0.000000 0.045601
vn 0.000000 1.000000 0.000000
v 0.338987 0.000000 -0.903495
vn 0.000000 1.000000 0.000000
v -0.848120 0.000000 0.307821
vn 0.000000 1.000000 0.000000
v 0.042897 0.000000 -0.074050
vn 0.000000 1.000000 0.000000
v -0.122027 0.000000 0.193255
vn 0.000000 1.000000 0.000000
v -0.586110 0.000000 0.403679
vn 0.000000 1.000000 0.000000
v -0.187298 0.000000 -0.682674
vn 0.000000 1.000000 0.000000
v 0.228823 0.000000 -0.867050
vn 0.000000 1.000000 0.000000
v -0.636152 0.000000 0.778841
vn 0.000000 1.000000 0.000000
v -0.700745 0.000000 0.889527
vn 0.000000 1.000000 0.000000
v 0.324474 0.000000 -0.787308
vn 0.000000 1.000000 0.000000
v 0.136217 0.000000 -0.931946
vn 0.000000 1.000000 0.000000
v 0.595098 0.000000 -0.521770
vn 0.000000 1.000000 0.000000
v 0.584173 0.000000 -0.817701
vn 0.000000 1.000000 0.000000
v 0.117331 0.000000 -0.824836
vn 0.000000 1.000000 0.000000
v 0.014019 0.000000 -0.900054
vn 0.000000 1.000000 0.000000
v 0.710804 0.000000 0.906723
vn 0.000000 1.000000 0.000000
v -0.941829 0.000000 0.286680
vn 0.000000 1.000000 0.000000
v -0.897788 0.000000 0.604146
vn 0.000000 1.000000 0.000000
v -0.923678 0.000000 0.896629
vn 0.000000 1.000000 0.000000
v 1.000000 0.000000 -0.503906
vn 0.000000 1.000000 0.000000
v 0.796710 0.000000 -0.853955
vn 0.000000 1.000000 0.000000
v -0.542671 0.000000 -0.898773
vn 0.000000 1.000000 0.000000
v -0.903052 0.000000 -0.924366
vn 0.000000 1.000000 0.000000
v 0.535146 0.000000 0.246459
vn 0.000000 1.000000 0.000000
v 0.328617 0.000000 0.916601
vn 0.000000 1.000000 0.000000
v -0.877716 0.000000 -0.609369
vn 0.000000 1.000000 0.000000
v -0.439080 0.000000 0.888732
vn 0.000000 1.000000 0.000000
v 0.391809 0.000000 -0.077566
vn 0.000000 1.000000 0.000000
v -0.719674 0.000000 -0.125382
vn 0.000000 1.000000 0.000000
v -0.734095 0.000000 -0.007118
vn 0.000000 1.000000 0.000000
v 0.447081 0.000000 -0.273674
vn 0.000000 1.000000 0.000000
v 0.209367 0.000000 -0.754990
vn 0.000000 1.000000 0.000000
v -0.816453 0.000000 -0.194678
vn 0.000000 1.000000 0.000000
v -0.699777 0.000000 -0.643225
vn 0.000000 1.000000 0.000000
v -0.775480 0.000000 -0.438357
vn 0.000000 1.000000 0.000000
v -0.300029 0.000000 -0.180919
vn 0.000000 1.000000 0.000000
v -0.282657 0.000000 -0.063341
vn 0.000000 1.000000 0.000000
v -0.483764 0.000000 -0.018122
vn 0.000000 1.000000 0.000000
v 0.520463 0.000000 -0.359574
vn 0.000000 1.000000 0.000000
v -0.035156 0.000000 -1.000000
vn 0.000000 1.000000 0.000000
v -0.176817 0.000000 -0.916555
vn 0.000000 1.000000 0.000000
v -0.222656 0.000000 -1.000000
vn 0.000000 1.000000 0.000000
v -0.306143 0.000000 -0.918481
vn 0.000000 1.000000 0.000000
v -0.410156 0.000000 -1.000000
vn 0.000000 1.000000 0.000000
v -0.434106 0.000000 -0.903978
vn 0.000000 1.000000 0.000000
v 0.584411 0.000000 0.930200
vn 0.000000 1.000000 0.000000
v 0.559082 0.000000 1.000000
vn 0.000000 1.000000 0.000000
v -0.890228 0.000000 -0.510990
vn 0.000000 1.000000 0.000000
v -1.000000 0.000000 -0.371094
vn 0.000000 1.000000 0.000000
v -0.919326 0.000000 -0.267949
vn 0.000000 1.000000 0.000000
v -0.928081 0.000000 0.052758
vn 0.000000 1.000000 0.000000
v -1.000000 0.000000 0.566406
vn 0.000000 1.000000 0.000000
v 0.779602 0.000000 0.790511
vn 0.000000 1.000000 0.000000
v 1.000000 0.000000 -0.691406
vn 0.000000 1.000000 0.000000
v 0.715332 0.000000 -1.000000
vn 0.000000 1.000000 0.000000
v -0.240827 0.000000 -0.494485
vn 0.000000 1.000000 0.000000
v -0.352415 0.000000 -0.527353
vn 0.000000 1.000000 0.000000
v -0.597656 0.000000 -1.000000
vn 0.000000 1.000000 0.000000
v -0.435981 0.000000 0.667610
vn 0.000000 1.000000 0.000000
v -0.309477 0.000000 0.669919
vn 0.000000 1.000000 0.000000
v -0.312307 0.000000 0.889175
vn 0.000000 1.000000 0.000000
v 0.651377 0.000000 -0.724224
vn 0.000000 1.000000 0.000000
v 0.421627 0.000000 0.893039
vn 0.000000 1.000000 0.000000
v 0.906976 0.000000 -0.225912
vn 0.000000 1.000000 0.000000
v 1.000000 0.000000 -0.316406
vn 0.000000 1.000000 0.000000
v -1.000000 0.000000 0.003906
vn 0.000000 1.000000 0.000000
v -0.103594 0.000000 -0.354785
vn 0.000000 1.000000 0.000000
v 0.001214 0.000000 -0.437288
vn 0.000000 1.000000 0.000000
v 0.362580 0.000000 -0.191371
vn 0.000000 1.000000 0.000000
v -0.611091 0.000000 -0.047621
vn 0.000000 1.000000 0.000000
v -0.220789 0.000000 -0.803173
vn 0.000000 1.000000 0.000000
v 0.475799 0.000000 0.137154
vn 0.000000 1.000000 0.000000
v -0.707198 0.000000 -0.767981
vn 0.000000 1.000000 0.000000
v 0.707969 0.000000 -0.639535
vn 0.000000 1.000000 0.000000
v -0.558344 0.000000 0.071394
vn 0.000000 1.000000 0.000000
v 1.000000 0.000000 0.058594
vn 0.000000 1.000000 0.000000
v -0.624687 0.000000 -0.703363
vn 0.000000 1.000000 0.000000
v -0.233436 0.000000 0.169718
vn 0.000000 1.000000 0.000000
v 0.942946 0.000000 -0.126541
vn 0.000000 1.000000 0.000000
v 0.841827 0.000000 -0.122838
vn 0.000000 1.000000 0.000000
v 1.000000 0.000000 -0.128906
vn 0.000000 1.000000 0.000000
v 0.074508 0.000000 0.165318
vn 0.000000 1.000000 0.000000
v 0.297167 0.000000 0.221711
vn 0.000000 1.000000 0.000000
v 0.260431 0.000000 0.132582
vn 0.000000 1.000000 0.000000
v 0.171623 0.000000 0.089525
vn 0.000000 1.000000 0.000000
v 0.359916 0.000000 0.128569
vn 0.000000 1.000000 0.000000
v -0.169727 0.000000 -0.030130
vn 0.000000 1.000000 0.000000
v -0.188705 0.000000 -0.149017
vn 0.000000 1.000000 0.000000
v 0.111992 0.000000 -0.728896
vn 0.000000 1.000000 0.000000
v 0.002469 0.000000 -0.766189
vn 0.000000 1.000000 0.000000
v -0.899762 0.000000 -0.821265
vn 0.000000 1.000000 0.000000
v -0.649418 0.000000 -0.412287
vn 0.000000 1.000000 0.000000
v -0.768535 0.000000 -0.881514
vn 0.000000 1.000000 0.000000
v -0.785156 0.000000 -1.000000
vn 0.000000 1.000000 0.000000
v -0.315805 0.000000 -0.298482
vn 0.000000 1.000000 0.000000
v 0.409250 0.000000 -0.377883
vn 0.000000 1.000000 0.000000
v 0.075195 0.000000 1.000000
vn 0.000000 1.000000 0.000000
v -0.263118 0.000000 0.054663
vn 0.000000 1.000000 0.000000
v 0.266644 0.000000 -0.109038
vn 0.000000 1.000000 0.000000
v -0.375028 0.000000 0.017549
vn 0.000000 1.000000 0.000000
v 0.371094 0.000000 1.000000
vn 0.000000 1.000000 0.000000
v 0.339844 0.000000 -1.000000
vn 0.000000 1.000000 0.000000
v -1.000000 0.000000 -0.183594
vn 0.000000 1.000000 0.000000
v 0.162198 0.000000 -0.029837
vn 0.000000 1.000000 0.000000
v -0.147071 0.000000 0.085357
vn 0.000000 1.000000 0.000000
v -1.000000 0.000000 0.191406
vn 0.000000 1.000000 0.000000
v 0.527344 0.000000 -1.000000
vn 0.000000 1.000000 0.000000
v 0.439592 0.000000 -0.940567
vn 0.000000 1.000000 0.000000
v -1.000000 0.000000 0.378906
vn 0.000000 1.000000 0.000000
v -0.574398 0.000000 0.888879
vn 0.000000 1.000000 0.000000
v -0.505567 0.000000 0.776248
vn 0.000000 1.000000 0.000000
v 0.538473 0.000000 -0.716947
vn 0.000000 1.000000 0.000000
v 0.152344 0.000000 -1.000000
vn 0.000000 1.000000 0.000000
v 0.889058 0.000000 0.589818
vn 0.000000 1.000000 0.000000
v 0.629734 0.000000 -0.897305
vn 0.000000 1.000000 0.000000
v 0.678989 0.000000 0.710616
vn 0.000000 1.000000 0.000000
v 0.803807 0.000000 -0.459443
vn 0.000000 1.000000 0.000000
v 0.903906 0.000000 0.825612
vn 0.000000 1.000000 0.000000
v 0.690784 0.000000 -0.824379
vn 0.000000 1.000000 0.000000
v 0.600174 0.000000 -0.145865
vn 0.000000 1.000000 0.000000
v 0.776591 0.000000 0.000355
vn 0.000000 1.000000 0.000000
v 0.260440 0.000000 -0.558686
vn 0.000000 1.000000 0.000000
v 0.296053 0.000000 -0.672223
vn 0.000000 1.000000 0.000000
v -0.551143 0.000000 0.287404
vn 0.000000 1.000000 0.000000
v 0.893210 0.000000 0.712095
vn 0.000000 1.000000 0.000000
v 0.895279 0.000000 -0.650903
vn 0.000000 1.000000 0.000000
v 0.481155 0.000000 -0.165776
vn 0.000000 1.000000 0.000000
v -0.027542 0.000000 -0.554308
vn 0.000000 1.000000 0.000000
v -0.035728 0.000000 0.120847
vn 0.000000 1.000000 0.000000
v 0.348190 0.000000 -0.471977
vn 0.000000 1.000000 0.000000
v -0.427508 0.000000 -0.333482
vn 0.000000 1.000000 0.000000
v 0.674896 0.000000 0.597916
vn 0.000000 1.000000 0.000000
v 0.603032 0.000000 0.656647
vn 0.000000 1.000000 0.000000
v 0.346286 0.000000 0.324902
vn 0.000000 1.000000 0.000000
v -0.466350 0.000000 -0.586163
vn 0.000000 1.000000 0.000000
v 0.447732 0.000000 0.321526
vn 0.000000 1.000000 0.000000
v -0.520894 0.000000 -0.255950
vn 0.000000 1.000000 0.000000
v -0.192436 0.000000 0.459972
vn 0.000000 1.000000 0.000000
v 0.020035 0.000000 0.921571
vn 0.000000 1.000000 0.000000
v 0.904541 0.000000 -0.538466
vn 0.000000 1.000000 0.000000
v -0.667275 0.000000 0.316943
vn 0.000000 1.000000 0.000000
v -0.360449 0.000000 -0.805276
vn 0.000000 1.000000 0.000000
v 0.792769 0.000000 -0.232205
vn 0.000000 1.000000 0.000000
v -0.562351 0.000000 -0.493084
vn 0.000000 1.000000 0.000000
v -0.420367 0.000000 0.468517
vn 0.000000 1.000000 0.000000
v -0.035633 0.000000 0.342662
vn 0.000000 1.000000 0.000000
v 0.524119 0.000000 0.481704
vn 0.000000 1.000000 0.000000
v -0.021639 0.000000 0.233499
vn 0.000000 1.000000 0.000000
v -0.429591 0.000000 0.270619
vn 0.000000 1.000000 0.000000
v 0.014330 0.000000 -0.316547
vn 0.000000 1.000000 0.000000
v -0.084791 0.000000 -0.932362
vn 0.000000 1.000000 0.000000
v 0.549340 0.000000 0.050178
vn 0.000000 1.000000 0.000000
v -0.500779 0.000000 0.172671
vn 0.000000 1.000000 0.000000
v 0.409225 0.000000 0.228853
vn 0.000000 1.000000 0.000000
v -0.758564 0.000000 0.237311
vn 0.000000 1.000000 0.000000
v -0.513738 0.000000 0.467025
vn 0.000000 1.000000 0.000000
v 0.908655 0.000000 -0.022896
vn 0.000000 1.000000 0.000000
v 0.246022 0.000000 -0.226476
vn 0.000000 1.000000 0.000000
v -0.367170 0.000000 0.147299
vn 0.000000 1.000000 0.000000
v -0.457421 0.000000 0.078533
vn 0.000000 1.000000 0.000000
v -0.787802 0.000000 -0.568409
vn 0.000000 1.000000 0.000000
v 0.515724 0.000000 -0.056432
vn 0.000000 1.000000 0.000000
v 0.158380 0.000000 0.427046
vn 0.000000 1.000000 0.000000
v -0.069739 0.000000 0.651915
vn 0.000000 1.000000 0.000000
v 0.097169 0.000000 0.539643
vn 0.000000 1.000000 0.000000
v 0.575653 0.000000 0.142029
vn 0.000000 1.000000 0.000000
v -0.192596 0.000000 0.272476
vn 0.000000 1.000000 0.000000
v -0.075388 0.000000 0.902361
vn 0.000000 1.000000 0.000000
v 0.001245 0.000000 0.826301
vn 0.000000 1.000000 0.000000
v -0.802454 0.000000 0.534593
vn 0.000000 1.000000 0.000000
v 0.336249 0.000000 -0.298401
vn 0.000000 1.000000 0.000000
v -0.333755 0.000000 -0.413957
vn 0.000000 1.000000 0.000000
v -0.012555 0.000000 0.729152
vn 0.000000 1.000000 0.000000
v -0.678423 0.000000 -0.527310
vn 0.000000 1.000000 0.000000
v -0.307066 0.000000 0.266025
vn 0.000000 1.000000 0.000000
v -0.070200 0.000000 -0.663433
vn 0.000000 1.000000 0.000000
v -0.589465 0.000000 -0.794408
vn 0.000000 1.000000 0.000000
v 0.582544 0.000000 -0.430208
vn 0.000000 1.000000 0.000000
v -0.479348 0.000000 -0.800811
vn 0.000000 1.000000 0.000000
v 0.052633 0.000000 -0.648622
vn 0.000000 1.000000 0.000000
v 0.313046 0.000000 -0.386267
vn 0.000000 1.000000 0.000000
v -0.823692 0.000000 0.421370
vn 0.000000 1.000000 0.000000
v -0.760910 0.000000 0.345872
vn 0.000000 1.000000 0.000000
v 0.721607 0.000000 -0.128864
vn 0.000000 1.000000 0.000000
v -0.692810 0.000000 0.688605
vn 0.000000 1.000000 0.000000
v 0.863066 0.000000 -0.333879
vn 0.000000 1.000000 0.000000
v 0.928827 0.000000 -0.427116
vn 0.000000 1.000000 0.000000
v -0.889151 0.000000 0.713165
vn 0.000000 1.000000 0.000000
v 0.825066 0.000000 0.906562
vn 0.000000 1.000000 0.000000
v -0.220254 0.000000 -0.384209
vn 0.000000 1.000000 0.000000
v 0.617972 0.000000 -0.624518
# 377 vertices, 0 vertices normals


usemtl material_0
vt 0.968750 0.000000
vt 0.953125 0.015625
vt 0.960938 0.003906
f 2/1/2 40/2/40 96/3/96
vt 0.156250 0.000000
vt 0.140625 0.015625
vt 0.148438 0.000000
f 16/4/16 195/5/195 93/6/93
vt 0.000000 0.109375
vt 0.003906 0.109375
vt 0.000000 0.117188
f 39/7/39 205/8/205 95/9/95
vt 0.015625 0.046875
vt 0.000000 0.062500
vt 0.000000 0.054688
f 38/10/38 93/11/93 78/12/78
vt 0.015625 0.000000
vt 0.007812 0.007812
vt 0.000000 0.000000
f 38/13/38 205/14/205 1/15/1
vt 1.000000 0.226562
vt 0.996094 0.234375
vt 0.998047 0.226562
f 98/16/98 99/17/99 300/18/300
vt 1.000000 0.351562
vt 0.996094 0.355469
vt 0.996094 0.347656
f 100/19/100 102/20/102 101/21/101
vt 1.000000 0.914062
vt 1.000000 0.921875
vt 0.992188 0.921875
f 105/22/105 106/23/106 104/24/104
vt 0.957031 0.351562
vt 0.953125 0.351562
vt 0.957031 0.343750
f 117/25/117 99/26/99 101/27/101
vt 0.876953 0.382812
vt 0.875000 0.382812
vt 0.876953 0.375000
f 117/28/117 123/29/123 120/30/120
vt 0.757812 0.251953
vt 0.750000 0.252930
vt 0.757812 0.250977
f 126/31/126 127/32/127 128/33/128
vt 0.205078 0.050781
vt 0.205078 0.048828
vt 0.207031 0.050781
f 194/34/194 114/35/114 195/36/195
vt 0.226562 0.007812
vt 0.218750 0.007812
vt 0.220703 0.005859
f 60/37/60 247/38/247 213/39/213
vt 0.406250 0.000000
vt 0.398438 0.001953
vt 0.402344 0.000000
f 15/40/15 88/41/88 134/42/134
vt 0.003906 0.433594
vt 0.000000 0.429688
vt 0.003906 0.425781
f 182/43/182 91/44/91 92/45/92
vt 0.433594 0.820312
vt 0.425781 0.828125
vt 0.429688 0.820312
f 31/46/31 138/47/138 192/48/192
vt 0.128906 0.550781
vt 0.125000 0.550781
vt 0.128906 0.548828
f 215/49/215 89/50/89 216/51/216
vt 0.049805 0.385742
vt 0.049316 0.385254
vt 0.052246 0.380371
f 141/52/141 182/53/182 146/54/146
vt 0.840820 0.433594
vt 0.840332 0.433594
vt 0.836914 0.429688
f 64/55/64 307/56/307 147/57/147
vt 0.151123 0.871094
vt 0.148682 0.875000
vt 0.151001 0.871094
f 259/58/259 153/59/153 220/60/220
vt 0.184082 0.587891
vt 0.184570 0.585938
vt 0.185059 0.587891
f 157/61/157 256/62/256 160/63/160
vt 0.757812 0.250000
vt 0.753906 0.250977
vt 0.753906 0.250000
f 51/64/51 156/65/156 164/66/164
vt 0.429688 0.082031
vt 0.433594 0.078125
vt 0.431641 0.082031
f 115/67/115 87/68/87 350/69/350
vt 0.585938 0.001953
vt 0.578125 0.001953
vt 0.585938 0.000000
f 124/70/124 168/71/168 169/72/169
vt 0.015503 0.285278
vt 0.015381 0.281494
vt 0.015442 0.281433
f 171/73/171 6/74/6 94/75/94
vt 0.015625 0.078125
vt 0.011719 0.078125
vt 0.015625 0.070312
f 29/76/29 374/77/374 114/78/114
vt 0.007812 0.070312
vt 0.015625 0.062500
f 114/78/114 78/79/78 195/80/195
vt 0.488281 0.992188
vt 0.484375 1.000000
vt 0.484375 0.992188
f 201/81/201 45/82/45 226/83/226
vt 0.300781 0.992188
vt 0.296875 0.992188
vt 0.300781 0.984375
f 229/84/229 230/85/230 231/86/231
vt 0.875000 0.792969
vt 0.882812 0.787109
vt 0.875000 0.796875
f 82/87/82 303/88/303 80/89/80
vt 0.921875 0.000000
vt 0.914062 0.007812
vt 0.914062 0.005859
f 34/90/34 96/91/96 375/92/375
vt 0.910156 0.003906
vt 0.906250 0.007812
vt 0.906250 0.003906
f 202/93/202 83/94/83 232/95/232
vt 0.003906 0.683594
vt 0.000000 0.679688
vt 0.003906 0.675781
f 86/96/86 235/97/235 236/98/236
vt 0.007812 0.617188
vt 0.003906 0.621094
vt 0.000000 0.609375
f 90/99/90 184/100/184 5/101/5
vt 0.011719 0.488281
vt 0.009766 0.490234
vt 0.005859 0.490234
f 89/102/89 219/103/219 184/104/184
vt 0.140625 0.000000
f 93/6/93 195/5/195 78/105/78
vt 0.015625 0.234375
vt 0.007812 0.238281
vt 0.007812 0.234375
f 8/106/8 204/107/204 238/108/238
vt 0.015625 0.109375
vt 0.007812 0.117188
vt 0.007812 0.113281
f 29/109/29 204/110/204 374/111/374
vt 0.007812 0.109375
vt 0.003906 0.117188
f 95/9/95 77/112/77 374/113/374
vt 1.000000 0.085938
vt 1.000000 0.093750
vt 0.999023 0.090820
f 97/114/97 17/115/17 311/116/311
vt 0.998047 0.080078
vt 0.998047 0.083984
vt 0.997559 0.082520
f 96/117/96 304/118/304 375/119/375
vt 1.000000 0.234375
f 98/16/98 18/120/18 99/17/99
vt 0.996094 0.226562
vt 0.992188 0.234375
f 300/121/300 99/17/99 30/122/30
vt 1.000000 0.343750
f 18/123/18 100/19/100 101/21/101
vt 1.000000 0.359375
f 100/19/100 19/124/19 102/20/102
vt 0.992188 0.351562
f 101/21/101 102/20/102 123/125/123
vt 0.843750 0.421875
vt 0.843750 0.423828
vt 0.842773 0.422852
f 123/126/123 102/127/102 147/128/147
vt 0.842773 0.424805
vt 0.841797 0.423828
f 147/128/147 102/129/102 64/130/64
vt 0.999023 0.850586
vt 0.999512 0.847168
vt 1.000000 0.851562
f 312/131/312 326/132/326 23/133/23
vt 0.984375 0.921875
f 104/24/104 41/134/41 105/22/105
vt 1.000000 0.992188
vt 1.000000 0.996094
vt 0.992188 1.000000
f 105/135/105 103/136/103 24/137/24
vt 0.992188 0.992188
vt 0.984375 1.000000
f 104/138/104 106/137/106 4/139/4
vt 0.855469 0.996094
vt 0.859375 1.000000
vt 0.851562 1.000000
f 107/140/107 41/141/41 241/142/241
vt 0.328125 0.742188
vt 0.328125 0.750000
vt 0.324219 0.746094
f 242/143/242 31/144/31 243/145/243
vt 0.230469 0.996094
vt 0.234375 1.000000
vt 0.226562 1.000000
f 208/146/208 48/147/48 244/148/244
vt 0.203125 0.179688
vt 0.203125 0.175781
vt 0.210938 0.175781
f 173/149/173 111/150/111 112/151/112
vt 0.210938 0.171875
vt 0.214844 0.173828
f 112/151/112 111/152/111 245/153/245
vt 0.386719 0.121094
vt 0.388672 0.123047
vt 0.386963 0.121826
f 61/154/61 115/155/115 246/156/246
vt 0.804688 0.984375
vt 0.802734 0.988281
vt 0.802734 0.984375
f 105/157/105 207/158/207 103/159/103
vt 0.800781 0.992188
vt 0.796875 1.000000
vt 0.798828 0.992188
f 107/160/107 42/161/42 301/162/301
vt 0.800781 0.984375
vt 0.796875 0.992188
vt 0.797852 0.988281
f 81/163/81 207/164/207 305/165/305
vt 0.880859 0.375000
vt 0.878906 0.375000
f 30/166/30 117/28/117 57/167/57
vt 0.960938 0.343750
f 123/168/123 117/25/117 101/27/101
vt 0.953125 0.359375
f 117/25/117 30/169/30 99/26/99
vt 0.953125 0.343750
f 101/27/101 99/26/99 18/170/18
vt 1.000000 0.218750
vt 0.998047 0.222656
vt 0.996094 0.222656
f 17/171/17 300/172/300 311/173/311
vt 0.984375 0.234375
vt 0.988281 0.230469
vt 0.986328 0.234375
f 83/174/83 239/175/239 302/176/302
vt 0.873047 0.402344
vt 0.870117 0.404297
vt 0.874023 0.400391
f 57/177/57 120/178/120 121/179/121
vt 0.855469 0.300781
vt 0.849609 0.298828
vt 0.853516 0.298828
f 57/180/57 122/181/122 318/182/318
f 57/167/57 117/28/117 120/30/120
vt 0.875000 0.375000
f 120/30/120 123/29/123 52/183/52
vt 0.578125 0.007812
vt 0.578125 0.003906
f 124/70/124 180/184/180 74/185/74
vt 0.822266 0.015625
vt 0.817383 0.023438
vt 0.821777 0.015625
f 126/186/126 125/187/125 319/188/319
vt 0.765625 0.250000
f 55/189/55 126/31/126 128/33/128
vt 0.750000 0.251953
f 128/33/128 127/32/127 156/190/156
vt 0.984375 0.566406
vt 0.984375 0.562500
vt 0.984375 0.570312
f 250/191/250 21/192/21 251/193/251
vt 0.015625 0.921875
vt 0.011719 0.923828
vt 0.010742 0.923340
f 9/194/9 129/195/129 130/196/130
vt 0.000000 0.484375
vt 0.001953 0.486328
vt 0.000000 0.492188
f 11/197/11 237/198/237 252/199/252
vt 0.398438 0.000000
vt 0.394531 0.002930
f 60/200/60 134/41/134 247/201/247
vt 0.677734 0.453125
vt 0.679688 0.451172
vt 0.681641 0.451172
f 285/202/285 214/203/214 255/204/255
vt 0.125000 0.552734
f 89/50/89 215/49/215 219/205/219
vt 0.160156 0.269531
vt 0.160156 0.273438
vt 0.158203 0.271484
f 173/206/173 342/207/342 191/208/191
vt 0.417969 0.992188
vt 0.414062 1.000000
vt 0.412109 1.000000
f 109/209/109 192/210/192 257/211/257
vt 0.171875 0.992188
vt 0.175781 0.992188
vt 0.172852 0.993164
f 72/212/72 153/213/153 259/214/259
vt 0.177734 0.992188
vt 0.176758 0.994141
f 259/213/259 263/215/263 363/216/363
vt 0.052734 0.380859
vt 0.051270 0.383301
vt 0.052490 0.380615
f 224/217/224 256/218/256 261/219/261
vt 0.840820 0.426758
vt 0.843750 0.425781
vt 0.840332 0.427246
f 102/220/102 19/221/19 64/222/64
vt 0.836426 0.429199
vt 0.839844 0.427734
f 20/223/20 343/222/343 262/224/262
vt 0.814453 0.779297
vt 0.813477 0.780273
vt 0.813477 0.778320
f 56/225/56 198/226/198 377/227/377
vt 0.812988 0.780762
vt 0.812988 0.778809
f 260/226/260 248/228/248 377/229/377
vt 0.167969 0.269531
vt 0.164062 0.273438
vt 0.166016 0.270508
f 112/230/112 131/231/131 331/232/331
vt 0.758789 0.570312
vt 0.758301 0.570312
vt 0.762207 0.566406
f 145/233/145 313/234/313 306/235/306
vt 0.984375 0.578125
vt 0.984375 0.572266
f 372/193/372 251/236/251 373/237/373
vt 0.249023 0.428711
vt 0.248047 0.429688
vt 0.247070 0.428711
f 339/238/339 346/239/346 261/240/261
vt 0.995117 0.545898
vt 0.993164 0.545898
vt 0.996094 0.544922
f 265/241/265 250/242/250 266/243/266
vt 0.999023 0.545898
vt 0.996094 0.546875
f 265/241/265 343/244/343 20/245/20
vt 0.839844 0.433594
vt 0.835938 0.429688
f 147/57/147 139/246/139 52/247/52
vt 0.839844 0.428223
f 123/224/123 147/248/147 52/247/52
f 65/191/65 82/193/82 198/191/198
vt 0.617188 0.683594
vt 0.621094 0.677734
vt 0.621094 0.679688
f 69/249/69 133/250/133 150/251/150
vt 0.516602 0.818359
vt 0.515625 0.820312
vt 0.516113 0.817383
f 152/252/152 192/253/192 362/254/362
vt 0.515625 0.812500
vt 0.516113 0.813477
vt 0.515625 0.814453
f 254/255/254 314/256/314 66/257/66
vt 0.152222 0.869141
f 263/258/263 259/58/259 220/60/220
vt 0.404053 0.622314
vt 0.406006 0.624268
vt 0.404297 0.623047
f 273/259/273 274/260/274 223/261/223
vt 0.523438 0.816406
vt 0.522949 0.815430
vt 0.523438 0.815430
f 218/262/218 275/263/275 116/264/116
vt 0.522461 0.814453
vt 0.522217 0.814941
f 366/265/366 275/263/275 276/266/276
vt 0.769531 0.257812
vt 0.769043 0.256836
vt 0.769531 0.253906
f 57/267/57 333/268/333 122/269/122
vt 0.767578 0.253906
vt 0.768555 0.255859
vt 0.766602 0.259766
f 156/270/156 127/271/127 155/272/155
f 156/65/156 51/64/51 128/33/128
vt 0.009766 0.922852
vt 0.004883 0.922363
f 9/194/9 130/273/130 277/274/277
vt 0.175293 0.761230
vt 0.173584 0.763428
vt 0.174805 0.760742
f 360/275/360 118/276/118 220/277/220
vt 0.176514 0.758545
vt 0.176270 0.758301
vt 0.177979 0.756104
f 360/278/360 347/279/347 221/280/221
vt 0.475586 0.995117
vt 0.475342 0.995850
vt 0.471680 0.999023
f 152/281/152 276/282/276 79/283/79
vt 0.093750 1.000000
vt 0.099609 0.999023
vt 0.097656 1.000000
f 280/284/280 209/285/209 279/286/279
vt 0.177734 0.755859
vt 0.176758 0.756836
vt 0.176758 0.754883
f 86/287/86 151/288/151 221/289/221
vt 0.175781 0.757812
vt 0.173828 0.759766
vt 0.174316 0.758301
f 135/290/135 136/291/136 278/292/278
vt 0.008301 0.924072
vt 0.004883 0.924316
f 130/196/130 212/293/212 153/294/153
vt 0.003906 0.923828
f 130/273/130 153/294/153 72/295/72
vt 0.181641 0.593750
vt 0.181152 0.593750
vt 0.182129 0.591797
f 159/296/159 317/297/317 323/298/323
vt 0.497070 0.509766
vt 0.497559 0.508789
vt 0.498047 0.511719
f 144/299/144 189/300/189 71/301/71
vt 0.534912 0.276611
vt 0.535156 0.277344
vt 0.534912 0.277100
f 332/302/332 149/303/149 334/304/334
vt 0.184570 0.589844
vt 0.184326 0.588867
f 159/305/159 323/306/323 160/63/160
vt 0.324219 0.283203
vt 0.324219 0.281250
vt 0.326172 0.281250
f 183/307/183 131/308/131 162/309/162
vt 0.326172 0.282227
vt 0.327148 0.281250
f 183/310/183 162/309/162 324/311/324
vt 0.750000 0.250000
f 156/65/156 54/312/54 164/66/164
vt 0.429688 0.078125
f 115/67/115 61/313/61 87/68/87
vt 0.587891 0.675781
vt 0.583008 0.679688
vt 0.584961 0.677734
f 161/314/161 150/315/150 133/316/133
vt 0.542969 0.266602
vt 0.543457 0.266846
vt 0.542969 0.267090
f 154/317/154 351/318/351 349/319/349
vt 0.593750 0.000000
f 36/320/36 124/70/124 169/72/169
f 124/70/124 74/185/74 168/71/168
vt 0.582031 0.000000
f 169/72/169 168/71/168 283/321/283
vt 0.620117 0.052734
vt 0.619141 0.052734
vt 0.619690 0.052673
f 325/322/325 168/323/168 355/324/355
vt 0.531250 0.281250
vt 0.532471 0.279053
vt 0.532349 0.279663
f 361/325/361 163/326/163 353/327/353
vt 0.622070 0.678711
vt 0.623047 0.677734
vt 0.624023 0.678711
f 316/328/316 367/329/367 282/330/282
vt 0.631714 0.782227
vt 0.631592 0.783203
vt 0.631592 0.782227
f 298/331/298 75/332/75 56/333/56
vt 0.235352 0.512695
vt 0.235962 0.511841
vt 0.235107 0.513428
f 174/334/174 281/335/281 222/336/222
vt 0.235474 0.513306
vt 0.235229 0.514038
vt 0.234619 0.514893
f 223/337/223 286/338/286 284/339/284
vt 0.456055 0.687500
vt 0.460938 0.679688
vt 0.457031 0.687500
f 132/340/132 71/341/71 27/342/27
vt 0.237793 0.509277
vt 0.239014 0.507568
vt 0.236084 0.512451
f 159/343/159 160/344/160 172/345/172
vt 0.236694 0.511597
vt 0.235840 0.513184
f 224/346/224 346/347/346 286/338/286
vt 0.998047 0.730469
vt 1.000000 0.734375
vt 0.997559 0.731445
f 326/348/326 206/349/206 23/350/23
vt 0.640625 0.000000
vt 0.640625 0.007812
vt 0.640137 0.002930
f 36/351/36 287/352/287 211/353/211
vt 0.622070 0.052734
vt 0.623047 0.052734
vt 0.621338 0.052979
f 74/354/74 180/355/180 51/356/51
vt 0.777344 0.900391
vt 0.781250 0.902344
vt 0.778320 0.901367
f 176/357/176 177/358/177 199/359/199
vt 0.667969 0.996094
vt 0.671875 1.000000
vt 0.667969 0.998047
f 288/360/288 187/361/187 294/362/294
vt 0.816406 0.773438
vt 0.815430 0.774414
vt 0.815430 0.773438
f 82/363/82 80/364/80 260/365/260
vt 0.993164 0.856445
vt 0.995605 0.856934
vt 0.990234 0.857422
f 80/366/80 312/367/312 81/368/81
vt 0.544434 0.266357
vt 0.543945 0.267090
vt 0.543945 0.266602
f 73/369/73 164/370/164 351/371/351
vt 0.639648 0.005859
vt 0.636719 0.007812
vt 0.639893 0.004395
f 249/372/249 180/373/180 211/374/211
vt 0.621460 0.053101
vt 0.620605 0.053223
f 73/356/73 74/375/74 51/376/51
vt 0.664062 0.998047
vt 0.663086 0.999023
vt 0.660156 1.000000
f 44/377/44 193/378/193 187/379/187
vt 0.863281 0.203125
vt 0.867188 0.199219
vt 0.867188 0.201172
f 125/380/125 126/381/126 55/382/55
vt 0.554688 0.706055
vt 0.556641 0.704590
vt 0.556641 0.705078
f 178/383/178 133/384/133 69/385/69
vt 0.171875 0.994141
f 72/212/72 259/214/259 279/386/279
vt 0.618652 0.053223
vt 0.618164 0.053711
f 179/387/179 168/322/168 74/388/74
vt 0.621094 0.136719
vt 0.623047 0.138672
vt 0.615234 0.138672
f 128/389/128 51/390/51 180/391/180
vt 0.620117 0.139648
f 180/392/180 55/391/55 128/390/128
vt 0.634766 0.011719
vt 0.636719 0.015625
vt 0.632812 0.015625
f 180/393/180 249/394/249 55/395/55
vt 0.867188 0.203125
f 125/380/125 55/382/55 58/396/58
vt 0.445312 0.083984
vt 0.437500 0.091797
vt 0.437500 0.089844
f 51/397/51 164/398/164 73/399/73
vt 0.878906 0.531250
vt 0.880127 0.531250
vt 0.879150 0.531250
f 145/400/145 306/401/306 181/402/181
vt 0.805176 0.588135
vt 0.804688 0.589844
vt 0.804199 0.589600
f 142/403/142 65/404/65 364/405/364
vt 0.001953 0.623047
vt 0.000000 0.625000
vt 0.000000 0.617188
f 236/406/236 7/407/7 289/408/289
vt 0.003906 0.488281
f 89/102/89 184/104/184 90/409/90
vt 0.533081 0.277954
vt 0.533691 0.276855
vt 0.532837 0.279175
f 167/410/167 158/411/158 353/412/353
vt 0.213867 0.916992
vt 0.208984 0.919922
vt 0.208008 0.918945
f 365/413/365 231/414/231 208/415/208
vt 0.482422 0.429199
vt 0.482056 0.428955
vt 0.482300 0.428955
f 268/416/268 271/417/271 186/418/186
vt 0.656250 0.371094
vt 0.655762 0.372559
vt 0.655762 0.368652
f 258/419/258 272/420/272 340/421/340
vt 0.535645 0.272949
vt 0.535156 0.271484
vt 0.535645 0.270996
f 270/422/270 148/423/148 269/424/269
vt 0.481812 0.429199
vt 0.481934 0.428711
vt 0.481934 0.429199
f 315/425/315 190/426/190 334/427/334
vt 0.015625 0.421875
vt 0.008789 0.422852
vt 0.007812 0.421875
f 12/428/12 203/429/203 292/430/292
vt 0.001953 0.423828
vt 0.000000 0.425781
f 92/431/92 91/44/91 237/432/237
vt 0.781250 1.000000
vt 0.787109 0.999023
vt 0.789062 1.000000
f 43/433/43 294/434/294 293/435/293
vt 0.372803 0.455200
vt 0.374634 0.453308
vt 0.372925 0.455139
f 284/436/284 291/437/291 273/438/273
vt 0.049805 0.381836
vt 0.049316 0.383301
vt 0.048828 0.380859
f 327/439/327 310/440/310 146/441/146
vt 0.528809 0.627441
vt 0.528564 0.627686
vt 0.528076 0.627686
f 27/442/27 189/443/189 13/444/13
vt 0.498047 0.507812
f 189/300/189 27/445/27 71/301/71
vt 0.528320 0.627930
vt 0.527832 0.627930
f 189/443/189 186/446/186 290/447/290
vt 0.003906 0.296875
vt 0.003906 0.304688
vt 0.001953 0.300781
f 171/448/171 188/449/188 203/450/203
vt 0.001953 0.308594
vt 0.000000 0.312500
vt 0.000000 0.304688
f 171/451/171 203/452/203 295/453/295
vt 0.662109 1.000000
f 193/378/193 196/454/196 187/379/187
vt 0.203613 0.061523
vt 0.203369 0.058105
vt 0.203613 0.057617
f 296/455/296 297/456/297 194/457/194
vt 0.785156 0.998047
vt 0.784180 0.999512
f 187/458/187 177/434/177 294/459/294
vt 0.675781 0.827148
vt 0.677734 0.828125
vt 0.675781 0.827637
f 177/460/177 187/461/187 196/462/196
vt 0.680664 0.828125
vt 0.681641 0.826172
vt 0.681152 0.828125
f 75/463/75 196/464/196 309/465/309
vt 0.683594 0.828125
vt 0.682617 0.828125
vt 0.683105 0.827637
f 116/466/116 308/467/308 309/468/309
vt 0.656250 1.000000
vt 0.660156 0.998291
vt 0.660156 0.998413
f 44/469/44 299/470/299 197/471/197
vt 0.631836 0.781250
vt 0.631775 0.781738
vt 0.631348 0.781250
f 53/472/53 56/473/56 170/474/170
vt 0.631470 0.782227
f 56/333/56 75/332/75 170/475/170
vt 0.984375 0.564453
f 53/192/53 364/191/364 198/476/198
vt 0.475098 0.996582
vt 0.474609 0.998047
vt 0.473145 0.998535
f 200/477/200 197/478/197 201/479/201
vt 0.780273 0.902344
f 199/359/199 177/358/177 298/480/298
vt 0.521484 0.818359
vt 0.519531 0.820312
vt 0.521484 0.816406
f 200/481/200 193/482/193 197/483/197
vt 0.521729 0.815918
f 200/484/200 218/262/218 193/483/193
vt 0.500000 0.984375
f 201/81/201 197/485/197 45/82/45
vt 0.953125 0.000000
f 2/1/2 96/3/96 34/486/34
vt 0.009766 0.486328
vt 0.007812 0.484375
f 89/487/89 90/409/90 91/488/91
vt 0.015625 0.296875
vt 0.005859 0.304688
vt 0.013672 0.296875
f 92/489/92 203/490/203 188/491/188
vt 0.000000 0.242188
vt 0.000000 0.250000
f 356/492/356 204/107/204 29/493/29
f 205/8/205 77/112/77 95/9/95
vt 0.000000 0.015625
f 205/14/205 39/494/39 1/15/1
vt 1.000000 0.718750
vt 1.000000 0.726562
vt 0.996094 0.726562
f 22/495/22 206/496/206 373/497/373
vt 0.859375 0.984375
vt 0.855469 0.988281
f 105/498/105 41/141/41 207/499/207
f 107/140/107 207/499/207 41/141/41
vt 0.234375 0.984375
vt 0.234375 0.992188
vt 0.226562 0.992188
f 363/500/363 208/501/208 110/502/110
vt 0.992188 0.230469
vt 0.988281 0.234375
vt 0.990234 0.230469
f 300/503/300 119/504/119 311/505/311
vt 0.870605 0.403320
f 120/178/120 210/506/210 121/179/121
vt 0.872559 0.401367
f 322/507/322 121/179/121 210/506/210
vt 0.585938 0.003906
vt 0.582031 0.004883
f 36/320/36 211/508/211 124/509/124
vt 0.008789 0.924316
f 129/195/129 212/510/212 130/196/130
vt 0.222656 0.003906
f 60/37/60 213/39/213 67/511/67
vt 0.681641 0.449219
vt 0.683594 0.449219
f 214/203/214 137/512/137 348/513/348
vt 0.132812 0.550781
vt 0.132812 0.546875
f 256/514/256 216/51/216 141/515/141
f 216/51/216 256/514/256 215/49/215
vt 0.806641 0.584961
vt 0.802734 0.588867
vt 0.803711 0.587402
f 145/516/145 225/517/225 217/518/217
vt 0.663086 1.000000
f 193/377/193 218/519/218 196/454/196
vt 0.013672 0.628906
vt 0.011719 0.632812
vt 0.012695 0.628906
f 219/520/219 62/521/62 151/522/151
vt 0.150879 0.871094
f 220/60/220 153/59/153 347/523/347
vt 0.620361 0.052490
vt 0.622070 0.051758
vt 0.620239 0.052612
f 354/524/354 37/525/37 325/526/325
vt 0.236572 0.510986
vt 0.236328 0.511719
vt 0.235718 0.512573
f 274/527/274 222/528/222 223/529/223
f 222/528/222 172/345/172 223/337/223
f 160/344/160 224/346/224 172/345/172
vt 0.183594 0.585938
vt 0.182129 0.589844
vt 0.182617 0.587891
f 62/530/62 157/531/157 136/532/136
vt 0.492188 0.984375
vt 0.488281 0.988281
vt 0.484375 0.984375
f 227/533/227 337/534/337 46/535/46
f 226/83/226 337/534/337 201/81/201
vt 0.363281 0.996094
vt 0.359375 1.000000
vt 0.359375 0.992188
f 227/536/227 46/537/46 228/538/228
vt 0.363281 0.988281
vt 0.359375 0.984375
f 229/539/229 228/538/228 47/540/47
vt 0.304688 0.984375
f 328/541/328 229/84/229 231/86/231
vt 0.296875 1.000000
f 229/84/229 47/542/47 230/85/230
vt 0.296875 0.984375
f 231/86/231 230/85/230 48/543/48
vt 0.914062 0.003906
vt 0.914062 0.000000
f 34/90/34 375/544/375 84/545/84
vt 0.906250 0.000000
f 14/545/14 202/95/202 232/546/232
f 202/95/202 14/545/14 84/93/84
vt 0.826172 0.015625
vt 0.822266 0.019531
vt 0.824219 0.015625
f 232/547/232 83/548/83 58/549/58
vt 0.781250 0.000000
vt 0.778320 0.000977
vt 0.773438 0.000000
f 14/550/14 232/551/232 233/552/233
vt 0.770508 0.000977
vt 0.765625 0.000000
f 233/552/233 232/553/232 35/554/35
vt 0.007812 0.796875
vt 0.003906 0.800781
vt 0.005859 0.796875
f 86/555/86 221/556/221 234/557/234
vt 0.000000 0.671875
f 236/98/236 235/97/235 7/558/7
vt 0.013672 0.486328
f 89/487/89 91/488/91 216/559/216
vt 0.003906 0.484375
f 91/488/91 90/409/90 237/560/237
f 204/107/204 94/492/94 238/108/238
vt 0.000000 0.234375
f 6/561/6 238/108/238 94/492/94
vt 0.007812 0.046875
f 38/10/38 78/12/78 205/562/205
vt 1.000000 0.078125
vt 0.999023 0.083008
vt 0.998535 0.081543
f 40/563/40 97/564/97 304/565/304
vt 0.997070 0.084961
vt 0.996094 0.082031
f 202/117/202 239/566/239 83/567/83
vt 0.998047 0.857422
vt 1.000000 0.859375
f 103/568/103 240/133/240 24/569/24
vt 0.998535 0.854004
f 240/133/240 103/568/103 312/570/312
vt 1.000000 1.000000
f 105/136/105 24/571/24 106/137/106
vt 0.851562 0.992188
vt 0.843750 1.000000
f 107/572/107 241/142/241 42/573/42
vt 0.320312 0.750000
f 243/145/243 31/144/31 108/574/108
vt 0.218750 1.000000
f 110/502/110 244/148/244 49/575/49
f 244/148/244 110/502/110 208/146/208
vt 0.218750 0.171875
f 245/153/245 111/152/111 297/576/297
vt 0.387024 0.122009
f 246/156/246 115/155/115 162/577/162
f 207/158/207 81/163/81 103/159/103
vt 0.801758 0.986328
vt 0.800781 0.988281
f 199/163/199 305/578/305 301/579/301
vt 0.210938 0.914062
vt 0.212891 0.916016
vt 0.209961 0.916992
f 363/580/363 28/581/28 365/582/365
vt 0.207520 0.918457
f 109/415/109 328/583/328 113/581/113
f 300/503/300 30/122/30 119/504/119
f 302/176/302 239/175/239 119/504/119
vt 0.867188 0.406250
f 120/178/120 52/584/52 210/506/210
vt 0.821289 0.019531
vt 0.823242 0.015625
f 58/549/58 83/585/83 125/586/125
vt 0.769531 0.007812
vt 0.773438 0.007812
vt 0.765625 0.015625
f 249/587/249 58/588/58 55/589/55
vt 0.816650 0.024414
vt 0.816895 0.023438
f 122/187/122 319/590/319 318/591/318
vt 0.814453 0.027344
vt 0.814941 0.027344
f 302/592/302 125/187/125 83/593/83
f 251/193/251 372/193/372 250/191/250
vt 0.007324 0.925537
vt 0.007080 0.925415
f 129/195/129 10/594/10 234/595/234
vt 0.253906 0.171875
vt 0.252930 0.173828
vt 0.251953 0.171875
f 61/596/61 246/597/246 26/598/26
vt 0.251953 0.175781
vt 0.250977 0.173828
f 246/597/246 131/599/131 245/600/245
f 90/409/90 252/199/252 237/198/237
vt 0.000000 0.500000
f 252/199/252 90/409/90 5/601/5
vt 0.460938 0.683594
vt 0.458984 0.687500
vt 0.458984 0.686523
f 132/602/132 27/603/27 336/604/336
vt 0.552734 0.706543
vt 0.554688 0.705078
f 254/605/254 336/606/336 133/384/133
vt 0.125000 0.634766
vt 0.117188 0.636719
vt 0.125000 0.632812
f 136/607/136 135/608/135 62/609/62
f 313/204/313 214/203/214 348/513/348
vt 0.677734 0.451172
vt 0.675781 0.451172
vt 0.679688 0.449219
f 214/610/214 63/611/63 137/612/137
vt 0.999023 0.543945
vt 0.998535 0.545410
f 307/613/307 64/244/64 343/614/343
vt 0.250000 0.175781
f 246/599/246 245/615/245 26/600/26
vt 0.250000 0.179688
f 245/615/245 131/599/131 112/616/112
vt 0.125000 0.554688
f 219/205/219 215/49/215 62/617/62
vt 0.417969 0.988281
vt 0.416992 0.990234
vt 0.414062 0.992188
f 229/618/229 328/619/328 257/620/257
vt 0.773438 0.447266
vt 0.775391 0.443359
vt 0.775391 0.444336
f 352/621/352 258/622/258 210/623/210
vt 0.773438 0.446289
f 258/622/258 352/621/352 338/624/338
vt 0.814453 0.767578
vt 0.815430 0.769043
vt 0.816406 0.771484
f 82/625/82 377/626/377 198/627/198
vt 0.814453 0.771484
f 81/628/81 260/365/260 80/364/80
vt 0.813477 0.768555
f 248/629/248 260/625/260 81/628/81
f 256/218/256 141/54/141 261/219/261
f 146/54/146 261/218/261 141/52/141
f 262/247/262 343/223/343 64/224/64
f 262/224/262 64/222/64 19/221/19
vt 0.813477 0.776367
f 56/225/56 377/227/377 298/630/298
vt 0.812500 0.777344
f 248/228/248 298/631/298 377/229/377
vt 0.812500 0.781250
f 298/631/298 248/228/248 199/632/199
vt 0.151367 0.871094
vt 0.150391 0.873047
vt 0.150269 0.873047
f 28/633/28 363/634/363 263/635/263
vt 0.753906 0.574219
vt 0.750977 0.578125
vt 0.750732 0.578125
f 255/636/255 214/637/214 313/638/313
vt 0.431641 0.698242
vt 0.430664 0.699707
vt 0.429688 0.699219
f 253/639/253 336/640/336 254/641/254
vt 0.248047 0.427734
f 146/642/146 339/238/339 261/240/261
vt 0.246094 0.429688
f 261/240/261 346/239/346 224/643/224
vt 0.992188 0.546875
f 265/241/265 21/644/21 250/242/250
f 21/644/21 265/241/265 267/245/267
vt 0.998047 0.544922
f 265/241/265 266/645/266 343/244/343
vt 1.000000 0.546875
f 267/245/267 265/244/265 20/646/20
vt 0.558594 0.375000
vt 0.554688 0.378906
vt 0.554688 0.375000
f 148/647/148 268/648/268 149/649/149
vt 0.634766 0.406250
vt 0.632324 0.410156
vt 0.633789 0.406250
f 148/650/148 270/651/270 271/652/271
vt 0.631348 0.410156
vt 0.632812 0.406250
f 271/652/271 270/653/270 63/654/63
vt 0.628906 0.414062
vt 0.630859 0.410156
vt 0.629150 0.414062
f 137/655/137 63/656/63 272/657/272
vt 0.631104 0.410156
f 272/656/272 63/654/63 270/658/270
vt 0.516602 0.814453
vt 0.516113 0.815430
vt 0.515869 0.814941
f 366/659/366 362/660/362 314/661/314
vt 0.149658 0.873047
vt 0.148438 0.875000
f 347/662/347 153/59/153 212/663/212
vt 0.405762 0.623535
f 273/259/273 71/664/71 274/260/274
vt 0.406250 0.625000
f 222/261/222 274/260/274 174/665/174
vt 0.523438 0.814453
vt 0.522949 0.814941
f 178/666/178 116/263/116 366/667/366
vt 0.521973 0.815430
f 275/263/275 200/668/200 276/266/276
f 200/668/200 275/263/275 218/262/218
vt 0.000000 0.929688
vt 0.001953 0.931641
vt 0.000000 0.933594
f 59/669/59 277/670/277 209/671/209
vt 0.769287 0.255371
f 333/268/333 127/271/127 122/672/122
vt 0.767578 0.261719
f 121/673/121 333/268/333 57/267/57
vt 0.000000 0.921875
f 9/194/9 277/274/277 59/674/59
vt 0.001953 0.922852
f 72/675/72 277/274/277 130/273/130
f 360/278/360 220/277/220 347/279/347
vt 0.476562 0.992188
vt 0.474609 0.994141
f 192/676/192 152/281/152 257/677/257
vt 0.474121 0.995605
vt 0.474854 0.995361
f 227/678/227 257/677/257 79/679/79
vt 0.105469 0.998047
vt 0.095703 0.999023
vt 0.096680 0.998535
f 279/680/279 209/681/209 277/682/277
vt 0.109375 1.000000
vt 0.101562 1.000000
f 49/683/49 280/684/280 279/680/279
vt 0.175293 0.757324
f 135/290/135 278/292/278 221/685/221
vt 0.185059 0.585938
vt 0.185547 0.585938
f 160/63/160 256/686/256 224/687/224
vt 0.525391 0.630859
vt 0.519531 0.632812
vt 0.526367 0.629883
f 161/688/161 27/689/27 13/690/13
vt 0.707031 0.621094
vt 0.708984 0.623047
vt 0.705078 0.623047
f 367/691/367 357/692/357 282/693/282
vt 0.707031 0.625000
vt 0.703125 0.625000
f 282/693/282 217/694/217 225/695/225
vt 0.591309 0.673828
vt 0.590454 0.674316
vt 0.590820 0.673828
f 285/696/285 344/697/344 13/698/13
vt 0.368164 0.459473
vt 0.369141 0.458008
vt 0.370117 0.457520
f 264/699/264 190/700/190 291/701/291
vt 0.645508 0.656250
vt 0.646484 0.655273
vt 0.645996 0.656250
f 357/702/357 344/703/344 255/704/255
vt 0.625000 0.679688
f 53/251/53 282/330/282 225/705/225
f 282/330/282 53/251/53 316/328/316
f 281/335/281 159/527/159 222/336/222
vt 0.234863 0.514160
f 172/706/172 222/336/222 159/527/159
f 273/706/273 223/337/223 284/339/284
f 223/337/223 172/345/172 286/338/286
vt 0.234924 0.514465
vt 0.234650 0.515045
f 264/339/264 284/707/284 345/708/345
vt 0.308594 0.701172
vt 0.310547 0.700195
vt 0.309570 0.701172
f 358/709/358 281/710/281 376/711/376
vt 0.459961 0.683594
vt 0.458984 0.683594
f 253/712/253 66/342/66 376/713/376
vt 0.464844 0.675781
vt 0.461914 0.679688
vt 0.462891 0.677734
f 71/714/71 132/715/132 274/716/274
vt 0.461426 0.679688
f 174/717/174 274/716/274 132/715/132
f 172/345/172 224/346/224 286/338/286
vt 0.996094 0.728516
vt 0.992188 0.734375
f 303/497/303 326/718/326 80/719/80
vt 0.554199 0.706177
vt 0.555420 0.705383
f 314/720/314 254/721/254 178/383/178
vt 0.640625 0.015625
vt 0.640625 0.011719
f 35/722/35 232/372/232 58/723/58
f 211/353/211 287/352/287 249/372/249
vt 0.772461 0.002930
f 249/724/249 287/554/287 35/553/35
vt 0.664062 0.996094
f 187/360/187 288/362/288 44/725/44
f 211/374/211 180/373/180 124/353/124
vt 0.246094 0.365234
vt 0.244141 0.365234
vt 0.246094 0.363281
f 310/726/310 339/727/339 146/728/146
vt 0.369141 0.398438
vt 0.368164 0.398438
vt 0.370117 0.397461
f 361/729/361 335/730/335 140/731/140
vt 0.805664 0.586426
f 145/516/145 142/732/142 225/517/225
vt 0.009766 0.630859
vt 0.011719 0.630859
vt 0.007812 0.632812
f 236/733/236 151/734/151 86/735/86
vt 0.003906 0.496094
vt 0.001953 0.494141
vt 0.005859 0.494141
f 236/736/236 184/737/184 219/738/219
f 184/100/184 289/408/289 5/101/5
f 289/408/289 184/100/184 236/406/236
vt 0.527344 0.627930
vt 0.526855 0.628174
vt 0.529297 0.626465
f 63/739/63 290/740/290 271/741/271
vt 0.526367 0.628418
vt 0.528809 0.626709
f 290/740/290 186/742/186 271/743/271
vt 0.531738 0.280762
vt 0.532043 0.280212
vt 0.532227 0.280273
f 264/744/264 353/745/353 190/746/190
vt 0.527832 0.628418
vt 0.527344 0.628906
vt 0.527344 0.628418
f 290/747/290 63/748/63 285/749/285
f 290/447/290 285/749/285 13/739/13
f 328/619/328 109/209/109 257/620/257
f 363/581/363 365/413/365 208/415/208
vt 0.214844 0.917969
f 365/413/365 328/750/328 231/414/231
vt 0.203125 0.921875
f 208/415/208 231/414/231 48/751/48
vt 0.247070 0.764648
vt 0.250000 0.765625
vt 0.242188 0.765625
f 113/752/113 108/753/108 109/754/109
vt 0.482666 0.429199
vt 0.482483 0.429077
f 334/755/334 268/416/268 315/756/315
vt 0.482178 0.429199
f 268/416/268 148/757/148 271/417/271
vt 0.482056 0.429443
vt 0.482010 0.429413
vt 0.481995 0.429077
f 291/758/291 315/759/315 144/760/144
vt 0.656250 0.367188
f 210/761/210 258/419/258 340/421/340
vt 0.656250 0.375000
f 258/419/258 137/762/137 272/420/272
vt 0.535156 0.269531
f 269/424/269 148/423/148 68/763/68
f 203/429/203 92/431/92 292/430/292
vt 0.000000 0.421875
f 11/764/11 292/430/292 92/431/92
f 92/431/92 237/432/237 11/764/11
vt 0.678711 0.827393
vt 0.677734 0.826660
f 196/765/196 75/460/75 177/766/177
vt 0.792969 0.998047
f 176/767/176 293/435/293 294/434/294
f 293/435/293 176/767/176 42/161/42
vt 0.374512 0.453369
f 284/436/284 264/768/264 291/437/291
vt 0.374756 0.453247
f 273/438/273 291/437/291 144/769/144
vt 0.375000 0.453125
f 71/770/71 273/438/273 144/769/144
vt 0.524414 0.629883
vt 0.522461 0.631348
vt 0.525391 0.628906
f 186/771/186 189/772/189 144/773/144
f 189/443/189 290/447/290 13/739/13
vt 0.000000 0.296875
f 295/448/295 203/450/203 12/774/12
f 171/451/171 295/453/295 6/774/6
vt 0.219238 0.000977
vt 0.218750 0.000000
f 67/511/67 296/775/296 16/776/16
vt 0.219238 0.001953
vt 0.218750 0.003906
vt 0.218750 0.001953
f 296/777/296 194/778/194 195/779/195
vt 0.203125 0.054688
vt 0.203369 0.062012
vt 0.203125 0.062500
f 245/780/245 297/781/297 26/782/26
f 297/456/297 111/780/111 194/457/194
vt 0.787109 0.997070
vt 0.786133 0.997559
f 177/783/177 176/767/176 294/784/294
vt 0.219238 0.012939
vt 0.218994 0.014282
vt 0.218994 0.012329
f 296/785/296 213/786/213 297/787/297
vt 0.218750 0.015625
vt 0.218872 0.013977
f 213/786/213 247/788/247 26/789/26
vt 0.218750 0.013672
vt 0.218750 0.011719
f 297/787/297 213/790/213 26/791/26
f 43/458/43 288/459/288 294/433/294
vt 0.219727 0.012207
vt 0.220703 0.011719
vt 0.220703 0.012695
f 213/792/213 296/793/296 67/794/67
f 16/776/16 296/775/296 195/779/195
vt 0.621094 0.682617
vt 0.621094 0.681641
vt 0.621582 0.681885
f 170/795/170 308/796/308 316/797/316
vt 0.622070 0.682129
vt 0.621094 0.683594
f 316/798/316 53/799/53 170/795/170
vt 0.780273 0.900879
vt 0.779053 0.899536
vt 0.779297 0.899414
f 75/800/75 298/801/298 177/802/177
vt 0.664062 0.996582
vt 0.664062 0.996826
f 45/803/45 197/804/197 299/470/299
vt 0.516846 0.816895
vt 0.516602 0.816406
f 366/659/366 276/805/276 362/806/362
vt 0.664062 0.997070
f 197/471/197 193/807/193 44/469/44
f 199/163/199 301/579/301 176/164/176
vt 0.173828 0.994141
vt 0.175781 0.996094
vt 0.171875 0.996094
f 279/808/279 110/809/110 49/810/49
f 307/56/307 139/246/139 147/57/147
vt 0.363281 0.992188
f 227/811/227 228/538/228 229/539/229
vt 1.000000 0.082031
f 311/564/311 304/812/304 97/114/97
vt 0.998047 0.087891
f 304/118/304 311/813/311 239/566/239
f 300/18/300 17/171/17 98/16/98
f 301/162/301 42/161/42 176/164/176
vt 0.798828 0.984375
f 81/163/81 305/165/305 248/814/248
vt 0.526367 0.813477
vt 0.525391 0.814453
vt 0.525391 0.812500
f 308/815/308 116/816/116 178/817/178
vt 0.757812 0.570312
f 313/234/313 348/818/348 306/235/306
vt 0.765625 0.562500
vt 0.761719 0.566406
f 33/819/33 306/235/306 348/820/348
vt 0.876221 0.531250
vt 0.875000 0.531250
f 145/400/145 181/821/181 142/822/142
vt 0.842285 0.435547
vt 0.841797 0.435547
f 139/246/139 307/823/307 33/824/33
vt 0.184326 0.586914
f 157/825/157 62/530/62 215/62/215
vt 0.324707 0.284180
vt 0.324951 0.283691
f 140/826/140 143/307/143 331/827/331
vt 0.631287 0.781738
vt 0.630859 0.781250
f 316/474/316 308/828/308 69/829/69
f 312/367/312 103/568/103 81/368/81
vt 0.683105 0.826660
vt 0.684570 0.827148
f 116/466/116 309/830/309 218/831/218
vt 0.243164 0.366211
vt 0.244141 0.366211
f 335/832/335 339/727/339 310/833/310
vt 0.249023 0.362305
vt 0.250000 0.363281
vt 0.248047 0.361816
f 327/834/327 191/835/191 310/836/310
vt 0.248047 0.362305
f 143/837/143 310/836/310 191/835/191
vt 0.881348 0.531250
vt 0.880371 0.531250
f 306/838/306 370/839/370 181/401/181
vt 0.325195 0.283203
vt 0.325439 0.283691
f 140/826/140 183/840/183 163/841/163
vt 0.533188 0.278641
vt 0.533356 0.278046
f 190/842/190 353/412/353 158/843/158
vt 0.681641 0.828125
f 309/465/309 196/464/196 218/844/218
f 170/844/170 309/468/309 308/467/308
vt 0.682617 0.827148
f 309/468/309 170/844/170 75/845/75
vt 0.011719 0.628906
f 151/522/151 62/521/62 135/846/135
vt 0.367188 0.992188
f 257/847/257 227/811/227 229/539/229
f 40/563/40 304/565/304 96/117/96
vt 0.998047 0.849609
vt 0.999023 0.846680
vt 0.998047 0.853516
f 80/848/80 326/849/326 312/850/312
f 305/578/305 107/160/107 301/579/301
f 107/160/107 305/578/305 207/158/207
vt 0.796875 0.988281
vt 0.796875 0.984375
f 248/814/248 305/851/305 199/852/199
vt 0.245117 0.754883
vt 0.245605 0.755371
vt 0.245361 0.756104
f 278/853/278 136/854/136 76/855/76
f 311/505/311 119/504/119 239/175/239
vt 0.126953 0.552734
f 256/514/256 157/856/157 215/49/215
vt 0.755859 0.572266
f 313/857/313 145/637/145 217/636/217
vt 0.750488 0.578125
f 255/636/255 313/638/313 217/858/217
vt 0.515625 0.816406
f 66/257/66 314/661/314 138/859/138
f 122/672/122 127/271/127 126/269/126
vt 0.473511 0.997437
f 276/860/276 200/477/200 201/283/201
vt 0.643311 0.656250
vt 0.645996 0.652344
vt 0.643555 0.656250
f 285/861/285 63/862/63 214/863/214
f 254/721/254 133/384/133 178/383/178
f 315/756/315 268/416/268 186/418/186
vt 0.481964 0.429382
f 315/759/315 186/864/186 144/760/144
vt 0.481812 0.429443
f 190/427/190 315/865/315 291/425/291
vt 0.533264 0.278015
f 334/843/334 190/866/190 158/411/158
vt 0.474121 0.997559
f 276/867/276 201/479/201 79/283/79
vt 0.323242 0.282227
vt 0.322266 0.281250
vt 0.324219 0.282227
f 162/868/162 115/869/115 166/870/166
vt 0.306641 0.694336
vt 0.308594 0.693359
vt 0.296875 0.703125
f 317/871/317 358/872/358 32/873/32
vt 0.392578 0.010742
vt 0.390625 0.013672
vt 0.390625 0.011719
f 88/874/88 87/875/87 61/876/61
vt 0.857422 0.298828
f 57/180/57 318/182/318 30/877/30
vt 0.821289 0.015625
f 319/188/319 125/187/125 302/878/302
vt 0.820312 0.015625
vt 0.818848 0.019531
vt 0.816406 0.023438
f 30/879/30 318/880/318 119/881/119
vt 0.765869 0.254395
vt 0.766602 0.251953
f 320/882/320 68/189/68 54/883/54
vt 0.001953 0.431641
vt 0.000000 0.437500
f 182/884/182 141/885/141 216/44/216
vt 0.534180 0.270508
vt 0.531250 0.265625
vt 0.533203 0.267578
f 149/886/149 154/887/154 349/888/349
vt 0.766113 0.262695
vt 0.765625 0.265625
f 155/889/155 121/673/121 322/890/322
vt 0.767090 0.256836
vt 0.766602 0.255859
f 155/891/155 320/892/320 54/270/54
vt 0.180664 0.593750
f 76/893/76 323/298/323 317/297/317
vt 0.182617 0.589844
f 323/298/323 76/893/76 136/894/136
vt 0.312500 0.687500
vt 0.312500 0.689453
vt 0.310547 0.690430
f 317/895/317 281/896/281 358/897/358
f 323/306/323 157/61/157 160/63/160
vt 0.326172 0.283203
f 324/311/324 163/898/163 183/310/183
vt 0.181274 0.591797
vt 0.181885 0.589844
f 157/531/157 323/899/323 136/900/136
vt 0.323242 0.282471
vt 0.324219 0.282715
vt 0.323242 0.282593
f 162/901/162 166/902/166 324/903/324
vt 0.244141 0.763672
vt 0.244385 0.764404
f 113/904/113 321/905/321 108/754/108
vt 0.015579 0.282272
vt 0.015564 0.281311
vt 0.015594 0.281281
f 327/906/327 341/907/341 369/908/369
f 325/526/325 37/525/37 283/322/283
vt 0.014648 0.485352
f 182/909/182 216/559/216 91/488/91
vt 0.007812 0.490234
vt 0.007812 0.492188
f 219/910/219 151/911/151 236/104/236
vt 0.207031 0.917969
f 328/583/328 365/912/365 113/581/113
vt 0.873291 0.400879
vt 0.875000 0.398438
f 155/913/155 322/507/322 320/914/320
vt 0.815918 0.025391
f 319/590/319 302/915/302 318/591/318
f 119/881/119 318/591/318 302/915/302
vt 0.398438 0.001465
vt 0.398438 0.000977
f 88/916/88 247/917/247 134/42/134
vt 0.398438 0.005859
vt 0.402344 0.002930
vt 0.400391 0.004883
f 61/918/61 247/919/247 88/920/88
vt 0.774414 0.446289
vt 0.773438 0.449219
f 352/921/352 52/922/52 139/621/139
vt 0.252930 0.753906
vt 0.251953 0.757812
vt 0.252441 0.751953
f 243/923/243 108/924/108 321/925/321
vt 0.429688 0.701172
f 253/640/253 254/926/254 66/641/66
vt 0.656250 0.363281
vt 0.656006 0.366943
vt 0.655762 0.366699
f 322/927/322 210/928/210 340/929/340
f 79/679/79 257/677/257 152/281/152
vt 0.650391 0.365234
vt 0.653320 0.364258
vt 0.648438 0.367188
f 320/930/320 269/931/269 68/932/68
vt 0.580078 0.000000
f 283/321/283 168/71/168 325/933/325
vt 0.997070 0.541992
vt 0.997070 0.542969
vt 0.996094 0.542969
f 181/934/181 370/935/370 329/936/329
vt 0.536377 0.273193
vt 0.535645 0.274902
vt 0.536133 0.272461
f 148/937/148 149/938/149 68/939/68
vt 0.049072 0.382080
vt 0.048828 0.384766
vt 0.048950 0.381470
f 327/940/327 146/941/146 341/942/341
vt 0.244141 0.755859
vt 0.244263 0.756470
vt 0.243896 0.756592
f 28/943/28 118/944/118 321/945/321
vt 0.818115 0.021484
f 126/187/126 319/946/319 122/878/122
vt 0.890625 0.781250
vt 0.880859 0.789551
f 303/88/303 373/947/373 326/948/326
vt 0.244141 0.759766
vt 0.244141 0.758789
vt 0.244629 0.757812
f 32/949/32 243/950/243 321/951/321
vt 0.766602 0.253906
f 155/952/155 54/883/54 156/270/156
vt 0.245117 0.756836
f 278/853/278 76/855/76 330/953/330
vt 0.167969 0.267578
vt 0.167969 0.268555
vt 0.164062 0.271484
f 140/954/140 331/955/331 183/956/183
vt 0.588379 0.675781
f 161/314/161 344/957/344 150/315/150
vt 0.532715 0.271973
vt 0.531982 0.276611
vt 0.532227 0.274414
f 185/958/185 332/959/332 167/960/167
vt 0.300781 0.699219
f 76/961/76 317/871/317 32/873/32
vt 0.686523 0.452148
vt 0.687500 0.453125
vt 0.685547 0.453125
f 338/962/338 33/963/33 348/964/348
vt 1.000000 0.843750
f 312/132/312 23/965/23 240/133/240
f 331/232/331 131/231/131 183/956/183
vt 0.656006 0.363037
vt 0.656006 0.364990
vt 0.655762 0.362793
f 320/966/320 322/967/322 340/968/340
vt 0.768555 0.257812
vt 0.768066 0.258789
f 127/271/127 333/969/333 155/970/155
vt 0.534668 0.275879
vt 0.534668 0.276855
f 158/971/158 332/302/332 334/972/334
vt 0.250000 0.679688
vt 0.251953 0.679688
vt 0.250000 0.687500
f 330/973/330 76/974/76 32/975/32
vt 0.997070 0.732422
f 326/350/326 373/349/373 206/976/206
vt 0.623047 0.675781
vt 0.625000 0.672852
vt 0.625000 0.673828
f 133/977/133 336/978/336 161/979/161
vt 0.532593 0.274048
vt 0.533203 0.271484
vt 0.532227 0.276367
f 332/980/332 154/981/154 149/982/149
vt 0.047363 0.379395
vt 0.046875 0.382812
vt 0.046875 0.375000
f 341/983/341 182/984/182 92/985/92
vt 0.520020 0.632812
vt 0.520264 0.632812
f 27/986/27 161/688/161 336/987/336
f 337/534/337 226/83/226 46/535/46
f 337/534/337 79/533/79 201/81/201
vt 0.685547 0.447266
vt 0.685547 0.449219
f 137/988/137 338/989/338 348/513/348
vt 0.458984 0.685547
f 132/602/132 336/604/336 253/990/253
vt 0.425781 0.702637
vt 0.421875 0.703125
vt 0.423828 0.702637
f 138/991/138 31/992/31 242/993/242
vt 0.241211 0.508789
vt 0.240234 0.509766
vt 0.241699 0.507324
f 339/994/339 345/995/345 346/996/346
vt 0.773438 0.445312
f 258/622/258 338/624/338 137/997/137
vt 0.249023 0.429688
vt 0.250000 0.429688
f 345/998/345 339/238/339 335/999/335
vt 0.630127 0.412109
vt 0.629395 0.414062
f 340/1000/340 272/658/272 269/1001/269
f 333/969/333 121/673/121 155/970/155
vt 0.469727 0.999023
vt 0.470703 0.998047
f 79/283/79 337/1002/337 227/1003/227
vt 0.589600 0.674805
f 344/1004/344 161/314/161 13/698/13
vt 0.655518 0.369385
vt 0.655273 0.370117
f 269/1005/269 272/420/272 270/1006/270
f 26/789/26 247/788/247 61/790/61
vt 0.392578 0.012207
vt 0.394531 0.009766
f 354/1007/354 87/875/87 88/1008/88
vt 0.534668 0.277832
f 334/304/334 149/303/149 268/1009/268
vt 0.324707 0.283203
f 331/827/331 143/307/143 342/1010/342
vt 0.322266 0.281494
vt 0.320312 0.281250
f 162/1011/162 131/1012/131 246/869/246
vt 0.165283 0.267212
vt 0.164062 0.269531
vt 0.164551 0.267822
f 143/1013/143 140/1014/140 335/1015/335
vt 0.655884 0.365845
f 320/1016/320 340/929/340 269/968/269
vt 0.308594 0.691406
f 159/895/159 281/897/281 317/1017/317
f 341/942/341 146/941/146 182/441/182
vt 0.165039 0.266113
f 143/1013/143 335/1015/335 310/1018/310
vt 0.738281 0.465820
vt 0.738281 0.466797
vt 0.734375 0.468750
f 338/1019/338 139/1020/139 33/1021/33
vt 0.160156 0.277344
f 342/207/342 143/1022/143 191/208/191
vt 0.171875 0.265625
vt 0.169922 0.266602
f 173/1023/173 112/230/112 342/1024/342
f 362/254/362 192/253/192 138/859/138
vt 0.003906 0.798828
f 234/557/234 221/556/221 347/1025/347
f 307/613/307 343/614/343 266/645/266
f 362/660/362 138/859/138 314/661/314
vt 0.174805 0.756836
f 221/685/221 278/292/278 360/1026/360
vt 0.585205 0.678711
vt 0.584595 0.679199
f 150/315/150 344/1027/344 357/1028/357
vt 0.842773 0.436523
f 33/824/33 307/823/307 370/1029/370
f 284/707/284 286/338/286 345/708/345
vt 0.234802 0.514832
f 346/1030/346 345/708/345 286/338/286
f 331/827/331 342/1010/342 112/840/112
vt 0.736328 0.466797
f 338/1031/338 352/1019/352 139/1021/139
vt 0.526367 0.812500
f 69/1032/69 308/815/308 178/817/178
vt 0.458984 0.251953
vt 0.457031 0.253906
vt 0.456055 0.250977
f 185/1033/185 166/1034/166 165/1035/165
vt 0.003906 0.796875
f 234/557/234 347/1025/347 212/1036/212
vt 0.006836 0.925293
f 129/195/129 234/595/234 212/1037/212
vt 0.617676 0.683594
f 367/1038/367 69/249/69 150/796/150
vt 0.621582 0.681641
f 367/1039/367 316/797/316 69/796/69
vt 0.531738 0.276855
f 167/960/167 332/959/332 158/1040/158
vt 0.455078 0.251953
f 165/1035/165 166/1034/166 350/1041/350
vt 0.542969 0.267578
vt 0.539062 0.269531
vt 0.542480 0.267334
f 54/1042/54 68/1043/68 349/1044/349
vt 0.432617 0.082031
f 350/69/350 87/68/87 359/1045/359
vt 0.543945 0.266113
f 165/1046/165 351/371/351 154/317/154
f 164/370/164 349/319/349 351/318/351
f 349/319/349 164/370/164 54/1042/54
vt 0.324219 0.281738
f 166/870/166 115/869/115 350/1047/350
vt 0.622314 0.052490
vt 0.622803 0.052490
vt 0.621948 0.052612
f 179/1048/179 74/1049/74 73/1050/73
vt 0.005859 0.677734
f 86/1051/86 234/96/234 10/98/10
vt 0.001953 0.685547
vt 0.000000 0.687500
f 86/1052/86 10/1053/10 235/97/235
vt 0.869873 0.403809
f 352/1054/352 210/506/210 52/584/52
f 149/886/149 349/888/349 68/763/68
vt 0.622009 0.052673
vt 0.621216 0.052856
f 85/1050/85 179/1055/179 73/1056/73
vt 0.453125 0.250000
f 165/1035/165 350/1041/350 85/1057/85
f 151/288/151 135/290/135 221/289/221
f 168/322/168 179/324/179 355/526/355
vt 0.187347 0.187653
vt 0.187439 0.195374
vt 0.187317 0.187683
f 70/1058/70 173/1059/173 191/1060/191
vt 0.507812 0.144531
vt 0.508789 0.143555
vt 0.509766 0.146484
f 85/1061/85 73/1062/73 351/1063/351
vt 0.532928 0.272247
vt 0.532898 0.272766
f 185/1064/185 165/981/165 154/1065/154
vt 0.476562 0.000000
vt 0.470703 0.000977
vt 0.468750 0.000000
f 37/1066/37 354/1067/354 15/1068/15
vt 0.326660 0.282715
vt 0.327148 0.282227
f 163/1069/163 324/311/324 167/1070/167
vt 0.619446 0.052673
vt 0.619751 0.052612
f 325/526/325 355/1071/355 354/1072/354
vt 0.468750 0.003906
f 354/1067/354 88/1073/88 15/1068/15
f 32/949/32 321/951/321 330/953/330
vt 0.391602 0.013672
vt 0.391113 0.014648
f 85/875/85 350/1074/350 359/1075/359
vt 0.436523 0.079102
vt 0.437500 0.078125
f 355/1076/355 87/68/87 354/1077/354
f 185/1064/185 154/1065/154 332/980/332
vt 0.544189 0.266479
f 85/1078/85 351/371/351 165/1046/165
vt 0.327637 0.281250
vt 0.328125 0.281250
f 353/1070/353 163/1079/163 167/1080/167
vt 0.050781 0.130859
vt 0.048828 0.131836
vt 0.046875 0.128906
f 114/1081/114 371/1082/371 29/1083/29
vt 0.011719 0.203125
vt 0.009766 0.203125
vt 0.011719 0.195312
f 204/1084/204 356/1085/356 94/1086/94
vt 0.708008 0.624023
f 357/1087/357 217/694/217 282/693/282
vt 0.007812 0.076172
vt 0.003906 0.074219
vt 0.007812 0.074219
f 77/1088/77 205/1089/205 78/1090/78
vt 0.328125 0.734375
vt 0.326172 0.738281
vt 0.324219 0.738281
f 32/1091/32 358/1092/358 243/1093/243
vt 0.710938 0.625000
f 357/1087/357 255/1094/255 217/694/217
f 142/191/142 175/191/175 65/192/65
f 175/193/175 303/237/303 65/193/65
f 361/841/361 140/840/140 163/898/163
vt 0.299805 0.702148
vt 0.300781 0.703125
f 358/1095/358 242/1096/242 243/873/243
vt 0.435547 0.080078
vt 0.435059 0.078613
f 179/1097/179 359/1098/359 355/1076/355
vt 0.433594 0.082031
f 359/1045/359 87/68/87 355/1099/355
vt 0.324219 0.282349
f 185/1100/185 167/868/167 324/870/324
vt 0.323486 0.282684
f 185/1101/185 324/903/324 166/902/166
vt 0.005859 0.072266
f 114/1090/114 77/1102/77 78/79/78
f 372/476/372 329/192/329 250/192/250
vt 0.390625 0.015625
f 85/875/85 359/1075/359 179/1103/179
vt 0.000000 0.125000
f 95/9/95 374/113/374 8/1104/8
vt 0.245117 0.755859
f 118/943/118 360/1105/360 330/953/330
vt 0.171875 0.765625
vt 0.173340 0.763184
f 118/276/118 28/1106/28 263/1107/263
vt 0.522949 0.814453
vt 0.522949 0.813477
f 366/1108/366 314/1109/314 178/666/178
f 374/113/374 204/110/204 8/1104/8
vt 0.367188 0.458984
vt 0.367188 0.458008
vt 0.368164 0.458496
f 345/1110/345 361/1111/361 264/1112/264
vt 0.176758 0.758789
vt 0.177002 0.759033
f 360/1113/360 278/1114/278 330/275/330
f 175/192/175 372/476/372 303/192/303
vt 0.370361 0.398193
vt 0.369629 0.397949
vt 0.370605 0.397949
f 361/1115/361 345/1116/345 335/1117/335
vt 0.531494 0.281006
f 361/1118/361 353/745/353 264/744/264
f 175/476/175 329/192/329 372/476/372
vt 0.015472 0.281403
vt 0.015503 0.282349
vt 0.015503 0.283325
f 368/1119/368 70/1120/70 369/1121/369
vt 0.240723 0.761719
vt 0.241211 0.761719
f 28/1122/28 321/1123/321 113/904/113
f 362/806/362 276/805/276 152/252/152
vt 0.984375 0.574219
f 65/193/65 303/1124/303 82/193/82
vt 0.243958 0.756897
vt 0.244385 0.757080
f 321/1125/321 118/944/118 330/1126/330
f 118/276/118 263/1107/263 220/277/220
vt 0.332031 0.933594
vt 0.335938 0.933594
vt 0.328125 0.937500
f 31/1127/31 192/1128/192 109/1129/109
f 259/213/259 363/216/363 110/809/110
vt 0.803711 0.589355
f 142/403/142 364/405/364 225/1130/225
vt 0.335938 0.935547
vt 0.335938 0.937500
f 31/1131/31 109/1132/109 108/1129/108
f 198/191/198 364/476/364 65/191/65
vt 0.800781 0.703125
vt 0.803711 0.699219
vt 0.801758 0.703125
f 53/1133/53 225/1134/225 364/1135/364
vt 0.523438 0.814941
f 275/263/275 366/1136/366 116/264/116
vt 0.585632 0.677979
vt 0.585327 0.678223
vt 0.583862 0.679199
f 367/1137/367 150/1138/150 357/1139/357
vt 0.240479 0.761719
f 365/1140/365 28/1122/28 113/904/113
vt 0.646484 0.656250
f 255/704/255 344/703/344 285/1141/285
vt 0.425781 0.702148
f 138/991/138 242/993/242 66/1142/66
vt 0.015472 0.282379
vt 0.015472 0.281891
f 368/1143/368 94/1144/94 356/1121/356
f 94/75/94 368/1143/368 171/73/171
vt 0.047363 0.375488
f 188/1145/188 341/983/341 92/985/92
vt 0.047852 0.375977
vt 0.047485 0.379517
f 188/1146/188 369/1147/369 341/983/341
vt 0.994873 0.545166
vt 0.994019 0.545532
f 370/1148/370 266/243/266 329/1149/329
vt 0.997559 0.542480
vt 0.998047 0.541016
vt 0.998047 0.542969
f 370/1150/370 306/1151/306 33/1152/33
vt 0.843750 0.437500
f 370/1029/370 307/823/307 266/1153/266
vt 0.157532 0.267273
vt 0.159180 0.270508
vt 0.157104 0.266724
f 70/1154/70 191/1155/191 327/1156/327
vt 0.157715 0.268066
vt 0.156250 0.265625
f 369/1156/369 70/1157/70 327/1158/327
vt 0.015579 0.285202
vt 0.015594 0.286163
vt 0.015564 0.285217
f 368/1159/368 369/1160/369 188/1161/188
vt 0.015594 0.286652
vt 0.015594 0.287140
f 368/1162/368 188/1163/188 171/1161/171
f 329/1149/329 266/243/266 250/242/250
vt 0.989975 0.546570
vt 0.989990 0.545898
vt 0.990021 0.546509
f 175/1164/175 142/1165/142 181/1166/181
f 368/1144/368 356/1119/356 70/1121/70
vt 0.990051 0.546143
vt 0.990112 0.546387
f 329/1166/329 175/1167/175 181/1168/181
vt 0.204102 0.048828
vt 0.203125 0.050781
f 371/1169/371 111/780/111 25/1170/25
f 111/780/111 371/1169/371 194/34/194
vt 0.187500 0.191406
vt 0.187500 0.195312
f 173/1059/173 25/1171/25 111/1172/111
vt 0.046875 0.132812
vt 0.047852 0.130371
f 371/1082/371 25/1173/25 29/1174/29
vt 0.204102 0.046875
f 371/1169/371 114/1175/114 194/34/194
f 303/192/303 372/476/372 373/191/373
vt 0.187454 0.187546
vt 0.187439 0.187561
f 25/1176/25 173/1059/173 70/1177/70
vt 0.019531 0.191406
vt 0.025391 0.190430
vt 0.023438 0.191406
f 356/1178/356 25/1179/25 70/1180/70
f 373/193/373 251/193/251 22/236/22
f 29/1174/29 25/1173/25 356/1083/356
vt 0.007812 0.078125
f 374/77/374 77/1181/77 114/78/114
f 84/90/84 375/92/375 202/544/202
f 375/119/375 304/118/304 239/566/239
vt 0.910156 0.007812
f 202/544/202 375/1182/375 239/94/239
vt 0.460205 0.681641
vt 0.460815 0.680664
f 132/715/132 253/1183/253 174/1184/174
vt 0.435547 0.691895
vt 0.429688 0.697266
vt 0.434570 0.692627
f 174/1185/174 253/1186/253 376/1187/376
vt 0.310547 0.701172
f 376/711/376 281/710/281 174/1188/174
vt 0.433594 0.693359
f 376/1187/376 66/1186/66 242/1189/242
vt 0.433594 0.692871
vt 0.434570 0.692261
vt 0.429688 0.696289
f 358/1190/358 376/1191/376 242/1192/242
f 53/192/53 198/476/198 56/192/56
vt 0.816406 0.772461
f 377/1193/377 82/363/82 260/625/260
vt 0.772949 0.001465
f 58/1194/58 249/724/249 35/553/35
vt 0.046875 0.984375
vt 0.039062 0.996094
vt 0.031250 1.000000
f 59/1195/59 209/1196/209 3/1197/3
vt 0.046875 1.000000
f 209/1196/209 50/1198/50 3/1197/3
vt 0.097656 0.999023
f 209/1199/209 280/284/280 50/681/50
vt 0.097656 0.998047
f 279/680/279 277/682/277 72/1200/72
f 279/386/279 259/214/259 110/810/110
# 675 faces, 1200 coords texture

# End of File
