v 0 0 0
v 0 0 0.1
v 0 0 0.2
v 0 0 0.3
v 0 0 0.4
v 0 0 0.5
v 0 0 0.6
v 0 0 0.7
v 0 0 0.8
v 0 0 0.9
v 0 0 1
v 0 0 1.1
v 0 0 1.2
v 0 0 1.3
v 0 0 1.4
v 0 0 1.5
v 0 0 1.6
v 0 0 1.7
v 0 0 1.8
v 0 0 1.9
v 0.1 0 0
v 0.1 0 0.1
v 0.1 0 0.2
v 0.1 0 0.3
v 0.1 0 0.4
v 0.1 0 0.5
v 0.1 0 0.6
v 0.1 0 0.7
v 0.1 0 0.8
v 0.1 0 0.9
v 0.1 0 1
v 0.1 0 1.1
v 0.1 0 1.2
v 0.1 0 1.3
v 0.1 0 1.4
v 0.1 0 1.5
v 0.1 0 1.6
v 0.1 0 1.7
v 0.1 0 1.8
v 0.1 0 1.9
v 0.2 0 0
v 0.2 0 0.1
v 0.2 0 0.2
v 0.2 0 0.3
v 0.2 0 0.4
v 0.2 0 0.5
v 0.2 0 0.6
v 0.2 0 0.7
v 0.2 0 0.8
v 0.2 0 0.9
v 0.2 0 1
v 0.2 0 1.1
v 0.2 0 1.2
v 0.2 0 1.3
v 0.2 0 1.4
v 0.2 0 1.5
v 0.2 0 1.6
v 0.2 0 1.7
v 0.2 0 1.8
v 0.2 0 1.9
v 0.3 0 0
v 0.3 0 0.1
v 0.3 0 0.2
v 0.3 0 0.3
v 0.3 0 0.4
v 0.3 0 0.5
v 0.3 0 0.6
v 0.3 0 0.7
v 0.3 0 0.8
v 0.3 0 0.9
v 0.3 0 1
v 0.3 0 1.1
v 0.3 0 1.2
v 0.3 0 1.3
v 0.3 0 1.4
v 0.3 0 1.5
v 0.3 0 1.6
v 0.3 0 1.7
v 0.3 0 1.8
v 0.3 0 1.9
v 0.4 0 0
v 0.4 0 0.1
v 0.4 0 0.2
v 0.4 0 0.3
v 0.4 0 0.4
v 0.4 0 0.5
v 0.4 0 0.6
v 0.4 0 0.7
v 0.4 0 0.8
v 0.4 0 0.9
v 0.4 0 1
v 0.4 0 1.1
v 0.4 0 1.2
v 0.4 0 1.3
v 0.4 0 1.4
v 0.4 0 1.5
v 0.4 0 1.6
v 0.4 0 1.7
v 0.4 0 1.8
v 0.4 0 1.9
v 0.5 0 0
v 0.5 0 0.1
v 0.5 0 0.2
v 0.5 0 0.3
v 0.5 0 0.4
v 0.5 0 0.5
v 0.5 0 0.6
v 0.5 0 0.7
v 0.5 0 0.8
v 0.5 0 0.9
v 0.5 0 1
v 0.5 0 1.1
v 0.5 0 1.2
v 0.5 0 1.3
v 0.5 0 1.4
v 0.5 0 1.5
v 0.5 0 1.6
v 0.5 0 1.7
v 0.5 0 1.8
v 0.5 0 1.9
v 0.6 0 0
v 0.6 0 0.1
v 0.6 0 0.2
v 0.6 0 0.3
v 0.6 0 0.4
v 0.6 0 0.5
v 0.6 0 0.6
v 0.6 0 0.7
v 0.6 0 0.8
v 0.6 0 0.9
v 0.6 0 1
v 0.6 0 1.1
v 0.6 0 1.2
v 0.6 0 1.3
v 0.6 0 1.4
v 0.6 0 1.5
v 0.6 0 1.6
v 0.6 0 1.7
v 0.6 0 1.8
v 0.6 0 1.9
v 0.7 0 0
v 0.7 0 0.1
v 0.7 0 0.2
v 0.7 0 0.3
v 0.7 0 0.4
v 0.7 0 0.5
v 0.7 0 0.6
v 0.7 0 0.7
v 0.7 0 0.8
v 0.7 0 0.9
v 0.7 0 1
v 0.7 0 1.1
v 0.7 0 1.2
v 0.7 0 1.3
v 0.7 0 1.4
v 0.7 0 1.5
v 0.7 0 1.6
v 0.7 0 1.7
v 0.7 0 1.8
v 0.7 0 1.9
v 0.8 0 0
v 0.8 0 0.1
v 0.8 0 0.2
v 0.8 0 0.3
v 0.8 0 0.4
v 0.8 0 0.5
v 0.8 0 0.6
v 0.8 0 0.7
v 0.8 0 0.8
v 0.8 0 0.9
v 0.8 0 1
v 0.8 0 1.1
v 0.8 0 1.2
v 0.8 0 1.3
v 0.8 0 1.4
v 0.8 0 1.5
v 0.8 0 1.6
v 0.8 0 1.7
v 0.8 0 1.8
v 0.8 0 1.9
v 0.9 0 0
v 0.9 0 0.1
v 0.9 0 0.2
v 0.9 0 0.3
v 0.9 0 0.4
v 0.9 0 0.5
v 0.9 0 0.6
v 0.9 0 0.7
v 0.9 0 0.8
v 0.9 0 0.9
v 0.9 0 1
v 0.9 0 1.1
v 0.9 0 1.2
v 0.9 0 1.3
v 0.9 0 1.4
v 0.9 0 1.5
v 0.9 0 1.6
v 0.9 0 1.7
v 0.9 0 1.8
v 0.9 0 1.9
v 1 0 0
v 1 0 0.1
v 1 0 0.2
v 1 0 0.3
v 1 0 0.4
v 1 0 0.5
v 1 0 0.6
v 1 0 0.7
v 1 0 0.8
v 1 0 0.9
v 1 0 1
v 1 0 1.1
v 1 0 1.2
v 1 0 1.3
v 1 0 1.4
v 1 0 1.5
v 1 0 1.6
v 1 0 1.7
v 1 0 1.8
v 1 0 1.9
v 1.1 0 0
v 1.1 0 0.1
v 1.1 0 0.2
v 1.1 0 0.3
v 1.1 0 0.4
v 1.1 0 0.5
v 1.1 0 0.6
v 1.1 0 0.7
v 1.1 0 0.8
v 1.1 0 0.9
v 1.1 0 1
v 1.1 0 1.1
v 1.1 0 1.2
v 1.1 0 1.3
v 1.1 0 1.4
v 1.1 0 1.5
v 1.1 0 1.6
v 1.1 0 1.7
v 1.1 0 1.8
v 1.1 0 1.9
v 1.2 0 0
v 1.2 0 0.1
v 1.2 0 0.2
v 1.2 0 0.3
v 1.2 0 0.4
v 1.2 0 0.5
v 1.2 0 0.6
v 1.2 0 0.7
v 1.2 0 0.8
v 1.2 0 0.9
v 1.2 0 1
v 1.2 0 1.1
v 1.2 0 1.2
v 1.2 0 1.3
v 1.2 0 1.4
v 1.2 0 1.5
v 1.2 0 1.6
v 1.2 0 1.7
v 1.2 0 1.8
v 1.2 0 1.9
v 1.3 0 0
v 1.3 0 0.1
v 1.3 0 0.2
v 1.3 0 0.3
v 1.3 0 0.4
v 1.3 0 0.5
v 1.3 0 0.6
v 1.3 0 0.7
v 1.3 0 0.8
v 1.3 0 0.9
v 1.3 0 1
v 1.3 0 1.1
v 1.3 0 1.2
v 1.3 0 1.3
v 1.3 0 1.4
v 1.3 0 1.5
v 1.3 0 1.6
v 1.3 0 1.7
v 1.3 0 1.8
v 1.3 0 1.9
v 1.4 0 0
v 1.4 0 0.1
v 1.4 0 0.2
v 1.4 0 0.3
v 1.4 0 0.4
v 1.4 0 0.5
v 1.4 0 0.6
v 1.4 0 0.7
v 1.4 0 0.8
v 1.4 0 0.9
v 1.4 0 1
v 1.4 0 1.1
v 1.4 0 1.2
v 1.4 0 1.3
v 1.4 0 1.4
v 1.4 0 1.5
v 1.4 0 1.6
v 1.4 0 1.7
v 1.4 0 1.8
v 1.4 0 1.9
v 1.5 0 0
v 1.5 0 0.1
v 1.5 0 0.2
v 1.5 0 0.3
v 1.5 0 0.4
v 1.5 0 0.5
v 1.5 0 0.6
v 1.5 0 0.7
v 1.5 0 0.8
v 1.5 0 0.9
v 1.5 0 1
v 1.5 0 1.1
v 1.5 0 1.2
v 1.5 0 1.3
v 1.5 0 1.4
v 1.5 0 1.5
v 1.5 0 1.6
v 1.5 0 1.7
v 1.5 0 1.8
v 1.5 0 1.9
v 1.6 0 0
v 1.6 0 0.1
v 1.6 0 0.2
v 1.6 0 0.3
v 1.6 0 0.4
v 1.6 0 0.5
v 1.6 0 0.6
v 1.6 0 0.7
v 1.6 0 0.8
v 1.6 0 0.9
v 1.6 0 1
v 1.6 0 1.1
v 1.6 0 1.2
v 1.6 0 1.3
v 1.6 0 1.4
v 1.6 0 1.5
v 1.6 0 1.6
v 1.6 0 1.7
v 1.6 0 1.8
v 1.6 0 1.9
v 1.7 0 0
v 1.7 0 0.1
v 1.7 0 0.2
v 1.7 0 0.3
v 1.7 0 0.4
v 1.7 0 0.5
v 1.7 0 0.6
v 1.7 0 0.7
v 1.7 0 0.8
v 1.7 0 0.9
v 1.7 0 1
v 1.7 0 1.1
v 1.7 0 1.2
v 1.7 0 1.3
v 1.7 0 1.4
v 1.7 0 1.5
v 1.7 0 1.6
v 1.7 0 1.7
v 1.7 0 1.8
v 1.7 0 1.9
v 1.8 0 0
v 1.8 0 0.1
v 1.8 0 0.2
v 1.8 0 0.3
v 1.8 0 0.4
v 1.8 0 0.5
v 1.8 0 0.6
v 1.8 0 0.7
v 1.8 0 0.8
v 1.8 0 0.9
v 1.8 0 1
v 1.8 0 1.1
v 1.8 0 1.2
v 1.8 0 1.3
v 1.8 0 1.4
v 1.8 0 1.5
v 1.8 0 1.6
v 1.8 0 1.7
v 1.8 0 1.8
v 1.8 0 1.9
v 1.9 0 0
v 1.9 0 0.1
v 1.9 0 0.2
v 1.9 0 0.3
v 1.9 0 0.4
v 1.9 0 0.5
v 1.9 0 0.6
v 1.9 0 0.7
v 1.9 0 0.8
v 1.9 0 0.9
v 1.9 0 1
v 1.9 0 1.1
v 1.9 0 1.2
v 1.9 0 1.3
v 1.9 0 1.4
v 1.9 0 1.5
v 1.9 0 1.6
v 1.9 0 1.7
v 1.9 0 1.8
v 1.9 0 1.9
f 1 2 21
f 2 22 21
f 2 3 23
f 2 23 22
f 3 4 23
f 4 24 23
f 4 5 25
f 4 25 24
f 5 6 25
f 6 26 25
f 6 7 27
f 6 27 26
f 7 8 27
f 8 28 27
f 8 9 29
f 8 29 28
f 9 10 29
f 10 30 29
f 10 11 31
f 10 31 30
f 11 12 31
f 12 32 31
f 12 13 33
f 12 33 32
f 13 14 33
f 14 34 33
f 14 15 35
f 14 35 34
f 15 16 35
f 16 36 35
f 16 17 37
f 16 37 36
f 17 18 37
f 18 38 37
f 18 19 39
f 18 39 38
f 19 20 39
f 20 40 39
f 21 22 42
f 21 42 41
f 22 23 42
f 23 43 42
f 23 24 44
f 23 44 43
f 24 25 44
f 25 45 44
f 25 26 46
f 25 46 45
f 26 27 46
f 27 47 46
f 27 28 48
f 27 48 47
f 28 29 48
f 29 49 48
f 29 30 50
f 29 50 49
f 30 31 50
f 31 51 50
f 31 32 52
f 31 52 51
f 32 33 52
f 33 53 52
f 33 34 54
f 33 54 53
f 34 35 54
f 35 55 54
f 35 36 56
f 35 56 55
f 36 37 56
f 37 57 56
f 37 38 58
f 37 58 57
f 38 39 58
f 39 59 58
f 39 40 60
f 39 60 59
f 41 42 61
f 42 62 61
f 42 43 63
f 42 63 62
f 43 44 63
f 44 64 63
f 44 45 65
f 44 65 64
f 45 46 65
f 46 66 65
f 46 47 67
f 46 67 66
f 47 48 67
f 48 68 67
f 48 49 69
f 48 69 68
f 49 50 69
f 50 70 69
f 50 51 71
f 50 71 70
f 51 52 71
f 52 72 71
f 52 53 73
f 52 73 72
f 53 54 73
f 54 74 73
f 54 55 75
f 54 75 74
f 55 56 75
f 56 76 75
f 56 57 77
f 56 77 76
f 57 58 77
f 58 78 77
f 58 59 79
f 58 79 78
f 59 60 79
f 60 80 79
f 61 62 82
f 61 82 81
f 62 63 82
f 63 83 82
f 63 64 84
f 63 84 83
f 64 65 84
f 65 85 84
f 65 66 86
f 65 86 85
f 66 67 86
f 67 87 86
f 67 68 88
f 67 88 87
f 68 69 88
f 69 89 88
f 69 70 90
f 69 90 89
f 70 71 90
f 71 91 90
f 71 72 92
f 71 92 91
f 72 73 92
f 73 93 92
f 73 74 94
f 73 94 93
f 74 75 94
f 75 95 94
f 75 76 96
f 75 96 95
f 76 77 96
f 77 97 96
f 77 78 98
f 77 98 97
f 78 79 98
f 79 99 98
f 79 80 100
f 79 100 99
f 81 82 101
f 82 102 101
f 82 83 103
f 82 103 102
f 83 84 103
f 84 104 103
f 84 85 105
f 84 105 104
f 85 86 105
f 86 106 105
f 86 87 107
f 86 107 106
f 87 88 107
f 88 108 107
f 88 89 109
f 88 109 108
f 89 90 109
f 90 110 109
f 90 91 111
f 90 111 110
f 91 92 111
f 92 112 111
f 92 93 113
f 92 113 112
f 93 94 113
f 94 114 113
f 94 95 115
f 94 115 114
f 95 96 115
f 96 116 115
f 96 97 117
f 96 117 116
f 97 98 117
f 98 118 117
f 98 99 119
f 98 119 118
f 99 100 119
f 100 120 119
f 101 102 122
f 101 122 121
f 102 103 122
f 103 123 122
f 103 104 124
f 103 124 123
f 104 105 124
f 105 125 124
f 105 106 126
f 105 126 125
f 106 107 126
f 107 127 126
f 107 108 128
f 107 128 127
f 108 109 128
f 109 129 128
f 109 110 130
f 109 130 129
f 110 111 130
f 111 131 130
f 111 112 132
f 111 132 131
f 112 113 132
f 113 133 132
f 113 114 134
f 113 134 133
f 114 115 134
f 115 135 134
f 115 116 136
f 115 136 135
f 116 117 136
f 117 137 136
f 117 118 138
f 117 138 137
f 118 119 138
f 119 139 138
f 119 120 140
f 119 140 139
f 121 122 141
f 122 142 141
f 122 123 143
f 122 143 142
f 123 124 143
f 124 144 143
f 124 125 145
f 124 145 144
f 125 126 145
f 126 146 145
f 126 127 147
f 126 147 146
f 127 128 147
f 128 148 147
f 128 129 149
f 128 149 148
f 129 130 149
f 130 150 149
f 130 131 151
f 130 151 150
f 131 132 151
f 132 152 151
f 132 133 153
f 132 153 152
f 133 134 153
f 134 154 153
f 134 135 155
f 134 155 154
f 135 136 155
f 136 156 155
f 136 137 157
f 136 157 156
f 137 138 157
f 138 158 157
f 138 139 159
f 138 159 158
f 139 140 159
f 140 160 159
f 141 142 162
f 141 162 161
f 142 143 162
f 143 163 162
f 143 144 164
f 143 164 163
f 144 145 164
f 145 165 164
f 145 146 166
f 145 166 165
f 146 147 166
f 147 167 166
f 147 148 168
f 147 168 167
f 148 149 168
f 149 169 168
f 149 150 170
f 149 170 169
f 150 151 170
f 151 171 170
f 151 152 172
f 151 172 171
f 152 153 172
f 153 173 172
f 153 154 174
f 153 174 173
f 154 155 174
f 155 175 174
f 155 156 176
f 155 176 175
f 156 157 176
f 157 177 176
f 157 158 178
f 157 178 177
f 158 159 178
f 159 179 178
f 159 160 180
f 159 180 179
f 161 162 181
f 162 182 181
f 162 163 183
f 162 183 182
f 163 164 183
f 164 184 183
f 164 165 185
f 164 185 184
f 165 166 185
f 166 186 185
f 166 167 187
f 166 187 186
f 167 168 187
f 168 188 187
f 168 169 189
f 168 189 188
f 169 170 189
f 170 190 189
f 170 171 191
f 170 191 190
f 171 172 191
f 172 192 191
f 172 173 193
f 172 193 192
f 173 174 193
f 174 194 193
f 174 175 195
f 174 195 194
f 175 176 195
f 176 196 195
f 176 177 197
f 176 197 196
f 177 178 197
f 178 198 197
f 178 179 199
f 178 199 198
f 179 180 199
f 180 200 199
f 181 182 202
f 181 202 201
f 182 183 202
f 183 203 202
f 183 184 204
f 183 204 203
f 184 185 204
f 185 205 204
f 185 186 206
f 185 206 205
f 186 187 206
f 187 207 206
f 187 188 208
f 187 208 207
f 188 189 208
f 189 209 208
f 189 190 210
f 189 210 209
f 190 191 210
f 191 211 210
f 191 192 212
f 191 212 211
f 192 193 212
f 193 213 212
f 193 194 214
f 193 214 213
f 194 195 214
f 195 215 214
f 195 196 216
f 195 216 215
f 196 197 216
f 197 217 216
f 197 198 218
f 197 218 217
f 198 199 218
f 199 219 218
f 199 200 220
f 199 220 219
f 201 202 221
f 202 222 221
f 202 203 223
f 202 223 222
f 203 204 223
f 204 224 223
f 204 205 225
f 204 225 224
f 205 206 225
f 206 226 225
f 206 207 227
f 206 227 226
f 207 208 227
f 208 228 227
f 208 209 229
f 208 229 228
f 209 210 229
f 210 230 229
f 210 211 231
f 210 231 230
f 211 212 231
f 212 232 231
f 212 213 233
f 212 233 232
f 213 214 233
f 214 234 233
f 214 215 235
f 214 235 234
f 215 216 235
f 216 236 235
f 216 217 237
f 216 237 236
f 217 218 237
f 218 238 237
f 218 219 239
f 218 239 238
f 219 220 239
f 220 240 239
f 221 222 242
f 221 242 241
f 222 223 242
f 223 243 242
f 223 224 244
f 223 244 243
f 224 225 244
f 225 245 244
f 225 226 246
f 225 246 245
f 226 227 246
f 227 247 246
f 227 228 248
f 227 248 247
f 228 229 248
f 229 249 248
f 229 230 250
f 229 250 249
f 230 231 250
f 231 251 250
f 231 232 252
f 231 252 251
f 232 233 252
f 233 253 252
f 233 234 254
f 233 254 253
f 234 235 254
f 235 255 254
f 235 236 256
f 235 256 255
f 236 237 256
f 237 257 256
f 237 238 258
f 237 258 257
f 238 239 258
f 239 259 258
f 239 240 260
f 239 260 259
f 241 242 261
f 242 262 261
f 242 243 263
f 242 263 262
f 243 244 263
f 244 264 263
f 244 245 265
f 244 265 264
f 245 246 265
f 246 266 265
f 246 247 267
f 246 267 266
f 247 248 267
f 248 268 267
f 248 249 269
f 248 269 268
f 249 250 269
f 250 270 269
f 250 251 271
f 250 271 270
f 251 252 271
f 252 272 271
f 252 253 273
f 252 273 272
f 253 254 273
f 254 274 273
f 254 255 275
f 254 275 274
f 255 256 275
f 256 276 275
f 256 257 277
f 256 277 276
f 257 258 277
f 258 278 277
f 258 259 279
f 258 279 278
f 259 260 279
f 260 280 279
f 261 262 282
f 261 282 281
f 262 263 282
f 263 283 282
f 263 264 284
f 263 284 283
f 264 265 284
f 265 285 284
f 265 266 286
f 265 286 285
f 266 267 286
f 267 287 286
f 267 268 288
f 267 288 287
f 268 269 288
f 269 289 288
f 269 270 290
f 269 290 289
f 270 271 290
f 271 291 290
f 271 272 292
f 271 292 291
f 272 273 292
f 273 293 292
f 273 274 294
f 273 294 293
f 274 275 294
f 275 295 294
f 275 276 296
f 275 296 295
f 276 277 296
f 277 297 296
f 277 278 298
f 277 298 297
f 278 279 298
f 279 299 298
f 279 280 300
f 279 300 299
f 281 282 301
f 282 302 301
f 282 283 303
f 282 303 302
f 283 284 303
f 284 304 303
f 284 285 305
f 284 305 304
f 285 286 305
f 286 306 305
f 286 287 307
f 286 307 306
f 287 288 307
f 288 308 307
f 288 289 309
f 288 309 308
f 289 290 309
f 290 310 309
f 290 291 311
f 290 311 310
f 291 292 311
f 292 312 311
f 292 293 313
f 292 313 312
f 293 294 313
f 294 314 313
f 294 295 315
f 294 315 314
f 295 296 315
f 296 316 315
f 296 297 317
f 296 317 316
f 297 298 317
f 298 318 317
f 298 299 319
f 298 319 318
f 299 300 319
f 300 320 319
f 301 302 322
f 301 322 321
f 302 303 322
f 303 323 322
f 303 304 324
f 303 324 323
f 304 305 324
f 305 325 324
f 305 306 326
f 305 326 325
f 306 307 326
f 307 327 326
f 307 308 328
f 307 328 327
f 308 309 328
f 309 329 328
f 309 310 330
f 309 330 329
f 310 311 330
f 311 331 330
f 311 312 332
f 311 332 331
f 312 313 332
f 313 333 332
f 313 314 334
f 313 334 333
f 314 315 334
f 315 335 334
f 315 316 336
f 315 336 335
f 316 317 336
f 317 337 336
f 317 318 338
f 317 338 337
f 318 319 338
f 319 339 338
f 319 320 340
f 319 340 339
f 321 322 341
f 322 342 341
f 322 323 343
f 322 343 342
f 323 324 343
f 324 344 343
f 324 325 345
f 324 345 344
f 325 326 345
f 326 346 345
f 326 327 347
f 326 347 346
f 327 328 347
f 328 348 347
f 328 329 349
f 328 349 348
f 329 330 349
f 330 350 349
f 330 331 351
f 330 351 350
f 331 332 351
f 332 352 351
f 332 333 353
f 332 353 352
f 333 334 353
f 334 354 353
f 334 335 355
f 334 355 354
f 335 336 355
f 336 356 355
f 336 337 357
f 336 357 356
f 337 338 357
f 338 358 357
f 338 339 359
f 338 359 358
f 339 340 359
f 340 360 359
f 341 342 362
f 341 362 361
f 342 343 362
f 343 363 362
f 343 344 364
f 343 364 363
f 344 345 364
f 345 365 364
f 345 346 366
f 345 366 365
f 346 347 366
f 347 367 366
f 347 348 368
f 347 368 367
f 348 349 368
f 349 369 368
f 349 350 370
f 349 370 369
f 350 351 370
f 351 371 370
f 351 352 372
f 351 372 371
f 352 353 372
f 353 373 372
f 353 354 374
f 353 374 373
f 354 355 374
f 355 375 374
f 355 356 376
f 355 376 375
f 356 357 376
f 357 377 376
f 357 358 378
f 357 378 377
f 358 359 378
f 359 379 378
f 359 360 380
f 359 380 379
f 361 362 381
f 362 382 381
f 362 363 383
f 362 383 382
f 363 364 383
f 364 384 383
f 364 365 385
f 364 385 384
f 365 366 385
f 366 386 385
f 366 367 387
f 366 387 386
f 367 368 387
f 368 388 387
f 368 369 389
f 368 389 388
f 369 370 389
f 370 390 389
f 370 371 391
f 370 391 390
f 371 372 391
f 372 392 391
f 372 373 393
f 372 393 392
f 373 374 393
f 374 394 393
f 374 375 395
f 374 395 394
f 375 376 395
f 376 396 395
f 376 377 397
f 376 397 396
f 377 378 397
f 378 398 397
f 378 379 399
f 378 399 398
f 379 380 399
f 380 400 399
